G04 #@! TF.GenerationSoftware,KiCad,Pcbnew,7.0.5*
G04 #@! TF.CreationDate,2023-09-30T22:10:44+03:00*
G04 #@! TF.ProjectId,RP2040_minimal - Copy,52503230-3430-45f6-9d69-6e696d616c20,REV1*
G04 #@! TF.SameCoordinates,Original*
G04 #@! TF.FileFunction,Profile,NP*
%FSLAX46Y46*%
G04 Gerber Fmt 4.6, Leading zero omitted, Abs format (unit mm)*
G04 Created by KiCad (PCBNEW 7.0.5) date 2023-09-30 22:10:44*
%MOMM*%
%LPD*%
G01*
G04 APERTURE LIST*
G04 #@! TA.AperFunction,Profile*
%ADD10C,0.100000*%
G04 #@! TD*
G04 APERTURE END LIST*
D10*
X145066593Y-41814328D02*
X145066593Y-28660246D01*
X148186593Y-28663176D02*
X148183408Y-41814328D01*
X147530112Y-27730927D02*
X147575448Y-27748415D01*
X147293629Y-24668283D02*
X147245169Y-24671857D01*
X148069692Y-24149734D02*
X148045741Y-24192013D01*
X148111230Y-28284198D02*
X148128718Y-28329533D01*
X147824640Y-27897775D02*
X147861434Y-27929514D01*
X148091539Y-24106331D02*
X148069692Y-24149734D01*
X147483973Y-27715685D02*
X147530112Y-27730927D01*
X147786333Y-24478226D02*
X147746605Y-24506205D01*
X147619871Y-27768106D02*
X147663274Y-27789954D01*
X147746605Y-27839901D02*
X147786333Y-27867880D01*
X147930132Y-24347894D02*
X147896626Y-24383087D01*
X147961871Y-24311100D02*
X147930132Y-24347894D01*
X147663274Y-27789954D02*
X147705553Y-27813904D01*
X147437142Y-24643381D02*
X147389731Y-24654027D01*
X148045741Y-24192013D02*
X148019745Y-24233066D01*
X148181822Y-23780090D02*
X148175874Y-23828316D01*
X148175874Y-23828316D02*
X148167567Y-23876192D01*
X147437142Y-27702725D02*
X147483973Y-27715685D01*
X147746605Y-24506205D02*
X147705553Y-24532202D01*
X148185397Y-23731630D02*
X148181822Y-23780090D01*
X147786333Y-27867880D02*
X147824640Y-27897775D01*
X148185397Y-28614476D02*
X148186593Y-28663176D01*
X147389731Y-24654027D02*
X147341855Y-24662335D01*
X147619871Y-24578000D02*
X147575448Y-24597691D01*
X148175874Y-28517790D02*
X148181822Y-28566016D01*
X148111230Y-24061908D02*
X148091539Y-24106331D01*
X148186593Y-23682930D02*
X148185397Y-23731630D01*
X147293629Y-27677823D02*
X147341855Y-27683771D01*
X147341855Y-27683771D02*
X147389731Y-27692079D01*
X147705553Y-27813904D02*
X147746605Y-27839901D01*
X147245169Y-24671857D02*
X147196470Y-24673053D01*
X148181822Y-28566016D02*
X148185397Y-28614476D01*
X147483973Y-24630421D02*
X147437142Y-24643381D01*
X147575448Y-24597691D02*
X147530112Y-24615179D01*
X147991766Y-24272794D02*
X147961871Y-24311100D01*
X147861434Y-24416592D02*
X147824640Y-24448331D01*
X148091539Y-28239775D02*
X148111230Y-28284198D01*
X148156921Y-28422503D02*
X148167567Y-28469914D01*
X148143961Y-28375672D02*
X148156921Y-28422503D01*
X148156921Y-23923603D02*
X148143961Y-23970434D01*
X147575448Y-27748415D02*
X147619871Y-27768106D01*
X148019745Y-24233066D02*
X147991766Y-24272794D01*
X147961871Y-28035006D02*
X147991766Y-28073312D01*
X147861434Y-27929514D02*
X147896626Y-27963019D01*
X147705553Y-24532202D02*
X147663274Y-24556152D01*
X147389731Y-27692079D02*
X147437142Y-27702725D01*
X148019745Y-28113040D02*
X148045741Y-28154093D01*
X147930132Y-27998212D02*
X147961871Y-28035006D01*
X147896626Y-27963019D02*
X147930132Y-27998212D01*
X147663274Y-24556152D02*
X147619871Y-24578000D01*
X148167567Y-23876192D02*
X148156921Y-23923603D01*
X147824640Y-24448331D02*
X147786333Y-24478226D01*
X148045741Y-28154093D02*
X148069692Y-28196372D01*
X147530112Y-24615179D02*
X147483973Y-24630421D01*
X148069692Y-28196372D02*
X148091539Y-28239775D01*
X147341855Y-24662335D02*
X147293629Y-24668283D01*
X148143961Y-23970434D02*
X148128718Y-24016573D01*
X147991766Y-28073312D02*
X148019745Y-28113040D01*
X148128718Y-28329533D02*
X148143961Y-28375672D01*
X147196470Y-27673053D02*
X147245169Y-27674249D01*
X147896626Y-24383087D02*
X147861434Y-24416592D01*
X148128718Y-24016573D02*
X148111230Y-24061908D01*
X147245169Y-27674249D02*
X147293629Y-27677823D01*
X148167567Y-28469914D02*
X148175874Y-28517790D01*
X146008017Y-27671319D02*
X146056716Y-27670123D01*
X145183494Y-28193442D02*
X145207445Y-28151163D01*
X145723074Y-27727997D02*
X145769213Y-27712755D01*
X145633315Y-27765176D02*
X145677738Y-27745485D01*
X145816044Y-27699795D02*
X145863455Y-27689149D01*
X145428546Y-24445401D02*
X145391752Y-24413662D01*
X145589912Y-27787024D02*
X145633315Y-27765176D01*
X145261420Y-24269864D02*
X145233441Y-24230136D01*
X145085619Y-28466984D02*
X145096265Y-28419573D01*
X145077312Y-23825386D02*
X145071364Y-23777160D01*
X145911331Y-27680841D02*
X145959557Y-27674893D01*
X145071364Y-28563086D02*
X145077312Y-28514860D01*
X145207445Y-28151163D02*
X145233441Y-28110110D01*
X145959557Y-27674893D02*
X146008017Y-27671319D01*
X145677738Y-24594761D02*
X145633315Y-24575070D01*
X145769213Y-27712755D02*
X145816044Y-27699795D01*
X145291315Y-24308170D02*
X145261420Y-24269864D01*
X145096265Y-28419573D02*
X145109225Y-28372742D01*
X145547633Y-27810974D02*
X145589912Y-27787024D01*
X145769213Y-24627491D02*
X145723074Y-24612249D01*
X145863455Y-24651097D02*
X145816044Y-24640451D01*
X146008017Y-24668927D02*
X145959557Y-24665353D01*
X145109225Y-28372742D02*
X145124468Y-28326603D01*
X145911331Y-24659405D02*
X145863455Y-24651097D01*
X145391752Y-27926584D02*
X145428546Y-27894845D01*
X145428546Y-27894845D02*
X145466853Y-27864950D01*
X145723074Y-24612249D02*
X145677738Y-24594761D01*
X145066593Y-28660246D02*
X145067789Y-28611546D01*
X145959557Y-24665353D02*
X145911331Y-24659405D01*
X145161647Y-24103401D02*
X145141956Y-24058978D01*
X145233441Y-24230136D02*
X145207445Y-24189083D01*
X145085619Y-23873262D02*
X145077312Y-23825386D01*
X145589912Y-24553222D02*
X145547633Y-24529272D01*
X145071364Y-23777160D02*
X145067789Y-23728700D01*
X145124468Y-24013643D02*
X145109225Y-23967504D01*
X145067789Y-23728700D02*
X145066593Y-23680000D01*
X145323054Y-24344964D02*
X145291315Y-24308170D01*
X145233441Y-28110110D02*
X145261420Y-28070382D01*
X145291315Y-28032076D02*
X145323054Y-27995282D01*
X145109225Y-23967504D02*
X145096265Y-23920673D01*
X145207445Y-24189083D02*
X145183494Y-24146804D01*
X145677738Y-27745485D02*
X145723074Y-27727997D01*
X145391752Y-24413662D02*
X145356560Y-24380157D01*
X145067789Y-28611546D02*
X145071364Y-28563086D01*
X145547633Y-24529272D02*
X145506581Y-24503275D01*
X145141956Y-24058978D02*
X145124468Y-24013643D01*
X145356560Y-24380157D02*
X145323054Y-24344964D01*
X145816044Y-24640451D02*
X145769213Y-24627491D01*
X145141956Y-28281268D02*
X145161647Y-28236845D01*
X145261420Y-28070382D02*
X145291315Y-28032076D01*
X145077312Y-28514860D02*
X145085619Y-28466984D01*
X145863455Y-27689149D02*
X145911331Y-27680841D01*
X145356560Y-27960089D02*
X145391752Y-27926584D01*
X145096265Y-23920673D02*
X145085619Y-23873262D01*
X145183494Y-24146804D02*
X145161647Y-24103401D01*
X145161647Y-28236845D02*
X145183494Y-28193442D01*
X145466853Y-24475296D02*
X145428546Y-24445401D01*
X145466853Y-27864950D02*
X145506581Y-27836971D01*
X145323054Y-27995282D02*
X145356560Y-27960089D01*
X146056716Y-24670123D02*
X146008017Y-24668927D01*
X145633315Y-24575070D02*
X145589912Y-24553222D01*
X145124468Y-28326603D02*
X145141956Y-28281268D01*
X145506581Y-27836971D02*
X145547633Y-27810974D01*
X145506581Y-24503275D02*
X145466853Y-24475296D01*
X146056716Y-24670123D02*
X147196470Y-24673053D01*
X146056716Y-27670123D02*
X147196470Y-27673053D01*
X190383609Y-109946824D02*
X190380424Y-97400547D01*
X193386593Y-109949754D02*
X193383408Y-97403477D01*
X193383408Y-92423231D02*
X193386593Y-83030000D01*
X190380424Y-92420301D02*
X190383609Y-83027070D01*
X190380424Y-41811398D02*
X190380424Y-30910370D01*
X193383408Y-41814328D02*
X193383408Y-30913300D01*
X193386593Y-58629754D02*
X193383408Y-46794574D01*
X190383609Y-58626824D02*
X190380424Y-46791644D01*
X191373732Y-59616947D02*
X192396470Y-59619877D01*
X191373732Y-62616947D02*
X192396470Y-62619877D01*
X190608331Y-62978900D02*
X190640070Y-62942106D01*
X190673576Y-62906913D02*
X190708768Y-62873408D01*
X191276573Y-62621717D02*
X191325033Y-62618143D01*
X190388380Y-63509910D02*
X190394328Y-63461684D01*
X190864649Y-59476096D02*
X190823597Y-59450099D01*
X190384805Y-63558370D02*
X190388380Y-63509910D01*
X191180471Y-62635973D02*
X191228347Y-62627665D01*
X190640070Y-59291788D02*
X190608331Y-59254994D01*
X190994754Y-59541585D02*
X190950331Y-59521894D01*
X190388380Y-58723984D02*
X190384805Y-58675524D01*
X190394328Y-58772210D02*
X190388380Y-58723984D01*
X191373732Y-59616947D02*
X191325033Y-59615751D01*
X191228347Y-62627665D02*
X191276573Y-62621717D01*
X191228347Y-59606229D02*
X191180471Y-59597921D01*
X190458972Y-63228092D02*
X190478663Y-63183669D01*
X190426241Y-58914328D02*
X190413281Y-58867497D01*
X191040090Y-62674821D02*
X191086229Y-62659579D01*
X190384805Y-58675524D02*
X190383609Y-58626824D01*
X190578436Y-63017206D02*
X190608331Y-62978900D01*
X190458972Y-59005802D02*
X190441484Y-58960467D01*
X190673576Y-59326981D02*
X190640070Y-59291788D01*
X190550457Y-63056934D02*
X190578436Y-63017206D01*
X191133060Y-59587275D02*
X191086229Y-59574315D01*
X191276573Y-59612177D02*
X191228347Y-59606229D01*
X190524461Y-59135907D02*
X190500510Y-59093628D01*
X190383609Y-63607070D02*
X190384805Y-63558370D01*
X190823597Y-62783795D02*
X190864649Y-62757798D01*
X190441484Y-58960467D02*
X190426241Y-58914328D01*
X190640070Y-62942106D02*
X190673576Y-62906913D01*
X190426241Y-63319566D02*
X190441484Y-63273427D01*
X190413281Y-58867497D02*
X190402635Y-58820086D01*
X191325033Y-62618143D02*
X191373732Y-62616947D01*
X190413281Y-63366397D02*
X190426241Y-63319566D01*
X190402635Y-58820086D02*
X190394328Y-58772210D01*
X190950331Y-59521894D02*
X190906928Y-59500046D01*
X190578436Y-59216688D02*
X190550457Y-59176960D01*
X190864649Y-62757798D02*
X190906928Y-62733848D01*
X190994754Y-62692309D02*
X191040090Y-62674821D01*
X190708768Y-62873408D02*
X190745562Y-62841669D01*
X190608331Y-59254994D02*
X190578436Y-59216688D01*
X190708768Y-59360486D02*
X190673576Y-59326981D01*
X190478663Y-63183669D02*
X190500510Y-63140266D01*
X190441484Y-63273427D02*
X190458972Y-63228092D01*
X191180471Y-59597921D02*
X191133060Y-59587275D01*
X190745562Y-59392225D02*
X190708768Y-59360486D01*
X190906928Y-62733848D02*
X190950331Y-62712000D01*
X190745562Y-62841669D02*
X190783869Y-62811774D01*
X190402635Y-63413808D02*
X190413281Y-63366397D01*
X191040090Y-59559073D02*
X190994754Y-59541585D01*
X190823597Y-59450099D02*
X190783869Y-59422120D01*
X190478663Y-59050225D02*
X190458972Y-59005802D01*
X191133060Y-62646619D02*
X191180471Y-62635973D01*
X191086229Y-62659579D02*
X191133060Y-62646619D01*
X191086229Y-59574315D02*
X191040090Y-59559073D01*
X190950331Y-62712000D02*
X190994754Y-62692309D01*
X190394328Y-63461684D02*
X190402635Y-63413808D01*
X191325033Y-59615751D02*
X191276573Y-59612177D01*
X190906928Y-59500046D02*
X190864649Y-59476096D01*
X190550457Y-59176960D02*
X190524461Y-59135907D01*
X190783869Y-59422120D02*
X190745562Y-59392225D01*
X190783869Y-62811774D02*
X190823597Y-62783795D01*
X190500510Y-63140266D02*
X190524461Y-63097987D01*
X190500510Y-59093628D02*
X190478663Y-59050225D01*
X190524461Y-63097987D02*
X190550457Y-63056934D01*
X193219745Y-59179890D02*
X193191766Y-59219618D01*
X192445169Y-62621073D02*
X192493629Y-62624647D01*
X193367567Y-63416738D02*
X193375874Y-63464614D01*
X193096626Y-59329911D02*
X193061434Y-59363416D01*
X193219745Y-63059864D02*
X193245741Y-63100917D01*
X193386593Y-58629754D02*
X193385397Y-58678454D01*
X192775448Y-59544515D02*
X192730112Y-59562003D01*
X193291539Y-59053155D02*
X193269692Y-59096558D01*
X193096626Y-62909843D02*
X193130132Y-62945036D01*
X192730112Y-62677751D02*
X192775448Y-62695239D01*
X193269692Y-63143196D02*
X193291539Y-63186599D01*
X192541855Y-59609159D02*
X192493629Y-59615107D01*
X192905553Y-59479026D02*
X192863274Y-59502976D01*
X193130132Y-59294718D02*
X193096626Y-59329911D01*
X193311230Y-59008732D02*
X193291539Y-59053155D01*
X192589731Y-62638903D02*
X192637142Y-62649549D01*
X193385397Y-63561300D02*
X193386593Y-63610000D01*
X193375874Y-58775140D02*
X193367567Y-58823016D01*
X192986333Y-59425050D02*
X192946605Y-59453029D01*
X193161871Y-62981830D02*
X193191766Y-63020136D01*
X193311230Y-63231022D02*
X193328718Y-63276357D01*
X192819871Y-62714930D02*
X192863274Y-62736778D01*
X192730112Y-59562003D02*
X192683973Y-59577245D01*
X192775448Y-62695239D02*
X192819871Y-62714930D01*
X193291539Y-63186599D02*
X193311230Y-63231022D01*
X193024640Y-62844599D02*
X193061434Y-62876338D01*
X193130132Y-62945036D02*
X193161871Y-62981830D01*
X192493629Y-62624647D02*
X192541855Y-62630595D01*
X193367567Y-58823016D02*
X193356921Y-58870427D01*
X192493629Y-59615107D02*
X192445169Y-59618681D01*
X192637142Y-59590205D02*
X192589731Y-59600851D01*
X193381822Y-63512840D02*
X193385397Y-63561300D01*
X192946605Y-62786725D02*
X192986333Y-62814704D01*
X192986333Y-62814704D02*
X193024640Y-62844599D01*
X193061434Y-62876338D02*
X193096626Y-62909843D01*
X192683973Y-59577245D02*
X192637142Y-59590205D01*
X192541855Y-62630595D02*
X192589731Y-62638903D01*
X192589731Y-59600851D02*
X192541855Y-59609159D01*
X193356921Y-63369327D02*
X193367567Y-63416738D01*
X193269692Y-59096558D02*
X193245741Y-59138837D01*
X193343961Y-63322496D02*
X193356921Y-63369327D01*
X192683973Y-62662509D02*
X192730112Y-62677751D01*
X193245741Y-59138837D02*
X193219745Y-59179890D01*
X192946605Y-59453029D02*
X192905553Y-59479026D01*
X192445169Y-59618681D02*
X192396470Y-59619877D01*
X193385397Y-58678454D02*
X193381822Y-58726914D01*
X193161871Y-59257924D02*
X193130132Y-59294718D01*
X193343961Y-58917258D02*
X193328718Y-58963397D01*
X192863274Y-59502976D02*
X192819871Y-59524824D01*
X193328718Y-63276357D02*
X193343961Y-63322496D01*
X193191766Y-59219618D02*
X193161871Y-59257924D01*
X193381822Y-58726914D02*
X193375874Y-58775140D01*
X193328718Y-58963397D02*
X193311230Y-59008732D01*
X193245741Y-63100917D02*
X193269692Y-63143196D01*
X192637142Y-62649549D02*
X192683973Y-62662509D01*
X193191766Y-63020136D02*
X193219745Y-63059864D01*
X193356921Y-58870427D02*
X193343961Y-58917258D01*
X193375874Y-63464614D02*
X193381822Y-63512840D01*
X193024640Y-59395155D02*
X192986333Y-59425050D01*
X192863274Y-62736778D02*
X192905553Y-62760728D01*
X193061434Y-59363416D02*
X193024640Y-59395155D01*
X192819871Y-59524824D02*
X192775448Y-59544515D01*
X192905553Y-62760728D02*
X192946605Y-62786725D01*
X192396470Y-62619877D02*
X192445169Y-62621073D01*
X191373732Y-110936947D02*
X192396470Y-110939877D01*
X191373732Y-113936947D02*
X192396470Y-113939877D01*
X190608331Y-114298900D02*
X190640070Y-114262106D01*
X190673576Y-114226913D02*
X190708768Y-114193408D01*
X191276573Y-113941717D02*
X191325033Y-113938143D01*
X190388380Y-114829910D02*
X190394328Y-114781684D01*
X190864649Y-110796096D02*
X190823597Y-110770099D01*
X190384805Y-114878370D02*
X190388380Y-114829910D01*
X191180471Y-113955973D02*
X191228347Y-113947665D01*
X190640070Y-110611788D02*
X190608331Y-110574994D01*
X190994754Y-110861585D02*
X190950331Y-110841894D01*
X190388380Y-110043984D02*
X190384805Y-109995524D01*
X190394328Y-110092210D02*
X190388380Y-110043984D01*
X191373732Y-110936947D02*
X191325033Y-110935751D01*
X191228347Y-113947665D02*
X191276573Y-113941717D01*
X191228347Y-110926229D02*
X191180471Y-110917921D01*
X190458972Y-114548092D02*
X190478663Y-114503669D01*
X190426241Y-110234328D02*
X190413281Y-110187497D01*
X191040090Y-113994821D02*
X191086229Y-113979579D01*
X190384805Y-109995524D02*
X190383609Y-109946824D01*
X190578436Y-114337206D02*
X190608331Y-114298900D01*
X190458972Y-110325802D02*
X190441484Y-110280467D01*
X190673576Y-110646981D02*
X190640070Y-110611788D01*
X190550457Y-114376934D02*
X190578436Y-114337206D01*
X191133060Y-110907275D02*
X191086229Y-110894315D01*
X191276573Y-110932177D02*
X191228347Y-110926229D01*
X190524461Y-110455907D02*
X190500510Y-110413628D01*
X190383609Y-114927070D02*
X190384805Y-114878370D01*
X190823597Y-114103795D02*
X190864649Y-114077798D01*
X190441484Y-110280467D02*
X190426241Y-110234328D01*
X190640070Y-114262106D02*
X190673576Y-114226913D01*
X190426241Y-114639566D02*
X190441484Y-114593427D01*
X190413281Y-110187497D02*
X190402635Y-110140086D01*
X191325033Y-113938143D02*
X191373732Y-113936947D01*
X190413281Y-114686397D02*
X190426241Y-114639566D01*
X190402635Y-110140086D02*
X190394328Y-110092210D01*
X190950331Y-110841894D02*
X190906928Y-110820046D01*
X190578436Y-110536688D02*
X190550457Y-110496960D01*
X190864649Y-114077798D02*
X190906928Y-114053848D01*
X190994754Y-114012309D02*
X191040090Y-113994821D01*
X190708768Y-114193408D02*
X190745562Y-114161669D01*
X190608331Y-110574994D02*
X190578436Y-110536688D01*
X190708768Y-110680486D02*
X190673576Y-110646981D01*
X190478663Y-114503669D02*
X190500510Y-114460266D01*
X190441484Y-114593427D02*
X190458972Y-114548092D01*
X191180471Y-110917921D02*
X191133060Y-110907275D01*
X190745562Y-110712225D02*
X190708768Y-110680486D01*
X190906928Y-114053848D02*
X190950331Y-114032000D01*
X190745562Y-114161669D02*
X190783869Y-114131774D01*
X190402635Y-114733808D02*
X190413281Y-114686397D01*
X191040090Y-110879073D02*
X190994754Y-110861585D01*
X190823597Y-110770099D02*
X190783869Y-110742120D01*
X190478663Y-110370225D02*
X190458972Y-110325802D01*
X191133060Y-113966619D02*
X191180471Y-113955973D01*
X191086229Y-113979579D02*
X191133060Y-113966619D01*
X191086229Y-110894315D02*
X191040090Y-110879073D01*
X190950331Y-114032000D02*
X190994754Y-114012309D01*
X190394328Y-114781684D02*
X190402635Y-114733808D01*
X191325033Y-110935751D02*
X191276573Y-110932177D01*
X190906928Y-110820046D02*
X190864649Y-110796096D01*
X190550457Y-110496960D02*
X190524461Y-110455907D01*
X190783869Y-110742120D02*
X190745562Y-110712225D01*
X190783869Y-114131774D02*
X190823597Y-114103795D01*
X190500510Y-114460266D02*
X190524461Y-114417987D01*
X190500510Y-110413628D02*
X190478663Y-110370225D01*
X190524461Y-114417987D02*
X190550457Y-114376934D01*
X193219745Y-110499890D02*
X193191766Y-110539618D01*
X192445169Y-113941073D02*
X192493629Y-113944647D01*
X193367567Y-114736738D02*
X193375874Y-114784614D01*
X193096626Y-110649911D02*
X193061434Y-110683416D01*
X193219745Y-114379864D02*
X193245741Y-114420917D01*
X193386593Y-109949754D02*
X193385397Y-109998454D01*
X192775448Y-110864515D02*
X192730112Y-110882003D01*
X193291539Y-110373155D02*
X193269692Y-110416558D01*
X193096626Y-114229843D02*
X193130132Y-114265036D01*
X192730112Y-113997751D02*
X192775448Y-114015239D01*
X193269692Y-114463196D02*
X193291539Y-114506599D01*
X192541855Y-110929159D02*
X192493629Y-110935107D01*
X192905553Y-110799026D02*
X192863274Y-110822976D01*
X193130132Y-110614718D02*
X193096626Y-110649911D01*
X193311230Y-110328732D02*
X193291539Y-110373155D01*
X192589731Y-113958903D02*
X192637142Y-113969549D01*
X193385397Y-114881300D02*
X193386593Y-114930000D01*
X193375874Y-110095140D02*
X193367567Y-110143016D01*
X192986333Y-110745050D02*
X192946605Y-110773029D01*
X193161871Y-114301830D02*
X193191766Y-114340136D01*
X193311230Y-114551022D02*
X193328718Y-114596357D01*
X192819871Y-114034930D02*
X192863274Y-114056778D01*
X192730112Y-110882003D02*
X192683973Y-110897245D01*
X192775448Y-114015239D02*
X192819871Y-114034930D01*
X193291539Y-114506599D02*
X193311230Y-114551022D01*
X193024640Y-114164599D02*
X193061434Y-114196338D01*
X193130132Y-114265036D02*
X193161871Y-114301830D01*
X192493629Y-113944647D02*
X192541855Y-113950595D01*
X193367567Y-110143016D02*
X193356921Y-110190427D01*
X192493629Y-110935107D02*
X192445169Y-110938681D01*
X192637142Y-110910205D02*
X192589731Y-110920851D01*
X193381822Y-114832840D02*
X193385397Y-114881300D01*
X192946605Y-114106725D02*
X192986333Y-114134704D01*
X192986333Y-114134704D02*
X193024640Y-114164599D01*
X193061434Y-114196338D02*
X193096626Y-114229843D01*
X192683973Y-110897245D02*
X192637142Y-110910205D01*
X192541855Y-113950595D02*
X192589731Y-113958903D01*
X192589731Y-110920851D02*
X192541855Y-110929159D01*
X193356921Y-114689327D02*
X193367567Y-114736738D01*
X193269692Y-110416558D02*
X193245741Y-110458837D01*
X193343961Y-114642496D02*
X193356921Y-114689327D01*
X192683973Y-113982509D02*
X192730112Y-113997751D01*
X193245741Y-110458837D02*
X193219745Y-110499890D01*
X192946605Y-110773029D02*
X192905553Y-110799026D01*
X192445169Y-110938681D02*
X192396470Y-110939877D01*
X193385397Y-109998454D02*
X193381822Y-110046914D01*
X193161871Y-110577924D02*
X193130132Y-110614718D01*
X193343961Y-110237258D02*
X193328718Y-110283397D01*
X192863274Y-110822976D02*
X192819871Y-110844824D01*
X193328718Y-114596357D02*
X193343961Y-114642496D01*
X193191766Y-110539618D02*
X193161871Y-110577924D01*
X193381822Y-110046914D02*
X193375874Y-110095140D01*
X193328718Y-110283397D02*
X193311230Y-110328732D01*
X193245741Y-114420917D02*
X193269692Y-114463196D01*
X192637142Y-113969549D02*
X192683973Y-113982509D01*
X193191766Y-114340136D02*
X193219745Y-114379864D01*
X193356921Y-110190427D02*
X193343961Y-110237258D01*
X193375874Y-114784614D02*
X193381822Y-114832840D01*
X193024640Y-110715155D02*
X192986333Y-110745050D01*
X192863274Y-114056778D02*
X192905553Y-114080728D01*
X193061434Y-110683416D02*
X193024640Y-110715155D01*
X192819871Y-110844824D02*
X192775448Y-110864515D01*
X192905553Y-114080728D02*
X192946605Y-114106725D01*
X192396470Y-113939877D02*
X192445169Y-113941073D01*
X191370547Y-93410424D02*
X192393285Y-93413354D01*
X191370547Y-96410424D02*
X192393285Y-96413354D01*
X190605146Y-96772377D02*
X190636885Y-96735583D01*
X190670391Y-96700390D02*
X190705583Y-96666885D01*
X191273388Y-96415194D02*
X191321848Y-96411620D01*
X190385195Y-97303387D02*
X190391143Y-97255161D01*
X190861464Y-93269573D02*
X190820412Y-93243576D01*
X190381620Y-97351847D02*
X190385195Y-97303387D01*
X191177286Y-96429450D02*
X191225162Y-96421142D01*
X190636885Y-93085265D02*
X190605146Y-93048471D01*
X190991569Y-93335062D02*
X190947146Y-93315371D01*
X190385195Y-92517461D02*
X190381620Y-92469001D01*
X190391143Y-92565687D02*
X190385195Y-92517461D01*
X191370547Y-93410424D02*
X191321848Y-93409228D01*
X191225162Y-96421142D02*
X191273388Y-96415194D01*
X191225162Y-93399706D02*
X191177286Y-93391398D01*
X190455787Y-97021569D02*
X190475478Y-96977146D01*
X190423056Y-92707805D02*
X190410096Y-92660974D01*
X191036905Y-96468298D02*
X191083044Y-96453056D01*
X190381620Y-92469001D02*
X190380424Y-92420301D01*
X190575251Y-96810683D02*
X190605146Y-96772377D01*
X190455787Y-92799279D02*
X190438299Y-92753944D01*
X190670391Y-93120458D02*
X190636885Y-93085265D01*
X190547272Y-96850411D02*
X190575251Y-96810683D01*
X191129875Y-93380752D02*
X191083044Y-93367792D01*
X191273388Y-93405654D02*
X191225162Y-93399706D01*
X190521276Y-92929384D02*
X190497325Y-92887105D01*
X190380424Y-97400547D02*
X190381620Y-97351847D01*
X190820412Y-96577272D02*
X190861464Y-96551275D01*
X190438299Y-92753944D02*
X190423056Y-92707805D01*
X190636885Y-96735583D02*
X190670391Y-96700390D01*
X190423056Y-97113043D02*
X190438299Y-97066904D01*
X190410096Y-92660974D02*
X190399450Y-92613563D01*
X191321848Y-96411620D02*
X191370547Y-96410424D01*
X190410096Y-97159874D02*
X190423056Y-97113043D01*
X190399450Y-92613563D02*
X190391143Y-92565687D01*
X190947146Y-93315371D02*
X190903743Y-93293523D01*
X190575251Y-93010165D02*
X190547272Y-92970437D01*
X190861464Y-96551275D02*
X190903743Y-96527325D01*
X190991569Y-96485786D02*
X191036905Y-96468298D01*
X190705583Y-96666885D02*
X190742377Y-96635146D01*
X190605146Y-93048471D02*
X190575251Y-93010165D01*
X190705583Y-93153963D02*
X190670391Y-93120458D01*
X190475478Y-96977146D02*
X190497325Y-96933743D01*
X190438299Y-97066904D02*
X190455787Y-97021569D01*
X191177286Y-93391398D02*
X191129875Y-93380752D01*
X190742377Y-93185702D02*
X190705583Y-93153963D01*
X190903743Y-96527325D02*
X190947146Y-96505477D01*
X190742377Y-96635146D02*
X190780684Y-96605251D01*
X190399450Y-97207285D02*
X190410096Y-97159874D01*
X191036905Y-93352550D02*
X190991569Y-93335062D01*
X190820412Y-93243576D02*
X190780684Y-93215597D01*
X190475478Y-92843702D02*
X190455787Y-92799279D01*
X191129875Y-96440096D02*
X191177286Y-96429450D01*
X191083044Y-96453056D02*
X191129875Y-96440096D01*
X191083044Y-93367792D02*
X191036905Y-93352550D01*
X190947146Y-96505477D02*
X190991569Y-96485786D01*
X190391143Y-97255161D02*
X190399450Y-97207285D01*
X191321848Y-93409228D02*
X191273388Y-93405654D01*
X190903743Y-93293523D02*
X190861464Y-93269573D01*
X190547272Y-92970437D02*
X190521276Y-92929384D01*
X190780684Y-93215597D02*
X190742377Y-93185702D01*
X190780684Y-96605251D02*
X190820412Y-96577272D01*
X190497325Y-96933743D02*
X190521276Y-96891464D01*
X190497325Y-92887105D02*
X190475478Y-92843702D01*
X190521276Y-96891464D02*
X190547272Y-96850411D01*
X193216560Y-92973367D02*
X193188581Y-93013095D01*
X192441984Y-96414550D02*
X192490444Y-96418124D01*
X193364382Y-97210215D02*
X193372689Y-97258091D01*
X193093441Y-93123388D02*
X193058249Y-93156893D01*
X193216560Y-96853341D02*
X193242556Y-96894394D01*
X193383408Y-92423231D02*
X193382212Y-92471931D01*
X192772263Y-93337992D02*
X192726927Y-93355480D01*
X193288354Y-92846632D02*
X193266507Y-92890035D01*
X193093441Y-96703320D02*
X193126947Y-96738513D01*
X192726927Y-96471228D02*
X192772263Y-96488716D01*
X193266507Y-96936673D02*
X193288354Y-96980076D01*
X192538670Y-93402636D02*
X192490444Y-93408584D01*
X192902368Y-93272503D02*
X192860089Y-93296453D01*
X193126947Y-93088195D02*
X193093441Y-93123388D01*
X193308045Y-92802209D02*
X193288354Y-92846632D01*
X192586546Y-96432380D02*
X192633957Y-96443026D01*
X193382212Y-97354777D02*
X193383408Y-97403477D01*
X193372689Y-92568617D02*
X193364382Y-92616493D01*
X192983148Y-93218527D02*
X192943420Y-93246506D01*
X193158686Y-96775307D02*
X193188581Y-96813613D01*
X193308045Y-97024499D02*
X193325533Y-97069834D01*
X192816686Y-96508407D02*
X192860089Y-96530255D01*
X192726927Y-93355480D02*
X192680788Y-93370722D01*
X192772263Y-96488716D02*
X192816686Y-96508407D01*
X193288354Y-96980076D02*
X193308045Y-97024499D01*
X193021455Y-96638076D02*
X193058249Y-96669815D01*
X193126947Y-96738513D02*
X193158686Y-96775307D01*
X192490444Y-96418124D02*
X192538670Y-96424072D01*
X193364382Y-92616493D02*
X193353736Y-92663904D01*
X192490444Y-93408584D02*
X192441984Y-93412158D01*
X192633957Y-93383682D02*
X192586546Y-93394328D01*
X193378637Y-97306317D02*
X193382212Y-97354777D01*
X192943420Y-96580202D02*
X192983148Y-96608181D01*
X192983148Y-96608181D02*
X193021455Y-96638076D01*
X193058249Y-96669815D02*
X193093441Y-96703320D01*
X192680788Y-93370722D02*
X192633957Y-93383682D01*
X192538670Y-96424072D02*
X192586546Y-96432380D01*
X192586546Y-93394328D02*
X192538670Y-93402636D01*
X193353736Y-97162804D02*
X193364382Y-97210215D01*
X193266507Y-92890035D02*
X193242556Y-92932314D01*
X193340776Y-97115973D02*
X193353736Y-97162804D01*
X192680788Y-96455986D02*
X192726927Y-96471228D01*
X193242556Y-92932314D02*
X193216560Y-92973367D01*
X192943420Y-93246506D02*
X192902368Y-93272503D01*
X192441984Y-93412158D02*
X192393285Y-93413354D01*
X193382212Y-92471931D02*
X193378637Y-92520391D01*
X193158686Y-93051401D02*
X193126947Y-93088195D01*
X193340776Y-92710735D02*
X193325533Y-92756874D01*
X192860089Y-93296453D02*
X192816686Y-93318301D01*
X193325533Y-97069834D02*
X193340776Y-97115973D01*
X193188581Y-93013095D02*
X193158686Y-93051401D01*
X193378637Y-92520391D02*
X193372689Y-92568617D01*
X193325533Y-92756874D02*
X193308045Y-92802209D01*
X193242556Y-96894394D02*
X193266507Y-96936673D01*
X192633957Y-96443026D02*
X192680788Y-96455986D01*
X193188581Y-96813613D02*
X193216560Y-96853341D01*
X193353736Y-92663904D02*
X193340776Y-92710735D01*
X193372689Y-97258091D02*
X193378637Y-97306317D01*
X193021455Y-93188632D02*
X192983148Y-93218527D01*
X192860089Y-96530255D02*
X192902368Y-96554205D01*
X193058249Y-93156893D02*
X193021455Y-93188632D01*
X192816686Y-93318301D02*
X192772263Y-93337992D01*
X192902368Y-96554205D02*
X192943420Y-96580202D01*
X192393285Y-96413354D02*
X192441984Y-96414550D01*
X191373732Y-79036947D02*
X192396470Y-79039877D01*
X191373732Y-82036947D02*
X192396470Y-82039877D01*
X190608331Y-82398900D02*
X190640070Y-82362106D01*
X190673576Y-82326913D02*
X190708768Y-82293408D01*
X191276573Y-82041717D02*
X191325033Y-82038143D01*
X190388380Y-82929910D02*
X190394328Y-82881684D01*
X190864649Y-78896096D02*
X190823597Y-78870099D01*
X190384805Y-82978370D02*
X190388380Y-82929910D01*
X191180471Y-82055973D02*
X191228347Y-82047665D01*
X190640070Y-78711788D02*
X190608331Y-78674994D01*
X190994754Y-78961585D02*
X190950331Y-78941894D01*
X190388380Y-78143984D02*
X190384805Y-78095524D01*
X190394328Y-78192210D02*
X190388380Y-78143984D01*
X191373732Y-79036947D02*
X191325033Y-79035751D01*
X191228347Y-82047665D02*
X191276573Y-82041717D01*
X191228347Y-79026229D02*
X191180471Y-79017921D01*
X190458972Y-82648092D02*
X190478663Y-82603669D01*
X190426241Y-78334328D02*
X190413281Y-78287497D01*
X191040090Y-82094821D02*
X191086229Y-82079579D01*
X190384805Y-78095524D02*
X190383609Y-78046824D01*
X190578436Y-82437206D02*
X190608331Y-82398900D01*
X190458972Y-78425802D02*
X190441484Y-78380467D01*
X190673576Y-78746981D02*
X190640070Y-78711788D01*
X190550457Y-82476934D02*
X190578436Y-82437206D01*
X191133060Y-79007275D02*
X191086229Y-78994315D01*
X191276573Y-79032177D02*
X191228347Y-79026229D01*
X190524461Y-78555907D02*
X190500510Y-78513628D01*
X190383609Y-83027070D02*
X190384805Y-82978370D01*
X190823597Y-82203795D02*
X190864649Y-82177798D01*
X190441484Y-78380467D02*
X190426241Y-78334328D01*
X190640070Y-82362106D02*
X190673576Y-82326913D01*
X190426241Y-82739566D02*
X190441484Y-82693427D01*
X190413281Y-78287497D02*
X190402635Y-78240086D01*
X191325033Y-82038143D02*
X191373732Y-82036947D01*
X190413281Y-82786397D02*
X190426241Y-82739566D01*
X190402635Y-78240086D02*
X190394328Y-78192210D01*
X190950331Y-78941894D02*
X190906928Y-78920046D01*
X190578436Y-78636688D02*
X190550457Y-78596960D01*
X190864649Y-82177798D02*
X190906928Y-82153848D01*
X190994754Y-82112309D02*
X191040090Y-82094821D01*
X190708768Y-82293408D02*
X190745562Y-82261669D01*
X190608331Y-78674994D02*
X190578436Y-78636688D01*
X190708768Y-78780486D02*
X190673576Y-78746981D01*
X190478663Y-82603669D02*
X190500510Y-82560266D01*
X190441484Y-82693427D02*
X190458972Y-82648092D01*
X191180471Y-79017921D02*
X191133060Y-79007275D01*
X190745562Y-78812225D02*
X190708768Y-78780486D01*
X190906928Y-82153848D02*
X190950331Y-82132000D01*
X190745562Y-82261669D02*
X190783869Y-82231774D01*
X190402635Y-82833808D02*
X190413281Y-82786397D01*
X191040090Y-78979073D02*
X190994754Y-78961585D01*
X190823597Y-78870099D02*
X190783869Y-78842120D01*
X190478663Y-78470225D02*
X190458972Y-78425802D01*
X191133060Y-82066619D02*
X191180471Y-82055973D01*
X191086229Y-82079579D02*
X191133060Y-82066619D01*
X191086229Y-78994315D02*
X191040090Y-78979073D01*
X190950331Y-82132000D02*
X190994754Y-82112309D01*
X190394328Y-82881684D02*
X190402635Y-82833808D01*
X191325033Y-79035751D02*
X191276573Y-79032177D01*
X190906928Y-78920046D02*
X190864649Y-78896096D01*
X190550457Y-78596960D02*
X190524461Y-78555907D01*
X190783869Y-78842120D02*
X190745562Y-78812225D01*
X190783869Y-82231774D02*
X190823597Y-82203795D01*
X190500510Y-82560266D02*
X190524461Y-82517987D01*
X190500510Y-78513628D02*
X190478663Y-78470225D01*
X190524461Y-82517987D02*
X190550457Y-82476934D01*
X193219745Y-78599890D02*
X193191766Y-78639618D01*
X192445169Y-82041073D02*
X192493629Y-82044647D01*
X193367567Y-82836738D02*
X193375874Y-82884614D01*
X193096626Y-78749911D02*
X193061434Y-78783416D01*
X193219745Y-82479864D02*
X193245741Y-82520917D01*
X193386593Y-78049754D02*
X193385397Y-78098454D01*
X192775448Y-78964515D02*
X192730112Y-78982003D01*
X193291539Y-78473155D02*
X193269692Y-78516558D01*
X193096626Y-82329843D02*
X193130132Y-82365036D01*
X192730112Y-82097751D02*
X192775448Y-82115239D01*
X193269692Y-82563196D02*
X193291539Y-82606599D01*
X192541855Y-79029159D02*
X192493629Y-79035107D01*
X192905553Y-78899026D02*
X192863274Y-78922976D01*
X193130132Y-78714718D02*
X193096626Y-78749911D01*
X193311230Y-78428732D02*
X193291539Y-78473155D01*
X192589731Y-82058903D02*
X192637142Y-82069549D01*
X193385397Y-82981300D02*
X193386593Y-83030000D01*
X193375874Y-78195140D02*
X193367567Y-78243016D01*
X192986333Y-78845050D02*
X192946605Y-78873029D01*
X193161871Y-82401830D02*
X193191766Y-82440136D01*
X193311230Y-82651022D02*
X193328718Y-82696357D01*
X192819871Y-82134930D02*
X192863274Y-82156778D01*
X192730112Y-78982003D02*
X192683973Y-78997245D01*
X192775448Y-82115239D02*
X192819871Y-82134930D01*
X193291539Y-82606599D02*
X193311230Y-82651022D01*
X193024640Y-82264599D02*
X193061434Y-82296338D01*
X193130132Y-82365036D02*
X193161871Y-82401830D01*
X192493629Y-82044647D02*
X192541855Y-82050595D01*
X193367567Y-78243016D02*
X193356921Y-78290427D01*
X192493629Y-79035107D02*
X192445169Y-79038681D01*
X192637142Y-79010205D02*
X192589731Y-79020851D01*
X193381822Y-82932840D02*
X193385397Y-82981300D01*
X192946605Y-82206725D02*
X192986333Y-82234704D01*
X192986333Y-82234704D02*
X193024640Y-82264599D01*
X193061434Y-82296338D02*
X193096626Y-82329843D01*
X192683973Y-78997245D02*
X192637142Y-79010205D01*
X192541855Y-82050595D02*
X192589731Y-82058903D01*
X192589731Y-79020851D02*
X192541855Y-79029159D01*
X193356921Y-82789327D02*
X193367567Y-82836738D01*
X193269692Y-78516558D02*
X193245741Y-78558837D01*
X193343961Y-82742496D02*
X193356921Y-82789327D01*
X192683973Y-82082509D02*
X192730112Y-82097751D01*
X193245741Y-78558837D02*
X193219745Y-78599890D01*
X192946605Y-78873029D02*
X192905553Y-78899026D01*
X192445169Y-79038681D02*
X192396470Y-79039877D01*
X193385397Y-78098454D02*
X193381822Y-78146914D01*
X193161871Y-78677924D02*
X193130132Y-78714718D01*
X193343961Y-78337258D02*
X193328718Y-78383397D01*
X192863274Y-78922976D02*
X192819871Y-78944824D01*
X193328718Y-82696357D02*
X193343961Y-82742496D01*
X193191766Y-78639618D02*
X193161871Y-78677924D01*
X193381822Y-78146914D02*
X193375874Y-78195140D01*
X193328718Y-78383397D02*
X193311230Y-78428732D01*
X193245741Y-82520917D02*
X193269692Y-82563196D01*
X192637142Y-82069549D02*
X192683973Y-82082509D01*
X193191766Y-82440136D02*
X193219745Y-82479864D01*
X193356921Y-78290427D02*
X193343961Y-78337258D01*
X193375874Y-82884614D02*
X193381822Y-82932840D01*
X193024640Y-78815155D02*
X192986333Y-78845050D01*
X192863274Y-82156778D02*
X192905553Y-82180728D01*
X193061434Y-78783416D02*
X193024640Y-78815155D01*
X192819871Y-78944824D02*
X192775448Y-78964515D01*
X192905553Y-82180728D02*
X192946605Y-82206725D01*
X192396470Y-82039877D02*
X192445169Y-82041073D01*
X191370547Y-42801521D02*
X192393285Y-42804451D01*
X191370547Y-45801521D02*
X192393285Y-45804451D01*
X190605146Y-46163474D02*
X190636885Y-46126680D01*
X190670391Y-46091487D02*
X190705583Y-46057982D01*
X191273388Y-45806291D02*
X191321848Y-45802717D01*
X190385195Y-46694484D02*
X190391143Y-46646258D01*
X190861464Y-42660670D02*
X190820412Y-42634673D01*
X190381620Y-46742944D02*
X190385195Y-46694484D01*
X191177286Y-45820547D02*
X191225162Y-45812239D01*
X190636885Y-42476362D02*
X190605146Y-42439568D01*
X190991569Y-42726159D02*
X190947146Y-42706468D01*
X190385195Y-41908558D02*
X190381620Y-41860098D01*
X190391143Y-41956784D02*
X190385195Y-41908558D01*
X191370547Y-42801521D02*
X191321848Y-42800325D01*
X191225162Y-45812239D02*
X191273388Y-45806291D01*
X191225162Y-42790803D02*
X191177286Y-42782495D01*
X190455787Y-46412666D02*
X190475478Y-46368243D01*
X190423056Y-42098902D02*
X190410096Y-42052071D01*
X191036905Y-45859395D02*
X191083044Y-45844153D01*
X190381620Y-41860098D02*
X190380424Y-41811398D01*
X190575251Y-46201780D02*
X190605146Y-46163474D01*
X190455787Y-42190376D02*
X190438299Y-42145041D01*
X190670391Y-42511555D02*
X190636885Y-42476362D01*
X190547272Y-46241508D02*
X190575251Y-46201780D01*
X191129875Y-42771849D02*
X191083044Y-42758889D01*
X191273388Y-42796751D02*
X191225162Y-42790803D01*
X190521276Y-42320481D02*
X190497325Y-42278202D01*
X190380424Y-46791644D02*
X190381620Y-46742944D01*
X190820412Y-45968369D02*
X190861464Y-45942372D01*
X190438299Y-42145041D02*
X190423056Y-42098902D01*
X190636885Y-46126680D02*
X190670391Y-46091487D01*
X190423056Y-46504140D02*
X190438299Y-46458001D01*
X190410096Y-42052071D02*
X190399450Y-42004660D01*
X191321848Y-45802717D02*
X191370547Y-45801521D01*
X190410096Y-46550971D02*
X190423056Y-46504140D01*
X190399450Y-42004660D02*
X190391143Y-41956784D01*
X190947146Y-42706468D02*
X190903743Y-42684620D01*
X190575251Y-42401262D02*
X190547272Y-42361534D01*
X190861464Y-45942372D02*
X190903743Y-45918422D01*
X190991569Y-45876883D02*
X191036905Y-45859395D01*
X190705583Y-46057982D02*
X190742377Y-46026243D01*
X190605146Y-42439568D02*
X190575251Y-42401262D01*
X190705583Y-42545060D02*
X190670391Y-42511555D01*
X190475478Y-46368243D02*
X190497325Y-46324840D01*
X190438299Y-46458001D02*
X190455787Y-46412666D01*
X191177286Y-42782495D02*
X191129875Y-42771849D01*
X190742377Y-42576799D02*
X190705583Y-42545060D01*
X190903743Y-45918422D02*
X190947146Y-45896574D01*
X190742377Y-46026243D02*
X190780684Y-45996348D01*
X190399450Y-46598382D02*
X190410096Y-46550971D01*
X191036905Y-42743647D02*
X190991569Y-42726159D01*
X190820412Y-42634673D02*
X190780684Y-42606694D01*
X190475478Y-42234799D02*
X190455787Y-42190376D01*
X191129875Y-45831193D02*
X191177286Y-45820547D01*
X191083044Y-45844153D02*
X191129875Y-45831193D01*
X191083044Y-42758889D02*
X191036905Y-42743647D01*
X190947146Y-45896574D02*
X190991569Y-45876883D01*
X190391143Y-46646258D02*
X190399450Y-46598382D01*
X191321848Y-42800325D02*
X191273388Y-42796751D01*
X190903743Y-42684620D02*
X190861464Y-42660670D01*
X190547272Y-42361534D02*
X190521276Y-42320481D01*
X190780684Y-42606694D02*
X190742377Y-42576799D01*
X190780684Y-45996348D02*
X190820412Y-45968369D01*
X190497325Y-46324840D02*
X190521276Y-46282561D01*
X190497325Y-42278202D02*
X190475478Y-42234799D01*
X190521276Y-46282561D02*
X190547272Y-46241508D01*
X193216560Y-42364464D02*
X193188581Y-42404192D01*
X192441984Y-45805647D02*
X192490444Y-45809221D01*
X193364382Y-46601312D02*
X193372689Y-46649188D01*
X193093441Y-42514485D02*
X193058249Y-42547990D01*
X193216560Y-46244438D02*
X193242556Y-46285491D01*
X193383408Y-41814328D02*
X193382212Y-41863028D01*
X192772263Y-42729089D02*
X192726927Y-42746577D01*
X193288354Y-42237729D02*
X193266507Y-42281132D01*
X193093441Y-46094417D02*
X193126947Y-46129610D01*
X192726927Y-45862325D02*
X192772263Y-45879813D01*
X193266507Y-46327770D02*
X193288354Y-46371173D01*
X192538670Y-42793733D02*
X192490444Y-42799681D01*
X192902368Y-42663600D02*
X192860089Y-42687550D01*
X193126947Y-42479292D02*
X193093441Y-42514485D01*
X193308045Y-42193306D02*
X193288354Y-42237729D01*
X192586546Y-45823477D02*
X192633957Y-45834123D01*
X193382212Y-46745874D02*
X193383408Y-46794574D01*
X193372689Y-41959714D02*
X193364382Y-42007590D01*
X192983148Y-42609624D02*
X192943420Y-42637603D01*
X193158686Y-46166404D02*
X193188581Y-46204710D01*
X193308045Y-46415596D02*
X193325533Y-46460931D01*
X192816686Y-45899504D02*
X192860089Y-45921352D01*
X192726927Y-42746577D02*
X192680788Y-42761819D01*
X192772263Y-45879813D02*
X192816686Y-45899504D01*
X193288354Y-46371173D02*
X193308045Y-46415596D01*
X193021455Y-46029173D02*
X193058249Y-46060912D01*
X193126947Y-46129610D02*
X193158686Y-46166404D01*
X192490444Y-45809221D02*
X192538670Y-45815169D01*
X193364382Y-42007590D02*
X193353736Y-42055001D01*
X192490444Y-42799681D02*
X192441984Y-42803255D01*
X192633957Y-42774779D02*
X192586546Y-42785425D01*
X193378637Y-46697414D02*
X193382212Y-46745874D01*
X192943420Y-45971299D02*
X192983148Y-45999278D01*
X192983148Y-45999278D02*
X193021455Y-46029173D01*
X193058249Y-46060912D02*
X193093441Y-46094417D01*
X192680788Y-42761819D02*
X192633957Y-42774779D01*
X192538670Y-45815169D02*
X192586546Y-45823477D01*
X192586546Y-42785425D02*
X192538670Y-42793733D01*
X193353736Y-46553901D02*
X193364382Y-46601312D01*
X193266507Y-42281132D02*
X193242556Y-42323411D01*
X193340776Y-46507070D02*
X193353736Y-46553901D01*
X192680788Y-45847083D02*
X192726927Y-45862325D01*
X193242556Y-42323411D02*
X193216560Y-42364464D01*
X192943420Y-42637603D02*
X192902368Y-42663600D01*
X192441984Y-42803255D02*
X192393285Y-42804451D01*
X193382212Y-41863028D02*
X193378637Y-41911488D01*
X193158686Y-42442498D02*
X193126947Y-42479292D01*
X193340776Y-42101832D02*
X193325533Y-42147971D01*
X192860089Y-42687550D02*
X192816686Y-42709398D01*
X193325533Y-46460931D02*
X193340776Y-46507070D01*
X193188581Y-42404192D02*
X193158686Y-42442498D01*
X193378637Y-41911488D02*
X193372689Y-41959714D01*
X193325533Y-42147971D02*
X193308045Y-42193306D01*
X193242556Y-46285491D02*
X193266507Y-46327770D01*
X192633957Y-45834123D02*
X192680788Y-45847083D01*
X193188581Y-46204710D02*
X193216560Y-46244438D01*
X193353736Y-42055001D02*
X193340776Y-42101832D01*
X193372689Y-46649188D02*
X193378637Y-46697414D01*
X193021455Y-42579729D02*
X192983148Y-42609624D01*
X192860089Y-45921352D02*
X192902368Y-45945302D01*
X193058249Y-42547990D02*
X193021455Y-42579729D01*
X192816686Y-42709398D02*
X192772263Y-42729089D01*
X192902368Y-45945302D02*
X192943420Y-45971299D01*
X192393285Y-45804451D02*
X192441984Y-45805647D01*
X190380424Y-25930124D02*
X190383408Y-20021175D01*
X193383408Y-20012272D02*
X193383408Y-25933054D01*
X193386593Y-63610000D02*
X193386593Y-78049754D01*
X190383408Y-68596630D02*
X190383609Y-63607070D01*
X191370547Y-26920247D02*
X192393285Y-26923177D01*
X191370547Y-29920247D02*
X192393285Y-29923177D01*
X190605146Y-30282200D02*
X190636885Y-30245406D01*
X190670391Y-30210213D02*
X190705583Y-30176708D01*
X191273388Y-29925017D02*
X191321848Y-29921443D01*
X190385195Y-30813210D02*
X190391143Y-30764984D01*
X190861464Y-26779396D02*
X190820412Y-26753399D01*
X190381620Y-30861670D02*
X190385195Y-30813210D01*
X191177286Y-29939273D02*
X191225162Y-29930965D01*
X190636885Y-26595088D02*
X190605146Y-26558294D01*
X190991569Y-26844885D02*
X190947146Y-26825194D01*
X190385195Y-26027284D02*
X190381620Y-25978824D01*
X190391143Y-26075510D02*
X190385195Y-26027284D01*
X191370547Y-26920247D02*
X191321848Y-26919051D01*
X191225162Y-29930965D02*
X191273388Y-29925017D01*
X191225162Y-26909529D02*
X191177286Y-26901221D01*
X190455787Y-30531392D02*
X190475478Y-30486969D01*
X190423056Y-26217628D02*
X190410096Y-26170797D01*
X191036905Y-29978121D02*
X191083044Y-29962879D01*
X190381620Y-25978824D02*
X190380424Y-25930124D01*
X190575251Y-30320506D02*
X190605146Y-30282200D01*
X190455787Y-26309102D02*
X190438299Y-26263767D01*
X190670391Y-26630281D02*
X190636885Y-26595088D01*
X190547272Y-30360234D02*
X190575251Y-30320506D01*
X191129875Y-26890575D02*
X191083044Y-26877615D01*
X191273388Y-26915477D02*
X191225162Y-26909529D01*
X190521276Y-26439207D02*
X190497325Y-26396928D01*
X190380424Y-30910370D02*
X190381620Y-30861670D01*
X190820412Y-30087095D02*
X190861464Y-30061098D01*
X190438299Y-26263767D02*
X190423056Y-26217628D01*
X190636885Y-30245406D02*
X190670391Y-30210213D01*
X190423056Y-30622866D02*
X190438299Y-30576727D01*
X190410096Y-26170797D02*
X190399450Y-26123386D01*
X191321848Y-29921443D02*
X191370547Y-29920247D01*
X190410096Y-30669697D02*
X190423056Y-30622866D01*
X190399450Y-26123386D02*
X190391143Y-26075510D01*
X190947146Y-26825194D02*
X190903743Y-26803346D01*
X190575251Y-26519988D02*
X190547272Y-26480260D01*
X190861464Y-30061098D02*
X190903743Y-30037148D01*
X190991569Y-29995609D02*
X191036905Y-29978121D01*
X190705583Y-30176708D02*
X190742377Y-30144969D01*
X190605146Y-26558294D02*
X190575251Y-26519988D01*
X190705583Y-26663786D02*
X190670391Y-26630281D01*
X190475478Y-30486969D02*
X190497325Y-30443566D01*
X190438299Y-30576727D02*
X190455787Y-30531392D01*
X191177286Y-26901221D02*
X191129875Y-26890575D01*
X190742377Y-26695525D02*
X190705583Y-26663786D01*
X190903743Y-30037148D02*
X190947146Y-30015300D01*
X190742377Y-30144969D02*
X190780684Y-30115074D01*
X190399450Y-30717108D02*
X190410096Y-30669697D01*
X191036905Y-26862373D02*
X190991569Y-26844885D01*
X190820412Y-26753399D02*
X190780684Y-26725420D01*
X190475478Y-26353525D02*
X190455787Y-26309102D01*
X191129875Y-29949919D02*
X191177286Y-29939273D01*
X191083044Y-29962879D02*
X191129875Y-29949919D01*
X191083044Y-26877615D02*
X191036905Y-26862373D01*
X190947146Y-30015300D02*
X190991569Y-29995609D01*
X190391143Y-30764984D02*
X190399450Y-30717108D01*
X191321848Y-26919051D02*
X191273388Y-26915477D01*
X190903743Y-26803346D02*
X190861464Y-26779396D01*
X190547272Y-26480260D02*
X190521276Y-26439207D01*
X190780684Y-26725420D02*
X190742377Y-26695525D01*
X190780684Y-30115074D02*
X190820412Y-30087095D01*
X190497325Y-30443566D02*
X190521276Y-30401287D01*
X190497325Y-26396928D02*
X190475478Y-26353525D01*
X190521276Y-30401287D02*
X190547272Y-30360234D01*
X193216560Y-26483190D02*
X193188581Y-26522918D01*
X192441984Y-29924373D02*
X192490444Y-29927947D01*
X193364382Y-30720038D02*
X193372689Y-30767914D01*
X193093441Y-26633211D02*
X193058249Y-26666716D01*
X193216560Y-30363164D02*
X193242556Y-30404217D01*
X193383408Y-25933054D02*
X193382212Y-25981754D01*
X192772263Y-26847815D02*
X192726927Y-26865303D01*
X193288354Y-26356455D02*
X193266507Y-26399858D01*
X193093441Y-30213143D02*
X193126947Y-30248336D01*
X192726927Y-29981051D02*
X192772263Y-29998539D01*
X193266507Y-30446496D02*
X193288354Y-30489899D01*
X192538670Y-26912459D02*
X192490444Y-26918407D01*
X192902368Y-26782326D02*
X192860089Y-26806276D01*
X193126947Y-26598018D02*
X193093441Y-26633211D01*
X193308045Y-26312032D02*
X193288354Y-26356455D01*
X192586546Y-29942203D02*
X192633957Y-29952849D01*
X193382212Y-30864600D02*
X193383408Y-30913300D01*
X193372689Y-26078440D02*
X193364382Y-26126316D01*
X192983148Y-26728350D02*
X192943420Y-26756329D01*
X193158686Y-30285130D02*
X193188581Y-30323436D01*
X193308045Y-30534322D02*
X193325533Y-30579657D01*
X192816686Y-30018230D02*
X192860089Y-30040078D01*
X192726927Y-26865303D02*
X192680788Y-26880545D01*
X192772263Y-29998539D02*
X192816686Y-30018230D01*
X193288354Y-30489899D02*
X193308045Y-30534322D01*
X193021455Y-30147899D02*
X193058249Y-30179638D01*
X193126947Y-30248336D02*
X193158686Y-30285130D01*
X192490444Y-29927947D02*
X192538670Y-29933895D01*
X193364382Y-26126316D02*
X193353736Y-26173727D01*
X192490444Y-26918407D02*
X192441984Y-26921981D01*
X192633957Y-26893505D02*
X192586546Y-26904151D01*
X193378637Y-30816140D02*
X193382212Y-30864600D01*
X192943420Y-30090025D02*
X192983148Y-30118004D01*
X192983148Y-30118004D02*
X193021455Y-30147899D01*
X193058249Y-30179638D02*
X193093441Y-30213143D01*
X192680788Y-26880545D02*
X192633957Y-26893505D01*
X192538670Y-29933895D02*
X192586546Y-29942203D01*
X192586546Y-26904151D02*
X192538670Y-26912459D01*
X193353736Y-30672627D02*
X193364382Y-30720038D01*
X193266507Y-26399858D02*
X193242556Y-26442137D01*
X193340776Y-30625796D02*
X193353736Y-30672627D01*
X192680788Y-29965809D02*
X192726927Y-29981051D01*
X193242556Y-26442137D02*
X193216560Y-26483190D01*
X192943420Y-26756329D02*
X192902368Y-26782326D01*
X192441984Y-26921981D02*
X192393285Y-26923177D01*
X193382212Y-25981754D02*
X193378637Y-26030214D01*
X193158686Y-26561224D02*
X193126947Y-26598018D01*
X193340776Y-26220558D02*
X193325533Y-26266697D01*
X192860089Y-26806276D02*
X192816686Y-26828124D01*
X193325533Y-30579657D02*
X193340776Y-30625796D01*
X193188581Y-26522918D02*
X193158686Y-26561224D01*
X193378637Y-26030214D02*
X193372689Y-26078440D01*
X193325533Y-26266697D02*
X193308045Y-26312032D01*
X193242556Y-30404217D02*
X193266507Y-30446496D01*
X192633957Y-29952849D02*
X192680788Y-29965809D01*
X193188581Y-30323436D02*
X193216560Y-30363164D01*
X193353736Y-26173727D02*
X193340776Y-26220558D01*
X193372689Y-30767914D02*
X193378637Y-30816140D01*
X193021455Y-26698455D02*
X192983148Y-26728350D01*
X192860089Y-30040078D02*
X192902368Y-30064028D01*
X193058249Y-26666716D02*
X193021455Y-26698455D01*
X192816686Y-26828124D02*
X192772263Y-26847815D01*
X192902368Y-30064028D02*
X192943420Y-30090025D01*
X192393285Y-29923177D02*
X192441984Y-29924373D01*
X98622151Y-119216683D02*
X98622595Y-119216893D01*
X98623048Y-119217081D02*
X98623510Y-119217246D01*
X98622595Y-119216893D02*
X98623048Y-119217081D01*
X98626402Y-119217748D02*
X98628620Y-119217802D01*
X98616596Y-119205778D02*
X98616650Y-119207996D01*
X98616722Y-119208975D02*
X98616794Y-119209461D01*
X98617009Y-119210418D02*
X98617152Y-119210888D01*
X98618763Y-119213903D02*
X98619075Y-119214283D01*
X98623980Y-119217389D02*
X98624456Y-119217508D01*
X98617505Y-119211803D02*
X98617715Y-119212247D01*
X98619075Y-119214283D02*
X98619404Y-119214646D01*
X98617317Y-119211350D02*
X98617505Y-119211803D01*
X98621718Y-119216452D02*
X98622151Y-119216683D01*
X98624456Y-119217508D02*
X98624937Y-119217604D01*
X98616674Y-119208487D02*
X98616722Y-119208975D01*
X98616890Y-119209942D02*
X98617009Y-119210418D01*
X98616650Y-119207996D02*
X98616674Y-119208487D01*
X98620495Y-119215635D02*
X98620889Y-119215927D01*
X98620115Y-119215323D02*
X98620495Y-119215635D01*
X98624937Y-119217604D02*
X98625423Y-119217676D01*
X98621297Y-119216200D02*
X98621718Y-119216452D01*
X98623510Y-119217246D02*
X98623980Y-119217389D01*
X98617946Y-119212680D02*
X98618198Y-119213101D01*
X98619752Y-119214994D02*
X98620115Y-119215323D01*
X98616593Y-119205533D02*
X98616596Y-119205778D01*
X98619404Y-119214646D02*
X98619752Y-119214994D01*
X98628620Y-119217802D02*
X98628865Y-119217806D01*
X98625423Y-119217676D02*
X98625911Y-119217724D01*
X98625911Y-119217724D02*
X98626402Y-119217748D01*
X98616794Y-119209461D02*
X98616890Y-119209942D01*
X98618471Y-119213509D02*
X98618763Y-119213903D01*
X98618198Y-119213101D02*
X98618471Y-119213509D01*
X98617715Y-119212247D02*
X98617946Y-119212680D01*
X98617152Y-119210888D02*
X98617317Y-119211350D01*
X98620889Y-119215927D02*
X98621297Y-119216200D01*
X183586716Y-69600123D02*
X183590944Y-69629937D01*
X180590944Y-69629937D02*
X180586716Y-69600123D01*
X106624937Y-59579798D02*
X106625423Y-59579870D01*
X106618471Y-59575703D02*
X106618763Y-59576097D01*
X106619075Y-59576477D02*
X106619404Y-59576840D01*
X106616596Y-59567972D02*
X106616650Y-59570190D01*
X106616650Y-59570190D02*
X106616674Y-59570681D01*
X106623048Y-59579275D02*
X106623510Y-59579440D01*
X106623510Y-59579440D02*
X106623980Y-59579583D01*
X106622151Y-59578877D02*
X106622595Y-59579087D01*
X106616674Y-59570681D02*
X106616722Y-59571169D01*
X106625423Y-59579870D02*
X106625911Y-59579918D01*
X106620115Y-59577517D02*
X106620495Y-59577829D01*
X106618198Y-59575295D02*
X106618471Y-59575703D01*
X106619404Y-59576840D02*
X106619752Y-59577188D01*
X106617505Y-59573997D02*
X106617715Y-59574441D01*
X106620889Y-59578121D02*
X106621297Y-59578394D01*
X106622595Y-59579087D02*
X106623048Y-59579275D01*
X106621297Y-59578394D02*
X106621718Y-59578646D01*
X106624456Y-59579702D02*
X106624937Y-59579798D01*
X106621718Y-59578646D02*
X106622151Y-59578877D01*
X106616593Y-59567727D02*
X106616596Y-59567972D01*
X106616722Y-59571169D02*
X106616794Y-59571655D01*
X106617946Y-59574874D02*
X106618198Y-59575295D01*
X106616794Y-59571655D02*
X106616890Y-59572136D01*
X106620495Y-59577829D02*
X106620889Y-59578121D01*
X106623980Y-59579583D02*
X106624456Y-59579702D01*
X106625911Y-59579918D02*
X106626402Y-59579942D01*
X106616890Y-59572136D02*
X106617009Y-59572612D01*
X106617715Y-59574441D02*
X106617946Y-59574874D01*
X106628620Y-59579996D02*
X106628865Y-59580000D01*
X106617009Y-59572612D02*
X106617152Y-59573082D01*
X106619752Y-59577188D02*
X106620115Y-59577517D01*
X106617317Y-59573544D02*
X106617505Y-59573997D01*
X106617152Y-59573082D02*
X106617317Y-59573544D01*
X106626402Y-59579942D02*
X106628620Y-59579996D01*
X106618763Y-59576097D02*
X106619075Y-59576477D01*
X148183408Y-46794574D02*
X148186593Y-62699877D01*
X103616593Y-72300123D02*
X103615995Y-84705650D01*
X147196470Y-72850123D02*
X146426716Y-72853753D01*
X145436593Y-67684474D02*
X145436593Y-71863630D01*
X130506347Y-61930000D02*
X132036593Y-61930000D01*
X125146470Y-61930000D02*
X130506347Y-61930000D01*
X119786593Y-61930000D02*
X125146470Y-61930000D01*
X114426716Y-61930000D02*
X119786593Y-61930000D01*
X131816347Y-77380000D02*
X114176839Y-77380000D01*
X140076716Y-77380000D02*
X136796593Y-77380000D01*
X106386593Y-77380000D02*
X109196593Y-77380000D01*
X106386593Y-77380000D02*
X106396593Y-72310000D01*
X145436593Y-77380000D02*
X140076716Y-77380000D01*
X145436593Y-77380000D02*
X145436593Y-76843876D01*
X145436593Y-61920000D02*
X137016839Y-61930000D01*
X145436593Y-61920000D02*
X145436593Y-62704228D01*
X106396593Y-61930000D02*
X109446470Y-61930000D01*
X106396593Y-61930000D02*
X106396593Y-67319877D01*
X105406470Y-68310000D02*
X104606716Y-68310000D01*
X105406470Y-71310000D02*
X104606716Y-71310000D01*
X110186716Y-78370123D02*
X110183194Y-78638492D01*
X113186716Y-78370123D02*
X113183194Y-78638492D01*
X132806470Y-78370123D02*
X132795342Y-78637395D01*
X135806470Y-78370123D02*
X135800112Y-78734554D01*
X146426716Y-75853753D02*
X147196470Y-75850123D01*
X148186593Y-86000123D02*
X148186593Y-111539754D01*
X148186593Y-76840246D02*
X148186593Y-81019877D01*
X146426716Y-66694351D02*
X147196470Y-66690000D01*
X146426716Y-63694351D02*
X147196470Y-63690000D01*
X136026716Y-60939877D02*
X136038864Y-60570122D01*
X133026716Y-60939877D02*
X133038864Y-60570122D01*
X113436593Y-60939877D02*
X113426716Y-60570123D01*
X110436593Y-60939877D02*
X110426716Y-60570123D01*
X145816118Y-115515773D02*
X147196470Y-115529877D01*
X145816118Y-112515773D02*
X147196470Y-112529877D01*
X144825995Y-111525650D02*
X144816593Y-85970246D01*
X147196470Y-85010000D02*
X145806716Y-84980123D01*
X147196470Y-82010000D02*
X145806716Y-81980123D01*
X144816593Y-80990000D02*
X144810798Y-79627518D01*
X148186593Y-71860000D02*
X148185397Y-71908700D01*
X148045741Y-76331163D02*
X148069692Y-76373442D01*
X147619871Y-75945176D02*
X147663274Y-75967024D01*
X148181822Y-76743086D02*
X148185397Y-76791546D01*
X148091539Y-72283401D02*
X148069692Y-72326804D01*
X148185397Y-76791546D02*
X148186593Y-76840246D01*
X148185397Y-71908700D02*
X148181822Y-71957160D01*
X148069692Y-76373442D02*
X148091539Y-76416845D01*
X147746605Y-72683275D02*
X147705553Y-72709272D01*
X147389731Y-75869149D02*
X147437142Y-75879795D01*
X148175874Y-72005386D02*
X148167567Y-72053262D01*
X147786333Y-76044950D02*
X147824640Y-76074845D01*
X147245169Y-72848927D02*
X147196470Y-72850123D01*
X148069692Y-72326804D02*
X148045741Y-72369083D01*
X148128718Y-76506603D02*
X148143961Y-76552742D01*
X147861434Y-76106584D02*
X147896626Y-76140089D01*
X147437142Y-75879795D02*
X147483973Y-75892755D01*
X147705553Y-72709272D02*
X147663274Y-72733222D01*
X147663274Y-72733222D02*
X147619871Y-72755070D01*
X147930132Y-72524964D02*
X147896626Y-72560157D01*
X147341855Y-75860841D02*
X147389731Y-75869149D01*
X147389731Y-72831097D02*
X147341855Y-72839405D01*
X147293629Y-72845353D02*
X147245169Y-72848927D01*
X147991766Y-72449864D02*
X147961871Y-72488170D01*
X147575448Y-75925485D02*
X147619871Y-75945176D01*
X148156921Y-72100673D02*
X148143961Y-72147504D01*
X148156921Y-76599573D02*
X148167567Y-76646984D01*
X147575448Y-72774761D02*
X147530112Y-72792249D01*
X147530112Y-75907997D02*
X147575448Y-75925485D01*
X147619871Y-72755070D02*
X147575448Y-72774761D01*
X147991766Y-76250382D02*
X148019745Y-76290110D01*
X148019745Y-76290110D02*
X148045741Y-76331163D01*
X147341855Y-72839405D02*
X147293629Y-72845353D01*
X147961871Y-72488170D02*
X147930132Y-72524964D01*
X147786333Y-72655296D02*
X147746605Y-72683275D01*
X148111230Y-76461268D02*
X148128718Y-76506603D01*
X147663274Y-75967024D02*
X147705553Y-75990974D01*
X147861434Y-72593662D02*
X147824640Y-72625401D01*
X147483973Y-75892755D02*
X147530112Y-75907997D01*
X147483973Y-72807491D02*
X147437142Y-72820451D01*
X148128718Y-72193643D02*
X148111230Y-72238978D01*
X148181822Y-71957160D02*
X148175874Y-72005386D01*
X148019745Y-72410136D02*
X147991766Y-72449864D01*
X147245169Y-75851319D02*
X147293629Y-75854893D01*
X147196470Y-75850123D02*
X147245169Y-75851319D01*
X148167567Y-76646984D02*
X148175874Y-76694860D01*
X147824640Y-76074845D02*
X147861434Y-76106584D01*
X147930132Y-76175282D02*
X147961871Y-76212076D01*
X148167567Y-72053262D02*
X148156921Y-72100673D01*
X147530112Y-72792249D02*
X147483973Y-72807491D01*
X148091539Y-76416845D02*
X148111230Y-76461268D01*
X148045741Y-72369083D02*
X148019745Y-72410136D01*
X147705553Y-75990974D02*
X147746605Y-76016971D01*
X148111230Y-72238978D02*
X148091539Y-72283401D01*
X147824640Y-72625401D02*
X147786333Y-72655296D01*
X147437142Y-72820451D02*
X147389731Y-72831097D01*
X148143961Y-76552742D02*
X148156921Y-76599573D01*
X147896626Y-76140089D02*
X147930132Y-76175282D01*
X147746605Y-76016971D02*
X147786333Y-76044950D01*
X148175874Y-76694860D02*
X148181822Y-76743086D01*
X147961871Y-76212076D02*
X147991766Y-76250382D01*
X147293629Y-75854893D02*
X147341855Y-75860841D01*
X148143961Y-72147504D02*
X148128718Y-72193643D01*
X147896626Y-72560157D02*
X147861434Y-72593662D01*
X145917633Y-72712902D02*
X145876581Y-72686905D01*
X146047738Y-72778391D02*
X146003315Y-72758700D01*
X145447312Y-76698490D02*
X145455619Y-76650614D01*
X145836853Y-76048580D02*
X145876581Y-76020601D01*
X145661315Y-76215706D02*
X145693054Y-76178912D01*
X145441364Y-76746716D02*
X145447312Y-76698490D01*
X145553494Y-76377072D02*
X145577445Y-76334793D01*
X146047738Y-75929115D02*
X146093074Y-75911627D01*
X145693054Y-72528594D02*
X145661315Y-72491800D01*
X145479225Y-76556372D02*
X145494468Y-76510233D01*
X145437789Y-76795176D02*
X145441364Y-76746716D01*
X145455619Y-76650614D02*
X145466265Y-76603203D01*
X145577445Y-72372713D02*
X145553494Y-72330434D01*
X146093074Y-72795879D02*
X146047738Y-72778391D01*
X145494468Y-72197273D02*
X145479225Y-72151134D01*
X145917633Y-75994604D02*
X145959912Y-75970654D01*
X145466265Y-76603203D02*
X145479225Y-76556372D01*
X146139213Y-72811121D02*
X146093074Y-72795879D01*
X145441364Y-71960790D02*
X145437789Y-71912330D01*
X146329557Y-72848983D02*
X146281331Y-72843035D01*
X145437789Y-71912330D02*
X145436593Y-71863630D01*
X146093074Y-75911627D02*
X146139213Y-75896385D01*
X145661315Y-72491800D02*
X145631420Y-72453494D01*
X145511956Y-76464898D02*
X145531647Y-76420475D01*
X145466265Y-72104303D02*
X145455619Y-72056892D01*
X145479225Y-72151134D02*
X145466265Y-72104303D01*
X145959912Y-75970654D02*
X146003315Y-75948806D01*
X145447312Y-72009016D02*
X145441364Y-71960790D01*
X145876581Y-76020601D02*
X145917633Y-75994604D01*
X145511956Y-72242608D02*
X145494468Y-72197273D01*
X145577445Y-76334793D02*
X145603441Y-76293740D01*
X145761752Y-72597292D02*
X145726560Y-72563787D01*
X145455619Y-72056892D02*
X145447312Y-72009016D01*
X146426716Y-72853753D02*
X146378017Y-72852557D01*
X145726560Y-76143719D02*
X145761752Y-76110214D01*
X145798546Y-76078475D02*
X145836853Y-76048580D01*
X145726560Y-72563787D02*
X145693054Y-72528594D01*
X145531647Y-76420475D02*
X145553494Y-76377072D01*
X146329557Y-75858523D02*
X146378017Y-75854949D01*
X146139213Y-75896385D02*
X146186044Y-75883425D01*
X145436593Y-76843876D02*
X145437789Y-76795176D01*
X145631420Y-72453494D02*
X145603441Y-72413766D01*
X146233455Y-72834727D02*
X146186044Y-72824081D01*
X145603441Y-76293740D02*
X145631420Y-76254012D01*
X145761752Y-76110214D02*
X145798546Y-76078475D01*
X146378017Y-72852557D02*
X146329557Y-72848983D01*
X145553494Y-72330434D02*
X145531647Y-72287031D01*
X145798546Y-72629031D02*
X145761752Y-72597292D01*
X146186044Y-75883425D02*
X146233455Y-75872779D01*
X145836853Y-72658926D02*
X145798546Y-72629031D01*
X145959912Y-72736852D02*
X145917633Y-72712902D01*
X146003315Y-72758700D02*
X145959912Y-72736852D01*
X145494468Y-76510233D02*
X145511956Y-76464898D01*
X146281331Y-75864471D02*
X146329557Y-75858523D01*
X145876581Y-72686905D02*
X145836853Y-72658926D01*
X146233455Y-75872779D02*
X146281331Y-75864471D01*
X146281331Y-72843035D02*
X146233455Y-72834727D01*
X145693054Y-76178912D02*
X145726560Y-76143719D01*
X146378017Y-75854949D02*
X146426716Y-75853753D01*
X145531647Y-72287031D02*
X145511956Y-72242608D01*
X145603441Y-72413766D02*
X145577445Y-72372713D01*
X146003315Y-75948806D02*
X146047738Y-75929115D01*
X145631420Y-76254012D02*
X145661315Y-76215706D01*
X146186044Y-72824081D02*
X146139213Y-72811121D01*
X105785448Y-71385362D02*
X105829871Y-71405053D01*
X106385874Y-67465263D02*
X106377567Y-67513139D01*
X105996333Y-68115173D02*
X105956605Y-68143152D01*
X106279692Y-67786681D02*
X106255741Y-67828960D01*
X106140132Y-71635159D02*
X106171871Y-71671953D01*
X106353961Y-67607381D02*
X106338718Y-67653520D01*
X106395397Y-67368577D02*
X106391822Y-67417037D01*
X106377567Y-67513139D02*
X106366921Y-67560550D01*
X106255741Y-71791040D02*
X106279692Y-71833319D01*
X105740112Y-71367874D02*
X105785448Y-71385362D01*
X105915553Y-68169149D02*
X105873274Y-68193099D01*
X106034640Y-71534722D02*
X106071434Y-71566461D01*
X106366921Y-67560550D02*
X106353961Y-67607381D01*
X105693973Y-71352632D02*
X105740112Y-71367874D01*
X106391822Y-72202963D02*
X106395397Y-72251423D01*
X105740112Y-68252126D02*
X105693973Y-68267368D01*
X106171871Y-71671953D02*
X106201766Y-71710259D01*
X106321230Y-67698855D02*
X106301539Y-67743278D01*
X106366921Y-72059450D02*
X106377567Y-72106861D01*
X106171871Y-67948047D02*
X106140132Y-67984841D01*
X106353961Y-72012619D02*
X106366921Y-72059450D01*
X105873274Y-68193099D02*
X105829871Y-68214947D01*
X106385874Y-72154737D02*
X106391822Y-72202963D01*
X105956605Y-68143152D02*
X105915553Y-68169149D01*
X106321230Y-71921145D02*
X106338718Y-71966480D01*
X106391822Y-67417037D02*
X106385874Y-67465263D01*
X106255741Y-67828960D02*
X106229745Y-67870013D01*
X105915553Y-71450851D02*
X105956605Y-71476848D01*
X106071434Y-71566461D02*
X106106626Y-71599966D01*
X106338718Y-71966480D02*
X106353961Y-72012619D01*
X106377567Y-72106861D02*
X106385874Y-72154737D01*
X105599731Y-71329026D02*
X105647142Y-71339672D01*
X105406470Y-71310000D02*
X105455169Y-71311196D01*
X106106626Y-68020034D02*
X106071434Y-68053539D01*
X105551855Y-68299282D02*
X105503629Y-68305230D01*
X106034640Y-68085278D02*
X105996333Y-68115173D01*
X106106626Y-71599966D02*
X106140132Y-71635159D01*
X106301539Y-67743278D02*
X106279692Y-67786681D01*
X106140132Y-67984841D02*
X106106626Y-68020034D01*
X105503629Y-68305230D02*
X105455169Y-68308804D01*
X105693973Y-68267368D02*
X105647142Y-68280328D01*
X106396593Y-67319877D02*
X106395397Y-67368577D01*
X106201766Y-71710259D02*
X106229745Y-71749987D01*
X105873274Y-71426901D02*
X105915553Y-71450851D01*
X106395397Y-72251423D02*
X106396593Y-72300123D01*
X106229745Y-67870013D02*
X106201766Y-67909741D01*
X106071434Y-68053539D02*
X106034640Y-68085278D01*
X105455169Y-71311196D02*
X105503629Y-71314770D01*
X106279692Y-71833319D02*
X106301539Y-71876722D01*
X105647142Y-68280328D02*
X105599731Y-68290974D01*
X105996333Y-71504827D02*
X106034640Y-71534722D01*
X105829871Y-71405053D02*
X105873274Y-71426901D01*
X106338718Y-67653520D02*
X106321230Y-67698855D01*
X105599731Y-68290974D02*
X105551855Y-68299282D01*
X105956605Y-71476848D02*
X105996333Y-71504827D01*
X105503629Y-71314770D02*
X105551855Y-71320718D01*
X105551855Y-71320718D02*
X105599731Y-71329026D01*
X105455169Y-68308804D02*
X105406470Y-68310000D01*
X106301539Y-71876722D02*
X106321230Y-71921145D01*
X106229745Y-71749987D02*
X106255741Y-71791040D01*
X105829871Y-68214947D02*
X105785448Y-68234638D01*
X106201766Y-67909741D02*
X106171871Y-67948047D01*
X105785448Y-68234638D02*
X105740112Y-68252126D01*
X105647142Y-71339672D02*
X105693973Y-71352632D01*
X104227738Y-68234638D02*
X104183315Y-68214947D01*
X103627312Y-72154737D02*
X103635619Y-72106861D01*
X104016853Y-71504827D02*
X104056581Y-71476848D01*
X103733494Y-71833319D02*
X103757445Y-71791040D01*
X103873054Y-67984841D02*
X103841315Y-67948047D01*
X103659225Y-72012619D02*
X103674468Y-71966480D01*
X103617789Y-72251423D02*
X103621364Y-72202963D01*
X103635619Y-72106861D02*
X103646265Y-72059450D01*
X103757445Y-67828960D02*
X103733494Y-67786681D01*
X104273074Y-68252126D02*
X104227738Y-68234638D01*
X104097633Y-71450851D02*
X104139912Y-71426901D01*
X103978546Y-68085278D02*
X103941752Y-68053539D01*
X103646265Y-72059450D02*
X103659225Y-72012619D01*
X104319213Y-68267368D02*
X104273074Y-68252126D01*
X103621364Y-67417037D02*
X103617789Y-67368577D01*
X104273074Y-71367874D02*
X104319213Y-71352632D01*
X103841315Y-67948047D02*
X103811420Y-67909741D01*
X103691956Y-71921145D02*
X103711647Y-71876722D01*
X103646265Y-67560550D02*
X103635619Y-67513139D01*
X103841315Y-71671953D02*
X103873054Y-71635159D01*
X103659225Y-67607381D02*
X103646265Y-67560550D01*
X104139912Y-71426901D02*
X104183315Y-71405053D01*
X103627312Y-67465263D02*
X103621364Y-67417037D01*
X104056581Y-71476848D02*
X104097633Y-71450851D01*
X103691956Y-67698855D02*
X103674468Y-67653520D01*
X103621364Y-72202963D02*
X103627312Y-72154737D01*
X103757445Y-71791040D02*
X103783441Y-71749987D01*
X104097633Y-68169149D02*
X104056581Y-68143152D01*
X103941752Y-68053539D02*
X103906560Y-68020034D01*
X103674468Y-67653520D02*
X103659225Y-67607381D01*
X103635619Y-67513139D02*
X103627312Y-67465263D01*
X104413455Y-68290974D02*
X104366044Y-68280328D01*
X104606716Y-68310000D02*
X104558017Y-68308804D01*
X103906560Y-71599966D02*
X103941752Y-71566461D01*
X104461331Y-71320718D02*
X104509557Y-71314770D01*
X103978546Y-71534722D02*
X104016853Y-71504827D01*
X103906560Y-68020034D02*
X103873054Y-67984841D01*
X103711647Y-71876722D02*
X103733494Y-71833319D01*
X103873054Y-71635159D02*
X103906560Y-71599966D01*
X104509557Y-71314770D02*
X104558017Y-71311196D01*
X104319213Y-71352632D02*
X104366044Y-71339672D01*
X103616593Y-72300123D02*
X103617789Y-72251423D01*
X103811420Y-67909741D02*
X103783441Y-67870013D01*
X104139912Y-68193099D02*
X104097633Y-68169149D01*
X103617789Y-67368577D02*
X103616593Y-67319877D01*
X103783441Y-71749987D02*
X103811420Y-71710259D01*
X103941752Y-71566461D02*
X103978546Y-71534722D01*
X104558017Y-68308804D02*
X104509557Y-68305230D01*
X103733494Y-67786681D02*
X103711647Y-67743278D01*
X104366044Y-71339672D02*
X104413455Y-71329026D01*
X104016853Y-68115173D02*
X103978546Y-68085278D01*
X104183315Y-68214947D02*
X104139912Y-68193099D01*
X103674468Y-71966480D02*
X103691956Y-71921145D01*
X104413455Y-71329026D02*
X104461331Y-71320718D01*
X104056581Y-68143152D02*
X104016853Y-68115173D01*
X104509557Y-68305230D02*
X104461331Y-68299282D01*
X104461331Y-68299282D02*
X104413455Y-68290974D01*
X104558017Y-71311196D02*
X104606716Y-71310000D01*
X103711647Y-67743278D02*
X103691956Y-67698855D01*
X103783441Y-67870013D02*
X103757445Y-67828960D01*
X104183315Y-71405053D02*
X104227738Y-71385362D01*
X103811420Y-71710259D02*
X103841315Y-71671953D01*
X104227738Y-71385362D02*
X104273074Y-71367874D01*
X104366044Y-68280328D02*
X104319213Y-68267368D01*
X113262078Y-77991145D02*
X113281769Y-77946722D01*
X109341979Y-77390719D02*
X109389855Y-77399026D01*
X109991889Y-77780260D02*
X110019868Y-77819988D01*
X109663397Y-77496901D02*
X109705676Y-77520852D01*
X113511875Y-77636461D02*
X113548669Y-77604722D01*
X109484097Y-77422632D02*
X109530236Y-77437875D01*
X109245293Y-77381196D02*
X109293753Y-77384771D01*
X109389855Y-77399026D02*
X109437266Y-77409672D01*
X113667756Y-77520852D02*
X113710035Y-77496901D01*
X113244590Y-78036481D02*
X113262078Y-77991145D01*
X110045865Y-77861040D02*
X110069815Y-77903319D01*
X113411438Y-77741953D02*
X113443177Y-77705159D01*
X109437266Y-77409672D02*
X109484097Y-77422632D01*
X113229348Y-78082620D02*
X113244590Y-78036481D01*
X114079679Y-77384771D02*
X114128139Y-77381196D01*
X110128842Y-78036481D02*
X110144084Y-78082620D01*
X113548669Y-77604722D02*
X113586975Y-77574827D01*
X109575571Y-77455363D02*
X109619994Y-77475054D01*
X113936166Y-77409672D02*
X113983577Y-77399026D01*
X109824763Y-77604722D02*
X109861557Y-77636461D01*
X113889335Y-77422632D02*
X113936166Y-77409672D01*
X110069815Y-77903319D02*
X110091663Y-77946722D01*
X114031453Y-77390719D02*
X114079679Y-77384771D01*
X110019868Y-77819988D02*
X110045865Y-77861040D01*
X113797861Y-77455363D02*
X113843196Y-77437875D01*
X109293753Y-77384771D02*
X109341979Y-77390719D01*
X109705676Y-77520852D02*
X109746729Y-77546848D01*
X113327567Y-77861040D02*
X113353564Y-77819988D01*
X113443177Y-77705159D02*
X113476682Y-77669967D01*
X113843196Y-77437875D02*
X113889335Y-77422632D01*
X113983577Y-77399026D02*
X114031453Y-77390719D01*
X113205742Y-78176862D02*
X113216388Y-78129451D01*
X113186716Y-78370123D02*
X113187912Y-78321424D01*
X109896750Y-77669967D02*
X109930255Y-77705159D01*
X110175998Y-78224738D02*
X110181946Y-78272964D01*
X109961994Y-77741953D02*
X109991889Y-77780260D01*
X113476682Y-77669967D02*
X113511875Y-77636461D01*
X109619994Y-77475054D02*
X109663397Y-77496901D01*
X109861557Y-77636461D02*
X109896750Y-77669967D01*
X110181946Y-78272964D02*
X110185520Y-78321424D01*
X110144084Y-78082620D02*
X110157044Y-78129451D01*
X109196593Y-77380000D02*
X109245293Y-77381196D01*
X113586975Y-77574827D02*
X113626703Y-77546848D01*
X113303617Y-77903319D02*
X113327567Y-77861040D01*
X114128139Y-77381196D02*
X114176839Y-77380000D01*
X109746729Y-77546848D02*
X109786457Y-77574827D01*
X109930255Y-77705159D02*
X109961994Y-77741953D01*
X113187912Y-78321424D02*
X113191486Y-78272964D01*
X113710035Y-77496901D02*
X113753438Y-77475054D01*
X110157044Y-78129451D02*
X110167690Y-78176862D01*
X113381543Y-77780260D02*
X113411438Y-77741953D01*
X113281769Y-77946722D02*
X113303617Y-77903319D01*
X109530236Y-77437875D02*
X109575571Y-77455363D01*
X110167690Y-78176862D02*
X110175998Y-78224738D01*
X113353564Y-77819988D02*
X113381543Y-77780260D01*
X113191486Y-78272964D02*
X113197434Y-78224738D01*
X113197434Y-78224738D02*
X113205742Y-78176862D01*
X110185520Y-78321424D02*
X110186716Y-78370123D01*
X113753438Y-77475054D02*
X113797861Y-77455363D01*
X113626703Y-77546848D02*
X113667756Y-77520852D01*
X110091663Y-77946722D02*
X110111354Y-77991145D01*
X109786457Y-77574827D02*
X109824763Y-77604722D01*
X110111354Y-77991145D02*
X110128842Y-78036481D01*
X113216388Y-78129451D02*
X113229348Y-78082620D01*
X135881832Y-77991145D02*
X135901523Y-77946722D01*
X131961733Y-77390719D02*
X132009609Y-77399026D01*
X132611643Y-77780260D02*
X132639622Y-77819988D01*
X132283151Y-77496901D02*
X132325430Y-77520852D01*
X136131629Y-77636461D02*
X136168423Y-77604722D01*
X132103851Y-77422632D02*
X132149990Y-77437875D01*
X131865047Y-77381196D02*
X131913507Y-77384771D01*
X132009609Y-77399026D02*
X132057020Y-77409672D01*
X136287510Y-77520852D02*
X136329789Y-77496901D01*
X135864344Y-78036481D02*
X135881832Y-77991145D01*
X132665619Y-77861040D02*
X132689569Y-77903319D01*
X136031192Y-77741953D02*
X136062931Y-77705159D01*
X132057020Y-77409672D02*
X132103851Y-77422632D01*
X135849102Y-78082620D02*
X135864344Y-78036481D01*
X136699433Y-77384771D02*
X136747893Y-77381196D01*
X132748596Y-78036481D02*
X132763838Y-78082620D01*
X136168423Y-77604722D02*
X136206729Y-77574827D01*
X132195325Y-77455363D02*
X132239748Y-77475054D01*
X136555920Y-77409672D02*
X136603331Y-77399026D01*
X132444517Y-77604722D02*
X132481311Y-77636461D01*
X136509089Y-77422632D02*
X136555920Y-77409672D01*
X132689569Y-77903319D02*
X132711417Y-77946722D01*
X136651207Y-77390719D02*
X136699433Y-77384771D01*
X132639622Y-77819988D02*
X132665619Y-77861040D01*
X136417615Y-77455363D02*
X136462950Y-77437875D01*
X131913507Y-77384771D02*
X131961733Y-77390719D01*
X132325430Y-77520852D02*
X132366483Y-77546848D01*
X135947321Y-77861040D02*
X135973318Y-77819988D01*
X136062931Y-77705159D02*
X136096436Y-77669967D01*
X136462950Y-77437875D02*
X136509089Y-77422632D01*
X136603331Y-77399026D02*
X136651207Y-77390719D01*
X135825496Y-78176862D02*
X135836142Y-78129451D01*
X135806470Y-78370123D02*
X135807666Y-78321424D01*
X132516504Y-77669967D02*
X132550009Y-77705159D01*
X132795752Y-78224738D02*
X132801700Y-78272964D01*
X132581748Y-77741953D02*
X132611643Y-77780260D01*
X136096436Y-77669967D02*
X136131629Y-77636461D01*
X132239748Y-77475054D02*
X132283151Y-77496901D01*
X132481311Y-77636461D02*
X132516504Y-77669967D01*
X132801700Y-78272964D02*
X132805274Y-78321424D01*
X132763838Y-78082620D02*
X132776798Y-78129451D01*
X131816347Y-77380000D02*
X131865047Y-77381196D01*
X136206729Y-77574827D02*
X136246457Y-77546848D01*
X135923371Y-77903319D02*
X135947321Y-77861040D01*
X136747893Y-77381196D02*
X136796593Y-77380000D01*
X132366483Y-77546848D02*
X132406211Y-77574827D01*
X132550009Y-77705159D02*
X132581748Y-77741953D01*
X135807666Y-78321424D02*
X135811240Y-78272964D01*
X136329789Y-77496901D02*
X136373192Y-77475054D01*
X132776798Y-78129451D02*
X132787444Y-78176862D01*
X136001297Y-77780260D02*
X136031192Y-77741953D01*
X135901523Y-77946722D02*
X135923371Y-77903319D01*
X132149990Y-77437875D02*
X132195325Y-77455363D01*
X132787444Y-78176862D02*
X132795752Y-78224738D01*
X135973318Y-77819988D02*
X136001297Y-77780260D01*
X135811240Y-78272964D02*
X135817188Y-78224738D01*
X135817188Y-78224738D02*
X135825496Y-78176862D01*
X132805274Y-78321424D02*
X132806470Y-78370123D01*
X136373192Y-77475054D02*
X136417615Y-77455363D01*
X136246457Y-77546848D02*
X136287510Y-77520852D01*
X132711417Y-77946722D02*
X132731108Y-77991145D01*
X132406211Y-77574827D02*
X132444517Y-77604722D01*
X132731108Y-77991145D02*
X132748596Y-78036481D01*
X135836142Y-78129451D02*
X135849102Y-78082620D01*
X110361231Y-61318855D02*
X110341540Y-61363278D01*
X114281330Y-61919281D02*
X114233454Y-61910974D01*
X113631420Y-61529740D02*
X113603441Y-61490012D01*
X113959912Y-61813099D02*
X113917633Y-61789148D01*
X110111434Y-61673539D02*
X110074640Y-61705278D01*
X114139212Y-61887368D02*
X114093073Y-61872125D01*
X114378016Y-61928804D02*
X114329556Y-61925229D01*
X114233454Y-61910974D02*
X114186043Y-61900328D01*
X109955553Y-61789148D02*
X109913274Y-61813099D01*
X110378719Y-61273519D02*
X110361231Y-61318855D01*
X113577444Y-61448960D02*
X113553494Y-61406681D01*
X110211871Y-61568047D02*
X110180132Y-61604841D01*
X114186043Y-61900328D02*
X114139212Y-61887368D01*
X110393961Y-61227380D02*
X110378719Y-61273519D01*
X109543630Y-61925229D02*
X109495170Y-61928804D01*
X113494467Y-61273519D02*
X113479225Y-61227380D01*
X110074640Y-61705278D02*
X110036334Y-61735173D01*
X114047738Y-61854637D02*
X114003315Y-61834946D01*
X109687143Y-61900328D02*
X109639732Y-61910974D01*
X113798546Y-61705278D02*
X113761752Y-61673539D01*
X109733974Y-61887368D02*
X109687143Y-61900328D01*
X113553494Y-61406681D02*
X113531646Y-61363278D01*
X109591856Y-61919281D02*
X109543630Y-61925229D01*
X113603441Y-61490012D02*
X113577444Y-61448960D01*
X109825448Y-61854637D02*
X109780113Y-61872125D01*
X114329556Y-61925229D02*
X114281330Y-61919281D01*
X113917633Y-61789148D02*
X113876580Y-61763152D01*
X110295742Y-61448960D02*
X110269745Y-61490012D01*
X110180132Y-61604841D02*
X110146627Y-61640033D01*
X109780113Y-61872125D02*
X109733974Y-61887368D01*
X109639732Y-61910974D02*
X109591856Y-61919281D01*
X110417567Y-61133138D02*
X110406921Y-61180549D01*
X110436593Y-60939877D02*
X110435397Y-60988576D01*
X113726559Y-61640033D02*
X113693054Y-61604841D01*
X113447311Y-61085262D02*
X113441363Y-61037036D01*
X113661315Y-61568047D02*
X113631420Y-61529740D01*
X110146627Y-61640033D02*
X110111434Y-61673539D01*
X114003315Y-61834946D02*
X113959912Y-61813099D01*
X113761752Y-61673539D02*
X113726559Y-61640033D01*
X113441363Y-61037036D02*
X113437789Y-60988576D01*
X113479225Y-61227380D02*
X113466265Y-61180549D01*
X114426716Y-61930000D02*
X114378016Y-61928804D01*
X110036334Y-61735173D02*
X109996606Y-61763152D01*
X110319692Y-61406681D02*
X110295742Y-61448960D01*
X109495170Y-61928804D02*
X109446470Y-61930000D01*
X113876580Y-61763152D02*
X113836852Y-61735173D01*
X113693054Y-61604841D02*
X113661315Y-61568047D01*
X110435397Y-60988576D02*
X110431823Y-61037036D01*
X109913274Y-61813099D02*
X109869871Y-61834946D01*
X113466265Y-61180549D02*
X113455619Y-61133138D01*
X110241766Y-61529740D02*
X110211871Y-61568047D01*
X110341540Y-61363278D02*
X110319692Y-61406681D01*
X114093073Y-61872125D02*
X114047738Y-61854637D01*
X113455619Y-61133138D02*
X113447311Y-61085262D01*
X110269745Y-61490012D02*
X110241766Y-61529740D01*
X110431823Y-61037036D02*
X110425875Y-61085262D01*
X110425875Y-61085262D02*
X110417567Y-61133138D01*
X113437789Y-60988576D02*
X113436593Y-60939877D01*
X109869871Y-61834946D02*
X109825448Y-61854637D01*
X109996606Y-61763152D02*
X109955553Y-61789148D01*
X113531646Y-61363278D02*
X113511955Y-61318855D01*
X113836852Y-61735173D02*
X113798546Y-61705278D01*
X113511955Y-61318855D02*
X113494467Y-61273519D01*
X110406921Y-61180549D02*
X110393961Y-61227380D01*
X132951354Y-61318855D02*
X132931663Y-61363278D01*
X136871453Y-61919281D02*
X136823577Y-61910974D01*
X136221543Y-61529740D02*
X136193564Y-61490012D01*
X136550035Y-61813099D02*
X136507756Y-61789148D01*
X132701557Y-61673539D02*
X132664763Y-61705278D01*
X136729335Y-61887368D02*
X136683196Y-61872125D01*
X136968139Y-61928804D02*
X136919679Y-61925229D01*
X136823577Y-61910974D02*
X136776166Y-61900328D01*
X132545676Y-61789148D02*
X132503397Y-61813099D01*
X132968842Y-61273519D02*
X132951354Y-61318855D01*
X136167567Y-61448960D02*
X136143617Y-61406681D01*
X132801994Y-61568047D02*
X132770255Y-61604841D01*
X136776166Y-61900328D02*
X136729335Y-61887368D01*
X132984084Y-61227380D02*
X132968842Y-61273519D01*
X132133753Y-61925229D02*
X132085293Y-61928804D01*
X136084590Y-61273519D02*
X136069348Y-61227380D01*
X132664763Y-61705278D02*
X132626457Y-61735173D01*
X136637861Y-61854637D02*
X136593438Y-61834946D01*
X132277266Y-61900328D02*
X132229855Y-61910974D01*
X136388669Y-61705278D02*
X136351875Y-61673539D01*
X132324097Y-61887368D02*
X132277266Y-61900328D01*
X136143617Y-61406681D02*
X136121769Y-61363278D01*
X132181979Y-61919281D02*
X132133753Y-61925229D01*
X136193564Y-61490012D02*
X136167567Y-61448960D01*
X132415571Y-61854637D02*
X132370236Y-61872125D01*
X136919679Y-61925229D02*
X136871453Y-61919281D01*
X136507756Y-61789148D02*
X136466703Y-61763152D01*
X132885865Y-61448960D02*
X132859868Y-61490012D01*
X132770255Y-61604841D02*
X132736750Y-61640033D01*
X132370236Y-61872125D02*
X132324097Y-61887368D01*
X132229855Y-61910974D02*
X132181979Y-61919281D01*
X133007690Y-61133138D02*
X132997044Y-61180549D01*
X133026716Y-60939877D02*
X133025520Y-60988576D01*
X136316682Y-61640033D02*
X136283177Y-61604841D01*
X136037434Y-61085262D02*
X136031486Y-61037036D01*
X136251438Y-61568047D02*
X136221543Y-61529740D01*
X132736750Y-61640033D02*
X132701557Y-61673539D01*
X136593438Y-61834946D02*
X136550035Y-61813099D01*
X136351875Y-61673539D02*
X136316682Y-61640033D01*
X136031486Y-61037036D02*
X136027912Y-60988576D01*
X136069348Y-61227380D02*
X136056388Y-61180549D01*
X137016839Y-61930000D02*
X136968139Y-61928804D01*
X132626457Y-61735173D02*
X132586729Y-61763152D01*
X132909815Y-61406681D02*
X132885865Y-61448960D01*
X132085293Y-61928804D02*
X132036593Y-61930000D01*
X136466703Y-61763152D02*
X136426975Y-61735173D01*
X136283177Y-61604841D02*
X136251438Y-61568047D01*
X133025520Y-60988576D02*
X133021946Y-61037036D01*
X132503397Y-61813099D02*
X132459994Y-61834946D01*
X136056388Y-61180549D02*
X136045742Y-61133138D01*
X132831889Y-61529740D02*
X132801994Y-61568047D01*
X132931663Y-61363278D02*
X132909815Y-61406681D01*
X136683196Y-61872125D02*
X136637861Y-61854637D01*
X136045742Y-61133138D02*
X136037434Y-61085262D01*
X132859868Y-61490012D02*
X132831889Y-61529740D01*
X133021946Y-61037036D02*
X133015998Y-61085262D01*
X133015998Y-61085262D02*
X133007690Y-61133138D01*
X136027912Y-60988576D02*
X136026716Y-60939877D01*
X132459994Y-61834946D02*
X132415571Y-61854637D01*
X132586729Y-61763152D02*
X132545676Y-61789148D01*
X136121769Y-61363278D02*
X136102078Y-61318855D01*
X136426975Y-61735173D02*
X136388669Y-61705278D01*
X136102078Y-61318855D02*
X136084590Y-61273519D01*
X132997044Y-61180549D02*
X132984084Y-61227380D01*
X179596593Y-68610000D02*
X164951259Y-68608903D01*
X179600821Y-70620060D02*
X164951259Y-70617806D01*
X180024222Y-70525006D02*
X179979799Y-70544697D01*
X183648818Y-69963579D02*
X183633576Y-69917440D01*
X180150957Y-70453212D02*
X180109904Y-70479208D01*
X184387805Y-70601034D02*
X184340394Y-70590388D01*
X183592140Y-69678636D02*
X183590944Y-69629937D01*
X183707845Y-70096741D02*
X183685997Y-70053338D01*
X183633576Y-69917440D02*
X183620616Y-69870609D01*
X179649521Y-70618864D02*
X179600821Y-70620060D01*
X180586174Y-69727096D02*
X180580226Y-69775322D01*
X180515582Y-70008915D02*
X180495891Y-70053338D01*
X183731795Y-70139020D02*
X183707845Y-70096741D01*
X184435681Y-70609341D02*
X184387805Y-70601034D01*
X179746207Y-70609341D02*
X179697981Y-70615289D01*
X179888325Y-70577428D02*
X179841494Y-70590388D01*
X184340394Y-70590388D02*
X184293563Y-70577428D01*
X184293563Y-70577428D02*
X184247424Y-70562185D01*
X180561272Y-69870609D02*
X180548312Y-69917440D01*
X183952897Y-70395338D02*
X183916103Y-70363599D01*
X180571918Y-69823198D02*
X180561272Y-69870609D01*
X179979799Y-70544697D02*
X179934464Y-70562185D01*
X180366222Y-70258107D02*
X180334483Y-70294901D01*
X180474043Y-70096741D02*
X180450093Y-70139020D01*
X180190685Y-70425233D02*
X180150957Y-70453212D01*
X180067625Y-70503159D02*
X180024222Y-70525006D01*
X180548312Y-69917440D02*
X180533070Y-69963579D01*
X183609970Y-69823198D02*
X183601662Y-69775322D01*
X180424096Y-70180072D02*
X180396117Y-70219800D01*
X183685997Y-70053338D02*
X183666306Y-70008915D01*
X180228991Y-70395338D02*
X180190685Y-70425233D01*
X179934464Y-70562185D02*
X179888325Y-70577428D01*
X183785771Y-70219800D02*
X183757792Y-70180072D01*
X183880910Y-70330093D02*
X183847405Y-70294901D01*
X180589748Y-69678636D02*
X180586174Y-69727096D01*
X183757792Y-70180072D02*
X183731795Y-70139020D01*
X184247424Y-70562185D02*
X184202089Y-70544697D01*
X183601662Y-69775322D02*
X183595714Y-69727096D01*
X180334483Y-70294901D02*
X180300978Y-70330093D01*
X183916103Y-70363599D02*
X183880910Y-70330093D01*
X184483907Y-70615289D02*
X184435681Y-70609341D01*
X179841494Y-70590388D02*
X179794083Y-70601034D01*
X184114263Y-70503159D02*
X184071984Y-70479208D01*
X184071984Y-70479208D02*
X184030931Y-70453212D01*
X180533070Y-69963579D02*
X180515582Y-70008915D01*
X183666306Y-70008915D02*
X183648818Y-69963579D01*
X179697981Y-70615289D02*
X179649521Y-70618864D01*
X183595714Y-69727096D02*
X183592140Y-69678636D01*
X180450093Y-70139020D02*
X180424096Y-70180072D01*
X184581067Y-70620060D02*
X184532367Y-70618864D01*
X184157666Y-70525006D02*
X184114263Y-70503159D01*
X180590944Y-69629937D02*
X180589748Y-69678636D01*
X184030931Y-70453212D02*
X183991203Y-70425233D01*
X180109904Y-70479208D02*
X180067625Y-70503159D01*
X180300978Y-70330093D02*
X180265785Y-70363599D01*
X183815666Y-70258107D02*
X183785771Y-70219800D01*
X180580226Y-69775322D02*
X180571918Y-69823198D01*
X183847405Y-70294901D02*
X183815666Y-70258107D01*
X184202089Y-70544697D02*
X184157666Y-70525006D01*
X183991203Y-70425233D02*
X183952897Y-70395338D01*
X180495891Y-70053338D02*
X180474043Y-70096741D01*
X184532367Y-70618864D02*
X184483907Y-70615289D01*
X180396117Y-70219800D02*
X180366222Y-70258107D01*
X179794083Y-70601034D02*
X179746207Y-70609341D01*
X180265785Y-70363599D02*
X180228991Y-70395338D01*
X183620616Y-69870609D02*
X183609970Y-69823198D01*
X184197861Y-68685363D02*
X184243196Y-68667875D01*
X179645293Y-68611196D02*
X179693753Y-68614771D01*
X180511354Y-69221145D02*
X180528842Y-69266481D01*
X183644590Y-69266481D02*
X183662078Y-69221145D01*
X184243196Y-68667875D02*
X184289335Y-68652632D01*
X183605742Y-69406862D02*
X183616388Y-69359451D01*
X180063397Y-68726901D02*
X180105676Y-68750852D01*
X179596593Y-68610000D02*
X179645293Y-68611196D01*
X184289335Y-68652632D02*
X184336166Y-68639672D01*
X180528842Y-69266481D02*
X180544084Y-69312620D01*
X180419868Y-69049988D02*
X180445865Y-69091040D01*
X179837266Y-68639672D02*
X179884097Y-68652632D01*
X184110035Y-68726901D02*
X184153438Y-68705054D01*
X184336166Y-68639672D02*
X184383577Y-68629026D01*
X183662078Y-69221145D02*
X183681769Y-69176722D01*
X180186457Y-68804827D02*
X180224763Y-68834722D01*
X180330255Y-68935159D02*
X180361994Y-68971953D01*
X184528139Y-68611196D02*
X184576839Y-68610000D01*
X179975571Y-68685363D02*
X180019994Y-68705054D01*
X180491663Y-69176722D02*
X180511354Y-69221145D01*
X183681769Y-69176722D02*
X183703617Y-69133319D01*
X183986975Y-68804827D02*
X184026703Y-68776848D01*
X183843177Y-68935159D02*
X183876682Y-68899967D01*
X180581946Y-69502964D02*
X180585520Y-69551424D01*
X179789855Y-68629026D02*
X179837266Y-68639672D01*
X184431453Y-68620719D02*
X184479679Y-68614771D01*
X183727567Y-69091040D02*
X183753564Y-69049988D01*
X180361994Y-68971953D02*
X180391889Y-69010260D01*
X183629348Y-69312620D02*
X183644590Y-69266481D01*
X180146729Y-68776848D02*
X180186457Y-68804827D01*
X180261557Y-68866461D02*
X180296750Y-68899967D01*
X184153438Y-68705054D02*
X184197861Y-68685363D01*
X180544084Y-69312620D02*
X180557044Y-69359451D01*
X180445865Y-69091040D02*
X180469815Y-69133319D01*
X184026703Y-68776848D02*
X184067756Y-68750852D01*
X184479679Y-68614771D02*
X184528139Y-68611196D01*
X180469815Y-69133319D02*
X180491663Y-69176722D01*
X183616388Y-69359451D02*
X183629348Y-69312620D01*
X180105676Y-68750852D02*
X180146729Y-68776848D01*
X179693753Y-68614771D02*
X179741979Y-68620719D01*
X183703617Y-69133319D02*
X183727567Y-69091040D01*
X180585520Y-69551424D02*
X180586716Y-69600123D01*
X183781543Y-69010260D02*
X183811438Y-68971953D01*
X183811438Y-68971953D02*
X183843177Y-68935159D01*
X184067756Y-68750852D02*
X184110035Y-68726901D01*
X180019994Y-68705054D02*
X180063397Y-68726901D01*
X180224763Y-68834722D02*
X180261557Y-68866461D01*
X183597434Y-69454738D02*
X183605742Y-69406862D01*
X180391889Y-69010260D02*
X180419868Y-69049988D01*
X180296750Y-68899967D02*
X180330255Y-68935159D01*
X183911875Y-68866461D02*
X183948669Y-68834722D01*
X180567690Y-69406862D02*
X180575998Y-69454738D01*
X183587912Y-69551424D02*
X183591486Y-69502964D01*
X180557044Y-69359451D02*
X180567690Y-69406862D01*
X183948669Y-68834722D02*
X183986975Y-68804827D01*
X180575998Y-69454738D02*
X180581946Y-69502964D01*
X179741979Y-68620719D02*
X179789855Y-68629026D01*
X179884097Y-68652632D02*
X179930236Y-68667875D01*
X179930236Y-68667875D02*
X179975571Y-68685363D01*
X183586716Y-69600123D02*
X183587912Y-69551424D01*
X183591486Y-69502964D02*
X183597434Y-69454738D01*
X183876682Y-68899967D02*
X183911875Y-68866461D01*
X184383577Y-68629026D02*
X184431453Y-68620719D01*
X183753564Y-69049988D02*
X183781543Y-69010260D01*
X144921049Y-111949051D02*
X144901358Y-111904628D01*
X145482476Y-115573647D02*
X145528615Y-115558405D01*
X144992843Y-112075786D02*
X144966847Y-112034733D01*
X144845021Y-116312634D02*
X144855667Y-116265223D01*
X145767419Y-115516969D02*
X145816118Y-115515773D01*
X145349314Y-115632674D02*
X145392717Y-115610826D01*
X145528615Y-115558405D02*
X145575446Y-115545445D01*
X144827191Y-111574350D02*
X144825995Y-111525650D01*
X145718959Y-112511003D02*
X145670733Y-112505055D01*
X145437140Y-112440411D02*
X145392717Y-112420720D01*
X145307035Y-115656624D02*
X145349314Y-115632674D01*
X144836714Y-116360510D02*
X144845021Y-116312634D01*
X144836714Y-111671036D02*
X144830766Y-111622810D01*
X144868627Y-111813154D02*
X144855667Y-111766323D01*
X144855667Y-116265223D02*
X144868627Y-116218392D01*
X144868627Y-116218392D02*
X144883870Y-116172253D01*
X145575446Y-112486101D02*
X145528615Y-112473141D01*
X145050717Y-115877726D02*
X145082456Y-115840932D01*
X145622857Y-112496747D02*
X145575446Y-112486101D01*
X144901358Y-111904628D02*
X144883870Y-111859293D01*
X145187948Y-112291051D02*
X145151154Y-112259312D01*
X145349314Y-112398872D02*
X145307035Y-112374922D01*
X145020822Y-112115514D02*
X144992843Y-112075786D01*
X144942896Y-111992454D02*
X144921049Y-111949051D01*
X145528615Y-112473141D02*
X145482476Y-112457899D01*
X145622857Y-115534799D02*
X145670733Y-115526491D01*
X145265983Y-112348925D02*
X145226255Y-112320946D01*
X145392717Y-115610826D02*
X145437140Y-115591135D01*
X145050717Y-112153820D02*
X145020822Y-112115514D01*
X144883870Y-111859293D02*
X144868627Y-111813154D01*
X145226255Y-115710600D02*
X145265983Y-115682621D01*
X145115962Y-115805739D02*
X145151154Y-115772234D01*
X145767419Y-112514577D02*
X145718959Y-112511003D01*
X145265983Y-115682621D02*
X145307035Y-115656624D01*
X144883870Y-116172253D02*
X144901358Y-116126918D01*
X145670733Y-115526491D02*
X145718959Y-115520543D01*
X145151154Y-112259312D02*
X145115962Y-112225807D01*
X145082456Y-115840932D02*
X145115962Y-115805739D01*
X144830766Y-116408736D02*
X144836714Y-116360510D01*
X144855667Y-111766323D02*
X144845021Y-111718912D01*
X144942896Y-116039092D02*
X144966847Y-115996813D01*
X144966847Y-115996813D02*
X144992843Y-115955760D01*
X145482476Y-112457899D02*
X145437140Y-112440411D01*
X145437140Y-115591135D02*
X145482476Y-115573647D01*
X144830766Y-111622810D02*
X144827191Y-111574350D01*
X145718959Y-115520543D02*
X145767419Y-115516969D01*
X145307035Y-112374922D02*
X145265983Y-112348925D01*
X144825995Y-116505896D02*
X144827191Y-116457196D01*
X144921049Y-116082495D02*
X144942896Y-116039092D01*
X145816118Y-112515773D02*
X145767419Y-112514577D01*
X144992843Y-115955760D02*
X145020822Y-115916032D01*
X144966847Y-112034733D02*
X144942896Y-111992454D01*
X145115962Y-112225807D02*
X145082456Y-112190614D01*
X145187948Y-115740495D02*
X145226255Y-115710600D01*
X145670733Y-112505055D02*
X145622857Y-112496747D01*
X145151154Y-115772234D02*
X145187948Y-115740495D01*
X144901358Y-116126918D02*
X144921049Y-116082495D01*
X145020822Y-115916032D02*
X145050717Y-115877726D01*
X145392717Y-112420720D02*
X145349314Y-112398872D01*
X144827191Y-116457196D02*
X144830766Y-116408736D01*
X145226255Y-112320946D02*
X145187948Y-112291051D01*
X144845021Y-111718912D02*
X144836714Y-111671036D01*
X145082456Y-112190614D02*
X145050717Y-112153820D01*
X145575446Y-115545445D02*
X145622857Y-115534799D01*
X148111230Y-116141022D02*
X148128718Y-116186357D01*
X148185397Y-111588454D02*
X148181822Y-111636914D01*
X147575448Y-112454515D02*
X147530112Y-112472003D01*
X147530112Y-115587751D02*
X147575448Y-115605239D01*
X148128718Y-116186357D02*
X148143961Y-116232496D01*
X147389731Y-115548903D02*
X147437142Y-115559549D01*
X148069692Y-112006558D02*
X148045741Y-112048837D01*
X148186593Y-111539754D02*
X148185397Y-111588454D01*
X148143961Y-116232496D02*
X148156921Y-116279327D01*
X147530112Y-112472003D02*
X147483973Y-112487245D01*
X147746605Y-112363029D02*
X147705553Y-112389026D01*
X148156921Y-111780427D02*
X148143961Y-111827258D01*
X148069692Y-116053196D02*
X148091539Y-116096599D01*
X148156921Y-116279327D02*
X148167567Y-116326738D01*
X147575448Y-115605239D02*
X147619871Y-115624930D01*
X147991766Y-112129618D02*
X147961871Y-112167924D01*
X147861434Y-112273416D02*
X147824640Y-112305155D01*
X148185397Y-116471300D02*
X148186593Y-116520000D01*
X148111230Y-111918732D02*
X148091539Y-111963155D01*
X147619871Y-112434824D02*
X147575448Y-112454515D01*
X147619871Y-115624930D02*
X147663274Y-115646778D01*
X147991766Y-115930136D02*
X148019745Y-115969864D01*
X147861434Y-115786338D02*
X147896626Y-115819843D01*
X147293629Y-112525107D02*
X147245169Y-112528681D01*
X148167567Y-111733016D02*
X148156921Y-111780427D01*
X148175874Y-116374614D02*
X148181822Y-116422840D01*
X147705553Y-115670728D02*
X147746605Y-115696725D01*
X147824640Y-112305155D02*
X147786333Y-112335050D01*
X147483973Y-115572509D02*
X147530112Y-115587751D01*
X148019745Y-112089890D02*
X147991766Y-112129618D01*
X147930132Y-112204718D02*
X147896626Y-112239911D01*
X148091539Y-116096599D02*
X148111230Y-116141022D01*
X147483973Y-112487245D02*
X147437142Y-112500205D01*
X147705553Y-112389026D02*
X147663274Y-112412976D01*
X148019745Y-115969864D02*
X148045741Y-116010917D01*
X148181822Y-116422840D02*
X148185397Y-116471300D01*
X147663274Y-112412976D02*
X147619871Y-112434824D01*
X147437142Y-115559549D02*
X147483973Y-115572509D01*
X148045741Y-112048837D02*
X148019745Y-112089890D01*
X148181822Y-111636914D02*
X148175874Y-111685140D01*
X147663274Y-115646778D02*
X147705553Y-115670728D01*
X147245169Y-112528681D02*
X147196470Y-112529877D01*
X147786333Y-115724704D02*
X147824640Y-115754599D01*
X147824640Y-115754599D02*
X147861434Y-115786338D01*
X148045741Y-116010917D02*
X148069692Y-116053196D01*
X148091539Y-111963155D02*
X148069692Y-112006558D01*
X147961871Y-112167924D02*
X147930132Y-112204718D01*
X147341855Y-115540595D02*
X147389731Y-115548903D01*
X147786333Y-112335050D02*
X147746605Y-112363029D01*
X147896626Y-112239911D02*
X147861434Y-112273416D01*
X147930132Y-115855036D02*
X147961871Y-115891830D01*
X147389731Y-112510851D02*
X147341855Y-112519159D01*
X147245169Y-115531073D02*
X147293629Y-115534647D01*
X147437142Y-112500205D02*
X147389731Y-112510851D01*
X147961871Y-115891830D02*
X147991766Y-115930136D01*
X147341855Y-112519159D02*
X147293629Y-112525107D01*
X148175874Y-111685140D02*
X148167567Y-111733016D01*
X148143961Y-111827258D02*
X148128718Y-111873397D01*
X148128718Y-111873397D02*
X148111230Y-111918732D01*
X147196470Y-115529877D02*
X147245169Y-115531073D01*
X147293629Y-115534647D02*
X147341855Y-115540595D01*
X147896626Y-115819843D02*
X147930132Y-115855036D01*
X148167567Y-116326738D02*
X148175874Y-116374614D01*
X147746605Y-115696725D02*
X147786333Y-115724704D01*
X144911647Y-81413401D02*
X144891956Y-81368978D01*
X145473074Y-85037997D02*
X145519213Y-85022755D01*
X144983441Y-81540136D02*
X144957445Y-81499083D01*
X144835619Y-85776984D02*
X144846265Y-85729573D01*
X145758017Y-84981319D02*
X145806716Y-84980123D01*
X145339912Y-85097024D02*
X145383315Y-85075176D01*
X145519213Y-85022755D02*
X145566044Y-85009795D01*
X144817789Y-81038700D02*
X144816593Y-80990000D01*
X145709557Y-81975353D02*
X145661331Y-81969405D01*
X145427738Y-81904761D02*
X145383315Y-81885070D01*
X145297633Y-85120974D02*
X145339912Y-85097024D01*
X144827312Y-85824860D02*
X144835619Y-85776984D01*
X144827312Y-81135386D02*
X144821364Y-81087160D01*
X144859225Y-81277504D02*
X144846265Y-81230673D01*
X144846265Y-85729573D02*
X144859225Y-85682742D01*
X144859225Y-85682742D02*
X144874468Y-85636603D01*
X145566044Y-81950451D02*
X145519213Y-81937491D01*
X145041315Y-85342076D02*
X145073054Y-85305282D01*
X145613455Y-81961097D02*
X145566044Y-81950451D01*
X144891956Y-81368978D02*
X144874468Y-81323643D01*
X145178546Y-81755401D02*
X145141752Y-81723662D01*
X145339912Y-81863222D02*
X145297633Y-81839272D01*
X145011420Y-81579864D02*
X144983441Y-81540136D01*
X144933494Y-81456804D02*
X144911647Y-81413401D01*
X145519213Y-81937491D02*
X145473074Y-81922249D01*
X145613455Y-84999149D02*
X145661331Y-84990841D01*
X145256581Y-81813275D02*
X145216853Y-81785296D01*
X145383315Y-85075176D02*
X145427738Y-85055485D01*
X145041315Y-81618170D02*
X145011420Y-81579864D01*
X144874468Y-81323643D02*
X144859225Y-81277504D01*
X145216853Y-85174950D02*
X145256581Y-85146971D01*
X145106560Y-85270089D02*
X145141752Y-85236584D01*
X145758017Y-81978927D02*
X145709557Y-81975353D01*
X145256581Y-85146971D02*
X145297633Y-85120974D01*
X144874468Y-85636603D02*
X144891956Y-85591268D01*
X145661331Y-84990841D02*
X145709557Y-84984893D01*
X145141752Y-81723662D02*
X145106560Y-81690157D01*
X145073054Y-85305282D02*
X145106560Y-85270089D01*
X144821364Y-85873086D02*
X144827312Y-85824860D01*
X144846265Y-81230673D02*
X144835619Y-81183262D01*
X144933494Y-85503442D02*
X144957445Y-85461163D01*
X144957445Y-85461163D02*
X144983441Y-85420110D01*
X145473074Y-81922249D02*
X145427738Y-81904761D01*
X145427738Y-85055485D02*
X145473074Y-85037997D01*
X144821364Y-81087160D02*
X144817789Y-81038700D01*
X145709557Y-84984893D02*
X145758017Y-84981319D01*
X145297633Y-81839272D02*
X145256581Y-81813275D01*
X144816593Y-85970246D02*
X144817789Y-85921546D01*
X144911647Y-85546845D02*
X144933494Y-85503442D01*
X145806716Y-81980123D02*
X145758017Y-81978927D01*
X144983441Y-85420110D02*
X145011420Y-85380382D01*
X144957445Y-81499083D02*
X144933494Y-81456804D01*
X145106560Y-81690157D02*
X145073054Y-81654964D01*
X145178546Y-85204845D02*
X145216853Y-85174950D01*
X145661331Y-81969405D02*
X145613455Y-81961097D01*
X145141752Y-85236584D02*
X145178546Y-85204845D01*
X144891956Y-85591268D02*
X144911647Y-85546845D01*
X145011420Y-85380382D02*
X145041315Y-85342076D01*
X145383315Y-81885070D02*
X145339912Y-81863222D01*
X144817789Y-85921546D02*
X144821364Y-85873086D01*
X145216853Y-81785296D02*
X145178546Y-81755401D01*
X144835619Y-81183262D02*
X144827312Y-81135386D01*
X145073054Y-81654964D02*
X145041315Y-81618170D01*
X145566044Y-85009795D02*
X145613455Y-84999149D01*
X148111230Y-85621145D02*
X148128718Y-85666480D01*
X148185397Y-81068577D02*
X148181822Y-81117037D01*
X147575448Y-81934638D02*
X147530112Y-81952126D01*
X147530112Y-85067874D02*
X147575448Y-85085362D01*
X148128718Y-85666480D02*
X148143961Y-85712619D01*
X147389731Y-85029026D02*
X147437142Y-85039672D01*
X148069692Y-81486681D02*
X148045741Y-81528960D01*
X148186593Y-81019877D02*
X148185397Y-81068577D01*
X148143961Y-85712619D02*
X148156921Y-85759450D01*
X147530112Y-81952126D02*
X147483973Y-81967368D01*
X147746605Y-81843152D02*
X147705553Y-81869149D01*
X148156921Y-81260550D02*
X148143961Y-81307381D01*
X148069692Y-85533319D02*
X148091539Y-85576722D01*
X148156921Y-85759450D02*
X148167567Y-85806861D01*
X147575448Y-85085362D02*
X147619871Y-85105053D01*
X147991766Y-81609741D02*
X147961871Y-81648047D01*
X147861434Y-81753539D02*
X147824640Y-81785278D01*
X148185397Y-85951423D02*
X148186593Y-86000123D01*
X148111230Y-81398855D02*
X148091539Y-81443278D01*
X147619871Y-81914947D02*
X147575448Y-81934638D01*
X147619871Y-85105053D02*
X147663274Y-85126901D01*
X147991766Y-85410259D02*
X148019745Y-85449987D01*
X147861434Y-85266461D02*
X147896626Y-85299966D01*
X147293629Y-82005230D02*
X147245169Y-82008804D01*
X148167567Y-81213139D02*
X148156921Y-81260550D01*
X148175874Y-85854737D02*
X148181822Y-85902963D01*
X147705553Y-85150851D02*
X147746605Y-85176848D01*
X147824640Y-81785278D02*
X147786333Y-81815173D01*
X147483973Y-85052632D02*
X147530112Y-85067874D01*
X148019745Y-81570013D02*
X147991766Y-81609741D01*
X147930132Y-81684841D02*
X147896626Y-81720034D01*
X148091539Y-85576722D02*
X148111230Y-85621145D01*
X147483973Y-81967368D02*
X147437142Y-81980328D01*
X147705553Y-81869149D02*
X147663274Y-81893099D01*
X148019745Y-85449987D02*
X148045741Y-85491040D01*
X148181822Y-85902963D02*
X148185397Y-85951423D01*
X147663274Y-81893099D02*
X147619871Y-81914947D01*
X147437142Y-85039672D02*
X147483973Y-85052632D01*
X148045741Y-81528960D02*
X148019745Y-81570013D01*
X148181822Y-81117037D02*
X148175874Y-81165263D01*
X147663274Y-85126901D02*
X147705553Y-85150851D01*
X147245169Y-82008804D02*
X147196470Y-82010000D01*
X147786333Y-85204827D02*
X147824640Y-85234722D01*
X147824640Y-85234722D02*
X147861434Y-85266461D01*
X148045741Y-85491040D02*
X148069692Y-85533319D01*
X148091539Y-81443278D02*
X148069692Y-81486681D01*
X147961871Y-81648047D02*
X147930132Y-81684841D01*
X147341855Y-85020718D02*
X147389731Y-85029026D01*
X147786333Y-81815173D02*
X147746605Y-81843152D01*
X147896626Y-81720034D02*
X147861434Y-81753539D01*
X147930132Y-85335159D02*
X147961871Y-85371953D01*
X147389731Y-81990974D02*
X147341855Y-81999282D01*
X147245169Y-85011196D02*
X147293629Y-85014770D01*
X147437142Y-81980328D02*
X147389731Y-81990974D01*
X147961871Y-85371953D02*
X147991766Y-85410259D01*
X147341855Y-81999282D02*
X147293629Y-82005230D01*
X148175874Y-81165263D02*
X148167567Y-81213139D01*
X148143961Y-81307381D02*
X148128718Y-81353520D01*
X148128718Y-81353520D02*
X148111230Y-81398855D01*
X147196470Y-85010000D02*
X147245169Y-85011196D01*
X147293629Y-85014770D02*
X147341855Y-85020718D01*
X147896626Y-85299966D02*
X147930132Y-85335159D01*
X148167567Y-85806861D02*
X148175874Y-85854737D01*
X147746605Y-85176848D02*
X147786333Y-85204827D01*
X145531647Y-63127629D02*
X145511956Y-63083206D01*
X146093074Y-66752225D02*
X146139213Y-66736983D01*
X145603441Y-63254364D02*
X145577445Y-63213311D01*
X145455619Y-67491212D02*
X145466265Y-67443801D01*
X146378017Y-66695547D02*
X146426716Y-66694351D01*
X145959912Y-66811252D02*
X146003315Y-66789404D01*
X146139213Y-66736983D02*
X146186044Y-66724023D01*
X145437789Y-62752928D02*
X145436593Y-62704228D01*
X146329557Y-63689581D02*
X146281331Y-63683633D01*
X146047738Y-63618989D02*
X146003315Y-63599298D01*
X145917633Y-66835202D02*
X145959912Y-66811252D01*
X145447312Y-67539088D02*
X145455619Y-67491212D01*
X145447312Y-62849614D02*
X145441364Y-62801388D01*
X145479225Y-62991732D02*
X145466265Y-62944901D01*
X145466265Y-67443801D02*
X145479225Y-67396970D01*
X145479225Y-67396970D02*
X145494468Y-67350831D01*
X146186044Y-63664679D02*
X146139213Y-63651719D01*
X145661315Y-67056304D02*
X145693054Y-67019510D01*
X146233455Y-63675325D02*
X146186044Y-63664679D01*
X145511956Y-63083206D02*
X145494468Y-63037871D01*
X145798546Y-63469629D02*
X145761752Y-63437890D01*
X145959912Y-63577450D02*
X145917633Y-63553500D01*
X145631420Y-63294092D02*
X145603441Y-63254364D01*
X145553494Y-63171032D02*
X145531647Y-63127629D01*
X146139213Y-63651719D02*
X146093074Y-63636477D01*
X146233455Y-66713377D02*
X146281331Y-66705069D01*
X145876581Y-63527503D02*
X145836853Y-63499524D01*
X146003315Y-66789404D02*
X146047738Y-66769713D01*
X145661315Y-63332398D02*
X145631420Y-63294092D01*
X145494468Y-63037871D02*
X145479225Y-62991732D01*
X145836853Y-66889178D02*
X145876581Y-66861199D01*
X145726560Y-66984317D02*
X145761752Y-66950812D01*
X146378017Y-63693155D02*
X146329557Y-63689581D01*
X145876581Y-66861199D02*
X145917633Y-66835202D01*
X145494468Y-67350831D02*
X145511956Y-67305496D01*
X146281331Y-66705069D02*
X146329557Y-66699121D01*
X145761752Y-63437890D02*
X145726560Y-63404385D01*
X145693054Y-67019510D02*
X145726560Y-66984317D01*
X145441364Y-67587314D02*
X145447312Y-67539088D01*
X145466265Y-62944901D02*
X145455619Y-62897490D01*
X145553494Y-67217670D02*
X145577445Y-67175391D01*
X145577445Y-67175391D02*
X145603441Y-67134338D01*
X146093074Y-63636477D02*
X146047738Y-63618989D01*
X146047738Y-66769713D02*
X146093074Y-66752225D01*
X145441364Y-62801388D02*
X145437789Y-62752928D01*
X146329557Y-66699121D02*
X146378017Y-66695547D01*
X145917633Y-63553500D02*
X145876581Y-63527503D01*
X145436593Y-67684474D02*
X145437789Y-67635774D01*
X145531647Y-67261073D02*
X145553494Y-67217670D01*
X146426716Y-63694351D02*
X146378017Y-63693155D01*
X145603441Y-67134338D02*
X145631420Y-67094610D01*
X145577445Y-63213311D02*
X145553494Y-63171032D01*
X145726560Y-63404385D02*
X145693054Y-63369192D01*
X145798546Y-66919073D02*
X145836853Y-66889178D01*
X146281331Y-63683633D02*
X146233455Y-63675325D01*
X145761752Y-66950812D02*
X145798546Y-66919073D01*
X145511956Y-67305496D02*
X145531647Y-67261073D01*
X145631420Y-67094610D02*
X145661315Y-67056304D01*
X146003315Y-63599298D02*
X145959912Y-63577450D01*
X145437789Y-67635774D02*
X145441364Y-67587314D01*
X145836853Y-63499524D02*
X145798546Y-63469629D01*
X145455619Y-62897490D02*
X145447312Y-62849614D01*
X145693054Y-63369192D02*
X145661315Y-63332398D01*
X146186044Y-66724023D02*
X146233455Y-66713377D01*
X148111230Y-67301145D02*
X148128718Y-67346480D01*
X148185397Y-62748577D02*
X148181822Y-62797037D01*
X147575448Y-63614638D02*
X147530112Y-63632126D01*
X147530112Y-66747874D02*
X147575448Y-66765362D01*
X148128718Y-67346480D02*
X148143961Y-67392619D01*
X147389731Y-66709026D02*
X147437142Y-66719672D01*
X148069692Y-63166681D02*
X148045741Y-63208960D01*
X148186593Y-62699877D02*
X148185397Y-62748577D01*
X148143961Y-67392619D02*
X148156921Y-67439450D01*
X147530112Y-63632126D02*
X147483973Y-63647368D01*
X147746605Y-63523152D02*
X147705553Y-63549149D01*
X148156921Y-62940550D02*
X148143961Y-62987381D01*
X148069692Y-67213319D02*
X148091539Y-67256722D01*
X148156921Y-67439450D02*
X148167567Y-67486861D01*
X147575448Y-66765362D02*
X147619871Y-66785053D01*
X147991766Y-63289741D02*
X147961871Y-63328047D01*
X147861434Y-63433539D02*
X147824640Y-63465278D01*
X148185397Y-67631423D02*
X148186593Y-67680123D01*
X148111230Y-63078855D02*
X148091539Y-63123278D01*
X147619871Y-63594947D02*
X147575448Y-63614638D01*
X147619871Y-66785053D02*
X147663274Y-66806901D01*
X147991766Y-67090259D02*
X148019745Y-67129987D01*
X147861434Y-66946461D02*
X147896626Y-66979966D01*
X147293629Y-63685230D02*
X147245169Y-63688804D01*
X148167567Y-62893139D02*
X148156921Y-62940550D01*
X148175874Y-67534737D02*
X148181822Y-67582963D01*
X147705553Y-66830851D02*
X147746605Y-66856848D01*
X147824640Y-63465278D02*
X147786333Y-63495173D01*
X147483973Y-66732632D02*
X147530112Y-66747874D01*
X148019745Y-63250013D02*
X147991766Y-63289741D01*
X147930132Y-63364841D02*
X147896626Y-63400034D01*
X148091539Y-67256722D02*
X148111230Y-67301145D01*
X147483973Y-63647368D02*
X147437142Y-63660328D01*
X147705553Y-63549149D02*
X147663274Y-63573099D01*
X148019745Y-67129987D02*
X148045741Y-67171040D01*
X148181822Y-67582963D02*
X148185397Y-67631423D01*
X147663274Y-63573099D02*
X147619871Y-63594947D01*
X147437142Y-66719672D02*
X147483973Y-66732632D01*
X148045741Y-63208960D02*
X148019745Y-63250013D01*
X148181822Y-62797037D02*
X148175874Y-62845263D01*
X147663274Y-66806901D02*
X147705553Y-66830851D01*
X147245169Y-63688804D02*
X147196470Y-63690000D01*
X147786333Y-66884827D02*
X147824640Y-66914722D01*
X147824640Y-66914722D02*
X147861434Y-66946461D01*
X148045741Y-67171040D02*
X148069692Y-67213319D01*
X148091539Y-63123278D02*
X148069692Y-63166681D01*
X147961871Y-63328047D02*
X147930132Y-63364841D01*
X147341855Y-66700718D02*
X147389731Y-66709026D01*
X147786333Y-63495173D02*
X147746605Y-63523152D01*
X147896626Y-63400034D02*
X147861434Y-63433539D01*
X147930132Y-67015159D02*
X147961871Y-67051953D01*
X147389731Y-63670974D02*
X147341855Y-63679282D01*
X147245169Y-66691196D02*
X147293629Y-66694770D01*
X147437142Y-63660328D02*
X147389731Y-63670974D01*
X147961871Y-67051953D02*
X147991766Y-67090259D01*
X147341855Y-63679282D02*
X147293629Y-63685230D01*
X148175874Y-62845263D02*
X148167567Y-62893139D01*
X148143961Y-62987381D02*
X148128718Y-63033520D01*
X148128718Y-63033520D02*
X148111230Y-63078855D01*
X147196470Y-66690000D02*
X147245169Y-66691196D01*
X147293629Y-66694770D02*
X147341855Y-66700718D01*
X147896626Y-66979966D02*
X147930132Y-67015159D01*
X148167567Y-67486861D02*
X148175874Y-67534737D01*
X147746605Y-66856848D02*
X147786333Y-66884827D01*
X148183408Y-70630078D02*
X148186593Y-71860000D01*
X103615995Y-89685896D02*
X103617191Y-101454350D01*
X106376055Y-89681545D02*
X106376055Y-101444776D01*
X105719574Y-88749296D02*
X105764910Y-88766784D01*
X106259154Y-85168103D02*
X106235203Y-85210382D01*
X106300692Y-89302567D02*
X106318180Y-89347902D01*
X105434631Y-85690226D02*
X105385932Y-85691422D01*
X106281001Y-85124700D02*
X106259154Y-85168103D01*
X106374859Y-89632845D02*
X106376055Y-89681545D01*
X106086088Y-88981388D02*
X106119594Y-89016581D01*
X105483091Y-88696192D02*
X105531317Y-88702140D01*
X105975795Y-85496595D02*
X105936067Y-85524574D01*
X106365336Y-84846685D02*
X106357029Y-84894561D01*
X105936067Y-85524574D02*
X105895015Y-85550571D01*
X106119594Y-89016581D02*
X106151333Y-89053375D01*
X106119594Y-85366263D02*
X106086088Y-85401456D01*
X105852736Y-88808323D02*
X105895015Y-88832273D01*
X105579193Y-85672396D02*
X105531317Y-85680704D01*
X106151333Y-85329469D02*
X106119594Y-85366263D01*
X105809333Y-88786475D02*
X105852736Y-88808323D01*
X105809333Y-85596369D02*
X105764910Y-85616060D01*
X106050896Y-85434961D02*
X106014102Y-85466700D01*
X105626604Y-88721094D02*
X105673435Y-88734054D01*
X105434631Y-88692618D02*
X105483091Y-88696192D01*
X106151333Y-89053375D02*
X106181228Y-89091681D01*
X106235203Y-85210382D02*
X106209207Y-85251435D01*
X106014102Y-85466700D02*
X105975795Y-85496595D01*
X106050896Y-88947883D02*
X106086088Y-88981388D01*
X106376055Y-84701299D02*
X106374859Y-84749999D01*
X106209207Y-85251435D02*
X106181228Y-85291163D01*
X105895015Y-88832273D02*
X105936067Y-88858270D01*
X105531317Y-85680704D02*
X105483091Y-85686652D01*
X106181228Y-89091681D02*
X106209207Y-89131409D01*
X105483091Y-85686652D02*
X105434631Y-85690226D01*
X106333423Y-89394041D02*
X106346383Y-89440872D01*
X106374859Y-84749999D02*
X106371284Y-84798459D01*
X106365336Y-89536159D02*
X106371284Y-89584385D01*
X106300692Y-85080277D02*
X106281001Y-85124700D01*
X106357029Y-84894561D02*
X106346383Y-84941972D01*
X106014102Y-88916144D02*
X106050896Y-88947883D01*
X105531317Y-88702140D02*
X105579193Y-88710448D01*
X105936067Y-88858270D02*
X105975795Y-88886249D01*
X105895015Y-85550571D02*
X105852736Y-85574521D01*
X106281001Y-89258144D02*
X106300692Y-89302567D01*
X106346383Y-89440872D02*
X106357029Y-89488283D01*
X105764910Y-88766784D02*
X105809333Y-88786475D01*
X106209207Y-89131409D02*
X106235203Y-89172462D01*
X105579193Y-88710448D02*
X105626604Y-88721094D01*
X106371284Y-84798459D02*
X106365336Y-84846685D01*
X105852736Y-85574521D02*
X105809333Y-85596369D01*
X105975795Y-88886249D02*
X106014102Y-88916144D01*
X105719574Y-85633548D02*
X105673435Y-85648790D01*
X106346383Y-84941972D02*
X106333423Y-84988803D01*
X106259154Y-89214741D02*
X106281001Y-89258144D01*
X105626604Y-85661750D02*
X105579193Y-85672396D01*
X106318180Y-89347902D02*
X106333423Y-89394041D01*
X105673435Y-88734054D02*
X105719574Y-88749296D01*
X106181228Y-85291163D02*
X106151333Y-85329469D01*
X106371284Y-89584385D02*
X106374859Y-89632845D01*
X105673435Y-85648790D02*
X105626604Y-85661750D01*
X106235203Y-89172462D02*
X106259154Y-89214741D01*
X106318180Y-85034942D02*
X106300692Y-85080277D01*
X106333423Y-84988803D02*
X106318180Y-85034942D01*
X106086088Y-85401456D02*
X106050896Y-85434961D01*
X105385932Y-88691422D02*
X105434631Y-88692618D01*
X106357029Y-89488283D02*
X106365336Y-89536159D01*
X105764910Y-85616060D02*
X105719574Y-85633548D01*
X104412857Y-88714799D02*
X104460733Y-88706491D01*
X104557419Y-88696969D02*
X104606118Y-88695773D01*
X103732896Y-89219092D02*
X103756847Y-89176813D01*
X104182717Y-88790826D02*
X104227140Y-88771135D01*
X103977948Y-85471051D02*
X103941154Y-85439312D01*
X103941154Y-88952234D02*
X103977948Y-88920495D01*
X103658627Y-84993154D02*
X103645667Y-84946323D01*
X104508959Y-88700543D02*
X104557419Y-88696969D01*
X104460733Y-88706491D02*
X104508959Y-88700543D01*
X104139314Y-85578872D02*
X104097035Y-85554922D01*
X104412857Y-85676747D02*
X104365446Y-85666101D01*
X103941154Y-85439312D02*
X103905962Y-85405807D01*
X103620766Y-84802810D02*
X103617191Y-84754350D01*
X103840717Y-85333820D02*
X103810822Y-85295514D01*
X103658627Y-89398392D02*
X103673870Y-89352253D01*
X104139314Y-88812674D02*
X104182717Y-88790826D01*
X103645667Y-89445223D02*
X103658627Y-89398392D01*
X104016255Y-85500946D02*
X103977948Y-85471051D01*
X104557419Y-85694577D02*
X104508959Y-85691003D01*
X104508959Y-85691003D02*
X104460733Y-85685055D01*
X104460733Y-85685055D02*
X104412857Y-85676747D01*
X103673870Y-85039293D02*
X103658627Y-84993154D01*
X104227140Y-88771135D02*
X104272476Y-88753647D01*
X103810822Y-85295514D02*
X103782843Y-85255786D01*
X104365446Y-88725445D02*
X104412857Y-88714799D01*
X103977948Y-88920495D02*
X104016255Y-88890600D01*
X103620766Y-89588736D02*
X103626714Y-89540510D01*
X104365446Y-85666101D02*
X104318615Y-85653141D01*
X103635021Y-84898912D02*
X103626714Y-84851036D01*
X104606118Y-85695773D02*
X104557419Y-85694577D01*
X104272476Y-85637899D02*
X104227140Y-85620411D01*
X103872456Y-85370614D02*
X103840717Y-85333820D01*
X104097035Y-88836624D02*
X104139314Y-88812674D01*
X104055983Y-85528925D02*
X104016255Y-85500946D01*
X103756847Y-85214733D02*
X103732896Y-85172454D01*
X103617191Y-84754350D02*
X103615995Y-84705650D01*
X103711049Y-85129051D02*
X103691358Y-85084628D01*
X104097035Y-85554922D02*
X104055983Y-85528925D01*
X103615995Y-89685896D02*
X103617191Y-89637196D01*
X103905962Y-88985739D02*
X103941154Y-88952234D01*
X103872456Y-89020932D02*
X103905962Y-88985739D01*
X103645667Y-84946323D02*
X103635021Y-84898912D01*
X103905962Y-85405807D02*
X103872456Y-85370614D01*
X103756847Y-89176813D02*
X103782843Y-89135760D01*
X104318615Y-88738405D02*
X104365446Y-88725445D01*
X103732896Y-85172454D02*
X103711049Y-85129051D01*
X103626714Y-89540510D02*
X103635021Y-89492634D01*
X104016255Y-88890600D02*
X104055983Y-88862621D01*
X103782843Y-85255786D02*
X103756847Y-85214733D01*
X103691358Y-89306918D02*
X103711049Y-89262495D01*
X103782843Y-89135760D02*
X103810822Y-89096032D01*
X103840717Y-89057726D02*
X103872456Y-89020932D01*
X104182717Y-85600720D02*
X104139314Y-85578872D01*
X103617191Y-89637196D02*
X103620766Y-89588736D01*
X103711049Y-89262495D02*
X103732896Y-89219092D01*
X104227140Y-85620411D02*
X104182717Y-85600720D01*
X103635021Y-89492634D02*
X103645667Y-89445223D01*
X104318615Y-85653141D02*
X104272476Y-85637899D01*
X104055983Y-88862621D02*
X104097035Y-88836624D01*
X104272476Y-88753647D02*
X104318615Y-88738405D01*
X103810822Y-89096032D02*
X103840717Y-89057726D01*
X103691358Y-85084628D02*
X103673870Y-85039293D01*
X103626714Y-84851036D02*
X103620766Y-84802810D01*
X103673870Y-89352253D02*
X103691358Y-89306918D01*
X104606118Y-85695773D02*
X105385932Y-85691422D01*
X104606118Y-88695773D02*
X105385932Y-88691422D01*
X105719574Y-105492773D02*
X105764910Y-105510261D01*
X106259154Y-101911580D02*
X106235203Y-101953859D01*
X106300692Y-106046044D02*
X106318180Y-106091379D01*
X105434631Y-102433703D02*
X105385932Y-102434899D01*
X106281001Y-101868177D02*
X106259154Y-101911580D01*
X106374859Y-106376322D02*
X106376055Y-106425022D01*
X106086088Y-105724865D02*
X106119594Y-105760058D01*
X105483091Y-105439669D02*
X105531317Y-105445617D01*
X105975795Y-102240072D02*
X105936067Y-102268051D01*
X106365336Y-101590162D02*
X106357029Y-101638038D01*
X105936067Y-102268051D02*
X105895015Y-102294048D01*
X106119594Y-105760058D02*
X106151333Y-105796852D01*
X106119594Y-102109740D02*
X106086088Y-102144933D01*
X105852736Y-105551800D02*
X105895015Y-105575750D01*
X105579193Y-102415873D02*
X105531317Y-102424181D01*
X106151333Y-102072946D02*
X106119594Y-102109740D01*
X105809333Y-105529952D02*
X105852736Y-105551800D01*
X105809333Y-102339846D02*
X105764910Y-102359537D01*
X106050896Y-102178438D02*
X106014102Y-102210177D01*
X105626604Y-105464571D02*
X105673435Y-105477531D01*
X105434631Y-105436095D02*
X105483091Y-105439669D01*
X106151333Y-105796852D02*
X106181228Y-105835158D01*
X106235203Y-101953859D02*
X106209207Y-101994912D01*
X106014102Y-102210177D02*
X105975795Y-102240072D01*
X106050896Y-105691360D02*
X106086088Y-105724865D01*
X106376055Y-101444776D02*
X106374859Y-101493476D01*
X106209207Y-101994912D02*
X106181228Y-102034640D01*
X105895015Y-105575750D02*
X105936067Y-105601747D01*
X105531317Y-102424181D02*
X105483091Y-102430129D01*
X106181228Y-105835158D02*
X106209207Y-105874886D01*
X105483091Y-102430129D02*
X105434631Y-102433703D01*
X106333423Y-106137518D02*
X106346383Y-106184349D01*
X106374859Y-101493476D02*
X106371284Y-101541936D01*
X106365336Y-106279636D02*
X106371284Y-106327862D01*
X106300692Y-101823754D02*
X106281001Y-101868177D01*
X106357029Y-101638038D02*
X106346383Y-101685449D01*
X106014102Y-105659621D02*
X106050896Y-105691360D01*
X105531317Y-105445617D02*
X105579193Y-105453925D01*
X105936067Y-105601747D02*
X105975795Y-105629726D01*
X105895015Y-102294048D02*
X105852736Y-102317998D01*
X106281001Y-106001621D02*
X106300692Y-106046044D01*
X106346383Y-106184349D02*
X106357029Y-106231760D01*
X105764910Y-105510261D02*
X105809333Y-105529952D01*
X106209207Y-105874886D02*
X106235203Y-105915939D01*
X105579193Y-105453925D02*
X105626604Y-105464571D01*
X106371284Y-101541936D02*
X106365336Y-101590162D01*
X105852736Y-102317998D02*
X105809333Y-102339846D01*
X105975795Y-105629726D02*
X106014102Y-105659621D01*
X105719574Y-102377025D02*
X105673435Y-102392267D01*
X106346383Y-101685449D02*
X106333423Y-101732280D01*
X106259154Y-105958218D02*
X106281001Y-106001621D01*
X105626604Y-102405227D02*
X105579193Y-102415873D01*
X106318180Y-106091379D02*
X106333423Y-106137518D01*
X105673435Y-105477531D02*
X105719574Y-105492773D01*
X106181228Y-102034640D02*
X106151333Y-102072946D01*
X106371284Y-106327862D02*
X106374859Y-106376322D01*
X105673435Y-102392267D02*
X105626604Y-102405227D01*
X106235203Y-105915939D02*
X106259154Y-105958218D01*
X106318180Y-101778419D02*
X106300692Y-101823754D01*
X106333423Y-101732280D02*
X106318180Y-101778419D01*
X106086088Y-102144933D02*
X106050896Y-102178438D01*
X105385932Y-105434899D02*
X105434631Y-105436095D01*
X106357029Y-106231760D02*
X106365336Y-106279636D01*
X105764910Y-102359537D02*
X105719574Y-102377025D01*
X104414053Y-105463499D02*
X104461929Y-105455191D01*
X104558615Y-105445669D02*
X104607314Y-105444473D01*
X103734092Y-105967792D02*
X103758043Y-105925513D01*
X104183913Y-105539526D02*
X104228336Y-105519835D01*
X103979144Y-102219751D02*
X103942350Y-102188012D01*
X103942350Y-105700934D02*
X103979144Y-105669195D01*
X103659823Y-101741854D02*
X103646863Y-101695023D01*
X104510155Y-105449243D02*
X104558615Y-105445669D01*
X104461929Y-105455191D02*
X104510155Y-105449243D01*
X104140510Y-102327572D02*
X104098231Y-102303622D01*
X104414053Y-102425447D02*
X104366642Y-102414801D01*
X103942350Y-102188012D02*
X103907158Y-102154507D01*
X103621962Y-101551510D02*
X103618387Y-101503050D01*
X103841913Y-102082520D02*
X103812018Y-102044214D01*
X103659823Y-106147092D02*
X103675066Y-106100953D01*
X104140510Y-105561374D02*
X104183913Y-105539526D01*
X103646863Y-106193923D02*
X103659823Y-106147092D01*
X104017451Y-102249646D02*
X103979144Y-102219751D01*
X104558615Y-102443277D02*
X104510155Y-102439703D01*
X104510155Y-102439703D02*
X104461929Y-102433755D01*
X104461929Y-102433755D02*
X104414053Y-102425447D01*
X103675066Y-101787993D02*
X103659823Y-101741854D01*
X104228336Y-105519835D02*
X104273672Y-105502347D01*
X103812018Y-102044214D02*
X103784039Y-102004486D01*
X104366642Y-105474145D02*
X104414053Y-105463499D01*
X103979144Y-105669195D02*
X104017451Y-105639300D01*
X103621962Y-106337436D02*
X103627910Y-106289210D01*
X104366642Y-102414801D02*
X104319811Y-102401841D01*
X103636217Y-101647612D02*
X103627910Y-101599736D01*
X104607314Y-102444473D02*
X104558615Y-102443277D01*
X104273672Y-102386599D02*
X104228336Y-102369111D01*
X103873652Y-102119314D02*
X103841913Y-102082520D01*
X104098231Y-105585324D02*
X104140510Y-105561374D01*
X104057179Y-102277625D02*
X104017451Y-102249646D01*
X103758043Y-101963433D02*
X103734092Y-101921154D01*
X103618387Y-101503050D02*
X103617191Y-101454350D01*
X103712245Y-101877751D02*
X103692554Y-101833328D01*
X104098231Y-102303622D02*
X104057179Y-102277625D01*
X103617191Y-106434596D02*
X103618387Y-106385896D01*
X103907158Y-105734439D02*
X103942350Y-105700934D01*
X103873652Y-105769632D02*
X103907158Y-105734439D01*
X103646863Y-101695023D02*
X103636217Y-101647612D01*
X103907158Y-102154507D02*
X103873652Y-102119314D01*
X103758043Y-105925513D02*
X103784039Y-105884460D01*
X104319811Y-105487105D02*
X104366642Y-105474145D01*
X103734092Y-101921154D02*
X103712245Y-101877751D01*
X103627910Y-106289210D02*
X103636217Y-106241334D01*
X104017451Y-105639300D02*
X104057179Y-105611321D01*
X103784039Y-102004486D02*
X103758043Y-101963433D01*
X103692554Y-106055618D02*
X103712245Y-106011195D01*
X103784039Y-105884460D02*
X103812018Y-105844732D01*
X103841913Y-105806426D02*
X103873652Y-105769632D01*
X104183913Y-102349420D02*
X104140510Y-102327572D01*
X103618387Y-106385896D02*
X103621962Y-106337436D01*
X103712245Y-106011195D02*
X103734092Y-105967792D01*
X104228336Y-102369111D02*
X104183913Y-102349420D01*
X103636217Y-106241334D02*
X103646863Y-106193923D01*
X104319811Y-102401841D02*
X104273672Y-102386599D01*
X104057179Y-105611321D02*
X104098231Y-105585324D01*
X104273672Y-105502347D02*
X104319811Y-105487105D01*
X103812018Y-105844732D02*
X103841913Y-105806426D01*
X103692554Y-101833328D02*
X103675066Y-101787993D01*
X103627910Y-101599736D02*
X103621962Y-101551510D01*
X103675066Y-106100953D02*
X103692554Y-106055618D01*
X104616593Y-102443875D02*
X105385932Y-102434899D01*
X104607314Y-105444473D02*
X105385932Y-105434899D01*
X106449745Y-42364464D02*
X106421766Y-42404192D01*
X106597567Y-46601312D02*
X106605874Y-46649188D01*
X106326626Y-42514485D02*
X106291434Y-42547990D01*
X106449745Y-46244438D02*
X106475741Y-46285491D01*
X106616593Y-41814328D02*
X106615397Y-41863028D01*
X106005448Y-42729089D02*
X105960112Y-42746577D01*
X106521539Y-42237729D02*
X106499692Y-42281132D01*
X106326626Y-46094417D02*
X106360132Y-46129610D01*
X105960112Y-45862325D02*
X106005448Y-45879813D01*
X106499692Y-46327770D02*
X106521539Y-46371173D01*
X105771855Y-42793733D02*
X105723629Y-42799681D01*
X106135553Y-42663600D02*
X106093274Y-42687550D01*
X106360132Y-42479292D02*
X106326626Y-42514485D01*
X106541230Y-42193306D02*
X106521539Y-42237729D01*
X106391871Y-42442498D02*
X106360132Y-42479292D01*
X105819731Y-45823477D02*
X105867142Y-45834123D01*
X106605874Y-41959714D02*
X106597567Y-42007590D01*
X106216333Y-42609624D02*
X106176605Y-42637603D01*
X106391871Y-46166404D02*
X106421766Y-46204710D01*
X106541230Y-46415596D02*
X106558718Y-46460931D01*
X106049871Y-45899504D02*
X106093274Y-45921352D01*
X105960112Y-42746577D02*
X105913973Y-42761819D01*
X106005448Y-45879813D02*
X106049871Y-45899504D01*
X106521539Y-46371173D02*
X106541230Y-46415596D01*
X106254640Y-46029173D02*
X106291434Y-46060912D01*
X106360132Y-46129610D02*
X106391871Y-46166404D01*
X105723629Y-45809221D02*
X105771855Y-45815169D01*
X106597567Y-42007590D02*
X106586921Y-42055001D01*
X105723629Y-42799681D02*
X105675169Y-42803255D01*
X106615397Y-46745874D02*
X106616593Y-46794574D01*
X105867142Y-42774779D02*
X105819731Y-42785425D01*
X106611822Y-46697414D02*
X106615397Y-46745874D01*
X106176605Y-45971299D02*
X106216333Y-45999278D01*
X106216333Y-45999278D02*
X106254640Y-46029173D01*
X106291434Y-46060912D02*
X106326626Y-46094417D01*
X105913973Y-42761819D02*
X105867142Y-42774779D01*
X105771855Y-45815169D02*
X105819731Y-45823477D01*
X105819731Y-42785425D02*
X105771855Y-42793733D01*
X106586921Y-46553901D02*
X106597567Y-46601312D01*
X106573961Y-46507070D02*
X106586921Y-46553901D01*
X105913973Y-45847083D02*
X105960112Y-45862325D01*
X106475741Y-42323411D02*
X106449745Y-42364464D01*
X106421766Y-42404192D02*
X106391871Y-42442498D01*
X106176605Y-42637603D02*
X106135553Y-42663600D01*
X105675169Y-42803255D02*
X105626470Y-42804451D01*
X106573961Y-42101832D02*
X106558718Y-42147971D01*
X106093274Y-42687550D02*
X106049871Y-42709398D01*
X106558718Y-46460931D02*
X106573961Y-46507070D01*
X106611822Y-41911488D02*
X106605874Y-41959714D01*
X106558718Y-42147971D02*
X106541230Y-42193306D01*
X106475741Y-46285491D02*
X106499692Y-46327770D01*
X105867142Y-45834123D02*
X105913973Y-45847083D01*
X106421766Y-46204710D02*
X106449745Y-46244438D01*
X106586921Y-42055001D02*
X106573961Y-42101832D01*
X106615397Y-41863028D02*
X106611822Y-41911488D01*
X106605874Y-46649188D02*
X106611822Y-46697414D01*
X106254640Y-42579729D02*
X106216333Y-42609624D01*
X106093274Y-45921352D02*
X106135553Y-45945302D01*
X106291434Y-42547990D02*
X106254640Y-42579729D01*
X105675169Y-45805647D02*
X105723629Y-45809221D01*
X106049871Y-42709398D02*
X106005448Y-42729089D01*
X106499692Y-42281132D02*
X106475741Y-42323411D01*
X106135553Y-45945302D02*
X106176605Y-45971299D01*
X105626470Y-45804451D02*
X105675169Y-45805647D01*
X103838331Y-46163474D02*
X103870070Y-46126680D01*
X103903576Y-46091487D02*
X103938768Y-46057982D01*
X104506573Y-45806291D02*
X104555033Y-45802717D01*
X104094649Y-42660670D02*
X104053597Y-42634673D01*
X103614805Y-46742944D02*
X103618380Y-46694484D01*
X104410471Y-45820547D02*
X104458347Y-45812239D01*
X103870070Y-42476362D02*
X103838331Y-42439568D01*
X104224754Y-42726159D02*
X104180331Y-42706468D01*
X103618380Y-41908558D02*
X103614805Y-41860098D01*
X104603732Y-42801521D02*
X104555033Y-42800325D01*
X103688972Y-46412666D02*
X103708663Y-46368243D01*
X103656241Y-42098902D02*
X103643281Y-42052071D01*
X104270090Y-45859395D02*
X104316229Y-45844153D01*
X103614805Y-41860098D02*
X103613609Y-41811398D01*
X103808436Y-46201780D02*
X103838331Y-46163474D01*
X103688972Y-42190376D02*
X103671484Y-42145041D01*
X103903576Y-42511555D02*
X103870070Y-42476362D01*
X103780457Y-46241508D02*
X103808436Y-46201780D01*
X104363060Y-42771849D02*
X104316229Y-42758889D01*
X103754461Y-42320481D02*
X103730510Y-42278202D01*
X103613609Y-46791644D02*
X103614805Y-46742944D01*
X104053597Y-45968369D02*
X104094649Y-45942372D01*
X103671484Y-42145041D02*
X103656241Y-42098902D01*
X103870070Y-46126680D02*
X103903576Y-46091487D01*
X103656241Y-46504140D02*
X103671484Y-46458001D01*
X103643281Y-42052071D02*
X103632635Y-42004660D01*
X104555033Y-45802717D02*
X104603732Y-45801521D01*
X103643281Y-46550971D02*
X103656241Y-46504140D01*
X104180331Y-42706468D02*
X104136928Y-42684620D01*
X103808436Y-42401262D02*
X103780457Y-42361534D01*
X104094649Y-45942372D02*
X104136928Y-45918422D01*
X104224754Y-45876883D02*
X104270090Y-45859395D01*
X103838331Y-42439568D02*
X103808436Y-42401262D01*
X103938768Y-42545060D02*
X103903576Y-42511555D01*
X103671484Y-46458001D02*
X103688972Y-46412666D01*
X104410471Y-42782495D02*
X104363060Y-42771849D01*
X103975562Y-42576799D02*
X103938768Y-42545060D01*
X104136928Y-45918422D02*
X104180331Y-45896574D01*
X103975562Y-46026243D02*
X104013869Y-45996348D01*
X103632635Y-46598382D02*
X103643281Y-46550971D01*
X104270090Y-42743647D02*
X104224754Y-42726159D01*
X104053597Y-42634673D02*
X104013869Y-42606694D01*
X103708663Y-42234799D02*
X103688972Y-42190376D01*
X104363060Y-45831193D02*
X104410471Y-45820547D01*
X103618380Y-46694484D02*
X103624328Y-46646258D01*
X104316229Y-45844153D02*
X104363060Y-45831193D01*
X104316229Y-42758889D02*
X104270090Y-42743647D01*
X104506573Y-42796751D02*
X104458347Y-42790803D01*
X104180331Y-45896574D02*
X104224754Y-45876883D01*
X104458347Y-45812239D02*
X104506573Y-45806291D01*
X103624328Y-46646258D02*
X103632635Y-46598382D01*
X103632635Y-42004660D02*
X103624328Y-41956784D01*
X104555033Y-42800325D02*
X104506573Y-42796751D01*
X103708663Y-46368243D02*
X103730510Y-46324840D01*
X104136928Y-42684620D02*
X104094649Y-42660670D01*
X104458347Y-42790803D02*
X104410471Y-42782495D01*
X103624328Y-41956784D02*
X103618380Y-41908558D01*
X103780457Y-42361534D02*
X103754461Y-42320481D01*
X104013869Y-42606694D02*
X103975562Y-42576799D01*
X104013869Y-45996348D02*
X104053597Y-45968369D01*
X103730510Y-46324840D02*
X103754461Y-46282561D01*
X103730510Y-42278202D02*
X103708663Y-42234799D01*
X103938768Y-46057982D02*
X103975562Y-46026243D01*
X103754461Y-46282561D02*
X103780457Y-46241508D01*
X104603732Y-42801521D02*
X105626470Y-42804451D01*
X104603732Y-45801521D02*
X105626470Y-45804451D01*
X103613609Y-41811398D02*
X103610625Y-32064386D01*
X106616593Y-41814328D02*
X106616593Y-32070246D01*
X105960112Y-31137997D02*
X106005448Y-31155485D01*
X106135553Y-27939272D02*
X106093274Y-27963222D01*
X106475741Y-31561163D02*
X106499692Y-31603442D01*
X106360132Y-27754964D02*
X106326626Y-27790157D01*
X106499692Y-27556804D02*
X106475741Y-27599083D01*
X106391871Y-27718170D02*
X106360132Y-27754964D01*
X106093274Y-31197024D02*
X106135553Y-31220974D01*
X106611822Y-31973086D02*
X106615397Y-32021546D01*
X105819731Y-31099149D02*
X105867142Y-31109795D01*
X106521539Y-31646845D02*
X106541230Y-31691268D01*
X105723629Y-31084893D02*
X105771855Y-31090841D01*
X106049871Y-31175176D02*
X106093274Y-31197024D01*
X106005448Y-28004761D02*
X105960112Y-28022249D01*
X106615397Y-32021546D02*
X106616593Y-32070246D01*
X106616593Y-27090000D02*
X106615397Y-27138700D01*
X105819731Y-28061097D02*
X105771855Y-28069405D01*
X106176605Y-27913275D02*
X106135553Y-27939272D01*
X105771855Y-31090841D02*
X105819731Y-31099149D01*
X106291434Y-27823662D02*
X106254640Y-27855401D01*
X106093274Y-27963222D02*
X106049871Y-27985070D01*
X106421766Y-27679864D02*
X106391871Y-27718170D01*
X106326626Y-31370089D02*
X106360132Y-31405282D01*
X106615397Y-27138700D02*
X106611822Y-27187160D01*
X106005448Y-31155485D02*
X106049871Y-31175176D01*
X106605874Y-27235386D02*
X106597567Y-27283262D01*
X106291434Y-31336584D02*
X106326626Y-31370089D01*
X106605874Y-31924860D02*
X106611822Y-31973086D01*
X106475741Y-27599083D02*
X106449745Y-27640136D01*
X105675169Y-31081319D02*
X105723629Y-31084893D01*
X106586921Y-27330673D02*
X106573961Y-27377504D01*
X106360132Y-31405282D02*
X106391871Y-31442076D01*
X105913973Y-31122755D02*
X105960112Y-31137997D01*
X106421766Y-31480382D02*
X106449745Y-31520110D01*
X106391871Y-31442076D02*
X106421766Y-31480382D01*
X106611822Y-27187160D02*
X106605874Y-27235386D01*
X106326626Y-27790157D02*
X106291434Y-27823662D01*
X106597567Y-27283262D02*
X106586921Y-27330673D01*
X105913973Y-28037491D02*
X105867142Y-28050451D01*
X105675169Y-28078927D02*
X105626470Y-28080123D01*
X106573961Y-27377504D02*
X106558718Y-27423643D01*
X106521539Y-27513401D02*
X106499692Y-27556804D01*
X106254640Y-31304845D02*
X106291434Y-31336584D01*
X106558718Y-27423643D02*
X106541230Y-27468978D01*
X105626470Y-31080123D02*
X105675169Y-31081319D01*
X106449745Y-31520110D02*
X106475741Y-31561163D01*
X106049871Y-27985070D02*
X106005448Y-28004761D01*
X105771855Y-28069405D02*
X105723629Y-28075353D01*
X105960112Y-28022249D02*
X105913973Y-28037491D01*
X106573961Y-31782742D02*
X106586921Y-31829573D01*
X106135553Y-31220974D02*
X106176605Y-31246971D01*
X105867142Y-31109795D02*
X105913973Y-31122755D01*
X106541230Y-27468978D02*
X106521539Y-27513401D01*
X106586921Y-31829573D02*
X106597567Y-31876984D01*
X106216333Y-31274950D02*
X106254640Y-31304845D01*
X106558718Y-31736603D02*
X106573961Y-31782742D01*
X106216333Y-27885296D02*
X106176605Y-27913275D01*
X106541230Y-31691268D02*
X106558718Y-31736603D01*
X106499692Y-31603442D02*
X106521539Y-31646845D01*
X105867142Y-28050451D02*
X105819731Y-28061097D01*
X106254640Y-27855401D02*
X106216333Y-27885296D01*
X106176605Y-31246971D02*
X106216333Y-31274950D01*
X105723629Y-28075353D02*
X105675169Y-28078927D01*
X106449745Y-27640136D02*
X106421766Y-27679864D01*
X106597567Y-31876984D02*
X106605874Y-31924860D01*
X103643281Y-31826643D02*
X103656241Y-31779812D01*
X103838331Y-31439146D02*
X103870070Y-31402352D01*
X103938768Y-27820732D02*
X103903576Y-27787227D01*
X104555033Y-31078389D02*
X104603732Y-31077193D01*
X104410471Y-31096219D02*
X104458347Y-31087911D01*
X104136928Y-27960292D02*
X104094649Y-27936342D01*
X103870070Y-27752034D02*
X103838331Y-27715240D01*
X103632635Y-27280332D02*
X103624328Y-27232456D01*
X104094649Y-27936342D02*
X104053597Y-27910345D01*
X103624328Y-27232456D02*
X103618380Y-27184230D01*
X104013869Y-31272020D02*
X104053597Y-31244041D01*
X103624328Y-31921930D02*
X103632635Y-31874054D01*
X103618380Y-31970156D02*
X103624328Y-31921930D01*
X104270090Y-31135067D02*
X104316229Y-31119825D01*
X103870070Y-31402352D02*
X103903576Y-31367159D01*
X103903576Y-27787227D02*
X103870070Y-27752034D01*
X104458347Y-28066475D02*
X104410471Y-28058167D01*
X103656241Y-27374574D02*
X103643281Y-27327743D01*
X103671484Y-31733673D02*
X103688972Y-31688338D01*
X104180331Y-31172246D02*
X104224754Y-31152555D01*
X103708663Y-31643915D02*
X103730510Y-31600512D01*
X104136928Y-31194094D02*
X104180331Y-31172246D01*
X103754461Y-27596153D02*
X103730510Y-27553874D01*
X104363060Y-31106865D02*
X104410471Y-31096219D01*
X103614805Y-27135770D02*
X103613609Y-27087070D01*
X103975562Y-27852471D02*
X103938768Y-27820732D01*
X104053597Y-27910345D02*
X104013869Y-27882366D01*
X103708663Y-27510471D02*
X103688972Y-27466048D01*
X104363060Y-28047521D02*
X104316229Y-28034561D01*
X103730510Y-31600512D02*
X103754461Y-31558233D01*
X103613609Y-32067316D02*
X103614805Y-32018616D01*
X104224754Y-28001831D02*
X104180331Y-27982140D01*
X104410471Y-28058167D02*
X104363060Y-28047521D01*
X103643281Y-27327743D02*
X103632635Y-27280332D01*
X103632635Y-31874054D02*
X103643281Y-31826643D01*
X103780457Y-27637206D02*
X103754461Y-27596153D01*
X103780457Y-31517180D02*
X103808436Y-31477452D01*
X104270090Y-28019319D02*
X104224754Y-28001831D01*
X104506573Y-31081963D02*
X104555033Y-31078389D01*
X104555033Y-28075997D02*
X104506573Y-28072423D01*
X104053597Y-31244041D02*
X104094649Y-31218044D01*
X103938768Y-31333654D02*
X103975562Y-31301915D01*
X103838331Y-27715240D02*
X103808436Y-27676934D01*
X103975562Y-31301915D02*
X104013869Y-31272020D01*
X103754461Y-31558233D02*
X103780457Y-31517180D01*
X103618380Y-27184230D02*
X103614805Y-27135770D01*
X104316229Y-31119825D02*
X104363060Y-31106865D01*
X104603732Y-28077193D02*
X104555033Y-28075997D01*
X104224754Y-31152555D02*
X104270090Y-31135067D01*
X103688972Y-31688338D02*
X103708663Y-31643915D01*
X103808436Y-27676934D02*
X103780457Y-27637206D01*
X103730510Y-27553874D02*
X103708663Y-27510471D01*
X103671484Y-27420713D02*
X103656241Y-27374574D01*
X104180331Y-27982140D02*
X104136928Y-27960292D01*
X104506573Y-28072423D02*
X104458347Y-28066475D01*
X104458347Y-31087911D02*
X104506573Y-31081963D01*
X103614805Y-32018616D02*
X103618380Y-31970156D01*
X103903576Y-31367159D02*
X103938768Y-31333654D01*
X104013869Y-27882366D02*
X103975562Y-27852471D01*
X104316229Y-28034561D02*
X104270090Y-28019319D01*
X103656241Y-31779812D02*
X103671484Y-31733673D01*
X103808436Y-31477452D02*
X103838331Y-31439146D01*
X104094649Y-31218044D02*
X104136928Y-31194094D01*
X103688972Y-27466048D02*
X103671484Y-27420713D01*
X104603732Y-28077193D02*
X105626470Y-28080123D01*
X104603732Y-31077193D02*
X105626470Y-31080123D01*
X131805219Y-79627518D02*
X114173317Y-79628615D01*
X114416839Y-59580000D02*
X132048741Y-59580000D01*
X109702154Y-79487763D02*
X109659875Y-79511714D01*
X113407916Y-79266662D02*
X113378021Y-79228355D01*
X110088141Y-79061893D02*
X110066293Y-79105296D01*
X114027931Y-79617896D02*
X113980055Y-79609589D01*
X110042343Y-79147575D02*
X110016346Y-79188627D01*
X113378021Y-79228355D02*
X113350042Y-79188627D01*
X109616472Y-79533561D02*
X109572049Y-79553252D01*
X113980055Y-79609589D02*
X113932644Y-79598943D01*
X110140562Y-78925995D02*
X110125320Y-78972134D01*
X114076157Y-79623844D02*
X114027931Y-79617896D01*
X109858035Y-79372154D02*
X109821241Y-79403893D01*
X109572049Y-79553252D02*
X109526714Y-79570740D01*
X109988367Y-79228355D02*
X109958472Y-79266662D01*
X113794339Y-79553252D02*
X113749916Y-79533561D01*
X113184390Y-78687191D02*
X113183194Y-78638492D01*
X109480575Y-79585983D02*
X109433744Y-79598943D01*
X113508353Y-79372154D02*
X113473160Y-79338648D01*
X113749916Y-79533561D02*
X113706513Y-79511714D01*
X110125320Y-78972134D02*
X110107832Y-79017470D01*
X109433744Y-79598943D02*
X109386333Y-79609589D01*
X113583453Y-79433788D02*
X113545147Y-79403893D01*
X110066293Y-79105296D02*
X110042343Y-79147575D01*
X109821241Y-79403893D02*
X109782935Y-79433788D01*
X114124617Y-79627419D02*
X114076157Y-79623844D01*
X110181998Y-78687191D02*
X110178424Y-78735651D01*
X113623181Y-79461767D02*
X113583453Y-79433788D01*
X114173317Y-79628615D02*
X114124617Y-79627419D01*
X113241068Y-78972134D02*
X113225826Y-78925995D01*
X109659875Y-79511714D02*
X109616472Y-79533561D01*
X113439655Y-79303456D02*
X113407916Y-79266662D01*
X113193912Y-78783877D02*
X113187964Y-78735651D01*
X109338457Y-79617896D02*
X109290231Y-79623844D01*
X113225826Y-78925995D02*
X113212866Y-78879164D01*
X109241771Y-79627419D02*
X109193071Y-79628615D01*
X110183194Y-78638492D02*
X110181998Y-78687191D01*
X110153522Y-78879164D02*
X110140562Y-78925995D01*
X113202220Y-78831753D02*
X113193912Y-78783877D01*
X113473160Y-79338648D02*
X113439655Y-79303456D01*
X113932644Y-79598943D02*
X113885813Y-79585983D01*
X109782935Y-79433788D02*
X109743207Y-79461767D01*
X110016346Y-79188627D02*
X109988367Y-79228355D01*
X113885813Y-79585983D02*
X113839674Y-79570740D01*
X113545147Y-79403893D02*
X113508353Y-79372154D01*
X109926733Y-79303456D02*
X109893228Y-79338648D01*
X110172476Y-78783877D02*
X110164168Y-78831753D01*
X113258556Y-79017470D02*
X113241068Y-78972134D01*
X109526714Y-79570740D02*
X109480575Y-79585983D01*
X113664234Y-79487763D02*
X113623181Y-79461767D01*
X113350042Y-79188627D02*
X113324045Y-79147575D01*
X109958472Y-79266662D02*
X109926733Y-79303456D01*
X110164168Y-78831753D02*
X110153522Y-78879164D01*
X113300095Y-79105296D02*
X113278247Y-79061893D01*
X113324045Y-79147575D02*
X113300095Y-79105296D01*
X110178424Y-78735651D02*
X110172476Y-78783877D01*
X109290231Y-79623844D02*
X109241771Y-79627419D01*
X113187964Y-78735651D02*
X113184390Y-78687191D01*
X113706513Y-79511714D02*
X113664234Y-79487763D01*
X113839674Y-79570740D02*
X113794339Y-79553252D01*
X113278247Y-79061893D02*
X113258556Y-79017470D01*
X109743207Y-79461767D02*
X109702154Y-79487763D01*
X109893228Y-79338648D02*
X109858035Y-79372154D01*
X113212866Y-78879164D02*
X113202220Y-78831753D01*
X110107832Y-79017470D02*
X110088141Y-79061893D01*
X109386333Y-79609589D02*
X109338457Y-79617896D01*
X113621543Y-59980260D02*
X113651438Y-59941953D01*
X109677266Y-59609672D02*
X109724097Y-59622632D01*
X113484590Y-60236481D02*
X113502078Y-60191145D01*
X113426716Y-60570123D02*
X113427912Y-60521424D01*
X114368139Y-59581196D02*
X114416839Y-59580000D01*
X109485293Y-59581196D02*
X109533753Y-59584771D01*
X113751875Y-59836461D02*
X113788669Y-59804722D01*
X110259868Y-60019988D02*
X110285865Y-60061040D01*
X110285865Y-60061040D02*
X110309815Y-60103319D01*
X113567567Y-60061040D02*
X113593564Y-60019988D01*
X113445742Y-60376862D02*
X113456388Y-60329451D01*
X109986729Y-59746848D02*
X110026457Y-59774827D01*
X109629855Y-59599026D02*
X109677266Y-59609672D01*
X110425520Y-60521424D02*
X110426716Y-60570123D01*
X109815571Y-59655363D02*
X109859994Y-59675054D01*
X109724097Y-59622632D02*
X109770236Y-59637875D01*
X109436593Y-59580000D02*
X109485293Y-59581196D01*
X114037861Y-59655363D02*
X114083196Y-59637875D01*
X114129335Y-59622632D02*
X114176166Y-59609672D01*
X110384084Y-60282620D02*
X110397044Y-60329451D01*
X113716682Y-59869967D02*
X113751875Y-59836461D01*
X113437434Y-60424738D02*
X113445742Y-60376862D01*
X114223577Y-59599026D02*
X114271453Y-59590719D01*
X110101557Y-59836461D02*
X110136750Y-59869967D01*
X113502078Y-60191145D02*
X113521769Y-60146722D01*
X113427912Y-60521424D02*
X113431486Y-60472964D01*
X113456388Y-60329451D02*
X113469348Y-60282620D01*
X114176166Y-59609672D02*
X114223577Y-59599026D01*
X113683177Y-59905159D02*
X113716682Y-59869967D01*
X113788669Y-59804722D02*
X113826975Y-59774827D01*
X110136750Y-59869967D02*
X110170255Y-59905159D01*
X113907756Y-59720852D02*
X113950035Y-59696901D01*
X109770236Y-59637875D02*
X109815571Y-59655363D01*
X110064763Y-59804722D02*
X110101557Y-59836461D01*
X110421946Y-60472964D02*
X110425520Y-60521424D01*
X113521769Y-60146722D02*
X113543617Y-60103319D01*
X110415998Y-60424738D02*
X110421946Y-60472964D01*
X110026457Y-59774827D02*
X110064763Y-59804722D01*
X113543617Y-60103319D02*
X113567567Y-60061040D01*
X110231889Y-59980260D02*
X110259868Y-60019988D01*
X113993438Y-59675054D02*
X114037861Y-59655363D01*
X113826975Y-59774827D02*
X113866703Y-59746848D01*
X113431486Y-60472964D02*
X113437434Y-60424738D01*
X113651438Y-59941953D02*
X113683177Y-59905159D01*
X110170255Y-59905159D02*
X110201994Y-59941953D01*
X110397044Y-60329451D02*
X110407690Y-60376862D01*
X109581979Y-59590719D02*
X109629855Y-59599026D01*
X114271453Y-59590719D02*
X114319679Y-59584771D01*
X113469348Y-60282620D02*
X113484590Y-60236481D01*
X109945676Y-59720852D02*
X109986729Y-59746848D01*
X114319679Y-59584771D02*
X114368139Y-59581196D01*
X110407690Y-60376862D02*
X110415998Y-60424738D01*
X110368842Y-60236481D02*
X110384084Y-60282620D01*
X113593564Y-60019988D02*
X113621543Y-59980260D01*
X109533753Y-59584771D02*
X109581979Y-59590719D01*
X110309815Y-60103319D02*
X110331663Y-60146722D01*
X110351354Y-60191145D02*
X110368842Y-60236481D01*
X109903397Y-59696901D02*
X109945676Y-59720852D01*
X113866703Y-59746848D02*
X113907756Y-59720852D01*
X110331663Y-60146722D02*
X110351354Y-60191145D01*
X113950035Y-59696901D02*
X113993438Y-59675054D01*
X109859994Y-59675054D02*
X109903397Y-59696901D01*
X110201994Y-59941953D02*
X110231889Y-59980260D01*
X114083196Y-59637875D02*
X114129335Y-59622632D01*
X190380248Y-70620617D02*
X190379885Y-70620288D01*
X190373598Y-70617863D02*
X190371380Y-70617809D01*
X190380596Y-70620965D02*
X190380248Y-70620617D01*
X190383326Y-70627124D02*
X190383278Y-70626636D01*
X190383110Y-70625669D02*
X190382991Y-70625193D01*
X190380925Y-70621328D02*
X190380596Y-70620965D01*
X190381237Y-70621708D02*
X190380925Y-70621328D01*
X190383278Y-70626636D02*
X190383206Y-70626150D01*
X190378703Y-70619411D02*
X190378282Y-70619159D01*
X190383404Y-70629833D02*
X190383350Y-70627615D01*
X190375544Y-70618103D02*
X190375063Y-70618007D01*
X190383206Y-70626150D02*
X190383110Y-70625669D01*
X190371380Y-70617809D02*
X190371135Y-70617806D01*
X190383609Y-78046824D02*
X190383408Y-70630078D01*
X190382991Y-70625193D02*
X190382848Y-70624723D01*
X190382683Y-70624261D02*
X190382495Y-70623808D01*
X190382495Y-70623808D02*
X190382285Y-70623364D01*
X190382285Y-70623364D02*
X190382054Y-70622931D01*
X190377405Y-70618718D02*
X190376952Y-70618530D01*
X190377849Y-70618928D02*
X190377405Y-70618718D01*
X190379111Y-70619684D02*
X190378703Y-70619411D01*
X190379885Y-70620288D02*
X190379505Y-70619976D01*
X190374089Y-70617887D02*
X190373598Y-70617863D01*
X190381529Y-70622102D02*
X190381237Y-70621708D01*
X190383350Y-70627615D02*
X190383326Y-70627124D01*
X190376020Y-70618222D02*
X190375544Y-70618103D01*
X190382054Y-70622931D02*
X190381802Y-70622510D01*
X190376490Y-70618365D02*
X190376020Y-70618222D01*
X190378282Y-70619159D02*
X190377849Y-70618928D01*
X190383408Y-70630078D02*
X190383404Y-70629833D01*
X190381802Y-70622510D02*
X190381529Y-70622102D01*
X190376952Y-70618530D02*
X190376490Y-70618365D01*
X190382848Y-70624723D02*
X190382683Y-70624261D01*
X190375063Y-70618007D02*
X190374577Y-70617935D01*
X190379505Y-70619976D02*
X190379111Y-70619684D01*
X190374577Y-70617935D02*
X190374089Y-70617887D01*
X148184320Y-70623808D02*
X148184132Y-70624261D01*
X136120501Y-79371057D02*
X136085309Y-79337551D01*
X148185578Y-20012805D02*
X148185286Y-20013199D01*
X133034094Y-60472963D02*
X133037669Y-60521423D01*
X148188112Y-70619411D02*
X148187704Y-70619684D01*
X198379111Y-20001878D02*
X198378703Y-20001605D01*
X198380925Y-119214283D02*
X198381237Y-119213903D01*
X190383404Y-119205778D02*
X190383408Y-119205533D01*
X198377849Y-20001122D02*
X198377405Y-20000912D01*
X106374676Y-119202813D02*
X106374949Y-119203221D01*
X148183465Y-20018712D02*
X148183411Y-20020930D01*
X148195435Y-70617809D02*
X148193217Y-70617863D01*
X148187310Y-70619976D02*
X148186930Y-70620288D01*
X160116399Y-70607087D02*
X160068173Y-70613035D01*
X106377367Y-119205639D02*
X106377775Y-119205912D01*
X145356559Y-46094417D02*
X145391751Y-46060912D01*
X145547632Y-42663600D02*
X145506580Y-42637603D01*
X148185286Y-119213509D02*
X148185578Y-119213903D01*
X144811043Y-119207514D02*
X144813261Y-119207460D01*
X145062690Y-20002170D02*
X145062296Y-20001878D01*
X98621297Y-20001605D02*
X98620889Y-20001878D01*
X164078036Y-69132221D02*
X164101987Y-69089942D01*
X132719980Y-79016373D02*
X132700289Y-79060796D01*
X147743420Y-45971299D02*
X147783148Y-45999278D01*
X160956366Y-69724842D02*
X160950418Y-69773068D01*
X145959556Y-45809221D02*
X146008016Y-45805647D01*
X147241984Y-45805647D02*
X147290444Y-45809221D01*
X144813752Y-119207436D02*
X144814240Y-119207388D01*
X198383326Y-20009318D02*
X198383278Y-20008830D01*
X198377405Y-119216893D02*
X198377849Y-119216683D01*
X131902379Y-79622747D02*
X131853919Y-79626322D01*
X132737468Y-78971037D02*
X132719980Y-79016373D01*
X145061034Y-59578877D02*
X145061467Y-59578646D01*
X98619752Y-20002811D02*
X98619404Y-20003159D01*
X148164382Y-42007590D02*
X148153736Y-42055001D01*
X145059675Y-59579440D02*
X145060137Y-59579275D01*
X132557824Y-59720851D02*
X132598877Y-59746847D01*
X147290444Y-42799681D02*
X147241984Y-42803255D01*
X148190795Y-20009319D02*
X148190325Y-20009462D01*
X148186219Y-68605743D02*
X148186567Y-68606091D01*
X147858249Y-42547990D02*
X147821455Y-42579729D01*
X136068536Y-60329450D02*
X136081496Y-60282619D01*
X106375553Y-79631040D02*
X106375241Y-79631420D01*
X160942110Y-69405764D02*
X160950418Y-69453640D01*
X106376230Y-79630329D02*
X106375882Y-79630677D01*
X132515546Y-59696900D02*
X132557824Y-59720851D01*
X145233440Y-42364464D02*
X145207444Y-42323411D01*
X193383489Y-119208487D02*
X193383537Y-119208975D01*
X193383537Y-119208975D02*
X193383609Y-119209461D01*
X106375241Y-79631420D02*
X106374949Y-79631814D01*
X132638605Y-59774826D02*
X132676912Y-59804721D01*
X145065868Y-20006455D02*
X145065680Y-20006002D01*
X103615868Y-20006455D02*
X103615680Y-20006002D01*
X103613433Y-20002811D02*
X103613070Y-20002482D01*
X144819911Y-119204706D02*
X144820259Y-119204358D01*
X190373598Y-68608845D02*
X190374089Y-68608821D01*
X147926947Y-42479292D02*
X147893441Y-42514485D01*
X148184761Y-119212680D02*
X148185013Y-119213101D01*
X148188112Y-119216200D02*
X148188533Y-119216452D01*
X190376952Y-68608178D02*
X190377405Y-68607990D01*
X133009192Y-60329450D02*
X133019839Y-60376861D01*
X148186219Y-119214646D02*
X148186567Y-119214994D01*
X164442176Y-70476954D02*
X164401123Y-70450958D01*
X193386930Y-20002482D02*
X193386567Y-20002811D01*
X145066535Y-59570190D02*
X145066589Y-59567972D01*
X164323088Y-70393084D02*
X164286294Y-70361345D01*
X190371135Y-70617806D02*
X184581067Y-70620060D01*
X190375063Y-68608701D02*
X190375544Y-68608605D01*
X145061888Y-59578394D02*
X145062296Y-59578121D01*
X147702368Y-42663600D02*
X147660089Y-42687550D01*
X106380934Y-119207220D02*
X106381415Y-119207316D01*
X145063433Y-59577188D02*
X145063781Y-59576840D01*
X164251102Y-68898869D02*
X164286294Y-68865363D01*
X198371135Y-119217806D02*
X198371380Y-119217802D01*
X148191271Y-119217508D02*
X148191752Y-119217604D01*
X136605586Y-59675053D02*
X136650009Y-59655362D01*
X106616593Y-46794574D02*
X106616593Y-59567727D01*
X190376490Y-20009462D02*
X190376020Y-20009319D01*
X147893441Y-42514485D02*
X147858249Y-42547990D01*
X160844235Y-70094487D02*
X160820285Y-70136766D01*
X148192726Y-20008984D02*
X148192238Y-20009032D01*
X164484454Y-68725803D02*
X164527858Y-68703956D01*
X106617009Y-20007387D02*
X106616890Y-20007863D01*
X147660089Y-42687550D02*
X147616686Y-42709398D01*
X135990169Y-79227258D02*
X135962190Y-79187530D01*
X103608248Y-20000201D02*
X103607762Y-20000129D01*
X144810798Y-119207518D02*
X144811043Y-119207514D01*
X190374577Y-119217676D02*
X190375063Y-119217604D01*
X145183493Y-42281132D02*
X145161646Y-42237729D01*
X193387310Y-20002170D02*
X193386930Y-20002482D01*
X145323053Y-42479292D02*
X145291314Y-42442498D01*
X148183609Y-68600558D02*
X148183705Y-68601039D01*
X132433390Y-79402796D02*
X132395083Y-79432691D01*
X148190325Y-70618365D02*
X148189863Y-70618530D01*
X145064714Y-20004296D02*
X145064422Y-20003902D01*
X106374424Y-119202392D02*
X106374676Y-119202813D01*
X190379505Y-20011073D02*
X190379111Y-20010781D01*
X146056715Y-45804451D02*
X147193285Y-45804451D01*
X106617715Y-20005558D02*
X106617505Y-20006002D01*
X106373074Y-119195490D02*
X106373128Y-119197708D01*
X164003768Y-69311522D02*
X164019010Y-69265383D01*
X145589911Y-45921352D02*
X145633314Y-45899504D01*
X148188533Y-119216452D02*
X148188966Y-119216683D01*
X164527858Y-70522752D02*
X164484454Y-70500905D01*
X190380248Y-119214994D02*
X190380596Y-119214646D01*
X190380596Y-20012062D02*
X190380248Y-20011714D01*
X132784624Y-78782780D02*
X132776317Y-78830656D01*
X148187310Y-20011073D02*
X148186930Y-20011385D01*
X106622595Y-20000912D02*
X106622151Y-20001122D01*
X98618471Y-20004296D02*
X98618198Y-20004704D01*
X190380925Y-119214283D02*
X190381237Y-119213903D01*
X148140776Y-42101832D02*
X148125533Y-42147971D01*
X132048741Y-59580000D02*
X132097441Y-59581195D01*
X160635977Y-70361345D02*
X160599183Y-70393084D01*
X98617009Y-20007387D02*
X98616890Y-20007863D01*
X106380934Y-79627815D02*
X106380458Y-79627934D01*
X106373272Y-119199173D02*
X106373368Y-119199654D01*
X148195680Y-20008903D02*
X148195435Y-20008906D01*
X148188533Y-70619159D02*
X148188112Y-70619411D01*
X135825014Y-78878067D02*
X135814368Y-78830656D01*
X148191752Y-119217604D02*
X148192238Y-119217676D01*
X190381802Y-119213101D02*
X190382054Y-119212680D01*
X103610590Y-119216893D02*
X103611034Y-119216683D01*
X193387704Y-119215927D02*
X193388112Y-119216200D01*
X145547632Y-45945302D02*
X145589911Y-45921352D01*
X103611888Y-119216200D02*
X103612296Y-119215927D01*
X145065470Y-20005558D02*
X145065239Y-20005125D01*
X98622151Y-20001122D02*
X98621718Y-20001353D01*
X106376973Y-79629688D02*
X106376593Y-79630000D01*
X145060590Y-59579087D02*
X145061034Y-59578877D01*
X190374577Y-68608773D02*
X190375063Y-68608701D01*
X148189410Y-68607990D02*
X148189863Y-68608178D01*
X147988581Y-46204710D02*
X148016560Y-46244438D01*
X145059205Y-59579583D02*
X145059675Y-59579440D01*
X160866083Y-69175624D02*
X160885774Y-69220047D01*
X190378703Y-20010508D02*
X190378282Y-20010256D01*
X190382848Y-68601985D02*
X190382991Y-68601515D01*
X106373200Y-119198687D02*
X106373272Y-119199173D01*
X132145901Y-59584770D02*
X132194127Y-59590718D01*
X106621297Y-20001605D02*
X106620889Y-20001878D01*
X148182212Y-41863028D02*
X148178637Y-41911488D01*
X106622151Y-20001122D02*
X106621718Y-20001353D01*
X144822511Y-119200600D02*
X144822654Y-119200130D01*
X148016560Y-42364464D02*
X147988581Y-42404192D01*
X106373795Y-119201062D02*
X106373983Y-119201515D01*
X106624937Y-20000201D02*
X106624456Y-20000297D01*
X103616511Y-119208487D02*
X103616535Y-119207996D01*
X148189410Y-119216893D02*
X148189863Y-119217081D01*
X164323088Y-68833624D02*
X164361395Y-68803729D01*
X106379988Y-79628077D02*
X106379526Y-79628242D01*
X198383404Y-119205778D02*
X198383408Y-119205533D01*
X164036498Y-69220047D02*
X164056189Y-69175624D01*
X98620115Y-20002482D02*
X98619752Y-20002811D01*
X106381901Y-79627647D02*
X106381415Y-79627719D01*
X146008016Y-45805647D02*
X146056715Y-45804451D01*
X198380248Y-119214994D02*
X198380596Y-119214646D01*
X148191752Y-68608701D02*
X148192238Y-68608773D01*
X98616794Y-20008344D02*
X98616722Y-20008830D01*
X190382495Y-68602900D02*
X190382683Y-68602447D01*
X135912243Y-79104199D02*
X135890395Y-79060796D01*
X163965906Y-69724842D02*
X163962331Y-69676382D01*
X103604565Y-20000003D02*
X103604320Y-20000000D01*
X148183824Y-70625193D02*
X148183705Y-70625669D01*
X103612296Y-20001878D02*
X103611888Y-20001605D01*
X190382285Y-119212247D02*
X190382495Y-119211803D01*
X136931827Y-59584770D02*
X136980287Y-59581195D01*
X98617505Y-20006002D02*
X98617317Y-20006455D01*
X148190795Y-119217389D02*
X148191271Y-119217508D01*
X190374577Y-20009032D02*
X190374089Y-20008984D01*
X160961136Y-69627683D02*
X160959940Y-69676382D01*
X132314302Y-79486666D02*
X132272024Y-79510617D01*
X148191752Y-20009104D02*
X148191271Y-20009200D01*
X164101987Y-70136766D02*
X164078036Y-70094487D01*
X106373128Y-119197708D02*
X106373152Y-119198199D01*
X198382848Y-20006917D02*
X198382683Y-20006455D01*
X198381802Y-119213101D02*
X198382054Y-119212680D01*
X148172689Y-41959714D02*
X148164382Y-42007590D01*
X144822941Y-119198687D02*
X144822989Y-119198199D01*
X147958686Y-46166404D02*
X147988581Y-46204710D01*
X132921964Y-60103318D02*
X132943811Y-60146721D01*
X148184530Y-68603344D02*
X148184761Y-68603777D01*
X103616593Y-67319877D02*
X103613609Y-46791644D01*
X148186930Y-70620288D02*
X148186567Y-70620617D01*
X136640079Y-79616799D02*
X136592203Y-79608492D01*
X190375544Y-119217508D02*
X190376020Y-119217389D01*
X144820588Y-119203995D02*
X144820900Y-119203615D01*
X198380596Y-119214646D02*
X198380925Y-119214283D01*
X145261419Y-42404192D02*
X145233440Y-42364464D01*
X190371380Y-68608899D02*
X190373598Y-68608845D01*
X132289414Y-59609671D02*
X132336245Y-59622631D01*
X148187704Y-20010781D02*
X148187310Y-20011073D01*
X160736414Y-68970855D02*
X160766309Y-69009162D01*
X148184320Y-68602900D02*
X148184530Y-68603344D01*
X190383110Y-119209942D02*
X190383206Y-119209461D01*
X190379885Y-68606420D02*
X190380248Y-68606091D01*
X148125533Y-42147971D02*
X148108045Y-42193306D01*
X148186567Y-20011714D02*
X148186219Y-20012062D01*
X145063781Y-59576840D02*
X145064110Y-59576477D01*
X106618471Y-20004296D02*
X106618198Y-20004704D01*
X136295325Y-59905158D02*
X136328831Y-59869966D01*
X103612690Y-20002170D02*
X103612296Y-20001878D01*
X106621718Y-20001353D02*
X106621297Y-20001605D01*
X132097441Y-59581195D02*
X132145901Y-59584770D01*
X160635977Y-68865363D02*
X160671169Y-68898869D01*
X106373272Y-79635862D02*
X106373200Y-79636348D01*
X103610590Y-20000912D02*
X103610137Y-20000724D01*
X145506580Y-45971299D02*
X145547632Y-45945302D01*
X145207444Y-42323411D02*
X145183493Y-42281132D01*
X145466852Y-45999278D02*
X145506580Y-45971299D01*
X148188966Y-20010025D02*
X148188533Y-20010256D01*
X198378703Y-20001605D02*
X198378282Y-20001353D01*
X198383110Y-20007863D02*
X198382991Y-20007387D01*
X145064422Y-20003902D02*
X145064110Y-20003522D01*
X144823067Y-119195490D02*
X144823071Y-119195245D01*
X145261419Y-46204710D02*
X145291314Y-46166404D01*
X145466852Y-42609624D02*
X145428545Y-42579729D01*
X98616890Y-20007863D02*
X98616794Y-20008344D01*
X163971854Y-69453640D02*
X163980161Y-69405764D01*
X148186930Y-20011385D02*
X148186567Y-20011714D01*
X145911330Y-45815169D02*
X145959556Y-45809221D01*
X103616033Y-119210888D02*
X103616176Y-119210418D01*
X98621718Y-20001353D02*
X98621297Y-20001605D01*
X198376952Y-20000724D02*
X198376490Y-20000559D01*
X160560876Y-70422979D02*
X160521149Y-70450958D01*
X148183489Y-20018221D02*
X148183465Y-20018712D01*
X136276382Y-79486666D02*
X136235329Y-79460670D01*
X164361395Y-68803729D02*
X164401123Y-68775750D01*
X132963502Y-60191144D02*
X132980990Y-60236480D01*
X198383110Y-119209942D02*
X198383206Y-119209461D01*
X145633314Y-45899504D02*
X145677737Y-45879813D01*
X148183609Y-119209461D02*
X148183705Y-119209942D01*
X148186930Y-68606420D02*
X148187310Y-68606732D01*
X147290444Y-45809221D02*
X147338670Y-45815169D01*
X147783148Y-45999278D02*
X147821455Y-46029173D01*
X132242003Y-59599025D02*
X132289414Y-59609671D01*
X144813261Y-119207460D02*
X144813752Y-119207436D01*
X106373487Y-79634905D02*
X106373368Y-79635381D01*
X148183967Y-70624723D02*
X148183824Y-70625193D01*
X145064110Y-59576477D02*
X145064422Y-59576097D01*
X193384132Y-119211350D02*
X193384320Y-119211803D01*
X160942110Y-69820944D02*
X160931464Y-69868355D01*
X103608729Y-20000297D02*
X103608248Y-20000201D01*
X135814368Y-78830656D02*
X135806060Y-78782780D01*
X164127983Y-69048890D02*
X164155963Y-69009162D01*
X190383404Y-68596875D02*
X190383408Y-68596630D01*
X135806060Y-78782780D02*
X135800112Y-78734554D01*
X148178637Y-46697414D02*
X148182212Y-46745874D01*
X106382389Y-119207436D02*
X106382880Y-119207460D01*
X103613070Y-119215323D02*
X103613433Y-119214994D01*
X164757997Y-70598780D02*
X164710586Y-70588134D01*
X160885774Y-69220047D02*
X160903262Y-69265383D01*
X190381802Y-68604198D02*
X190382054Y-68603777D01*
X106379073Y-119206605D02*
X106379526Y-119206793D01*
X145063070Y-59577517D02*
X145063433Y-59577188D01*
X106377775Y-119205912D02*
X106378196Y-119206164D01*
X148192238Y-70617935D02*
X148191752Y-70618007D01*
X160956366Y-69501866D02*
X160959940Y-69550326D01*
X145066511Y-20009318D02*
X145066463Y-20008830D01*
X190374089Y-119217724D02*
X190374577Y-119217676D01*
X148193217Y-20008960D02*
X148192726Y-20008984D01*
X148190325Y-68608343D02*
X148190795Y-68608486D01*
X103616391Y-20008344D02*
X103616295Y-20007863D01*
X160961136Y-69599025D02*
X160961136Y-69627683D01*
X164854099Y-70613035D02*
X164805873Y-70607087D01*
X198380248Y-20002811D02*
X198379885Y-20002482D01*
X103613609Y-27087070D02*
X103616593Y-20012272D01*
X190378282Y-68607549D02*
X190378703Y-68607297D01*
X98626402Y-20000057D02*
X98625911Y-20000081D01*
X148195435Y-68608899D02*
X148195680Y-68608903D01*
X145124467Y-46460931D02*
X145141955Y-46415596D01*
X106378629Y-119206395D02*
X106379073Y-119206605D01*
X132814142Y-59941952D02*
X132844037Y-59980259D01*
X148125533Y-46460931D02*
X148140776Y-46507070D01*
X103616589Y-20012027D02*
X103616535Y-20009809D01*
X148183967Y-20015820D02*
X148183824Y-20016290D01*
X145769212Y-42761819D02*
X145723073Y-42746577D01*
X106381415Y-79627719D02*
X106380934Y-79627815D01*
X193383609Y-119209461D02*
X193383705Y-119209942D01*
X145863454Y-45823477D02*
X145911330Y-45815169D01*
X148088354Y-46371173D02*
X148108045Y-46415596D01*
X103608248Y-119217604D02*
X103608729Y-119217508D01*
X145391751Y-42547990D02*
X145356559Y-42514485D01*
X132980990Y-60236480D02*
X132996232Y-60282619D01*
X190378282Y-20010256D02*
X190377849Y-20010025D01*
X103616589Y-119205778D02*
X103616593Y-119205533D01*
X147858249Y-46060912D02*
X147893441Y-46094417D01*
X136741483Y-59622631D02*
X136788315Y-59609671D01*
X164401123Y-68775750D02*
X164442176Y-68749754D01*
X147433957Y-42774779D02*
X147386546Y-42785425D01*
X136835725Y-59599025D02*
X136883601Y-59590718D01*
X190375063Y-119217604D02*
X190375544Y-119217508D01*
X106620889Y-20001878D02*
X106620495Y-20002170D01*
X103613433Y-119214994D02*
X103613781Y-119214646D01*
X145356559Y-42514485D02*
X145323053Y-42479292D01*
X98623980Y-20000416D02*
X98623510Y-20000559D01*
X193392238Y-20000129D02*
X193391752Y-20000201D01*
X145058248Y-59579798D02*
X145058729Y-59579702D01*
X198374089Y-119217724D02*
X198374577Y-119217676D01*
X160918504Y-69915186D02*
X160903262Y-69961325D01*
X106628620Y-20000003D02*
X106626402Y-20000057D01*
X147821455Y-46029173D02*
X147858249Y-46060912D01*
X160521149Y-70450958D02*
X160480096Y-70476954D01*
X198377405Y-20000912D02*
X198376952Y-20000724D01*
X103616295Y-119209942D02*
X103616391Y-119209461D01*
X144818366Y-119205912D02*
X144818774Y-119205639D01*
X190377849Y-20010025D02*
X190377405Y-20009815D01*
X106382389Y-79627599D02*
X106381901Y-79627647D01*
X164217596Y-68934061D02*
X164251102Y-68898869D01*
X106385343Y-79627518D02*
X106385098Y-79627521D01*
X106620495Y-20002170D02*
X106620115Y-20002482D01*
X160820285Y-70136766D02*
X160794288Y-70177818D01*
X148178637Y-41911488D02*
X148172689Y-41959714D01*
X145066033Y-59573082D02*
X145066176Y-59572612D01*
X198375544Y-20000297D02*
X198375063Y-20000201D01*
X193388966Y-119216683D02*
X193389410Y-119216893D01*
X198379885Y-119215323D02*
X198380248Y-119214994D01*
X103611467Y-20001353D02*
X103611034Y-20001122D01*
X98618198Y-20004704D02*
X98617946Y-20005125D01*
X136114226Y-60191144D02*
X136133917Y-60146721D01*
X145054565Y-20000003D02*
X145054320Y-20000000D01*
X145066463Y-20008830D02*
X145066391Y-20008344D01*
X160931464Y-69868355D02*
X160918504Y-69915186D01*
X148191271Y-68608605D02*
X148191752Y-68608701D01*
X98616674Y-20009318D02*
X98616650Y-20009809D01*
X190383110Y-68601039D02*
X190383206Y-68600558D01*
X106373487Y-119200130D02*
X106373630Y-119200600D01*
X98616596Y-20012027D02*
X98616596Y-20012027D01*
X145066535Y-20009809D02*
X145066511Y-20009318D01*
X148185890Y-70621328D02*
X148185578Y-70621708D01*
X193384320Y-119211803D02*
X193384530Y-119212247D01*
X148186219Y-70620965D02*
X148185890Y-70621328D01*
X148188966Y-119216683D02*
X148189410Y-119216893D01*
X136980287Y-59581195D02*
X137028987Y-59580000D01*
X148187310Y-119215635D02*
X148187704Y-119215927D01*
X190381529Y-20013199D02*
X190381237Y-20012805D01*
X148183609Y-70626150D02*
X148183537Y-70626636D01*
X148185578Y-68605000D02*
X148185890Y-68605380D01*
X160766309Y-69009162D02*
X160794288Y-69048890D01*
X198377849Y-119216683D02*
X198378282Y-119216452D01*
X145161646Y-46371173D02*
X145183493Y-46327770D01*
X136195602Y-79432691D02*
X136157295Y-79402796D01*
X103613070Y-20002482D02*
X103612690Y-20002170D01*
X147386546Y-42785425D02*
X147338670Y-42793733D01*
X132776317Y-78830656D02*
X132765670Y-78878067D01*
X160736414Y-70255853D02*
X160704675Y-70292647D01*
X193383824Y-20007387D02*
X193383705Y-20007863D01*
X148184761Y-68603777D02*
X148185013Y-68604198D01*
X106385098Y-79627521D02*
X106382880Y-79627575D01*
X148183489Y-119208487D02*
X148183537Y-119208975D01*
X144822654Y-119200130D02*
X144822773Y-119199654D01*
X103610137Y-119217081D02*
X103610590Y-119216893D01*
X190373598Y-68608845D02*
X190373598Y-68608845D01*
X145061034Y-20001122D02*
X145060590Y-20000912D01*
X148184530Y-70623364D02*
X148184320Y-70623808D01*
X145141955Y-42193306D02*
X145124467Y-42147971D01*
X148191271Y-20009200D02*
X148190795Y-20009319D01*
X190383350Y-119207996D02*
X190383404Y-119205778D01*
X198383326Y-119208487D02*
X198383350Y-119207996D01*
X103616176Y-119210418D02*
X103616295Y-119209942D01*
X144821948Y-119201959D02*
X144822158Y-119201515D01*
X145071363Y-41911488D02*
X145067788Y-41863028D01*
X193384132Y-20006455D02*
X193383967Y-20006917D01*
X144822989Y-119198199D02*
X144823013Y-119197708D01*
X147702368Y-45945302D02*
X147743420Y-45971299D01*
X145233440Y-46244438D02*
X145261419Y-46204710D01*
X136205712Y-60019987D02*
X136233691Y-59980259D01*
X193386593Y-114930000D02*
X193383408Y-119205533D01*
X106373368Y-119199654D02*
X106373487Y-119200130D01*
X145066176Y-20007387D02*
X145066033Y-20006917D01*
X198376020Y-119217389D02*
X198376490Y-119217246D01*
X160794288Y-69048890D02*
X160820285Y-69089942D01*
X193384530Y-119212247D02*
X193384761Y-119212680D01*
X148183537Y-119208975D02*
X148183609Y-119209461D01*
X148183408Y-119205533D02*
X148183411Y-119205778D01*
X132092723Y-79584886D02*
X132045892Y-79597846D01*
X190382285Y-68603344D02*
X190382495Y-68602900D01*
X190380925Y-68605380D02*
X190381237Y-68605000D01*
X106380458Y-79627934D02*
X106379988Y-79628077D01*
X144814240Y-119207388D02*
X144814726Y-119207316D01*
X147572263Y-42729089D02*
X147526927Y-42746577D01*
X148184761Y-70622931D02*
X148184530Y-70623364D01*
X159971013Y-70617806D02*
X148195680Y-70617806D01*
X135936193Y-79146478D02*
X135912243Y-79104199D01*
X193385286Y-119213509D02*
X193385578Y-119213903D01*
X132045892Y-79597846D02*
X131998481Y-79608492D01*
X164527858Y-68703956D02*
X164572280Y-68684265D01*
X193383465Y-20009809D02*
X193383411Y-20012027D01*
X148140776Y-46507070D02*
X148153736Y-46553901D01*
X160959940Y-69550326D02*
X160961136Y-69599025D01*
X103604320Y-20000000D02*
X98628865Y-20000000D01*
X132184198Y-79552155D02*
X132138862Y-79569643D01*
X131853919Y-79626322D02*
X131805219Y-79627518D01*
X198382285Y-119212247D02*
X198382495Y-119211803D01*
X190377849Y-68607780D02*
X190378282Y-68607549D01*
X106376973Y-119205347D02*
X106377367Y-119205639D01*
X106373200Y-79636348D02*
X106373152Y-79636836D01*
X164710586Y-70588134D02*
X164663755Y-70575174D01*
X98628620Y-20000003D02*
X98626402Y-20000057D01*
X106376230Y-119204706D02*
X106376593Y-119205035D01*
X193383408Y-119205533D02*
X193383411Y-119205778D01*
X190379885Y-119215323D02*
X190380248Y-119214994D01*
X144821717Y-119202392D02*
X144821948Y-119201959D01*
X164854099Y-68613673D02*
X164902559Y-68610098D01*
X145066391Y-20008344D02*
X145066295Y-20007863D01*
X147572263Y-45879813D02*
X147616686Y-45899504D01*
X148183824Y-68601515D02*
X148183967Y-68601985D01*
X193390325Y-119217246D02*
X193390795Y-119217389D01*
X144822158Y-119201515D02*
X144822346Y-119201062D01*
X106373983Y-119201515D02*
X106374193Y-119201959D01*
X190383350Y-20018712D02*
X190383326Y-20018221D01*
X103614110Y-20003522D02*
X103613781Y-20003159D01*
X164286294Y-68865363D02*
X164323088Y-68833624D01*
X148187310Y-68606732D02*
X148187704Y-68607024D01*
X109193071Y-79628615D02*
X106385343Y-79627518D01*
X106373983Y-79633520D02*
X106373795Y-79633973D01*
X145391751Y-46060912D02*
X145428545Y-46029173D01*
X148192726Y-68608821D02*
X148193217Y-68608845D01*
X145057762Y-20000129D02*
X145057274Y-20000081D01*
X144820900Y-119203615D02*
X144821192Y-119203221D01*
X103604320Y-119217806D02*
X103604565Y-119217802D01*
X190378703Y-68607297D02*
X190379111Y-68607024D01*
X164617616Y-68666777D02*
X164663755Y-68651534D01*
X103607274Y-119217724D02*
X103607762Y-119217676D01*
X145054565Y-59579996D02*
X145056783Y-59579942D01*
X145428545Y-42579729D02*
X145391751Y-42547990D01*
X135890395Y-79060796D02*
X135870704Y-79016373D01*
X136695344Y-59637874D02*
X136741483Y-59622631D01*
X145064714Y-59575703D02*
X145064987Y-59575295D01*
X132676912Y-59804721D02*
X132713706Y-59836460D01*
X145769212Y-45847083D02*
X145816043Y-45834123D01*
X106375882Y-119204358D02*
X106376230Y-119204706D01*
X160820285Y-69089942D02*
X160844235Y-69132221D01*
X145060590Y-20000912D02*
X145060137Y-20000724D01*
X136179715Y-60061039D02*
X136205712Y-60019987D01*
X136362064Y-79532464D02*
X136318661Y-79510617D01*
X106616596Y-20012027D02*
X106616593Y-20012272D01*
X136592203Y-79608492D02*
X136544793Y-79597846D01*
X132748898Y-59869966D02*
X132782404Y-59905158D01*
X190376020Y-119217389D02*
X190376490Y-119217246D01*
X193387704Y-20001878D02*
X193387310Y-20002170D01*
X148188112Y-68607297D02*
X148188533Y-68607549D01*
X136040060Y-60521423D02*
X136043634Y-60472963D01*
X132395083Y-79432691D02*
X132355355Y-79460670D01*
X190383326Y-119208487D02*
X190383350Y-119207996D01*
X103611034Y-119216683D02*
X103611467Y-119216452D01*
X190378282Y-119216452D02*
X190378703Y-119216200D01*
X198378703Y-119216200D02*
X198379111Y-119215927D01*
X106618198Y-20004704D02*
X106617946Y-20005125D01*
X190371135Y-119217806D02*
X190371380Y-119217802D01*
X147433957Y-45834123D02*
X147480788Y-45847083D01*
X145066033Y-20006917D02*
X145065868Y-20006455D01*
X148183465Y-119207996D02*
X148183489Y-119208487D01*
X198381237Y-20003902D02*
X198380925Y-20003522D01*
X198382991Y-20007387D02*
X198382848Y-20006917D01*
X144821465Y-119202813D02*
X144821717Y-119202392D01*
X145633314Y-42709398D02*
X145589911Y-42687550D01*
X144820259Y-119204358D02*
X144820588Y-119203995D01*
X145054320Y-20000000D02*
X106628865Y-20000000D01*
X106378629Y-79628640D02*
X106378196Y-79628871D01*
X106381415Y-119207316D02*
X106381901Y-119207388D01*
X103614987Y-119213101D02*
X103615239Y-119212680D01*
X148108045Y-42193306D02*
X148088354Y-42237729D01*
X190374089Y-20008984D02*
X190373598Y-20008960D01*
X160068173Y-68613673D02*
X160116399Y-68619621D01*
X98619075Y-20003522D02*
X98618763Y-20003902D01*
X145057762Y-59579870D02*
X145058248Y-59579798D01*
X136038864Y-60570122D02*
X136040060Y-60521423D01*
X145911330Y-42793733D02*
X145863454Y-42785425D01*
X145085618Y-42007590D02*
X145077311Y-41959714D01*
X136406487Y-79552155D02*
X136362064Y-79532464D01*
X190381802Y-20013607D02*
X190381529Y-20013199D01*
X148189863Y-20009627D02*
X148189410Y-20009815D01*
X148189410Y-20009815D02*
X148188966Y-20010025D01*
X106374949Y-79631814D02*
X106374676Y-79632222D01*
X145677737Y-42729089D02*
X145633314Y-42709398D01*
X164951259Y-70617806D02*
X164902559Y-70616610D01*
X103606783Y-20000057D02*
X103604565Y-20000003D01*
X132600515Y-79227258D02*
X132570620Y-79265565D01*
X193384320Y-20006002D02*
X193384132Y-20006455D01*
X106619075Y-20003522D02*
X106618763Y-20003902D01*
X148195435Y-119217802D02*
X148195680Y-119217806D01*
X103609675Y-119217246D02*
X103610137Y-119217081D01*
X148164382Y-46601312D02*
X148172689Y-46649188D01*
X190376490Y-68608343D02*
X190376952Y-68608178D01*
X133028146Y-60424737D02*
X133034094Y-60472963D01*
X145863454Y-42785425D02*
X145816043Y-42774779D01*
X193390795Y-119217389D02*
X193391271Y-119217508D01*
X106616674Y-20009318D02*
X106616650Y-20009809D01*
X103612690Y-119215635D02*
X103613070Y-119215323D01*
X190383206Y-20017247D02*
X190383110Y-20016766D01*
X106380458Y-119207101D02*
X106380934Y-119207220D01*
X198383278Y-20008830D02*
X198383206Y-20008344D01*
X103609675Y-20000559D02*
X103609205Y-20000416D01*
X193388533Y-20001353D02*
X193388112Y-20001605D01*
X136400817Y-59804721D02*
X136439124Y-59774826D01*
X144822773Y-119199654D02*
X144822869Y-119199173D01*
X148187704Y-70619684D02*
X148187310Y-70619976D01*
X145291314Y-42442498D02*
X145261419Y-42404192D01*
X148193217Y-68608845D02*
X148195435Y-68608899D01*
X132782404Y-59905158D02*
X132814142Y-59941952D01*
X148190795Y-70618222D02*
X148190325Y-70618365D01*
X147821455Y-42579729D02*
X147783148Y-42609624D01*
X148190325Y-119217246D02*
X148190795Y-119217389D01*
X148184132Y-20015358D02*
X148183967Y-20015820D01*
X148188966Y-70618928D02*
X148188533Y-70619159D01*
X148183411Y-119205778D02*
X148183465Y-119207996D01*
X148183537Y-20017733D02*
X148183489Y-20018221D01*
X98623048Y-20000724D02*
X98622595Y-20000912D01*
X106617152Y-20006917D02*
X106617009Y-20007387D01*
X148184320Y-119211803D02*
X148184530Y-119212247D01*
X160437817Y-70500905D02*
X160394414Y-70522752D01*
X106373071Y-79639790D02*
X106376055Y-84701299D01*
X132752710Y-78924898D02*
X132737468Y-78971037D01*
X144816153Y-119206958D02*
X144816615Y-119206793D01*
X144823013Y-119197708D02*
X144823067Y-119195490D01*
X198378282Y-20001353D02*
X198377849Y-20001122D01*
X148183489Y-68599584D02*
X148183537Y-68600072D01*
X148187704Y-119215927D02*
X148188112Y-119216200D01*
X164902559Y-68610098D02*
X164951259Y-68608903D01*
X148186593Y-116520000D02*
X148183408Y-119205533D01*
X145207444Y-46285491D02*
X145233440Y-46244438D01*
X190382848Y-20015820D02*
X190382683Y-20015358D01*
X106379526Y-119206793D02*
X106379988Y-119206958D01*
X160019713Y-70616610D02*
X159971013Y-70617806D01*
X103609205Y-119217389D02*
X103609675Y-119217246D01*
X145816043Y-45834123D02*
X145863454Y-45823477D01*
X106373128Y-79637327D02*
X106373074Y-79639545D01*
X193389863Y-119217081D02*
X193390325Y-119217246D01*
X148183824Y-20016290D02*
X148183705Y-20016766D01*
X164710586Y-68638574D02*
X164757997Y-68627928D01*
X190383278Y-20017733D02*
X190383206Y-20017247D01*
X106628865Y-59580000D02*
X109436593Y-59580000D01*
X145061888Y-20001605D02*
X145061467Y-20001353D01*
X148184132Y-70624261D02*
X148183967Y-70624723D01*
X148192726Y-119217724D02*
X148193217Y-119217748D01*
X193387310Y-119215635D02*
X193387704Y-119215927D01*
X190375544Y-68608605D02*
X190376020Y-68608486D01*
X106616593Y-20012272D02*
X106616593Y-27090000D01*
X145066176Y-59572612D02*
X145066295Y-59572136D01*
X148183465Y-70627615D02*
X148183411Y-70629833D01*
X190371380Y-119217802D02*
X190373598Y-119217748D01*
X193392726Y-119217724D02*
X193393217Y-119217748D01*
X160950418Y-69453640D02*
X160956366Y-69501866D01*
X198382495Y-119211803D02*
X198382683Y-119211350D01*
X164484454Y-70500905D02*
X164442176Y-70476954D01*
X106385343Y-119207518D02*
X144810798Y-119207518D01*
X160164275Y-68627928D02*
X160211685Y-68638574D01*
X193383609Y-20008344D02*
X193383537Y-20008830D01*
X190383326Y-20018221D02*
X190383278Y-20017733D01*
X145066593Y-59567727D02*
X145066593Y-46794574D01*
X145064422Y-59576097D02*
X145064714Y-59575703D01*
X148185578Y-119213903D02*
X148185890Y-119214283D01*
X136785465Y-79627518D02*
X136785465Y-79627518D01*
X148183537Y-68600072D02*
X148183609Y-68600558D01*
X136785465Y-79627518D02*
X136736765Y-79626322D01*
X148190325Y-20009462D02*
X148189863Y-20009627D01*
X190381237Y-119213903D02*
X190381529Y-119213509D01*
X145077311Y-46649188D02*
X145085618Y-46601312D01*
X147241984Y-42803255D02*
X147193285Y-42804451D01*
X148182212Y-46745874D02*
X148183408Y-46794574D01*
X106376593Y-119205035D02*
X106376973Y-119205347D01*
X148016560Y-46244438D02*
X148042556Y-46285491D01*
X198376020Y-20000416D02*
X198375544Y-20000297D01*
X148185286Y-68604606D02*
X148185578Y-68605000D01*
X190383350Y-68599093D02*
X190383404Y-68596875D01*
X145063433Y-20002811D02*
X145063070Y-20002482D01*
X145062690Y-59577829D02*
X145063070Y-59577517D01*
X148183411Y-68596875D02*
X148183465Y-68599093D01*
X103615239Y-119212680D02*
X103615470Y-119212247D01*
X144819168Y-119205347D02*
X144819548Y-119205035D01*
X135870704Y-79016373D02*
X135853216Y-78971037D01*
X136233691Y-59980259D02*
X136263586Y-59941952D01*
X148153736Y-42055001D02*
X148140776Y-42101832D01*
X147616686Y-45899504D02*
X147660089Y-45921352D01*
X163990808Y-69358353D02*
X164003768Y-69311522D01*
X145057274Y-20000081D02*
X145056783Y-20000057D01*
X145506580Y-42637603D02*
X145466852Y-42609624D01*
X163990808Y-69868355D02*
X163980161Y-69820944D01*
X98620889Y-20001878D02*
X98620495Y-20002170D01*
X190371135Y-20008903D02*
X148195680Y-20008903D01*
X136051803Y-79302359D02*
X136020064Y-79265565D01*
X145054320Y-59580000D02*
X145054565Y-59579996D01*
X132336245Y-59622631D02*
X132382384Y-59637874D01*
X198379505Y-119215635D02*
X198379885Y-119215323D01*
X98620495Y-20002170D02*
X98620115Y-20002482D01*
X148066507Y-42281132D02*
X148042556Y-42323411D01*
X160918504Y-69311522D02*
X160931464Y-69358353D01*
X148192726Y-70617887D02*
X148192238Y-70617935D01*
X148183609Y-20017247D02*
X148183537Y-20017733D01*
X145062296Y-20001878D02*
X145061888Y-20001605D01*
X193385578Y-20003902D02*
X193385286Y-20004296D01*
X103616535Y-20009809D02*
X103616511Y-20009318D01*
X198373598Y-20000057D02*
X198371380Y-20000003D01*
X136155765Y-60103318D02*
X136179715Y-60061039D01*
X106617505Y-20006002D02*
X106617317Y-20006455D01*
X164155963Y-70217546D02*
X164127983Y-70177818D01*
X145428545Y-46029173D02*
X145466852Y-45999278D01*
X106620115Y-20002482D02*
X106619752Y-20002811D01*
X190379111Y-68607024D02*
X190379505Y-68606732D01*
X193384761Y-119212680D02*
X193385013Y-119213101D01*
X198382683Y-119211350D02*
X198382848Y-119210888D01*
X148192238Y-119217676D02*
X148192726Y-119217724D01*
X147926947Y-46129610D02*
X147958686Y-46166404D01*
X190373598Y-119217748D02*
X190374089Y-119217724D01*
X164401123Y-70450958D02*
X164361395Y-70422979D01*
X106381901Y-119207388D02*
X106382389Y-119207436D01*
X132844037Y-59980259D02*
X132872017Y-60019987D01*
X148183967Y-68601985D02*
X148184132Y-68602447D01*
X193392238Y-119217676D02*
X193392726Y-119217724D01*
X106628865Y-20000000D02*
X106628620Y-20000003D01*
X103611034Y-20001122D02*
X103610590Y-20000912D01*
X190380596Y-68605743D02*
X190380925Y-68605380D01*
X193385013Y-20004704D02*
X193384761Y-20005125D01*
X148184132Y-68602447D02*
X148184320Y-68602900D01*
X193392726Y-20000081D02*
X193392238Y-20000129D01*
X148184530Y-119212247D02*
X148184761Y-119212680D01*
X98628865Y-119217806D02*
X103604320Y-119217806D01*
X190382495Y-20014905D02*
X190382285Y-20014461D01*
X147893441Y-46094417D02*
X147926947Y-46129610D01*
X148153736Y-46553901D02*
X148164382Y-46601312D01*
X145065680Y-59573997D02*
X145065868Y-59573544D01*
X198373598Y-119217748D02*
X198374089Y-119217724D01*
X147480788Y-45847083D02*
X147526927Y-45862325D01*
X106616722Y-20008830D02*
X106616674Y-20009318D01*
X148185013Y-68604198D02*
X148185286Y-68604606D01*
X132194127Y-59590718D02*
X132242003Y-59599025D01*
X148185578Y-70621708D02*
X148185286Y-70622102D01*
X160521149Y-68775750D02*
X160560876Y-68803729D01*
X103607762Y-20000129D02*
X103607274Y-20000081D01*
X193383465Y-119207996D02*
X193383489Y-119208487D01*
X132228620Y-79532464D02*
X132184198Y-79552155D01*
X148195680Y-70617806D02*
X148195435Y-70617809D01*
X145291314Y-46166404D02*
X145323053Y-46129610D01*
X148183705Y-119209942D02*
X148183824Y-119210418D01*
X145141955Y-46415596D02*
X145161646Y-46371173D01*
X190382054Y-68603777D02*
X190382285Y-68603344D01*
X163961136Y-69599025D02*
X163962331Y-69550326D01*
X145065868Y-59573544D02*
X145066033Y-59573082D01*
X159971013Y-68608903D02*
X160019713Y-68610098D01*
X148192238Y-20009032D02*
X148191752Y-20009104D01*
X198379111Y-119215927D02*
X198379505Y-119215635D01*
X136020064Y-79265565D02*
X135990169Y-79227258D01*
X147660089Y-45921352D02*
X147702368Y-45945302D01*
X164101987Y-69089942D02*
X164127983Y-69048890D01*
X103616463Y-119208975D02*
X103616511Y-119208487D01*
X198383350Y-119207996D02*
X198383404Y-119205778D01*
X106385098Y-119207514D02*
X106385343Y-119207518D01*
X193395435Y-119217802D02*
X193395680Y-119217806D01*
X132996232Y-60282619D02*
X133009192Y-60329450D01*
X190383110Y-20016766D02*
X190382991Y-20016290D01*
X106625423Y-20000129D02*
X106624937Y-20000201D01*
X193384530Y-20005558D02*
X193384320Y-20006002D01*
X136883601Y-59590718D02*
X136931827Y-59584770D01*
X147338670Y-42793733D02*
X147290444Y-42799681D01*
X106616890Y-20007863D02*
X106616794Y-20008344D01*
X198371380Y-20000003D02*
X198371135Y-20000000D01*
X103607274Y-20000081D02*
X103606783Y-20000057D01*
X103607762Y-119217676D02*
X103608248Y-119217604D01*
X193393217Y-20000057D02*
X193392726Y-20000081D01*
X145109224Y-42101832D02*
X145096264Y-42055001D01*
X145064110Y-20003522D02*
X145063781Y-20003159D01*
X103614110Y-119214283D02*
X103614422Y-119213903D01*
X160794288Y-70177818D02*
X160766309Y-70217546D01*
X190381237Y-20012805D02*
X190380925Y-20012425D01*
X145062296Y-59578121D02*
X145062690Y-59577829D01*
X148188112Y-20010508D02*
X148187704Y-20010781D01*
X106378196Y-79628871D02*
X106377775Y-79629123D01*
X103610137Y-20000724D02*
X103609675Y-20000559D01*
X133019839Y-60376861D02*
X133028146Y-60424737D01*
X190383408Y-119205533D02*
X190383609Y-114927070D01*
X103615470Y-20005558D02*
X103615239Y-20005125D01*
X190373598Y-20008960D02*
X190371380Y-20008906D01*
X106374424Y-79632643D02*
X106374193Y-79633076D01*
X148191752Y-70618007D02*
X148191271Y-70618103D01*
X144821192Y-119203221D02*
X144821465Y-119202813D01*
X98619404Y-20003159D02*
X98619075Y-20003522D01*
X190381529Y-119213509D02*
X190381802Y-119213101D01*
X136788315Y-59609671D02*
X136835725Y-59599025D01*
X145060137Y-20000724D02*
X145059675Y-20000559D01*
X164902559Y-70616610D02*
X164854099Y-70613035D01*
X198374577Y-20000129D02*
X198374089Y-20000081D01*
X136043634Y-60472963D02*
X136049582Y-60424737D01*
X164078036Y-70094487D02*
X164056189Y-70051084D01*
X190376020Y-20009319D02*
X190375544Y-20009200D01*
X198379505Y-20002170D02*
X198379111Y-20001878D01*
X190376490Y-119217246D02*
X190376952Y-119217081D01*
X136562183Y-59696900D02*
X136605586Y-59675053D01*
X198376952Y-119217081D02*
X198377405Y-119216893D01*
X148183465Y-68599093D02*
X148183489Y-68599584D01*
X190382683Y-68602447D02*
X190382848Y-68601985D01*
X198383350Y-20009809D02*
X198383326Y-20009318D01*
X145959556Y-42799681D02*
X145911330Y-42793733D01*
X198383408Y-20012272D02*
X198383404Y-20012027D01*
X103616033Y-20006917D02*
X103615868Y-20006455D01*
X148188966Y-68607780D02*
X148189410Y-68607990D01*
X198383206Y-119209461D02*
X198383278Y-119208975D01*
X145589911Y-42687550D02*
X145547632Y-42663600D01*
X198382054Y-20005125D02*
X198381802Y-20004704D01*
X145085618Y-46601312D02*
X145096264Y-46553901D01*
X148185890Y-20012425D02*
X148185578Y-20012805D01*
X164127983Y-70177818D02*
X164101987Y-70136766D01*
X198381237Y-119213903D02*
X198381529Y-119213509D01*
X132355355Y-79460670D02*
X132314302Y-79486666D01*
X164155963Y-69009162D02*
X164185858Y-68970855D01*
X132700289Y-79060796D02*
X132678442Y-79104199D01*
X190374089Y-68608821D02*
X190374577Y-68608773D01*
X198375063Y-20000201D02*
X198374577Y-20000129D01*
X103615470Y-119212247D02*
X103615680Y-119211803D01*
X106623048Y-20000724D02*
X106622595Y-20000912D01*
X148183408Y-68596630D02*
X148183411Y-68596875D01*
X198382683Y-20006455D02*
X198382495Y-20006002D01*
X144817068Y-119206605D02*
X144817512Y-119206395D01*
X145064987Y-59575295D02*
X145065239Y-59574874D01*
X148186930Y-119215323D02*
X148187310Y-119215635D01*
X136328831Y-59869966D02*
X136364023Y-59836460D01*
X190380248Y-20011714D02*
X190379885Y-20011385D01*
X160766309Y-70217546D02*
X160736414Y-70255853D01*
X145063781Y-20003159D02*
X145063433Y-20002811D01*
X190383206Y-119209461D02*
X190383278Y-119208975D01*
X148186219Y-20012062D02*
X148185890Y-20012425D01*
X148183411Y-70629833D02*
X148183408Y-70630078D01*
X144815207Y-119207220D02*
X144815683Y-119207101D01*
X148185286Y-20013199D02*
X148185013Y-20013607D01*
X164617616Y-70559931D02*
X164572280Y-70542443D01*
X98624456Y-20000297D02*
X98623980Y-20000416D01*
X106616650Y-20009809D02*
X106616596Y-20012027D01*
X103615680Y-20006002D02*
X103615470Y-20005558D01*
X160258517Y-70575174D02*
X160211685Y-70588134D01*
X148185013Y-20013607D02*
X148184761Y-20014028D01*
X103614422Y-20003902D02*
X103614110Y-20003522D01*
X144822346Y-119201062D02*
X144822511Y-119200600D01*
X160164275Y-70598780D02*
X160116399Y-70607087D01*
X136478851Y-59746847D02*
X136519904Y-59720851D01*
X160704675Y-68934061D02*
X160736414Y-68970855D01*
X144819548Y-119205035D02*
X144819911Y-119204706D01*
X132538882Y-79302359D02*
X132505376Y-79337551D01*
X190382683Y-20015358D02*
X190382495Y-20014905D01*
X198382495Y-20006002D02*
X198382285Y-20005558D01*
X98618763Y-20003902D02*
X98618471Y-20004296D01*
X103611888Y-20001605D02*
X103611467Y-20001353D01*
X148188533Y-20010256D02*
X148188112Y-20010508D01*
X145066295Y-20007863D02*
X145066176Y-20007387D01*
X198380925Y-20003522D02*
X198380596Y-20003159D01*
X198380596Y-20003159D02*
X198380248Y-20002811D01*
X106375553Y-119203995D02*
X106375882Y-119204358D01*
X136096738Y-60236480D02*
X136114226Y-60191144D01*
X106625911Y-20000081D02*
X106625423Y-20000129D01*
X163980161Y-69405764D02*
X163990808Y-69358353D01*
X160704675Y-70292647D02*
X160671169Y-70327839D01*
X148195435Y-20008906D02*
X148193217Y-20008960D01*
X131998481Y-79608492D02*
X131950605Y-79616799D01*
X147526927Y-45862325D02*
X147572263Y-45879813D01*
X147480788Y-42761819D02*
X147433957Y-42774779D01*
X193388533Y-119216452D02*
X193388966Y-119216683D01*
X145066391Y-59571655D02*
X145066463Y-59571169D01*
X136451822Y-79569643D02*
X136406487Y-79552155D01*
X198378282Y-119216452D02*
X198378703Y-119216200D01*
X145057274Y-59579918D02*
X145057762Y-59579870D01*
X198376490Y-20000559D02*
X198376020Y-20000416D01*
X193395435Y-20000003D02*
X193393217Y-20000057D01*
X145059205Y-20000416D02*
X145058729Y-20000297D01*
X164185858Y-70255853D02*
X164155963Y-70217546D01*
X103613781Y-119214646D02*
X103614110Y-119214283D01*
X106617317Y-20006455D02*
X106617152Y-20006917D01*
X131950605Y-79616799D02*
X131902379Y-79622747D01*
X190382054Y-119212680D02*
X190382285Y-119212247D01*
X148183537Y-70626636D02*
X148183489Y-70627124D01*
X190377405Y-20009815D02*
X190376952Y-20009627D01*
X164019010Y-69961325D02*
X164003768Y-69915186D01*
X132470184Y-79371057D02*
X132433390Y-79402796D01*
X148195680Y-68608903D02*
X159971013Y-68608903D01*
X132713706Y-59836460D02*
X132748898Y-59869966D01*
X147338670Y-45815169D02*
X147386546Y-45823477D01*
X145060137Y-59579275D02*
X145060590Y-59579087D01*
X190375063Y-20009104D02*
X190374577Y-20009032D01*
X190382683Y-119211350D02*
X190382848Y-119210888D01*
X160480096Y-68749754D02*
X160521149Y-68775750D01*
X145061467Y-59578646D02*
X145061888Y-59578394D01*
X106379526Y-79628242D02*
X106379073Y-79628430D01*
X98617152Y-20006917D02*
X98617009Y-20007387D01*
X144823071Y-119195245D02*
X144825995Y-116505896D01*
X148185890Y-68605380D02*
X148186219Y-68605743D01*
X148108045Y-46415596D02*
X148125533Y-46460931D01*
X160885774Y-70006661D02*
X160866083Y-70051084D01*
X198383278Y-119208975D02*
X198383326Y-119208487D01*
X136081496Y-60282619D02*
X136096738Y-60236480D01*
X193383705Y-119209942D02*
X193383824Y-119210418D01*
X164003768Y-69915186D02*
X163990808Y-69868355D01*
X136085309Y-79337551D02*
X136051803Y-79302359D01*
X190371380Y-20008906D02*
X190371135Y-20008903D01*
X193389863Y-20000724D02*
X193389410Y-20000912D01*
X160903262Y-69265383D02*
X160918504Y-69311522D01*
X164185858Y-68970855D02*
X164217596Y-68934061D01*
X132472142Y-59675053D02*
X132515546Y-59696900D01*
X103609205Y-20000416D02*
X103608729Y-20000297D01*
X98616593Y-20012272D02*
X98616593Y-119205533D01*
X148184530Y-20014461D02*
X148184320Y-20014905D01*
X198374577Y-119217676D02*
X198375063Y-119217604D01*
X198381529Y-20004296D02*
X198381237Y-20003902D01*
X103611467Y-119216452D02*
X103611888Y-119216200D01*
X160671169Y-70327839D02*
X160635977Y-70361345D01*
X198383408Y-119205533D02*
X198383408Y-20012272D01*
X106374949Y-119203221D02*
X106375241Y-119203615D01*
X193388112Y-119216200D02*
X193388533Y-119216452D01*
X148189410Y-70618718D02*
X148188966Y-70618928D01*
X106373795Y-79633973D02*
X106373630Y-79634435D01*
X193384761Y-20005125D02*
X193384530Y-20005558D01*
X148193217Y-119217748D02*
X148195435Y-119217802D01*
X148183824Y-119210418D02*
X148183967Y-119210888D01*
X164019010Y-69265383D02*
X164036498Y-69220047D01*
X190381237Y-68605000D02*
X190381529Y-68604606D01*
X164361395Y-70422979D02*
X164323088Y-70393084D01*
X193388112Y-20001605D02*
X193387704Y-20001878D01*
X148184132Y-119211350D02*
X148184320Y-119211803D01*
X98624937Y-20000201D02*
X98624456Y-20000297D01*
X198371135Y-20000000D02*
X193395680Y-20000000D01*
X190382991Y-68601515D02*
X190383110Y-68601039D01*
X148185890Y-119214283D02*
X148186219Y-119214646D01*
X136688305Y-79622747D02*
X136640079Y-79616799D01*
X193389410Y-20000912D02*
X193388966Y-20001122D01*
X164572280Y-68684265D02*
X164617616Y-68666777D01*
X198381529Y-119213509D02*
X198381802Y-119213101D01*
X190382848Y-119210888D02*
X190382991Y-119210418D01*
X136736765Y-79626322D02*
X136688305Y-79622747D01*
X148185013Y-119213101D02*
X148185286Y-119213509D01*
X103606783Y-119217748D02*
X103607274Y-119217724D01*
X160959940Y-69676382D02*
X160956366Y-69724842D01*
X106626402Y-20000057D02*
X106625911Y-20000081D01*
X98623510Y-20000559D02*
X98623048Y-20000724D01*
X164251102Y-70327839D02*
X164217596Y-70292647D01*
X136049582Y-60424737D02*
X136057890Y-60376861D01*
X190382495Y-119211803D02*
X190382683Y-119211350D01*
X160211685Y-68638574D02*
X160258517Y-68651534D01*
X106619404Y-20003159D02*
X106619075Y-20003522D01*
X132678442Y-79104199D02*
X132654491Y-79146478D01*
X103616295Y-20007863D02*
X103616176Y-20007387D01*
X145064987Y-20004704D02*
X145064714Y-20004296D01*
X145323053Y-46129610D02*
X145356559Y-46094417D01*
X193389410Y-119216893D02*
X193389863Y-119217081D01*
X106373630Y-119200600D02*
X106373795Y-119201062D01*
X145096264Y-46553901D02*
X145109224Y-46507070D01*
X160068173Y-70613035D02*
X160019713Y-70616610D01*
X132628495Y-79187530D02*
X132600515Y-79227258D01*
X190383206Y-68600558D02*
X190383278Y-68600072D01*
X148183489Y-70627124D02*
X148183465Y-70627615D01*
X163971854Y-69773068D02*
X163965906Y-69724842D01*
X148193217Y-70617863D02*
X148192726Y-70617887D01*
X190379505Y-119215635D02*
X190379885Y-119215323D01*
X193388966Y-20001122D02*
X193388533Y-20001353D01*
X160394414Y-70522752D02*
X160349991Y-70542443D01*
X106375882Y-79630677D02*
X106375553Y-79631040D01*
X148189863Y-68608178D02*
X148190325Y-68608343D01*
X103614987Y-20004704D02*
X103614714Y-20004296D01*
X106616794Y-20008344D02*
X106616722Y-20008830D01*
X103604565Y-119217802D02*
X103606783Y-119217748D01*
X198382848Y-119210888D02*
X198382991Y-119210418D01*
X144816615Y-119206793D02*
X144817068Y-119206605D01*
X164056189Y-70051084D02*
X164036498Y-70006661D01*
X193383411Y-20012027D02*
X193383408Y-20012272D01*
X147386546Y-45823477D02*
X147433957Y-45834123D01*
X103616593Y-119205533D02*
X103617191Y-106434596D01*
X145067788Y-41863028D02*
X145066593Y-41814328D01*
X144810798Y-79627518D02*
X136785465Y-79627518D01*
X148172689Y-46649188D02*
X148178637Y-46697414D01*
X198383404Y-20012027D02*
X198383350Y-20009809D01*
X136519904Y-59720851D02*
X136562183Y-59696900D01*
X190376952Y-119217081D02*
X190377405Y-119216893D01*
X106373152Y-79636836D02*
X106373128Y-79637327D01*
X145077311Y-41959714D02*
X145071363Y-41911488D01*
X147958686Y-42442498D02*
X147926947Y-42479292D01*
X190383278Y-119208975D02*
X190383326Y-119208487D01*
X160671169Y-68898869D02*
X160704675Y-68934061D01*
X106619752Y-20002811D02*
X106619404Y-20003159D01*
X145066295Y-59572136D02*
X145066391Y-59571655D01*
X164805873Y-68619621D02*
X164854099Y-68613673D01*
X193391752Y-20000201D02*
X193391271Y-20000297D01*
X190377849Y-119216683D02*
X190378282Y-119216452D01*
X190379885Y-20011385D02*
X190379505Y-20011073D01*
X98617715Y-20005558D02*
X98617505Y-20006002D01*
X145065239Y-59574874D02*
X145065470Y-59574441D01*
X103616535Y-119207996D02*
X103616589Y-119205778D01*
X193391271Y-119217508D02*
X193391752Y-119217604D01*
X106617946Y-20005125D02*
X106617715Y-20005558D01*
X145066593Y-23680000D02*
X145066593Y-20012272D01*
X145723073Y-42746577D02*
X145677737Y-42729089D01*
X132794147Y-78686094D02*
X132790572Y-78734554D01*
X132570620Y-79265565D02*
X132538882Y-79302359D01*
X145066593Y-20012272D02*
X145066589Y-20012027D01*
X103616176Y-20007387D02*
X103616033Y-20006917D01*
X164663755Y-70575174D02*
X164617616Y-70559931D01*
X160844235Y-69132221D02*
X160866083Y-69175624D01*
X147743420Y-42637603D02*
X147702368Y-42663600D01*
X136364023Y-59836460D02*
X136400817Y-59804721D01*
X145066589Y-59567972D02*
X145066593Y-59567727D01*
X98628865Y-20000000D02*
X98628620Y-20000003D01*
X148189863Y-119217081D02*
X148190325Y-119217246D01*
X145065239Y-20005125D02*
X145064987Y-20004704D01*
X144817945Y-119206164D02*
X144818366Y-119205912D01*
X160258517Y-68651534D02*
X160304656Y-68666777D01*
X98617317Y-20006455D02*
X98617152Y-20006917D01*
X106374193Y-79633076D02*
X106373983Y-79633520D01*
X148088354Y-42237729D02*
X148066507Y-42281132D01*
X193385890Y-119214283D02*
X193386219Y-119214646D01*
X190382991Y-20016290D02*
X190382848Y-20015820D01*
X98616722Y-20008830D02*
X98616674Y-20009318D01*
X137028987Y-59580000D02*
X145054320Y-59580000D01*
X145058248Y-20000201D02*
X145057762Y-20000129D01*
X132898013Y-60061039D02*
X132921964Y-60103318D01*
X160116399Y-68619621D02*
X160164275Y-68627928D01*
X148188533Y-68607549D02*
X148188966Y-68607780D01*
X144818774Y-119205639D02*
X144819168Y-119205347D01*
X132598877Y-59746847D02*
X132638605Y-59774826D01*
X190379111Y-119215927D02*
X190379505Y-119215635D01*
X193391752Y-119217604D02*
X193392238Y-119217676D01*
X106378196Y-119206164D02*
X106378629Y-119206395D01*
X136650009Y-59655362D02*
X136695344Y-59637874D01*
X193390325Y-20000559D02*
X193389863Y-20000724D01*
X190376952Y-20009627D02*
X190376490Y-20009462D01*
X190375544Y-20009200D02*
X190375063Y-20009104D01*
X163962331Y-69676382D02*
X163961136Y-69627683D01*
X193385286Y-20004296D02*
X193385013Y-20004704D01*
X106373368Y-79635381D02*
X106373272Y-79635862D01*
X106375241Y-119203615D02*
X106375553Y-119203995D01*
X164286294Y-70361345D02*
X164251102Y-70327839D01*
X106382880Y-79627575D02*
X106382389Y-79627599D01*
X164757997Y-68627928D02*
X164805873Y-68619621D01*
X106374193Y-119201959D02*
X106374424Y-119202392D01*
X106377367Y-79629396D02*
X106376973Y-79629688D01*
X164442176Y-68749754D02*
X164484454Y-68725803D01*
X190378703Y-119216200D02*
X190379111Y-119215927D01*
X198379885Y-20002482D02*
X198379505Y-20002170D01*
X147526927Y-42746577D02*
X147480788Y-42761819D01*
X193383824Y-119210418D02*
X193383967Y-119210888D01*
X190379111Y-20010781D02*
X190378703Y-20010508D01*
X164056189Y-69175624D02*
X164078036Y-69132221D01*
X144815683Y-119207101D02*
X144816153Y-119206958D01*
X145071363Y-46697414D02*
X145077311Y-46649188D01*
X103614714Y-119213509D02*
X103614987Y-119213101D01*
X193386219Y-20003159D02*
X193385890Y-20003522D01*
X164217596Y-70292647D02*
X164185858Y-70255853D01*
X148187704Y-68607024D02*
X148188112Y-68607297D01*
X163961136Y-69627683D02*
X163961136Y-69599025D01*
X190382285Y-20014461D02*
X190382054Y-20014028D01*
X148191271Y-70618103D02*
X148190795Y-70618222D01*
X106373152Y-119198199D02*
X106373200Y-119198687D01*
X184576839Y-68610000D02*
X190371135Y-68608903D01*
X136318661Y-79510617D02*
X136276382Y-79486666D01*
X198382285Y-20005558D02*
X198382054Y-20005125D01*
X146056715Y-42804451D02*
X146008016Y-42803255D01*
X160599183Y-68833624D02*
X160635977Y-68865363D01*
X145723073Y-45862325D02*
X145769212Y-45847083D01*
X145161646Y-42237729D02*
X145141955Y-42193306D01*
X106374676Y-79632222D02*
X106374424Y-79632643D01*
X136235329Y-79460670D02*
X136195602Y-79432691D01*
X148186567Y-68606091D02*
X148186930Y-68606420D01*
X193383489Y-20009318D02*
X193383465Y-20009809D01*
X198375063Y-119217604D02*
X198375544Y-119217508D01*
X193393217Y-119217748D02*
X193395435Y-119217802D01*
X144822869Y-119199173D02*
X144822941Y-119198687D01*
X193390795Y-20000416D02*
X193390325Y-20000559D01*
X193385013Y-119213101D02*
X193385286Y-119213509D01*
X198374089Y-20000081D02*
X198373598Y-20000057D01*
X190377405Y-68607990D02*
X190377849Y-68607780D01*
X98625911Y-20000081D02*
X98625423Y-20000129D01*
X160349991Y-68684265D02*
X160394414Y-68703956D01*
X148184320Y-20014905D02*
X148184132Y-20015358D01*
X106382880Y-119207460D02*
X106385098Y-119207514D01*
X193395680Y-20000000D02*
X193395435Y-20000003D01*
X106623510Y-20000559D02*
X106623048Y-20000724D01*
X193383537Y-20008830D02*
X193383489Y-20009318D01*
X132427720Y-59655362D02*
X132472142Y-59675053D01*
X148183411Y-20020930D02*
X148183408Y-20021175D01*
X103616511Y-20009318D02*
X103616463Y-20008830D01*
X103613781Y-20003159D02*
X103613433Y-20002811D01*
X136057890Y-60376861D02*
X136068536Y-60329450D01*
X198371380Y-119217802D02*
X198373598Y-119217748D01*
X145066511Y-59570681D02*
X145066535Y-59570190D01*
X193383705Y-20007863D02*
X193383609Y-20008344D01*
X193385890Y-20003522D02*
X193385578Y-20003902D01*
X132790572Y-78734554D02*
X132784624Y-78782780D01*
X147193285Y-42804451D02*
X146056715Y-42804451D01*
X106376593Y-79630000D02*
X106376230Y-79630329D01*
X148066507Y-46327770D02*
X148088354Y-46371173D01*
X145066593Y-46794574D02*
X145067788Y-46745874D01*
X103608729Y-119217508D02*
X103609205Y-119217389D01*
X190382991Y-119210418D02*
X190383110Y-119209942D01*
X98616650Y-20009809D02*
X98616596Y-20012027D01*
X145677737Y-45879813D02*
X145723073Y-45862325D01*
X103615868Y-119211350D02*
X103616033Y-119210888D01*
X190381529Y-68604606D02*
X190381802Y-68604198D01*
X145056783Y-59579942D02*
X145057274Y-59579918D01*
X106618763Y-20003902D02*
X106618471Y-20004296D01*
X160931464Y-69358353D02*
X160942110Y-69405764D01*
X145065470Y-59574441D02*
X145065680Y-59573997D01*
X145058729Y-59579702D02*
X145059205Y-59579583D01*
X193386567Y-119214994D02*
X193386930Y-119215323D01*
X148183408Y-41814328D02*
X148182212Y-41863028D01*
X148183705Y-20016766D02*
X148183609Y-20017247D01*
X160866083Y-70051084D02*
X160844235Y-70094487D01*
X160950418Y-69773068D02*
X160942110Y-69820944D01*
X164805873Y-70607087D02*
X164757997Y-70598780D01*
X145066463Y-59571169D02*
X145066511Y-59570681D01*
X190380596Y-119214646D02*
X190380925Y-119214283D01*
X190383408Y-20021175D02*
X190383404Y-20020930D01*
X160437817Y-68725803D02*
X160480096Y-68749754D01*
X147616686Y-42709398D02*
X147572263Y-42729089D01*
X145183493Y-46327770D02*
X145207444Y-46285491D01*
X160903262Y-69961325D02*
X160885774Y-70006661D01*
X148183967Y-119210888D02*
X148184132Y-119211350D01*
X148189863Y-70618530D02*
X148189410Y-70618718D01*
X136133917Y-60146721D02*
X136155765Y-60103318D01*
X145065680Y-20006002D02*
X145065470Y-20005558D01*
X160560876Y-68803729D02*
X160599183Y-68833624D01*
X148186593Y-67680123D02*
X148183408Y-68596630D01*
X106624456Y-20000297D02*
X106623980Y-20000416D01*
X190380925Y-20012425D02*
X190380596Y-20012062D01*
X198376490Y-119217246D02*
X198376952Y-119217081D01*
X136544793Y-79597846D02*
X136497961Y-79584886D01*
X98625423Y-20000129D02*
X98624937Y-20000201D01*
X106373071Y-106422092D02*
X106373071Y-119195245D01*
X136439124Y-59774826D02*
X136478851Y-59746847D01*
X103616463Y-20008830D02*
X103616391Y-20008344D01*
X145066589Y-20012027D02*
X145066535Y-20009809D01*
X148186567Y-70620617D02*
X148186219Y-70620965D01*
X160304656Y-70559931D02*
X160258517Y-70575174D01*
X103614422Y-119213903D02*
X103614714Y-119213509D01*
X190376020Y-68608486D02*
X190376490Y-68608343D01*
X144814726Y-119207316D02*
X144815207Y-119207220D01*
X145109224Y-46507070D02*
X145124467Y-46460931D01*
X145059675Y-20000559D02*
X145059205Y-20000416D01*
X146008016Y-42803255D02*
X145959556Y-42799681D01*
X160480096Y-70476954D02*
X160437817Y-70500905D01*
X132654491Y-79146478D02*
X132628495Y-79187530D01*
X190380248Y-68606091D02*
X190380596Y-68605743D01*
X145816043Y-42774779D02*
X145769212Y-42761819D01*
X135837974Y-78924898D02*
X135825014Y-78878067D01*
X106623980Y-20000416D02*
X106623510Y-20000559D01*
X160349991Y-70542443D02*
X160304656Y-70559931D01*
X136263586Y-59941952D02*
X136295325Y-59905158D01*
X132272024Y-79510617D02*
X132228620Y-79532464D01*
X148185286Y-70622102D02*
X148185013Y-70622510D01*
X164036498Y-70006661D02*
X164019010Y-69961325D01*
X198383206Y-20008344D02*
X198383110Y-20007863D01*
X148042556Y-46285491D02*
X148066507Y-46327770D01*
X148190795Y-68608486D02*
X148191271Y-68608605D01*
X98622595Y-20000912D02*
X98622151Y-20001122D01*
X106379073Y-79628430D02*
X106378629Y-79628640D01*
X148184761Y-20014028D02*
X148184530Y-20014461D01*
X193383967Y-119210888D02*
X193384132Y-119211350D01*
X103615239Y-20005125D02*
X103614987Y-20004704D01*
X193385578Y-119213903D02*
X193385890Y-119214283D01*
X190383326Y-68599584D02*
X190383350Y-68599093D01*
X148185013Y-70622510D02*
X148184761Y-70622931D01*
X164663755Y-68651534D02*
X164710586Y-68638574D01*
X193386219Y-119214646D02*
X193386567Y-119214994D01*
X132505376Y-79337551D02*
X132470184Y-79371057D01*
X132765670Y-78878067D02*
X132752710Y-78924898D01*
X160394414Y-68703956D02*
X160437817Y-68725803D01*
X103614714Y-20004296D02*
X103614422Y-20003902D01*
X106379988Y-119206958D02*
X106380458Y-119207101D01*
X106377775Y-79629123D02*
X106377367Y-79629396D01*
X136157295Y-79402796D02*
X136120501Y-79371057D01*
X163962331Y-69550326D02*
X163965906Y-69501866D01*
X132382384Y-59637874D02*
X132427720Y-59655362D01*
X148183705Y-68601039D02*
X148183824Y-68601515D01*
X190382054Y-20014028D02*
X190381802Y-20013607D01*
X190371135Y-68608903D02*
X190371380Y-68608899D01*
X190377405Y-119216893D02*
X190377849Y-119216683D01*
X148192238Y-68608773D02*
X148192726Y-68608821D01*
X145061467Y-20001353D02*
X145061034Y-20001122D01*
X145067788Y-46745874D02*
X145071363Y-46697414D01*
X148183408Y-20021175D02*
X148186593Y-23682930D01*
X198375544Y-119217508D02*
X198376020Y-119217389D01*
X193386567Y-20002811D02*
X193386219Y-20003159D01*
X148042556Y-42323411D02*
X148016560Y-42364464D01*
X135853216Y-78971037D02*
X135837974Y-78924898D01*
X190383404Y-20020930D02*
X190383350Y-20018712D01*
X132795342Y-78637395D02*
X132794147Y-78686094D01*
X106373630Y-79634435D02*
X106373487Y-79634905D01*
X198381802Y-20004704D02*
X198381529Y-20004296D01*
X148183705Y-70625669D02*
X148183609Y-70626150D01*
X103612296Y-119215927D02*
X103612690Y-119215635D01*
X145058729Y-20000297D02*
X145058248Y-20000201D01*
X145063070Y-20002482D02*
X145062690Y-20002170D01*
X160211685Y-70588134D02*
X160164275Y-70598780D01*
X193383967Y-20006917D02*
X193383824Y-20007387D01*
X136497961Y-79584886D02*
X136451822Y-79569643D01*
X147988581Y-42404192D02*
X147958686Y-42442498D01*
X147783148Y-42609624D02*
X147743420Y-42637603D01*
X190379505Y-68606732D02*
X190379885Y-68606420D01*
X193386930Y-119215323D02*
X193387310Y-119215635D01*
X164572280Y-70542443D02*
X164527858Y-70522752D01*
X193391271Y-20000297D02*
X193390795Y-20000416D01*
X103616593Y-20012272D02*
X103616589Y-20012027D01*
X144817512Y-119206395D02*
X144817945Y-119206164D01*
X98617946Y-20005125D02*
X98617715Y-20005558D01*
X148186567Y-119214994D02*
X148186930Y-119215323D01*
X160019713Y-68610098D02*
X160068173Y-68613673D01*
X147193285Y-45804451D02*
X147241984Y-45805647D01*
X163965906Y-69501866D02*
X163971854Y-69453640D01*
X103615680Y-119211803D02*
X103615868Y-119211350D01*
X193395680Y-119217806D02*
X198371135Y-119217806D01*
X132943811Y-60146721D02*
X132963502Y-60191144D01*
X190383278Y-68600072D02*
X190383326Y-68599584D01*
X132138862Y-79569643D02*
X132092723Y-79584886D01*
X160304656Y-68666777D02*
X160349991Y-68684265D01*
X145056783Y-20000057D02*
X145054565Y-20000003D01*
X163980161Y-69820944D02*
X163971854Y-69773068D01*
X135962190Y-79187530D02*
X135936193Y-79146478D01*
X132872017Y-60019987D02*
X132898013Y-60061039D01*
X198382991Y-119210418D02*
X198383110Y-119209942D01*
X193383411Y-119205778D02*
X193383465Y-119207996D01*
X145124467Y-42147971D02*
X145109224Y-42101832D01*
X98616596Y-20012027D02*
X98616593Y-20012272D01*
X145096264Y-42055001D02*
X145085618Y-42007590D01*
X160599183Y-70393084D02*
X160560876Y-70422979D01*
X106373071Y-119195245D02*
X106373074Y-119195490D01*
X103616391Y-119209461D02*
X103616463Y-119208975D01*
X133037669Y-60521423D02*
X133038864Y-60570122D01*
X198382054Y-119212680D02*
X198382285Y-119212247D01*
X148195680Y-119217806D02*
X190371135Y-119217806D01*
X106373074Y-79639545D02*
X106373071Y-79639790D01*
M02*
