M48
; DRILL file {KiCad 7.0.5} date Sat Sep 30 22:10:46 2023
; FORMAT={-:-/ absolute / metric / decimal}
; #@! TF.CreationDate,2023-09-30T22:10:46+03:00
; #@! TF.GenerationSoftware,Kicad,Pcbnew,7.0.5
; #@! TF.FileFunction,Plated,1,2,PTH
FMAT,2
METRIC
; #@! TA.AperFunction,Plated,PTH,ViaDrill
T1C0.300
; #@! TA.AperFunction,Plated,PTH,ViaDrill
T2C0.350
; #@! TA.AperFunction,Plated,PTH,ComponentDrill
T3C0.350
; #@! TA.AperFunction,Plated,PTH,ComponentDrill
T4C0.600
; #@! TA.AperFunction,Plated,PTH,ComponentDrill
T5C0.650
; #@! TA.AperFunction,Plated,PTH,ComponentDrill
T6C0.800
; #@! TA.AperFunction,Plated,PTH,ComponentDrill
T7C1.000
%
G90
G05
T1
X109.157Y-74.64
X109.187Y-71.19
X117.477Y-71.12
X117.477Y-74.64
X129.087Y-74.71
X129.197Y-71.04
X131.237Y-48.23
X132.847Y-43.63
X142.467Y-71.08
X142.497Y-74.64
T2
X107.882Y-108.799
X108.032Y-105.899
X108.032Y-112.249
X108.057Y-115.924
X108.082Y-114.149
X108.125Y-49.172
X108.143Y-103.049
X108.275Y-46.272
X108.275Y-52.622
X108.3Y-56.297
X108.325Y-54.522
X108.386Y-43.422
X109.332Y-108.749
X109.382Y-105.849
X109.432Y-114.174
X109.457Y-115.999
X109.49Y-103.049
X109.507Y-112.149
X109.575Y-49.122
X109.625Y-46.222
X109.675Y-54.547
X109.7Y-56.372
X109.734Y-43.422
X109.75Y-52.522
X110.632Y-108.799
X110.732Y-105.899
X110.826Y-103.049
X110.857Y-114.149
X110.875Y-49.172
X110.882Y-115.949
X110.932Y-112.174
X110.975Y-46.272
X111.07Y-43.422
X111.1Y-54.522
X111.125Y-56.322
X111.175Y-52.547
X111.882Y-108.749
X112.032Y-105.899
X112.125Y-49.122
X112.182Y-112.199
X112.184Y-103.049
X112.207Y-115.924
X112.257Y-114.174
X112.275Y-46.272
X112.425Y-52.572
X112.428Y-43.422
X112.45Y-56.297
X112.5Y-54.547
X113.282Y-108.799
X113.332Y-105.949
X113.525Y-49.172
X113.532Y-103.049
X113.575Y-46.322
X113.607Y-114.149
X113.619Y-112.199
X113.632Y-115.974
X113.775Y-43.422
X113.85Y-54.522
X113.863Y-52.572
X113.875Y-56.347
X114.682Y-108.799
X114.732Y-105.899
X114.879Y-103.049
X114.925Y-49.172
X114.975Y-46.272
X115.007Y-115.949
X115.057Y-114.124
X115.122Y-43.422
X115.25Y-56.322
X115.3Y-54.497
X115.982Y-108.849
X116.032Y-105.849
X116.225Y-49.222
X116.226Y-103.049
X116.275Y-46.222
X116.332Y-114.124
X116.432Y-115.949
X116.47Y-43.422
X116.575Y-54.497
X116.675Y-56.322
X117.427Y-105.899
X117.432Y-108.849
X117.576Y-103.049
X117.67Y-46.272
X117.675Y-49.222
X117.82Y-43.422
X118.082Y-115.424
X118.107Y-114.024
X118.107Y-116.824
X118.325Y-55.797
X118.35Y-54.397
X118.35Y-57.197
X118.732Y-96.199
X118.976Y-36.572
X118.982Y-102.649
X118.982Y-100.939
X119.225Y-43.022
X119.226Y-41.312
X119.282Y-98.949
X119.44Y-105.534
X119.525Y-39.322
X119.532Y-103.878
X119.683Y-45.906
X119.775Y-44.25
X120.326Y-100.064
X120.57Y-40.436
X120.582Y-104.278
X120.683Y-92.408
X120.782Y-97.899
X120.825Y-44.651
X120.927Y-32.78
X121.025Y-38.272
X121.953Y-96.394
X122.197Y-36.767
X122.7Y-96.994
X122.944Y-37.367
X124.135Y-112.384
X124.14Y-95.71
X124.378Y-52.756
X124.383Y-36.082
X124.713Y-99.807
X124.759Y-95.214
X124.957Y-40.18
X125.003Y-35.586
X125.105Y-110.994
X125.348Y-51.366
X125.794Y-94.979
X126.017Y-89.868
X126.038Y-35.351
X126.261Y-30.24
X126.44Y-95.534
X126.683Y-35.906
X126.782Y-81.949
X127.025Y-22.322
X127.24Y-99.534
X127.44Y-95.534
X127.483Y-39.906
X127.683Y-35.906
X128.04Y-106.434
X128.055Y-113.454
X128.14Y-102.234
X128.24Y-109.534
X128.283Y-46.806
X128.298Y-53.826
X128.383Y-42.606
X128.483Y-49.906
X130.44Y-96.534
X130.683Y-36.906
X130.975Y-110.594
X131.218Y-50.966
X131.44Y-96.534
X131.47Y-91.938
X131.683Y-36.906
X131.714Y-32.31
X132.815Y-112.874
X132.907Y-114.174
X132.92Y-102.009
X133.058Y-53.246
X133.151Y-54.546
X133.164Y-42.381
X133.383Y-97.996
X133.501Y-108.804
X133.627Y-38.368
X133.745Y-49.176
X134.39Y-99.334
X134.39Y-100.334
X134.399Y-88.09
X134.62Y-102.409
X134.633Y-39.706
X134.633Y-40.706
X134.643Y-28.462
X134.864Y-42.782
X135.44Y-105.639
X135.683Y-46.011
X135.923Y-112.728
X136.167Y-53.1
X136.177Y-96.472
X136.421Y-36.844
X137.701Y-81.994
X137.832Y-112.549
X137.945Y-22.366
X138.075Y-52.922
X138.209Y-86.566
X138.453Y-26.938
X139.12Y-93.338
X139.257Y-112.524
X139.364Y-33.71
X139.479Y-84.026
X139.5Y-52.897
X139.723Y-24.398
X140.682Y-112.499
X140.925Y-52.872
X157.258Y-51.574
X157.258Y-52.974
X157.258Y-54.424
X157.258Y-102.183
X157.258Y-103.583
X157.258Y-105.033
X157.398Y-58.044
X157.398Y-108.653
X157.433Y-55.959
X157.433Y-106.568
X157.928Y-44.199
X157.928Y-48.079
X157.928Y-94.808
X157.928Y-98.688
X158.158Y-23.674
X158.158Y-74.283
X158.558Y-51.424
X158.558Y-102.033
X158.838Y-58.024
X158.838Y-108.633
X158.873Y-55.939
X158.873Y-106.548
X158.953Y-45.409
X158.953Y-96.018
X158.973Y-50.419
X158.973Y-101.028
X159.908Y-51.424
X159.908Y-102.033
X160.033Y-44.289
X160.033Y-94.898
X160.043Y-47.879
X160.043Y-98.488
X160.388Y-58.024
X160.388Y-108.633
X160.423Y-55.939
X160.423Y-106.548
X160.893Y-45.469
X160.893Y-96.078
X161.208Y-51.424
X161.208Y-102.033
X161.463Y-48.109
X161.463Y-98.718
X161.753Y-44.379
X161.753Y-46.669
X161.753Y-94.988
X161.753Y-97.278
X162.558Y-51.424
X162.558Y-102.033
X162.718Y-58.034
X162.718Y-108.643
X162.747Y-46.213
X162.747Y-96.822
X162.763Y-45.159
X162.763Y-95.768
X162.808Y-55.974
X162.808Y-106.583
X163.858Y-51.474
X163.858Y-102.083
X164.042Y-38.729
X164.042Y-89.338
X164.168Y-57.984
X164.168Y-108.593
X164.193Y-25.179
X164.193Y-75.788
X164.258Y-55.924
X164.258Y-106.533
X164.883Y-47.279
X164.883Y-97.888
X165.242Y-50.729
X165.242Y-101.338
X165.818Y-58.034
X165.818Y-108.643
X165.908Y-55.974
X165.908Y-106.583
X166.073Y-46.609
X166.073Y-97.218
X166.128Y-45.259
X166.128Y-95.868
X167.217Y-23.654
X167.217Y-74.263
X168.873Y-31.439
X168.873Y-82.048
X168.877Y-62.889
X168.877Y-113.498
X169.937Y-57.579
X169.937Y-108.188
X170.192Y-29.879
X170.192Y-80.488
X170.907Y-56.189
X170.907Y-106.798
X172.242Y-40.729
X172.242Y-91.338
X173.042Y-44.729
X173.042Y-95.338
X173.242Y-40.729
X173.242Y-91.338
X173.842Y-51.629
X173.842Y-102.238
X173.857Y-58.649
X173.857Y-109.258
X173.942Y-47.429
X173.942Y-98.038
X174.042Y-54.729
X174.042Y-105.338
X176.242Y-41.729
X176.242Y-92.338
X176.777Y-55.789
X176.777Y-106.398
X177.142Y-37.154
X177.142Y-87.763
X177.223Y-29.739
X177.223Y-80.348
X177.242Y-41.729
X177.242Y-92.338
X178.113Y-53.389
X178.113Y-103.998
X178.617Y-58.069
X178.617Y-108.678
X178.822Y-51.179
X178.822Y-101.788
X179.303Y-53.999
X179.303Y-104.608
X179.342Y-23.504
X179.342Y-74.113
X179.887Y-47.204
X179.887Y-97.813
X180.192Y-44.529
X180.192Y-45.529
X180.192Y-95.138
X180.192Y-96.138
X181.181Y-47.305
X181.181Y-97.914
X181.682Y-44.039
X181.682Y-94.648
X181.858Y-63.124
X181.858Y-113.733
X182.212Y-51.134
X182.212Y-101.743
X182.308Y-47.274
X182.308Y-97.883
X183.242Y-27.529
X183.242Y-78.138
X183.758Y-47.174
X183.758Y-97.783
X184.672Y-57.419
X184.672Y-108.028
X184.742Y-38.529
X184.742Y-89.138
X185.208Y-47.224
X185.208Y-97.833
X185.963Y-29.269
X185.963Y-79.878
X186.212Y-57.629
X186.212Y-108.238
X186.658Y-47.274
X186.658Y-97.883
T3
X126.165Y-103.054
X126.165Y-104.329
X126.165Y-105.604
X126.408Y-43.426
X126.408Y-44.701
X126.408Y-45.976
X127.44Y-103.054
X127.44Y-104.329
X127.44Y-105.604
X127.683Y-43.426
X127.683Y-44.701
X127.683Y-45.976
X128.715Y-103.054
X128.715Y-104.329
X128.715Y-105.604
X128.958Y-43.426
X128.958Y-44.701
X128.958Y-45.976
X171.967Y-48.254
X171.967Y-49.529
X171.967Y-50.804
X171.967Y-98.863
X171.967Y-100.138
X171.967Y-101.413
X173.242Y-48.254
X173.242Y-49.529
X173.242Y-50.804
X173.242Y-98.863
X173.242Y-100.138
X173.242Y-101.413
X174.517Y-48.254
X174.517Y-49.529
X174.517Y-50.804
X174.517Y-98.863
X174.517Y-100.138
X174.517Y-101.413
T5
X151.468Y-43.234
X151.468Y-44.504
X151.468Y-51.649
X151.468Y-52.919
X151.468Y-93.843
X151.468Y-95.113
X151.468Y-102.258
X151.468Y-103.528
X187.351Y-43.204
X187.351Y-44.474
X187.351Y-93.813
X187.351Y-95.083
X187.576Y-50.379
X187.576Y-51.649
X187.576Y-100.988
X187.576Y-102.258
T6
X109.42Y-81.988
X109.42Y-84.528
X109.42Y-87.068
X109.42Y-89.608
X109.42Y-92.148
X109.42Y-94.688
X109.42Y-97.228
X109.42Y-99.768
X109.664Y-22.36
X109.664Y-24.9
X109.664Y-27.44
X109.664Y-29.98
X109.664Y-32.52
X109.664Y-35.06
X109.664Y-37.6
X109.664Y-40.14
X117.04Y-81.988
X117.04Y-84.528
X117.04Y-87.068
X117.04Y-89.608
X117.04Y-92.148
X117.04Y-94.688
X117.04Y-97.228
X117.04Y-99.768
X117.284Y-22.36
X117.284Y-24.9
X117.284Y-27.44
X117.284Y-29.98
X117.284Y-32.52
X117.284Y-35.06
X117.284Y-37.6
X117.284Y-40.14
X150.683Y-33.149
X150.683Y-40.769
X150.683Y-83.758
X150.683Y-91.378
X150.743Y-55.379
X150.743Y-62.999
X150.743Y-105.988
X150.743Y-113.608
X187.392Y-33.279
X187.392Y-40.899
X187.392Y-83.888
X187.392Y-91.508
X187.737Y-53.903
X187.737Y-61.523
X187.737Y-104.512
X187.737Y-112.132
T7
X159.003Y-29.324
X159.003Y-31.864
X159.003Y-79.933
X159.003Y-82.473
X161.543Y-29.324
X161.543Y-31.864
X161.543Y-79.933
X161.543Y-82.473
X164.083Y-29.324
X164.083Y-31.864
X164.083Y-79.933
X164.083Y-82.473
X166.623Y-29.324
X166.623Y-31.864
X166.623Y-79.933
X166.623Y-82.473
X179.863Y-56.189
X179.863Y-63.789
X179.863Y-106.798
X179.863Y-114.398
T4
X138.675Y-99.516G85X139.775Y-99.516
G05
X138.675Y-108.156G85X139.775Y-108.156
G05
X138.919Y-39.888G85X140.019Y-39.888
G05
X138.919Y-48.528G85X140.019Y-48.528
G05
X143.005Y-99.516G85X143.805Y-99.516
G05
X143.005Y-108.156G85X143.805Y-108.156
G05
X143.249Y-39.888G85X144.049Y-39.888
G05
X143.249Y-48.528G85X144.049Y-48.528
G05
X168.827Y-22.374G85X168.827Y-21.574
G05
X168.827Y-26.704G85X168.827Y-25.604
G05
X168.827Y-72.983G85X168.827Y-72.183
G05
X168.827Y-77.313G85X168.827Y-76.213
G05
X177.467Y-22.374G85X177.467Y-21.574
G05
X177.467Y-26.704G85X177.467Y-25.604
G05
X177.467Y-72.983G85X177.467Y-72.183
G05
X177.467Y-77.313G85X177.467Y-76.213
G05
T0
M30
