M48
; DRILL file {KiCad 7.0.5} date Sat Sep 30 22:10:46 2023
; FORMAT={-:-/ absolute / metric / decimal}
; #@! TF.CreationDate,2023-09-30T22:10:46+03:00
; #@! TF.GenerationSoftware,Kicad,Pcbnew,7.0.5
; #@! TF.FileFunction,NonPlated,1,2,NPTH
FMAT,2
METRIC
; #@! TA.AperFunction,NonPlated,NPTH,ComponentDrill
T1C0.500
; #@! TA.AperFunction,NonPlated,NPTH,ComponentDrill
T2C0.650
; #@! TA.AperFunction,NonPlated,NPTH,ComponentDrill
T3C1.000
; #@! TA.AperFunction,NonPlated,NPTH,ComponentDrill
T4C2.000
%
G90
G05
T1
X103.414Y-27.577
X103.414Y-28.577
X103.414Y-29.577
X103.414Y-30.577
X103.414Y-31.577
X103.414Y-42.302
X103.414Y-43.302
X103.414Y-44.302
X103.414Y-45.302
X103.414Y-46.302
X103.416Y-85.196
X103.416Y-86.196
X103.416Y-87.196
X103.416Y-88.196
X103.416Y-89.196
X103.417Y-67.81
X103.417Y-68.81
X103.417Y-69.81
X103.417Y-70.81
X103.417Y-71.81
X103.417Y-101.944
X103.417Y-102.944
X103.417Y-103.944
X103.417Y-104.944
X103.417Y-105.944
X106.576Y-85.191
X106.576Y-86.191
X106.576Y-87.191
X106.576Y-88.191
X106.576Y-89.191
X106.576Y-101.935
X106.576Y-102.935
X106.576Y-103.935
X106.576Y-104.935
X106.576Y-105.935
X106.597Y-67.81
X106.597Y-68.81
X106.597Y-69.81
X106.597Y-70.81
X106.597Y-71.81
X106.817Y-27.58
X106.817Y-28.58
X106.817Y-29.58
X106.817Y-30.58
X106.817Y-31.58
X106.817Y-42.304
X106.817Y-43.304
X106.817Y-44.304
X106.817Y-45.304
X106.817Y-46.304
X109.683Y-79.829
X109.687Y-77.18
X109.927Y-59.38
X109.937Y-62.13
X110.683Y-79.829
X110.687Y-77.18
X110.927Y-59.38
X110.937Y-62.13
X111.683Y-79.829
X111.687Y-77.18
X111.927Y-59.38
X111.937Y-62.13
X112.683Y-79.829
X112.687Y-77.18
X112.927Y-59.38
X112.937Y-62.13
X113.683Y-79.829
X113.687Y-77.18
X113.927Y-59.38
X113.937Y-62.13
X132.295Y-79.828
X132.306Y-77.18
X132.527Y-62.13
X132.539Y-59.38
X133.295Y-79.828
X133.306Y-77.18
X133.527Y-62.13
X133.539Y-59.38
X134.295Y-79.828
X134.306Y-77.18
X134.527Y-62.13
X134.539Y-59.38
X135.295Y-79.828
X135.306Y-77.18
X135.527Y-62.13
X135.539Y-59.38
X136.295Y-79.828
X136.306Y-77.18
X136.527Y-62.13
X136.539Y-59.38
X144.617Y-81.48
X144.617Y-82.48
X144.617Y-83.48
X144.617Y-84.48
X144.617Y-85.48
X144.626Y-112.016
X144.626Y-113.016
X144.626Y-114.016
X144.626Y-115.016
X144.626Y-116.016
X144.867Y-24.17
X144.867Y-25.17
X144.867Y-26.17
X144.867Y-27.17
X144.867Y-28.17
X144.867Y-42.304
X144.867Y-43.304
X144.867Y-44.304
X144.867Y-45.304
X144.867Y-46.304
X145.237Y-63.194
X145.237Y-64.194
X145.237Y-65.194
X145.237Y-66.194
X145.237Y-67.194
X145.237Y-72.354
X145.237Y-73.354
X145.237Y-74.354
X145.237Y-75.354
X145.237Y-76.354
X148.387Y-24.173
X148.387Y-25.173
X148.387Y-26.173
X148.387Y-27.173
X148.387Y-28.173
X148.387Y-63.19
X148.387Y-64.19
X148.387Y-65.19
X148.387Y-66.19
X148.387Y-67.19
X148.387Y-72.35
X148.387Y-73.35
X148.387Y-74.35
X148.387Y-75.35
X148.387Y-76.35
X148.387Y-81.51
X148.387Y-82.51
X148.387Y-83.51
X148.387Y-84.51
X148.387Y-85.51
X148.387Y-112.03
X148.387Y-113.03
X148.387Y-114.03
X148.387Y-115.03
X148.387Y-116.03
X148.447Y-42.32
X148.447Y-43.32
X148.447Y-44.32
X148.447Y-45.32
X148.447Y-46.32
X160.461Y-68.409
X160.461Y-70.818
X161.461Y-68.409
X161.461Y-70.818
X162.461Y-68.409
X162.461Y-70.818
X163.461Y-68.409
X163.461Y-70.818
X164.461Y-68.409
X164.461Y-70.818
X180.087Y-68.41
X180.091Y-70.82
X181.087Y-68.41
X181.091Y-70.82
X182.087Y-68.41
X182.091Y-70.82
X183.087Y-68.41
X183.091Y-70.82
X184.087Y-68.41
X184.091Y-70.82
X190.18Y-26.42
X190.18Y-27.42
X190.18Y-28.42
X190.18Y-29.42
X190.18Y-30.42
X190.18Y-42.302
X190.18Y-43.302
X190.18Y-44.302
X190.18Y-45.302
X190.18Y-46.302
X190.18Y-92.91
X190.18Y-93.91
X190.18Y-94.91
X190.18Y-95.91
X190.18Y-96.91
X190.184Y-59.117
X190.184Y-60.117
X190.184Y-61.117
X190.184Y-62.117
X190.184Y-63.117
X190.184Y-78.537
X190.184Y-79.537
X190.184Y-80.537
X190.184Y-81.537
X190.184Y-82.537
X190.184Y-110.437
X190.184Y-111.437
X190.184Y-112.437
X190.184Y-113.437
X190.184Y-114.437
X193.583Y-26.423
X193.583Y-27.423
X193.583Y-28.423
X193.583Y-29.423
X193.583Y-30.423
X193.583Y-42.304
X193.583Y-43.304
X193.583Y-44.304
X193.583Y-45.304
X193.583Y-46.304
X193.583Y-92.913
X193.583Y-93.913
X193.583Y-94.913
X193.583Y-95.913
X193.583Y-96.913
X193.587Y-59.12
X193.587Y-60.12
X193.587Y-61.12
X193.587Y-62.12
X193.587Y-63.12
X193.587Y-78.54
X193.587Y-79.54
X193.587Y-80.54
X193.587Y-81.54
X193.587Y-82.54
X193.587Y-110.44
X193.587Y-111.44
X193.587Y-112.44
X193.587Y-113.44
X193.587Y-114.44
T2
X139.725Y-100.946
X139.725Y-106.726
X139.969Y-41.318
X139.969Y-47.098
X170.257Y-25.654
X170.257Y-76.263
X176.037Y-25.654
X176.037Y-76.263
T3
X119.921Y-115.522
X120.165Y-55.894
X120.607Y-82.399
X120.85Y-22.772
X140.241Y-115.776
X140.485Y-56.148
X141.511Y-82.248
X141.755Y-22.62
T4
X152.367Y-23.229
X152.367Y-73.838
X154.463Y-65.079
X154.463Y-115.688
X185.992Y-23.429
X185.992Y-74.038
X187.229Y-65.587
X187.229Y-116.196
T0
M30
