G04 #@! TF.GenerationSoftware,KiCad,Pcbnew,7.0.5*
G04 #@! TF.CreationDate,2023-10-02T17:03:19+03:00*
G04 #@! TF.ProjectId,RP2040_minimal - Copy,52503230-3430-45f6-9d69-6e696d616c20,REV1*
G04 #@! TF.SameCoordinates,Original*
G04 #@! TF.FileFunction,Legend,Bot*
G04 #@! TF.FilePolarity,Positive*
%FSLAX46Y46*%
G04 Gerber Fmt 4.6, Leading zero omitted, Abs format (unit mm)*
G04 Created by KiCad (PCBNEW 7.0.5) date 2023-10-02 17:03:19*
%MOMM*%
%LPD*%
G01*
G04 APERTURE LIST*
G04 Aperture macros list*
%AMRoundRect*
0 Rectangle with rounded corners*
0 $1 Rounding radius*
0 $2 $3 $4 $5 $6 $7 $8 $9 X,Y pos of 4 corners*
0 Add a 4 corners polygon primitive as box body*
4,1,4,$2,$3,$4,$5,$6,$7,$8,$9,$2,$3,0*
0 Add four circle primitives for the rounded corners*
1,1,$1+$1,$2,$3*
1,1,$1+$1,$4,$5*
1,1,$1+$1,$6,$7*
1,1,$1+$1,$8,$9*
0 Add four rect primitives between the rounded corners*
20,1,$1+$1,$2,$3,$4,$5,0*
20,1,$1+$1,$4,$5,$6,$7,0*
20,1,$1+$1,$6,$7,$8,$9,0*
20,1,$1+$1,$8,$9,$2,$3,0*%
G04 Aperture macros list end*
%ADD10C,0.180000*%
%ADD11C,0.150000*%
%ADD12C,0.120000*%
%ADD13RoundRect,0.051000X-0.500000X1.500000X-0.500000X-1.500000X0.500000X-1.500000X0.500000X1.500000X0*%
%ADD14RoundRect,0.051000X1.500000X0.500000X-1.500000X0.500000X-1.500000X-0.500000X1.500000X-0.500000X0*%
%ADD15RoundRect,0.051000X0.500000X-1.500000X0.500000X1.500000X-0.500000X1.500000X-0.500000X-1.500000X0*%
%ADD16RoundRect,0.051000X0.800000X-0.800000X0.800000X0.800000X-0.800000X0.800000X-0.800000X-0.800000X0*%
%ADD17O,1.702000X1.702000*%
%ADD18C,2.102000*%
%ADD19C,0.500000*%
%ADD20RoundRect,0.051000X-1.500000X-0.500000X1.500000X-0.500000X1.500000X0.500000X-1.500000X0.500000X0*%
%ADD21C,0.752000*%
%ADD22O,1.102000X2.202000*%
%ADD23O,1.102000X1.902000*%
%ADD24C,1.102000*%
%ADD25O,2.202000X1.102000*%
%ADD26O,1.902000X1.102000*%
%ADD27RoundRect,0.051000X-0.800000X0.800000X-0.800000X-0.800000X0.800000X-0.800000X0.800000X0.800000X0*%
%ADD28RoundRect,0.051000X-0.850000X0.850000X-0.850000X-0.850000X0.850000X-0.850000X0.850000X0.850000X0*%
%ADD29C,1.802000*%
%ADD30RoundRect,0.191000X0.140000X0.170000X-0.140000X0.170000X-0.140000X-0.170000X0.140000X-0.170000X0*%
%ADD31RoundRect,0.201000X-0.150000X0.587500X-0.150000X-0.587500X0.150000X-0.587500X0.150000X0.587500X0*%
%ADD32RoundRect,0.051000X-0.500000X-0.500000X0.500000X-0.500000X0.500000X0.500000X-0.500000X0.500000X0*%
%ADD33RoundRect,0.051000X0.500000X-1.000000X0.500000X1.000000X-0.500000X1.000000X-0.500000X-1.000000X0*%
%ADD34RoundRect,0.191000X-0.140000X-0.170000X0.140000X-0.170000X0.140000X0.170000X-0.140000X0.170000X0*%
%ADD35RoundRect,0.191000X-0.170000X0.140000X-0.170000X-0.140000X0.170000X-0.140000X0.170000X0.140000X0*%
%ADD36RoundRect,0.051000X-0.500000X1.000000X-0.500000X-1.000000X0.500000X-1.000000X0.500000X1.000000X0*%
%ADD37RoundRect,0.201000X0.150000X-0.650000X0.150000X0.650000X-0.150000X0.650000X-0.150000X-0.650000X0*%
%ADD38RoundRect,0.191000X0.170000X-0.140000X0.170000X0.140000X-0.170000X0.140000X-0.170000X-0.140000X0*%
%ADD39RoundRect,0.051000X-0.500000X0.500000X-0.500000X-0.500000X0.500000X-0.500000X0.500000X0.500000X0*%
%ADD40RoundRect,0.201000X0.587500X0.150000X-0.587500X0.150000X-0.587500X-0.150000X0.587500X-0.150000X0*%
%ADD41RoundRect,0.051000X0.525000X0.325000X-0.525000X0.325000X-0.525000X-0.325000X0.525000X-0.325000X0*%
%ADD42RoundRect,0.051000X0.500000X0.500000X-0.500000X0.500000X-0.500000X-0.500000X0.500000X-0.500000X0*%
%ADD43RoundRect,0.051000X-0.560000X1.220000X-0.560000X-1.220000X0.560000X-1.220000X0.560000X1.220000X0*%
%ADD44RoundRect,0.051000X-0.325000X0.525000X-0.325000X-0.525000X0.325000X-0.525000X0.325000X0.525000X0*%
%ADD45RoundRect,0.051000X0.325000X-0.525000X0.325000X0.525000X-0.325000X0.525000X-0.325000X-0.525000X0*%
%ADD46RoundRect,0.201000X0.150000X-0.587500X0.150000X0.587500X-0.150000X0.587500X-0.150000X-0.587500X0*%
%ADD47RoundRect,0.051000X-1.000000X1.000000X-1.000000X-1.000000X1.000000X-1.000000X1.000000X1.000000X0*%
%ADD48RoundRect,0.051000X-0.800000X-0.800000X0.800000X-0.800000X0.800000X0.800000X-0.800000X0.800000X0*%
G04 APERTURE END LIST*
D10*
X165440879Y-59007162D02*
X164821832Y-59007162D01*
X164821832Y-59007162D02*
X165155165Y-59388114D01*
X165155165Y-59388114D02*
X165012308Y-59388114D01*
X165012308Y-59388114D02*
X164917070Y-59435733D01*
X164917070Y-59435733D02*
X164869451Y-59483352D01*
X164869451Y-59483352D02*
X164821832Y-59578590D01*
X164821832Y-59578590D02*
X164821832Y-59816685D01*
X164821832Y-59816685D02*
X164869451Y-59911923D01*
X164869451Y-59911923D02*
X164917070Y-59959543D01*
X164917070Y-59959543D02*
X165012308Y-60007162D01*
X165012308Y-60007162D02*
X165298022Y-60007162D01*
X165298022Y-60007162D02*
X165393260Y-59959543D01*
X165393260Y-59959543D02*
X165440879Y-59911923D01*
X164488498Y-59340495D02*
X164250403Y-60007162D01*
X164250403Y-60007162D02*
X164012308Y-59340495D01*
X163726593Y-59007162D02*
X163107546Y-59007162D01*
X163107546Y-59007162D02*
X163440879Y-59388114D01*
X163440879Y-59388114D02*
X163298022Y-59388114D01*
X163298022Y-59388114D02*
X163202784Y-59435733D01*
X163202784Y-59435733D02*
X163155165Y-59483352D01*
X163155165Y-59483352D02*
X163107546Y-59578590D01*
X163107546Y-59578590D02*
X163107546Y-59816685D01*
X163107546Y-59816685D02*
X163155165Y-59911923D01*
X163155165Y-59911923D02*
X163202784Y-59959543D01*
X163202784Y-59959543D02*
X163298022Y-60007162D01*
X163298022Y-60007162D02*
X163583736Y-60007162D01*
X163583736Y-60007162D02*
X163678974Y-59959543D01*
X163678974Y-59959543D02*
X163726593Y-59911923D01*
D11*
X167533586Y-20753722D02*
X167533586Y-21563245D01*
X167533586Y-21563245D02*
X167485967Y-21658483D01*
X167485967Y-21658483D02*
X167438348Y-21706103D01*
X167438348Y-21706103D02*
X167343110Y-21753722D01*
X167343110Y-21753722D02*
X167152634Y-21753722D01*
X167152634Y-21753722D02*
X167057396Y-21706103D01*
X167057396Y-21706103D02*
X167009777Y-21658483D01*
X167009777Y-21658483D02*
X166962158Y-21563245D01*
X166962158Y-21563245D02*
X166962158Y-20753722D01*
X166533586Y-21706103D02*
X166390729Y-21753722D01*
X166390729Y-21753722D02*
X166152634Y-21753722D01*
X166152634Y-21753722D02*
X166057396Y-21706103D01*
X166057396Y-21706103D02*
X166009777Y-21658483D01*
X166009777Y-21658483D02*
X165962158Y-21563245D01*
X165962158Y-21563245D02*
X165962158Y-21468007D01*
X165962158Y-21468007D02*
X166009777Y-21372769D01*
X166009777Y-21372769D02*
X166057396Y-21325150D01*
X166057396Y-21325150D02*
X166152634Y-21277531D01*
X166152634Y-21277531D02*
X166343110Y-21229912D01*
X166343110Y-21229912D02*
X166438348Y-21182293D01*
X166438348Y-21182293D02*
X166485967Y-21134674D01*
X166485967Y-21134674D02*
X166533586Y-21039436D01*
X166533586Y-21039436D02*
X166533586Y-20944198D01*
X166533586Y-20944198D02*
X166485967Y-20848960D01*
X166485967Y-20848960D02*
X166438348Y-20801341D01*
X166438348Y-20801341D02*
X166343110Y-20753722D01*
X166343110Y-20753722D02*
X166105015Y-20753722D01*
X166105015Y-20753722D02*
X165962158Y-20801341D01*
X165200253Y-21229912D02*
X165057396Y-21277531D01*
X165057396Y-21277531D02*
X165009777Y-21325150D01*
X165009777Y-21325150D02*
X164962158Y-21420388D01*
X164962158Y-21420388D02*
X164962158Y-21563245D01*
X164962158Y-21563245D02*
X165009777Y-21658483D01*
X165009777Y-21658483D02*
X165057396Y-21706103D01*
X165057396Y-21706103D02*
X165152634Y-21753722D01*
X165152634Y-21753722D02*
X165533586Y-21753722D01*
X165533586Y-21753722D02*
X165533586Y-20753722D01*
X165533586Y-20753722D02*
X165200253Y-20753722D01*
X165200253Y-20753722D02*
X165105015Y-20801341D01*
X165105015Y-20801341D02*
X165057396Y-20848960D01*
X165057396Y-20848960D02*
X165009777Y-20944198D01*
X165009777Y-20944198D02*
X165009777Y-21039436D01*
X165009777Y-21039436D02*
X165057396Y-21134674D01*
X165057396Y-21134674D02*
X165105015Y-21182293D01*
X165105015Y-21182293D02*
X165200253Y-21229912D01*
X165200253Y-21229912D02*
X165533586Y-21229912D01*
X164771682Y-21848960D02*
X164009777Y-21848960D01*
X163438348Y-21229912D02*
X163295491Y-21277531D01*
X163295491Y-21277531D02*
X163247872Y-21325150D01*
X163247872Y-21325150D02*
X163200253Y-21420388D01*
X163200253Y-21420388D02*
X163200253Y-21563245D01*
X163200253Y-21563245D02*
X163247872Y-21658483D01*
X163247872Y-21658483D02*
X163295491Y-21706103D01*
X163295491Y-21706103D02*
X163390729Y-21753722D01*
X163390729Y-21753722D02*
X163771681Y-21753722D01*
X163771681Y-21753722D02*
X163771681Y-20753722D01*
X163771681Y-20753722D02*
X163438348Y-20753722D01*
X163438348Y-20753722D02*
X163343110Y-20801341D01*
X163343110Y-20801341D02*
X163295491Y-20848960D01*
X163295491Y-20848960D02*
X163247872Y-20944198D01*
X163247872Y-20944198D02*
X163247872Y-21039436D01*
X163247872Y-21039436D02*
X163295491Y-21134674D01*
X163295491Y-21134674D02*
X163343110Y-21182293D01*
X163343110Y-21182293D02*
X163438348Y-21229912D01*
X163438348Y-21229912D02*
X163771681Y-21229912D01*
X162581205Y-20753722D02*
X162390729Y-20753722D01*
X162390729Y-20753722D02*
X162295491Y-20801341D01*
X162295491Y-20801341D02*
X162200253Y-20896579D01*
X162200253Y-20896579D02*
X162152634Y-21087055D01*
X162152634Y-21087055D02*
X162152634Y-21420388D01*
X162152634Y-21420388D02*
X162200253Y-21610864D01*
X162200253Y-21610864D02*
X162295491Y-21706103D01*
X162295491Y-21706103D02*
X162390729Y-21753722D01*
X162390729Y-21753722D02*
X162581205Y-21753722D01*
X162581205Y-21753722D02*
X162676443Y-21706103D01*
X162676443Y-21706103D02*
X162771681Y-21610864D01*
X162771681Y-21610864D02*
X162819300Y-21420388D01*
X162819300Y-21420388D02*
X162819300Y-21087055D01*
X162819300Y-21087055D02*
X162771681Y-20896579D01*
X162771681Y-20896579D02*
X162676443Y-20801341D01*
X162676443Y-20801341D02*
X162581205Y-20753722D01*
X161533586Y-20753722D02*
X161343110Y-20753722D01*
X161343110Y-20753722D02*
X161247872Y-20801341D01*
X161247872Y-20801341D02*
X161152634Y-20896579D01*
X161152634Y-20896579D02*
X161105015Y-21087055D01*
X161105015Y-21087055D02*
X161105015Y-21420388D01*
X161105015Y-21420388D02*
X161152634Y-21610864D01*
X161152634Y-21610864D02*
X161247872Y-21706103D01*
X161247872Y-21706103D02*
X161343110Y-21753722D01*
X161343110Y-21753722D02*
X161533586Y-21753722D01*
X161533586Y-21753722D02*
X161628824Y-21706103D01*
X161628824Y-21706103D02*
X161724062Y-21610864D01*
X161724062Y-21610864D02*
X161771681Y-21420388D01*
X161771681Y-21420388D02*
X161771681Y-21087055D01*
X161771681Y-21087055D02*
X161724062Y-20896579D01*
X161724062Y-20896579D02*
X161628824Y-20801341D01*
X161628824Y-20801341D02*
X161533586Y-20753722D01*
X160819300Y-20753722D02*
X160247872Y-20753722D01*
X160533586Y-21753722D02*
X160533586Y-20753722D01*
X167533586Y-71362625D02*
X167533586Y-72172148D01*
X167533586Y-72172148D02*
X167485967Y-72267386D01*
X167485967Y-72267386D02*
X167438348Y-72315006D01*
X167438348Y-72315006D02*
X167343110Y-72362625D01*
X167343110Y-72362625D02*
X167152634Y-72362625D01*
X167152634Y-72362625D02*
X167057396Y-72315006D01*
X167057396Y-72315006D02*
X167009777Y-72267386D01*
X167009777Y-72267386D02*
X166962158Y-72172148D01*
X166962158Y-72172148D02*
X166962158Y-71362625D01*
X166533586Y-72315006D02*
X166390729Y-72362625D01*
X166390729Y-72362625D02*
X166152634Y-72362625D01*
X166152634Y-72362625D02*
X166057396Y-72315006D01*
X166057396Y-72315006D02*
X166009777Y-72267386D01*
X166009777Y-72267386D02*
X165962158Y-72172148D01*
X165962158Y-72172148D02*
X165962158Y-72076910D01*
X165962158Y-72076910D02*
X166009777Y-71981672D01*
X166009777Y-71981672D02*
X166057396Y-71934053D01*
X166057396Y-71934053D02*
X166152634Y-71886434D01*
X166152634Y-71886434D02*
X166343110Y-71838815D01*
X166343110Y-71838815D02*
X166438348Y-71791196D01*
X166438348Y-71791196D02*
X166485967Y-71743577D01*
X166485967Y-71743577D02*
X166533586Y-71648339D01*
X166533586Y-71648339D02*
X166533586Y-71553101D01*
X166533586Y-71553101D02*
X166485967Y-71457863D01*
X166485967Y-71457863D02*
X166438348Y-71410244D01*
X166438348Y-71410244D02*
X166343110Y-71362625D01*
X166343110Y-71362625D02*
X166105015Y-71362625D01*
X166105015Y-71362625D02*
X165962158Y-71410244D01*
X165200253Y-71838815D02*
X165057396Y-71886434D01*
X165057396Y-71886434D02*
X165009777Y-71934053D01*
X165009777Y-71934053D02*
X164962158Y-72029291D01*
X164962158Y-72029291D02*
X164962158Y-72172148D01*
X164962158Y-72172148D02*
X165009777Y-72267386D01*
X165009777Y-72267386D02*
X165057396Y-72315006D01*
X165057396Y-72315006D02*
X165152634Y-72362625D01*
X165152634Y-72362625D02*
X165533586Y-72362625D01*
X165533586Y-72362625D02*
X165533586Y-71362625D01*
X165533586Y-71362625D02*
X165200253Y-71362625D01*
X165200253Y-71362625D02*
X165105015Y-71410244D01*
X165105015Y-71410244D02*
X165057396Y-71457863D01*
X165057396Y-71457863D02*
X165009777Y-71553101D01*
X165009777Y-71553101D02*
X165009777Y-71648339D01*
X165009777Y-71648339D02*
X165057396Y-71743577D01*
X165057396Y-71743577D02*
X165105015Y-71791196D01*
X165105015Y-71791196D02*
X165200253Y-71838815D01*
X165200253Y-71838815D02*
X165533586Y-71838815D01*
X164771682Y-72457863D02*
X164009777Y-72457863D01*
X163438348Y-71838815D02*
X163295491Y-71886434D01*
X163295491Y-71886434D02*
X163247872Y-71934053D01*
X163247872Y-71934053D02*
X163200253Y-72029291D01*
X163200253Y-72029291D02*
X163200253Y-72172148D01*
X163200253Y-72172148D02*
X163247872Y-72267386D01*
X163247872Y-72267386D02*
X163295491Y-72315006D01*
X163295491Y-72315006D02*
X163390729Y-72362625D01*
X163390729Y-72362625D02*
X163771681Y-72362625D01*
X163771681Y-72362625D02*
X163771681Y-71362625D01*
X163771681Y-71362625D02*
X163438348Y-71362625D01*
X163438348Y-71362625D02*
X163343110Y-71410244D01*
X163343110Y-71410244D02*
X163295491Y-71457863D01*
X163295491Y-71457863D02*
X163247872Y-71553101D01*
X163247872Y-71553101D02*
X163247872Y-71648339D01*
X163247872Y-71648339D02*
X163295491Y-71743577D01*
X163295491Y-71743577D02*
X163343110Y-71791196D01*
X163343110Y-71791196D02*
X163438348Y-71838815D01*
X163438348Y-71838815D02*
X163771681Y-71838815D01*
X162581205Y-71362625D02*
X162390729Y-71362625D01*
X162390729Y-71362625D02*
X162295491Y-71410244D01*
X162295491Y-71410244D02*
X162200253Y-71505482D01*
X162200253Y-71505482D02*
X162152634Y-71695958D01*
X162152634Y-71695958D02*
X162152634Y-72029291D01*
X162152634Y-72029291D02*
X162200253Y-72219767D01*
X162200253Y-72219767D02*
X162295491Y-72315006D01*
X162295491Y-72315006D02*
X162390729Y-72362625D01*
X162390729Y-72362625D02*
X162581205Y-72362625D01*
X162581205Y-72362625D02*
X162676443Y-72315006D01*
X162676443Y-72315006D02*
X162771681Y-72219767D01*
X162771681Y-72219767D02*
X162819300Y-72029291D01*
X162819300Y-72029291D02*
X162819300Y-71695958D01*
X162819300Y-71695958D02*
X162771681Y-71505482D01*
X162771681Y-71505482D02*
X162676443Y-71410244D01*
X162676443Y-71410244D02*
X162581205Y-71362625D01*
X161533586Y-71362625D02*
X161343110Y-71362625D01*
X161343110Y-71362625D02*
X161247872Y-71410244D01*
X161247872Y-71410244D02*
X161152634Y-71505482D01*
X161152634Y-71505482D02*
X161105015Y-71695958D01*
X161105015Y-71695958D02*
X161105015Y-72029291D01*
X161105015Y-72029291D02*
X161152634Y-72219767D01*
X161152634Y-72219767D02*
X161247872Y-72315006D01*
X161247872Y-72315006D02*
X161343110Y-72362625D01*
X161343110Y-72362625D02*
X161533586Y-72362625D01*
X161533586Y-72362625D02*
X161628824Y-72315006D01*
X161628824Y-72315006D02*
X161724062Y-72219767D01*
X161724062Y-72219767D02*
X161771681Y-72029291D01*
X161771681Y-72029291D02*
X161771681Y-71695958D01*
X161771681Y-71695958D02*
X161724062Y-71505482D01*
X161724062Y-71505482D02*
X161628824Y-71410244D01*
X161628824Y-71410244D02*
X161533586Y-71362625D01*
X160819300Y-71362625D02*
X160247872Y-71362625D01*
X160533586Y-72362625D02*
X160533586Y-71362625D01*
X119154412Y-23874571D02*
X119963935Y-23874571D01*
X119963935Y-23874571D02*
X120059173Y-23922190D01*
X120059173Y-23922190D02*
X120106793Y-23969809D01*
X120106793Y-23969809D02*
X120154412Y-24065047D01*
X120154412Y-24065047D02*
X120154412Y-24255523D01*
X120154412Y-24255523D02*
X120106793Y-24350761D01*
X120106793Y-24350761D02*
X120059173Y-24398380D01*
X120059173Y-24398380D02*
X119963935Y-24445999D01*
X119963935Y-24445999D02*
X119154412Y-24445999D01*
X120106793Y-24874571D02*
X120154412Y-25017428D01*
X120154412Y-25017428D02*
X120154412Y-25255523D01*
X120154412Y-25255523D02*
X120106793Y-25350761D01*
X120106793Y-25350761D02*
X120059173Y-25398380D01*
X120059173Y-25398380D02*
X119963935Y-25445999D01*
X119963935Y-25445999D02*
X119868697Y-25445999D01*
X119868697Y-25445999D02*
X119773459Y-25398380D01*
X119773459Y-25398380D02*
X119725840Y-25350761D01*
X119725840Y-25350761D02*
X119678221Y-25255523D01*
X119678221Y-25255523D02*
X119630602Y-25065047D01*
X119630602Y-25065047D02*
X119582983Y-24969809D01*
X119582983Y-24969809D02*
X119535364Y-24922190D01*
X119535364Y-24922190D02*
X119440126Y-24874571D01*
X119440126Y-24874571D02*
X119344888Y-24874571D01*
X119344888Y-24874571D02*
X119249650Y-24922190D01*
X119249650Y-24922190D02*
X119202031Y-24969809D01*
X119202031Y-24969809D02*
X119154412Y-25065047D01*
X119154412Y-25065047D02*
X119154412Y-25303142D01*
X119154412Y-25303142D02*
X119202031Y-25445999D01*
X119630602Y-26207904D02*
X119678221Y-26350761D01*
X119678221Y-26350761D02*
X119725840Y-26398380D01*
X119725840Y-26398380D02*
X119821078Y-26445999D01*
X119821078Y-26445999D02*
X119963935Y-26445999D01*
X119963935Y-26445999D02*
X120059173Y-26398380D01*
X120059173Y-26398380D02*
X120106793Y-26350761D01*
X120106793Y-26350761D02*
X120154412Y-26255523D01*
X120154412Y-26255523D02*
X120154412Y-25874571D01*
X120154412Y-25874571D02*
X119154412Y-25874571D01*
X119154412Y-25874571D02*
X119154412Y-26207904D01*
X119154412Y-26207904D02*
X119202031Y-26303142D01*
X119202031Y-26303142D02*
X119249650Y-26350761D01*
X119249650Y-26350761D02*
X119344888Y-26398380D01*
X119344888Y-26398380D02*
X119440126Y-26398380D01*
X119440126Y-26398380D02*
X119535364Y-26350761D01*
X119535364Y-26350761D02*
X119582983Y-26303142D01*
X119582983Y-26303142D02*
X119630602Y-26207904D01*
X119630602Y-26207904D02*
X119630602Y-25874571D01*
X120249650Y-26636476D02*
X120249650Y-27398380D01*
X119630602Y-27969809D02*
X119678221Y-28112666D01*
X119678221Y-28112666D02*
X119725840Y-28160285D01*
X119725840Y-28160285D02*
X119821078Y-28207904D01*
X119821078Y-28207904D02*
X119963935Y-28207904D01*
X119963935Y-28207904D02*
X120059173Y-28160285D01*
X120059173Y-28160285D02*
X120106793Y-28112666D01*
X120106793Y-28112666D02*
X120154412Y-28017428D01*
X120154412Y-28017428D02*
X120154412Y-27636476D01*
X120154412Y-27636476D02*
X119154412Y-27636476D01*
X119154412Y-27636476D02*
X119154412Y-27969809D01*
X119154412Y-27969809D02*
X119202031Y-28065047D01*
X119202031Y-28065047D02*
X119249650Y-28112666D01*
X119249650Y-28112666D02*
X119344888Y-28160285D01*
X119344888Y-28160285D02*
X119440126Y-28160285D01*
X119440126Y-28160285D02*
X119535364Y-28112666D01*
X119535364Y-28112666D02*
X119582983Y-28065047D01*
X119582983Y-28065047D02*
X119630602Y-27969809D01*
X119630602Y-27969809D02*
X119630602Y-27636476D01*
X119154412Y-28826952D02*
X119154412Y-29017428D01*
X119154412Y-29017428D02*
X119202031Y-29112666D01*
X119202031Y-29112666D02*
X119297269Y-29207904D01*
X119297269Y-29207904D02*
X119487745Y-29255523D01*
X119487745Y-29255523D02*
X119821078Y-29255523D01*
X119821078Y-29255523D02*
X120011554Y-29207904D01*
X120011554Y-29207904D02*
X120106793Y-29112666D01*
X120106793Y-29112666D02*
X120154412Y-29017428D01*
X120154412Y-29017428D02*
X120154412Y-28826952D01*
X120154412Y-28826952D02*
X120106793Y-28731714D01*
X120106793Y-28731714D02*
X120011554Y-28636476D01*
X120011554Y-28636476D02*
X119821078Y-28588857D01*
X119821078Y-28588857D02*
X119487745Y-28588857D01*
X119487745Y-28588857D02*
X119297269Y-28636476D01*
X119297269Y-28636476D02*
X119202031Y-28731714D01*
X119202031Y-28731714D02*
X119154412Y-28826952D01*
X119154412Y-29874571D02*
X119154412Y-30065047D01*
X119154412Y-30065047D02*
X119202031Y-30160285D01*
X119202031Y-30160285D02*
X119297269Y-30255523D01*
X119297269Y-30255523D02*
X119487745Y-30303142D01*
X119487745Y-30303142D02*
X119821078Y-30303142D01*
X119821078Y-30303142D02*
X120011554Y-30255523D01*
X120011554Y-30255523D02*
X120106793Y-30160285D01*
X120106793Y-30160285D02*
X120154412Y-30065047D01*
X120154412Y-30065047D02*
X120154412Y-29874571D01*
X120154412Y-29874571D02*
X120106793Y-29779333D01*
X120106793Y-29779333D02*
X120011554Y-29684095D01*
X120011554Y-29684095D02*
X119821078Y-29636476D01*
X119821078Y-29636476D02*
X119487745Y-29636476D01*
X119487745Y-29636476D02*
X119297269Y-29684095D01*
X119297269Y-29684095D02*
X119202031Y-29779333D01*
X119202031Y-29779333D02*
X119154412Y-29874571D01*
X119154412Y-30588857D02*
X119154412Y-31160285D01*
X120154412Y-30874571D02*
X119154412Y-30874571D01*
X126641545Y-24344819D02*
X126974878Y-23868628D01*
X127212973Y-24344819D02*
X127212973Y-23344819D01*
X127212973Y-23344819D02*
X126832021Y-23344819D01*
X126832021Y-23344819D02*
X126736783Y-23392438D01*
X126736783Y-23392438D02*
X126689164Y-23440057D01*
X126689164Y-23440057D02*
X126641545Y-23535295D01*
X126641545Y-23535295D02*
X126641545Y-23678152D01*
X126641545Y-23678152D02*
X126689164Y-23773390D01*
X126689164Y-23773390D02*
X126736783Y-23821009D01*
X126736783Y-23821009D02*
X126832021Y-23868628D01*
X126832021Y-23868628D02*
X127212973Y-23868628D01*
X126260592Y-24297200D02*
X126165354Y-24344819D01*
X126165354Y-24344819D02*
X125974878Y-24344819D01*
X125974878Y-24344819D02*
X125879640Y-24297200D01*
X125879640Y-24297200D02*
X125832021Y-24201961D01*
X125832021Y-24201961D02*
X125832021Y-24154342D01*
X125832021Y-24154342D02*
X125879640Y-24059104D01*
X125879640Y-24059104D02*
X125974878Y-24011485D01*
X125974878Y-24011485D02*
X126117735Y-24011485D01*
X126117735Y-24011485D02*
X126212973Y-23963866D01*
X126212973Y-23963866D02*
X126260592Y-23868628D01*
X126260592Y-23868628D02*
X126260592Y-23821009D01*
X126260592Y-23821009D02*
X126212973Y-23725771D01*
X126212973Y-23725771D02*
X126117735Y-23678152D01*
X126117735Y-23678152D02*
X125974878Y-23678152D01*
X125974878Y-23678152D02*
X125879640Y-23725771D01*
X125546306Y-23678152D02*
X125165354Y-23678152D01*
X125403449Y-23344819D02*
X125403449Y-24201961D01*
X125403449Y-24201961D02*
X125355830Y-24297200D01*
X125355830Y-24297200D02*
X125260592Y-24344819D01*
X125260592Y-24344819D02*
X125165354Y-24344819D01*
D10*
X159811832Y-109673684D02*
X159907070Y-109626065D01*
X159907070Y-109626065D02*
X160049927Y-109626065D01*
X160049927Y-109626065D02*
X160192784Y-109673684D01*
X160192784Y-109673684D02*
X160288022Y-109768922D01*
X160288022Y-109768922D02*
X160335641Y-109864160D01*
X160335641Y-109864160D02*
X160383260Y-110054636D01*
X160383260Y-110054636D02*
X160383260Y-110197493D01*
X160383260Y-110197493D02*
X160335641Y-110387969D01*
X160335641Y-110387969D02*
X160288022Y-110483207D01*
X160288022Y-110483207D02*
X160192784Y-110578446D01*
X160192784Y-110578446D02*
X160049927Y-110626065D01*
X160049927Y-110626065D02*
X159954689Y-110626065D01*
X159954689Y-110626065D02*
X159811832Y-110578446D01*
X159811832Y-110578446D02*
X159764213Y-110530826D01*
X159764213Y-110530826D02*
X159764213Y-110197493D01*
X159764213Y-110197493D02*
X159954689Y-110197493D01*
X159335641Y-110626065D02*
X159335641Y-109626065D01*
X159335641Y-109626065D02*
X158764213Y-110626065D01*
X158764213Y-110626065D02*
X158764213Y-109626065D01*
X158288022Y-110626065D02*
X158288022Y-109626065D01*
X158288022Y-109626065D02*
X158049927Y-109626065D01*
X158049927Y-109626065D02*
X157907070Y-109673684D01*
X157907070Y-109673684D02*
X157811832Y-109768922D01*
X157811832Y-109768922D02*
X157764213Y-109864160D01*
X157764213Y-109864160D02*
X157716594Y-110054636D01*
X157716594Y-110054636D02*
X157716594Y-110197493D01*
X157716594Y-110197493D02*
X157764213Y-110387969D01*
X157764213Y-110387969D02*
X157811832Y-110483207D01*
X157811832Y-110483207D02*
X157907070Y-110578446D01*
X157907070Y-110578446D02*
X158049927Y-110626065D01*
X158049927Y-110626065D02*
X158288022Y-110626065D01*
D11*
X126398023Y-83972337D02*
X126731356Y-83496146D01*
X126969451Y-83972337D02*
X126969451Y-82972337D01*
X126969451Y-82972337D02*
X126588499Y-82972337D01*
X126588499Y-82972337D02*
X126493261Y-83019956D01*
X126493261Y-83019956D02*
X126445642Y-83067575D01*
X126445642Y-83067575D02*
X126398023Y-83162813D01*
X126398023Y-83162813D02*
X126398023Y-83305670D01*
X126398023Y-83305670D02*
X126445642Y-83400908D01*
X126445642Y-83400908D02*
X126493261Y-83448527D01*
X126493261Y-83448527D02*
X126588499Y-83496146D01*
X126588499Y-83496146D02*
X126969451Y-83496146D01*
X126017070Y-83924718D02*
X125921832Y-83972337D01*
X125921832Y-83972337D02*
X125731356Y-83972337D01*
X125731356Y-83972337D02*
X125636118Y-83924718D01*
X125636118Y-83924718D02*
X125588499Y-83829479D01*
X125588499Y-83829479D02*
X125588499Y-83781860D01*
X125588499Y-83781860D02*
X125636118Y-83686622D01*
X125636118Y-83686622D02*
X125731356Y-83639003D01*
X125731356Y-83639003D02*
X125874213Y-83639003D01*
X125874213Y-83639003D02*
X125969451Y-83591384D01*
X125969451Y-83591384D02*
X126017070Y-83496146D01*
X126017070Y-83496146D02*
X126017070Y-83448527D01*
X126017070Y-83448527D02*
X125969451Y-83353289D01*
X125969451Y-83353289D02*
X125874213Y-83305670D01*
X125874213Y-83305670D02*
X125731356Y-83305670D01*
X125731356Y-83305670D02*
X125636118Y-83353289D01*
X125302784Y-83305670D02*
X124921832Y-83305670D01*
X125159927Y-82972337D02*
X125159927Y-83829479D01*
X125159927Y-83829479D02*
X125112308Y-83924718D01*
X125112308Y-83924718D02*
X125017070Y-83972337D01*
X125017070Y-83972337D02*
X124921832Y-83972337D01*
D10*
X159811832Y-59064781D02*
X159907070Y-59017162D01*
X159907070Y-59017162D02*
X160049927Y-59017162D01*
X160049927Y-59017162D02*
X160192784Y-59064781D01*
X160192784Y-59064781D02*
X160288022Y-59160019D01*
X160288022Y-59160019D02*
X160335641Y-59255257D01*
X160335641Y-59255257D02*
X160383260Y-59445733D01*
X160383260Y-59445733D02*
X160383260Y-59588590D01*
X160383260Y-59588590D02*
X160335641Y-59779066D01*
X160335641Y-59779066D02*
X160288022Y-59874304D01*
X160288022Y-59874304D02*
X160192784Y-59969543D01*
X160192784Y-59969543D02*
X160049927Y-60017162D01*
X160049927Y-60017162D02*
X159954689Y-60017162D01*
X159954689Y-60017162D02*
X159811832Y-59969543D01*
X159811832Y-59969543D02*
X159764213Y-59921923D01*
X159764213Y-59921923D02*
X159764213Y-59588590D01*
X159764213Y-59588590D02*
X159954689Y-59588590D01*
X159335641Y-60017162D02*
X159335641Y-59017162D01*
X159335641Y-59017162D02*
X158764213Y-60017162D01*
X158764213Y-60017162D02*
X158764213Y-59017162D01*
X158288022Y-60017162D02*
X158288022Y-59017162D01*
X158288022Y-59017162D02*
X158049927Y-59017162D01*
X158049927Y-59017162D02*
X157907070Y-59064781D01*
X157907070Y-59064781D02*
X157811832Y-59160019D01*
X157811832Y-59160019D02*
X157764213Y-59255257D01*
X157764213Y-59255257D02*
X157716594Y-59445733D01*
X157716594Y-59445733D02*
X157716594Y-59588590D01*
X157716594Y-59588590D02*
X157764213Y-59779066D01*
X157764213Y-59779066D02*
X157811832Y-59874304D01*
X157811832Y-59874304D02*
X157907070Y-59969543D01*
X157907070Y-59969543D02*
X158049927Y-60017162D01*
X158049927Y-60017162D02*
X158288022Y-60017162D01*
D11*
X158739360Y-72387345D02*
X159072693Y-71911154D01*
X159310788Y-72387345D02*
X159310788Y-71387345D01*
X159310788Y-71387345D02*
X158929836Y-71387345D01*
X158929836Y-71387345D02*
X158834598Y-71434964D01*
X158834598Y-71434964D02*
X158786979Y-71482583D01*
X158786979Y-71482583D02*
X158739360Y-71577821D01*
X158739360Y-71577821D02*
X158739360Y-71720678D01*
X158739360Y-71720678D02*
X158786979Y-71815916D01*
X158786979Y-71815916D02*
X158834598Y-71863535D01*
X158834598Y-71863535D02*
X158929836Y-71911154D01*
X158929836Y-71911154D02*
X159310788Y-71911154D01*
X158358407Y-72339726D02*
X158263169Y-72387345D01*
X158263169Y-72387345D02*
X158072693Y-72387345D01*
X158072693Y-72387345D02*
X157977455Y-72339726D01*
X157977455Y-72339726D02*
X157929836Y-72244487D01*
X157929836Y-72244487D02*
X157929836Y-72196868D01*
X157929836Y-72196868D02*
X157977455Y-72101630D01*
X157977455Y-72101630D02*
X158072693Y-72054011D01*
X158072693Y-72054011D02*
X158215550Y-72054011D01*
X158215550Y-72054011D02*
X158310788Y-72006392D01*
X158310788Y-72006392D02*
X158358407Y-71911154D01*
X158358407Y-71911154D02*
X158358407Y-71863535D01*
X158358407Y-71863535D02*
X158310788Y-71768297D01*
X158310788Y-71768297D02*
X158215550Y-71720678D01*
X158215550Y-71720678D02*
X158072693Y-71720678D01*
X158072693Y-71720678D02*
X157977455Y-71768297D01*
X157644121Y-71720678D02*
X157263169Y-71720678D01*
X157501264Y-71387345D02*
X157501264Y-72244487D01*
X157501264Y-72244487D02*
X157453645Y-72339726D01*
X157453645Y-72339726D02*
X157358407Y-72387345D01*
X157358407Y-72387345D02*
X157263169Y-72387345D01*
X118910890Y-83502089D02*
X119720413Y-83502089D01*
X119720413Y-83502089D02*
X119815651Y-83549708D01*
X119815651Y-83549708D02*
X119863271Y-83597327D01*
X119863271Y-83597327D02*
X119910890Y-83692565D01*
X119910890Y-83692565D02*
X119910890Y-83883041D01*
X119910890Y-83883041D02*
X119863271Y-83978279D01*
X119863271Y-83978279D02*
X119815651Y-84025898D01*
X119815651Y-84025898D02*
X119720413Y-84073517D01*
X119720413Y-84073517D02*
X118910890Y-84073517D01*
X119863271Y-84502089D02*
X119910890Y-84644946D01*
X119910890Y-84644946D02*
X119910890Y-84883041D01*
X119910890Y-84883041D02*
X119863271Y-84978279D01*
X119863271Y-84978279D02*
X119815651Y-85025898D01*
X119815651Y-85025898D02*
X119720413Y-85073517D01*
X119720413Y-85073517D02*
X119625175Y-85073517D01*
X119625175Y-85073517D02*
X119529937Y-85025898D01*
X119529937Y-85025898D02*
X119482318Y-84978279D01*
X119482318Y-84978279D02*
X119434699Y-84883041D01*
X119434699Y-84883041D02*
X119387080Y-84692565D01*
X119387080Y-84692565D02*
X119339461Y-84597327D01*
X119339461Y-84597327D02*
X119291842Y-84549708D01*
X119291842Y-84549708D02*
X119196604Y-84502089D01*
X119196604Y-84502089D02*
X119101366Y-84502089D01*
X119101366Y-84502089D02*
X119006128Y-84549708D01*
X119006128Y-84549708D02*
X118958509Y-84597327D01*
X118958509Y-84597327D02*
X118910890Y-84692565D01*
X118910890Y-84692565D02*
X118910890Y-84930660D01*
X118910890Y-84930660D02*
X118958509Y-85073517D01*
X119387080Y-85835422D02*
X119434699Y-85978279D01*
X119434699Y-85978279D02*
X119482318Y-86025898D01*
X119482318Y-86025898D02*
X119577556Y-86073517D01*
X119577556Y-86073517D02*
X119720413Y-86073517D01*
X119720413Y-86073517D02*
X119815651Y-86025898D01*
X119815651Y-86025898D02*
X119863271Y-85978279D01*
X119863271Y-85978279D02*
X119910890Y-85883041D01*
X119910890Y-85883041D02*
X119910890Y-85502089D01*
X119910890Y-85502089D02*
X118910890Y-85502089D01*
X118910890Y-85502089D02*
X118910890Y-85835422D01*
X118910890Y-85835422D02*
X118958509Y-85930660D01*
X118958509Y-85930660D02*
X119006128Y-85978279D01*
X119006128Y-85978279D02*
X119101366Y-86025898D01*
X119101366Y-86025898D02*
X119196604Y-86025898D01*
X119196604Y-86025898D02*
X119291842Y-85978279D01*
X119291842Y-85978279D02*
X119339461Y-85930660D01*
X119339461Y-85930660D02*
X119387080Y-85835422D01*
X119387080Y-85835422D02*
X119387080Y-85502089D01*
X120006128Y-86263994D02*
X120006128Y-87025898D01*
X119387080Y-87597327D02*
X119434699Y-87740184D01*
X119434699Y-87740184D02*
X119482318Y-87787803D01*
X119482318Y-87787803D02*
X119577556Y-87835422D01*
X119577556Y-87835422D02*
X119720413Y-87835422D01*
X119720413Y-87835422D02*
X119815651Y-87787803D01*
X119815651Y-87787803D02*
X119863271Y-87740184D01*
X119863271Y-87740184D02*
X119910890Y-87644946D01*
X119910890Y-87644946D02*
X119910890Y-87263994D01*
X119910890Y-87263994D02*
X118910890Y-87263994D01*
X118910890Y-87263994D02*
X118910890Y-87597327D01*
X118910890Y-87597327D02*
X118958509Y-87692565D01*
X118958509Y-87692565D02*
X119006128Y-87740184D01*
X119006128Y-87740184D02*
X119101366Y-87787803D01*
X119101366Y-87787803D02*
X119196604Y-87787803D01*
X119196604Y-87787803D02*
X119291842Y-87740184D01*
X119291842Y-87740184D02*
X119339461Y-87692565D01*
X119339461Y-87692565D02*
X119387080Y-87597327D01*
X119387080Y-87597327D02*
X119387080Y-87263994D01*
X118910890Y-88454470D02*
X118910890Y-88644946D01*
X118910890Y-88644946D02*
X118958509Y-88740184D01*
X118958509Y-88740184D02*
X119053747Y-88835422D01*
X119053747Y-88835422D02*
X119244223Y-88883041D01*
X119244223Y-88883041D02*
X119577556Y-88883041D01*
X119577556Y-88883041D02*
X119768032Y-88835422D01*
X119768032Y-88835422D02*
X119863271Y-88740184D01*
X119863271Y-88740184D02*
X119910890Y-88644946D01*
X119910890Y-88644946D02*
X119910890Y-88454470D01*
X119910890Y-88454470D02*
X119863271Y-88359232D01*
X119863271Y-88359232D02*
X119768032Y-88263994D01*
X119768032Y-88263994D02*
X119577556Y-88216375D01*
X119577556Y-88216375D02*
X119244223Y-88216375D01*
X119244223Y-88216375D02*
X119053747Y-88263994D01*
X119053747Y-88263994D02*
X118958509Y-88359232D01*
X118958509Y-88359232D02*
X118910890Y-88454470D01*
X118910890Y-89502089D02*
X118910890Y-89692565D01*
X118910890Y-89692565D02*
X118958509Y-89787803D01*
X118958509Y-89787803D02*
X119053747Y-89883041D01*
X119053747Y-89883041D02*
X119244223Y-89930660D01*
X119244223Y-89930660D02*
X119577556Y-89930660D01*
X119577556Y-89930660D02*
X119768032Y-89883041D01*
X119768032Y-89883041D02*
X119863271Y-89787803D01*
X119863271Y-89787803D02*
X119910890Y-89692565D01*
X119910890Y-89692565D02*
X119910890Y-89502089D01*
X119910890Y-89502089D02*
X119863271Y-89406851D01*
X119863271Y-89406851D02*
X119768032Y-89311613D01*
X119768032Y-89311613D02*
X119577556Y-89263994D01*
X119577556Y-89263994D02*
X119244223Y-89263994D01*
X119244223Y-89263994D02*
X119053747Y-89311613D01*
X119053747Y-89311613D02*
X118958509Y-89406851D01*
X118958509Y-89406851D02*
X118910890Y-89502089D01*
X118910890Y-90216375D02*
X118910890Y-90787803D01*
X119910890Y-90502089D02*
X118910890Y-90502089D01*
X158739360Y-21778442D02*
X159072693Y-21302251D01*
X159310788Y-21778442D02*
X159310788Y-20778442D01*
X159310788Y-20778442D02*
X158929836Y-20778442D01*
X158929836Y-20778442D02*
X158834598Y-20826061D01*
X158834598Y-20826061D02*
X158786979Y-20873680D01*
X158786979Y-20873680D02*
X158739360Y-20968918D01*
X158739360Y-20968918D02*
X158739360Y-21111775D01*
X158739360Y-21111775D02*
X158786979Y-21207013D01*
X158786979Y-21207013D02*
X158834598Y-21254632D01*
X158834598Y-21254632D02*
X158929836Y-21302251D01*
X158929836Y-21302251D02*
X159310788Y-21302251D01*
X158358407Y-21730823D02*
X158263169Y-21778442D01*
X158263169Y-21778442D02*
X158072693Y-21778442D01*
X158072693Y-21778442D02*
X157977455Y-21730823D01*
X157977455Y-21730823D02*
X157929836Y-21635584D01*
X157929836Y-21635584D02*
X157929836Y-21587965D01*
X157929836Y-21587965D02*
X157977455Y-21492727D01*
X157977455Y-21492727D02*
X158072693Y-21445108D01*
X158072693Y-21445108D02*
X158215550Y-21445108D01*
X158215550Y-21445108D02*
X158310788Y-21397489D01*
X158310788Y-21397489D02*
X158358407Y-21302251D01*
X158358407Y-21302251D02*
X158358407Y-21254632D01*
X158358407Y-21254632D02*
X158310788Y-21159394D01*
X158310788Y-21159394D02*
X158215550Y-21111775D01*
X158215550Y-21111775D02*
X158072693Y-21111775D01*
X158072693Y-21111775D02*
X157977455Y-21159394D01*
X157644121Y-21111775D02*
X157263169Y-21111775D01*
X157501264Y-20778442D02*
X157501264Y-21635584D01*
X157501264Y-21635584D02*
X157453645Y-21730823D01*
X157453645Y-21730823D02*
X157358407Y-21778442D01*
X157358407Y-21778442D02*
X157263169Y-21778442D01*
D10*
X165440879Y-109616065D02*
X164821832Y-109616065D01*
X164821832Y-109616065D02*
X165155165Y-109997017D01*
X165155165Y-109997017D02*
X165012308Y-109997017D01*
X165012308Y-109997017D02*
X164917070Y-110044636D01*
X164917070Y-110044636D02*
X164869451Y-110092255D01*
X164869451Y-110092255D02*
X164821832Y-110187493D01*
X164821832Y-110187493D02*
X164821832Y-110425588D01*
X164821832Y-110425588D02*
X164869451Y-110520826D01*
X164869451Y-110520826D02*
X164917070Y-110568446D01*
X164917070Y-110568446D02*
X165012308Y-110616065D01*
X165012308Y-110616065D02*
X165298022Y-110616065D01*
X165298022Y-110616065D02*
X165393260Y-110568446D01*
X165393260Y-110568446D02*
X165440879Y-110520826D01*
X164488498Y-109949398D02*
X164250403Y-110616065D01*
X164250403Y-110616065D02*
X164012308Y-109949398D01*
X163726593Y-109616065D02*
X163107546Y-109616065D01*
X163107546Y-109616065D02*
X163440879Y-109997017D01*
X163440879Y-109997017D02*
X163298022Y-109997017D01*
X163298022Y-109997017D02*
X163202784Y-110044636D01*
X163202784Y-110044636D02*
X163155165Y-110092255D01*
X163155165Y-110092255D02*
X163107546Y-110187493D01*
X163107546Y-110187493D02*
X163107546Y-110425588D01*
X163107546Y-110425588D02*
X163155165Y-110520826D01*
X163155165Y-110520826D02*
X163202784Y-110568446D01*
X163202784Y-110568446D02*
X163298022Y-110616065D01*
X163298022Y-110616065D02*
X163583736Y-110616065D01*
X163583736Y-110616065D02*
X163678974Y-110568446D01*
X163678974Y-110568446D02*
X163726593Y-110520826D01*
D11*
X127518412Y-35048428D02*
X128327935Y-35048428D01*
X128327935Y-35048428D02*
X128423173Y-35096047D01*
X128423173Y-35096047D02*
X128470793Y-35143666D01*
X128470793Y-35143666D02*
X128518412Y-35238904D01*
X128518412Y-35238904D02*
X128518412Y-35429380D01*
X128518412Y-35429380D02*
X128470793Y-35524618D01*
X128470793Y-35524618D02*
X128423173Y-35572237D01*
X128423173Y-35572237D02*
X128327935Y-35619856D01*
X128327935Y-35619856D02*
X127518412Y-35619856D01*
X127518412Y-36572237D02*
X127518412Y-36096047D01*
X127518412Y-36096047D02*
X127994602Y-36048428D01*
X127994602Y-36048428D02*
X127946983Y-36096047D01*
X127946983Y-36096047D02*
X127899364Y-36191285D01*
X127899364Y-36191285D02*
X127899364Y-36429380D01*
X127899364Y-36429380D02*
X127946983Y-36524618D01*
X127946983Y-36524618D02*
X127994602Y-36572237D01*
X127994602Y-36572237D02*
X128089840Y-36619856D01*
X128089840Y-36619856D02*
X128327935Y-36619856D01*
X128327935Y-36619856D02*
X128423173Y-36572237D01*
X128423173Y-36572237D02*
X128470793Y-36524618D01*
X128470793Y-36524618D02*
X128518412Y-36429380D01*
X128518412Y-36429380D02*
X128518412Y-36191285D01*
X128518412Y-36191285D02*
X128470793Y-36096047D01*
X128470793Y-36096047D02*
X128423173Y-36048428D01*
X154318646Y-49798960D02*
X154413884Y-49751341D01*
X154413884Y-49751341D02*
X154509122Y-49656103D01*
X154509122Y-49656103D02*
X154651979Y-49513245D01*
X154651979Y-49513245D02*
X154747217Y-49465626D01*
X154747217Y-49465626D02*
X154842455Y-49465626D01*
X154794836Y-49703722D02*
X154890074Y-49656103D01*
X154890074Y-49656103D02*
X154985312Y-49560864D01*
X154985312Y-49560864D02*
X155032931Y-49370388D01*
X155032931Y-49370388D02*
X155032931Y-49037055D01*
X155032931Y-49037055D02*
X154985312Y-48846579D01*
X154985312Y-48846579D02*
X154890074Y-48751341D01*
X154890074Y-48751341D02*
X154794836Y-48703722D01*
X154794836Y-48703722D02*
X154604360Y-48703722D01*
X154604360Y-48703722D02*
X154509122Y-48751341D01*
X154509122Y-48751341D02*
X154413884Y-48846579D01*
X154413884Y-48846579D02*
X154366265Y-49037055D01*
X154366265Y-49037055D02*
X154366265Y-49370388D01*
X154366265Y-49370388D02*
X154413884Y-49560864D01*
X154413884Y-49560864D02*
X154509122Y-49656103D01*
X154509122Y-49656103D02*
X154604360Y-49703722D01*
X154604360Y-49703722D02*
X154794836Y-49703722D01*
X153413884Y-49703722D02*
X153985312Y-49703722D01*
X153699598Y-49703722D02*
X153699598Y-48703722D01*
X153699598Y-48703722D02*
X153794836Y-48846579D01*
X153794836Y-48846579D02*
X153890074Y-48941817D01*
X153890074Y-48941817D02*
X153985312Y-48989436D01*
X154476146Y-43018960D02*
X154571384Y-42971341D01*
X154571384Y-42971341D02*
X154666622Y-42876103D01*
X154666622Y-42876103D02*
X154809479Y-42733245D01*
X154809479Y-42733245D02*
X154904717Y-42685626D01*
X154904717Y-42685626D02*
X154999955Y-42685626D01*
X154952336Y-42923722D02*
X155047574Y-42876103D01*
X155047574Y-42876103D02*
X155142812Y-42780864D01*
X155142812Y-42780864D02*
X155190431Y-42590388D01*
X155190431Y-42590388D02*
X155190431Y-42257055D01*
X155190431Y-42257055D02*
X155142812Y-42066579D01*
X155142812Y-42066579D02*
X155047574Y-41971341D01*
X155047574Y-41971341D02*
X154952336Y-41923722D01*
X154952336Y-41923722D02*
X154761860Y-41923722D01*
X154761860Y-41923722D02*
X154666622Y-41971341D01*
X154666622Y-41971341D02*
X154571384Y-42066579D01*
X154571384Y-42066579D02*
X154523765Y-42257055D01*
X154523765Y-42257055D02*
X154523765Y-42590388D01*
X154523765Y-42590388D02*
X154571384Y-42780864D01*
X154571384Y-42780864D02*
X154666622Y-42876103D01*
X154666622Y-42876103D02*
X154761860Y-42923722D01*
X154761860Y-42923722D02*
X154952336Y-42923722D01*
X154142812Y-42018960D02*
X154095193Y-41971341D01*
X154095193Y-41971341D02*
X153999955Y-41923722D01*
X153999955Y-41923722D02*
X153761860Y-41923722D01*
X153761860Y-41923722D02*
X153666622Y-41971341D01*
X153666622Y-41971341D02*
X153619003Y-42018960D01*
X153619003Y-42018960D02*
X153571384Y-42114198D01*
X153571384Y-42114198D02*
X153571384Y-42209436D01*
X153571384Y-42209436D02*
X153619003Y-42352293D01*
X153619003Y-42352293D02*
X154190431Y-42923722D01*
X154190431Y-42923722D02*
X153571384Y-42923722D01*
X173350608Y-32516570D02*
X173398227Y-32659427D01*
X173398227Y-32659427D02*
X173398227Y-32897522D01*
X173398227Y-32897522D02*
X173350608Y-32992760D01*
X173350608Y-32992760D02*
X173302988Y-33040379D01*
X173302988Y-33040379D02*
X173207750Y-33087998D01*
X173207750Y-33087998D02*
X173112512Y-33087998D01*
X173112512Y-33087998D02*
X173017274Y-33040379D01*
X173017274Y-33040379D02*
X172969655Y-32992760D01*
X172969655Y-32992760D02*
X172922036Y-32897522D01*
X172922036Y-32897522D02*
X172874417Y-32707046D01*
X172874417Y-32707046D02*
X172826798Y-32611808D01*
X172826798Y-32611808D02*
X172779179Y-32564189D01*
X172779179Y-32564189D02*
X172683941Y-32516570D01*
X172683941Y-32516570D02*
X172588703Y-32516570D01*
X172588703Y-32516570D02*
X172493465Y-32564189D01*
X172493465Y-32564189D02*
X172445846Y-32611808D01*
X172445846Y-32611808D02*
X172398227Y-32707046D01*
X172398227Y-32707046D02*
X172398227Y-32945141D01*
X172398227Y-32945141D02*
X172445846Y-33087998D01*
X172398227Y-33421332D02*
X173398227Y-33659427D01*
X173398227Y-33659427D02*
X172683941Y-33849903D01*
X172683941Y-33849903D02*
X173398227Y-34040379D01*
X173398227Y-34040379D02*
X172398227Y-34278475D01*
X172493465Y-34611808D02*
X172445846Y-34659427D01*
X172445846Y-34659427D02*
X172398227Y-34754665D01*
X172398227Y-34754665D02*
X172398227Y-34992760D01*
X172398227Y-34992760D02*
X172445846Y-35087998D01*
X172445846Y-35087998D02*
X172493465Y-35135617D01*
X172493465Y-35135617D02*
X172588703Y-35183236D01*
X172588703Y-35183236D02*
X172683941Y-35183236D01*
X172683941Y-35183236D02*
X172826798Y-35135617D01*
X172826798Y-35135617D02*
X173398227Y-34564189D01*
X173398227Y-34564189D02*
X173398227Y-35183236D01*
X127274890Y-94675946D02*
X128084413Y-94675946D01*
X128084413Y-94675946D02*
X128179651Y-94723565D01*
X128179651Y-94723565D02*
X128227271Y-94771184D01*
X128227271Y-94771184D02*
X128274890Y-94866422D01*
X128274890Y-94866422D02*
X128274890Y-95056898D01*
X128274890Y-95056898D02*
X128227271Y-95152136D01*
X128227271Y-95152136D02*
X128179651Y-95199755D01*
X128179651Y-95199755D02*
X128084413Y-95247374D01*
X128084413Y-95247374D02*
X127274890Y-95247374D01*
X127274890Y-96199755D02*
X127274890Y-95723565D01*
X127274890Y-95723565D02*
X127751080Y-95675946D01*
X127751080Y-95675946D02*
X127703461Y-95723565D01*
X127703461Y-95723565D02*
X127655842Y-95818803D01*
X127655842Y-95818803D02*
X127655842Y-96056898D01*
X127655842Y-96056898D02*
X127703461Y-96152136D01*
X127703461Y-96152136D02*
X127751080Y-96199755D01*
X127751080Y-96199755D02*
X127846318Y-96247374D01*
X127846318Y-96247374D02*
X128084413Y-96247374D01*
X128084413Y-96247374D02*
X128179651Y-96199755D01*
X128179651Y-96199755D02*
X128227271Y-96152136D01*
X128227271Y-96152136D02*
X128274890Y-96056898D01*
X128274890Y-96056898D02*
X128274890Y-95818803D01*
X128274890Y-95818803D02*
X128227271Y-95723565D01*
X128227271Y-95723565D02*
X128179651Y-95675946D01*
X154476146Y-93627863D02*
X154571384Y-93580244D01*
X154571384Y-93580244D02*
X154666622Y-93485006D01*
X154666622Y-93485006D02*
X154809479Y-93342148D01*
X154809479Y-93342148D02*
X154904717Y-93294529D01*
X154904717Y-93294529D02*
X154999955Y-93294529D01*
X154952336Y-93532625D02*
X155047574Y-93485006D01*
X155047574Y-93485006D02*
X155142812Y-93389767D01*
X155142812Y-93389767D02*
X155190431Y-93199291D01*
X155190431Y-93199291D02*
X155190431Y-92865958D01*
X155190431Y-92865958D02*
X155142812Y-92675482D01*
X155142812Y-92675482D02*
X155047574Y-92580244D01*
X155047574Y-92580244D02*
X154952336Y-92532625D01*
X154952336Y-92532625D02*
X154761860Y-92532625D01*
X154761860Y-92532625D02*
X154666622Y-92580244D01*
X154666622Y-92580244D02*
X154571384Y-92675482D01*
X154571384Y-92675482D02*
X154523765Y-92865958D01*
X154523765Y-92865958D02*
X154523765Y-93199291D01*
X154523765Y-93199291D02*
X154571384Y-93389767D01*
X154571384Y-93389767D02*
X154666622Y-93485006D01*
X154666622Y-93485006D02*
X154761860Y-93532625D01*
X154761860Y-93532625D02*
X154952336Y-93532625D01*
X154142812Y-92627863D02*
X154095193Y-92580244D01*
X154095193Y-92580244D02*
X153999955Y-92532625D01*
X153999955Y-92532625D02*
X153761860Y-92532625D01*
X153761860Y-92532625D02*
X153666622Y-92580244D01*
X153666622Y-92580244D02*
X153619003Y-92627863D01*
X153619003Y-92627863D02*
X153571384Y-92723101D01*
X153571384Y-92723101D02*
X153571384Y-92818339D01*
X153571384Y-92818339D02*
X153619003Y-92961196D01*
X153619003Y-92961196D02*
X154190431Y-93532625D01*
X154190431Y-93532625D02*
X153571384Y-93532625D01*
X182951715Y-104318567D02*
X182904096Y-104223329D01*
X182904096Y-104223329D02*
X182808858Y-104128091D01*
X182808858Y-104128091D02*
X182666000Y-103985234D01*
X182666000Y-103985234D02*
X182618381Y-103889996D01*
X182618381Y-103889996D02*
X182618381Y-103794758D01*
X182856477Y-103842377D02*
X182808858Y-103747139D01*
X182808858Y-103747139D02*
X182713619Y-103651901D01*
X182713619Y-103651901D02*
X182523143Y-103604282D01*
X182523143Y-103604282D02*
X182189810Y-103604282D01*
X182189810Y-103604282D02*
X181999334Y-103651901D01*
X181999334Y-103651901D02*
X181904096Y-103747139D01*
X181904096Y-103747139D02*
X181856477Y-103842377D01*
X181856477Y-103842377D02*
X181856477Y-104032853D01*
X181856477Y-104032853D02*
X181904096Y-104128091D01*
X181904096Y-104128091D02*
X181999334Y-104223329D01*
X181999334Y-104223329D02*
X182189810Y-104270948D01*
X182189810Y-104270948D02*
X182523143Y-104270948D01*
X182523143Y-104270948D02*
X182713619Y-104223329D01*
X182713619Y-104223329D02*
X182808858Y-104128091D01*
X182808858Y-104128091D02*
X182856477Y-104032853D01*
X182856477Y-104032853D02*
X182856477Y-103842377D01*
X181856477Y-104604282D02*
X181856477Y-105223329D01*
X181856477Y-105223329D02*
X182237429Y-104889996D01*
X182237429Y-104889996D02*
X182237429Y-105032853D01*
X182237429Y-105032853D02*
X182285048Y-105128091D01*
X182285048Y-105128091D02*
X182332667Y-105175710D01*
X182332667Y-105175710D02*
X182427905Y-105223329D01*
X182427905Y-105223329D02*
X182666000Y-105223329D01*
X182666000Y-105223329D02*
X182761238Y-105175710D01*
X182761238Y-105175710D02*
X182808858Y-105128091D01*
X182808858Y-105128091D02*
X182856477Y-105032853D01*
X182856477Y-105032853D02*
X182856477Y-104747139D01*
X182856477Y-104747139D02*
X182808858Y-104651901D01*
X182808858Y-104651901D02*
X182761238Y-104604282D01*
X154318646Y-100407863D02*
X154413884Y-100360244D01*
X154413884Y-100360244D02*
X154509122Y-100265006D01*
X154509122Y-100265006D02*
X154651979Y-100122148D01*
X154651979Y-100122148D02*
X154747217Y-100074529D01*
X154747217Y-100074529D02*
X154842455Y-100074529D01*
X154794836Y-100312625D02*
X154890074Y-100265006D01*
X154890074Y-100265006D02*
X154985312Y-100169767D01*
X154985312Y-100169767D02*
X155032931Y-99979291D01*
X155032931Y-99979291D02*
X155032931Y-99645958D01*
X155032931Y-99645958D02*
X154985312Y-99455482D01*
X154985312Y-99455482D02*
X154890074Y-99360244D01*
X154890074Y-99360244D02*
X154794836Y-99312625D01*
X154794836Y-99312625D02*
X154604360Y-99312625D01*
X154604360Y-99312625D02*
X154509122Y-99360244D01*
X154509122Y-99360244D02*
X154413884Y-99455482D01*
X154413884Y-99455482D02*
X154366265Y-99645958D01*
X154366265Y-99645958D02*
X154366265Y-99979291D01*
X154366265Y-99979291D02*
X154413884Y-100169767D01*
X154413884Y-100169767D02*
X154509122Y-100265006D01*
X154509122Y-100265006D02*
X154604360Y-100312625D01*
X154604360Y-100312625D02*
X154794836Y-100312625D01*
X153413884Y-100312625D02*
X153985312Y-100312625D01*
X153699598Y-100312625D02*
X153699598Y-99312625D01*
X153699598Y-99312625D02*
X153794836Y-99455482D01*
X153794836Y-99455482D02*
X153890074Y-99550720D01*
X153890074Y-99550720D02*
X153985312Y-99598339D01*
X177412274Y-47232951D02*
X177412274Y-47994856D01*
X177793227Y-47613903D02*
X177031322Y-47613903D01*
X177412274Y-97841854D02*
X177412274Y-98603759D01*
X177793227Y-98222806D02*
X177031322Y-98222806D01*
X182951715Y-53709664D02*
X182904096Y-53614426D01*
X182904096Y-53614426D02*
X182808858Y-53519188D01*
X182808858Y-53519188D02*
X182666000Y-53376331D01*
X182666000Y-53376331D02*
X182618381Y-53281093D01*
X182618381Y-53281093D02*
X182618381Y-53185855D01*
X182856477Y-53233474D02*
X182808858Y-53138236D01*
X182808858Y-53138236D02*
X182713619Y-53042998D01*
X182713619Y-53042998D02*
X182523143Y-52995379D01*
X182523143Y-52995379D02*
X182189810Y-52995379D01*
X182189810Y-52995379D02*
X181999334Y-53042998D01*
X181999334Y-53042998D02*
X181904096Y-53138236D01*
X181904096Y-53138236D02*
X181856477Y-53233474D01*
X181856477Y-53233474D02*
X181856477Y-53423950D01*
X181856477Y-53423950D02*
X181904096Y-53519188D01*
X181904096Y-53519188D02*
X181999334Y-53614426D01*
X181999334Y-53614426D02*
X182189810Y-53662045D01*
X182189810Y-53662045D02*
X182523143Y-53662045D01*
X182523143Y-53662045D02*
X182713619Y-53614426D01*
X182713619Y-53614426D02*
X182808858Y-53519188D01*
X182808858Y-53519188D02*
X182856477Y-53423950D01*
X182856477Y-53423950D02*
X182856477Y-53233474D01*
X181856477Y-53995379D02*
X181856477Y-54614426D01*
X181856477Y-54614426D02*
X182237429Y-54281093D01*
X182237429Y-54281093D02*
X182237429Y-54423950D01*
X182237429Y-54423950D02*
X182285048Y-54519188D01*
X182285048Y-54519188D02*
X182332667Y-54566807D01*
X182332667Y-54566807D02*
X182427905Y-54614426D01*
X182427905Y-54614426D02*
X182666000Y-54614426D01*
X182666000Y-54614426D02*
X182761238Y-54566807D01*
X182761238Y-54566807D02*
X182808858Y-54519188D01*
X182808858Y-54519188D02*
X182856477Y-54423950D01*
X182856477Y-54423950D02*
X182856477Y-54138236D01*
X182856477Y-54138236D02*
X182808858Y-54042998D01*
X182808858Y-54042998D02*
X182761238Y-53995379D01*
X173350608Y-83125473D02*
X173398227Y-83268330D01*
X173398227Y-83268330D02*
X173398227Y-83506425D01*
X173398227Y-83506425D02*
X173350608Y-83601663D01*
X173350608Y-83601663D02*
X173302988Y-83649282D01*
X173302988Y-83649282D02*
X173207750Y-83696901D01*
X173207750Y-83696901D02*
X173112512Y-83696901D01*
X173112512Y-83696901D02*
X173017274Y-83649282D01*
X173017274Y-83649282D02*
X172969655Y-83601663D01*
X172969655Y-83601663D02*
X172922036Y-83506425D01*
X172922036Y-83506425D02*
X172874417Y-83315949D01*
X172874417Y-83315949D02*
X172826798Y-83220711D01*
X172826798Y-83220711D02*
X172779179Y-83173092D01*
X172779179Y-83173092D02*
X172683941Y-83125473D01*
X172683941Y-83125473D02*
X172588703Y-83125473D01*
X172588703Y-83125473D02*
X172493465Y-83173092D01*
X172493465Y-83173092D02*
X172445846Y-83220711D01*
X172445846Y-83220711D02*
X172398227Y-83315949D01*
X172398227Y-83315949D02*
X172398227Y-83554044D01*
X172398227Y-83554044D02*
X172445846Y-83696901D01*
X172398227Y-84030235D02*
X173398227Y-84268330D01*
X173398227Y-84268330D02*
X172683941Y-84458806D01*
X172683941Y-84458806D02*
X173398227Y-84649282D01*
X173398227Y-84649282D02*
X172398227Y-84887378D01*
X172493465Y-85220711D02*
X172445846Y-85268330D01*
X172445846Y-85268330D02*
X172398227Y-85363568D01*
X172398227Y-85363568D02*
X172398227Y-85601663D01*
X172398227Y-85601663D02*
X172445846Y-85696901D01*
X172445846Y-85696901D02*
X172493465Y-85744520D01*
X172493465Y-85744520D02*
X172588703Y-85792139D01*
X172588703Y-85792139D02*
X172683941Y-85792139D01*
X172683941Y-85792139D02*
X172826798Y-85744520D01*
X172826798Y-85744520D02*
X173398227Y-85173092D01*
X173398227Y-85173092D02*
X173398227Y-85792139D01*
D12*
X179996244Y-44233623D02*
X179780572Y-44233623D01*
X179996244Y-43513623D02*
X179780572Y-43513623D01*
X185152158Y-43766403D02*
X185152158Y-43116403D01*
X185152158Y-43766403D02*
X185152158Y-44416403D01*
X182032158Y-43766403D02*
X182032158Y-42091403D01*
X182032158Y-43766403D02*
X182032158Y-44416403D01*
X180924994Y-93147806D02*
X180709322Y-93147806D01*
X180924994Y-92427806D02*
X180709322Y-92427806D01*
X176481572Y-39826903D02*
X176697244Y-39826903D01*
X176481572Y-40546903D02*
X176697244Y-40546903D01*
X158441244Y-77157806D02*
X158225572Y-77157806D01*
X158441244Y-76437806D02*
X158225572Y-76437806D01*
X128398593Y-33716164D02*
X128398593Y-33931836D01*
X127678593Y-33716164D02*
X127678593Y-33931836D01*
X121757593Y-38045000D02*
X122017593Y-38045000D01*
X126947593Y-38045000D02*
X126947593Y-39720000D01*
X127207593Y-38045000D02*
X126947593Y-38045000D01*
X121757593Y-35320000D02*
X121757593Y-38045000D01*
X121757593Y-35320000D02*
X121757593Y-32595000D01*
X127207593Y-35320000D02*
X127207593Y-38045000D01*
X127207593Y-35320000D02*
X127207593Y-32595000D01*
X121757593Y-32595000D02*
X122017593Y-32595000D01*
X127207593Y-32595000D02*
X126947593Y-32595000D01*
X188363572Y-56336903D02*
X188579244Y-56336903D01*
X188363572Y-57056903D02*
X188579244Y-57056903D01*
X181493408Y-91167970D02*
X181493408Y-91383642D01*
X180773408Y-91167970D02*
X180773408Y-91383642D01*
X119053071Y-94011354D02*
X119053071Y-93795682D01*
X119773071Y-94011354D02*
X119773071Y-93795682D01*
X154223408Y-53208903D02*
X154873408Y-53208903D01*
X154223408Y-53208903D02*
X153573408Y-53208903D01*
X154223408Y-50088903D02*
X155898408Y-50088903D01*
X154223408Y-50088903D02*
X153573408Y-50088903D01*
X120789071Y-93795682D02*
X120789071Y-94011354D01*
X120069071Y-93795682D02*
X120069071Y-94011354D01*
X180924994Y-42538903D02*
X180709322Y-42538903D01*
X180924994Y-41818903D02*
X180709322Y-41818903D01*
X166353408Y-76067806D02*
X161953408Y-76067806D01*
X166353408Y-75947806D02*
X166353408Y-76067806D01*
X166353408Y-73797806D02*
X166353408Y-74937806D01*
X166353408Y-72667806D02*
X166353408Y-72787806D01*
X161953408Y-76067806D02*
X161953408Y-75947806D01*
X161953408Y-74937806D02*
X161953408Y-73797806D01*
X161953408Y-72787806D02*
X161953408Y-72667806D01*
X161953408Y-72667806D02*
X166353408Y-72667806D01*
X134830071Y-95410015D02*
X134830071Y-95625687D01*
X134110071Y-95410015D02*
X134110071Y-95625687D01*
X154380908Y-46428903D02*
X155030908Y-46428903D01*
X154380908Y-46428903D02*
X153730908Y-46428903D01*
X154380908Y-43308903D02*
X156055908Y-43308903D01*
X154380908Y-43308903D02*
X153730908Y-43308903D01*
X178953408Y-91167970D02*
X178953408Y-91383642D01*
X178233408Y-91167970D02*
X178233408Y-91383642D01*
X166353408Y-25458903D02*
X161953408Y-25458903D01*
X166353408Y-25338903D02*
X166353408Y-25458903D01*
X166353408Y-23188903D02*
X166353408Y-24328903D01*
X166353408Y-22058903D02*
X166353408Y-22178903D01*
X161953408Y-25458903D02*
X161953408Y-25338903D01*
X161953408Y-24328903D02*
X161953408Y-23188903D01*
X161953408Y-22178903D02*
X161953408Y-22058903D01*
X161953408Y-22058903D02*
X166353408Y-22058903D01*
X128228593Y-25333000D02*
X129611593Y-25333000D01*
X128228593Y-25333000D02*
X128228593Y-26716000D01*
X140308593Y-25573000D02*
X140308593Y-32393000D01*
X138998593Y-25573000D02*
X140308593Y-25573000D01*
X136458593Y-25573000D02*
X137398593Y-25573000D01*
X133918593Y-25573000D02*
X134858593Y-25573000D01*
X131378593Y-25573000D02*
X132318593Y-25573000D01*
X128468593Y-25573000D02*
X129778593Y-25573000D01*
X128468593Y-25573000D02*
X128468593Y-32393000D01*
X138833593Y-27173000D02*
X138833593Y-30793000D01*
X138763593Y-27173000D02*
X138763593Y-28379667D01*
X138643593Y-27173000D02*
X138643593Y-28379667D01*
X138523593Y-27173000D02*
X138523593Y-28379667D01*
X138403593Y-27173000D02*
X138403593Y-28379667D01*
X138283593Y-27173000D02*
X138283593Y-28379667D01*
X138163593Y-27173000D02*
X138163593Y-28379667D01*
X138043593Y-27173000D02*
X138043593Y-28379667D01*
X137923593Y-27173000D02*
X137923593Y-28379667D01*
X137803593Y-27173000D02*
X137803593Y-28379667D01*
X137683593Y-27173000D02*
X137683593Y-28379667D01*
X137563593Y-27173000D02*
X138833593Y-27173000D01*
X136293593Y-27173000D02*
X136293593Y-30793000D01*
X136223593Y-27173000D02*
X136223593Y-28379667D01*
X136103593Y-27173000D02*
X136103593Y-28379667D01*
X135983593Y-27173000D02*
X135983593Y-28379667D01*
X135863593Y-27173000D02*
X135863593Y-28379667D01*
X135743593Y-27173000D02*
X135743593Y-28379667D01*
X135623593Y-27173000D02*
X135623593Y-28379667D01*
X135503593Y-27173000D02*
X135503593Y-28379667D01*
X135383593Y-27173000D02*
X135383593Y-28379667D01*
X135263593Y-27173000D02*
X135263593Y-28379667D01*
X135143593Y-27173000D02*
X135143593Y-28379667D01*
X135023593Y-27173000D02*
X136293593Y-27173000D01*
X133753593Y-27173000D02*
X133753593Y-30793000D01*
X133683593Y-27173000D02*
X133683593Y-28379667D01*
X133563593Y-27173000D02*
X133563593Y-28379667D01*
X133443593Y-27173000D02*
X133443593Y-28379667D01*
X133323593Y-27173000D02*
X133323593Y-28379667D01*
X133203593Y-27173000D02*
X133203593Y-28379667D01*
X133083593Y-27173000D02*
X133083593Y-28379667D01*
X132963593Y-27173000D02*
X132963593Y-28379667D01*
X132843593Y-27173000D02*
X132843593Y-28379667D01*
X132723593Y-27173000D02*
X132723593Y-28379667D01*
X132603593Y-27173000D02*
X132603593Y-28379667D01*
X132483593Y-27173000D02*
X133753593Y-27173000D01*
X131213593Y-27173000D02*
X131213593Y-30793000D01*
X131143593Y-27173000D02*
X131143593Y-28379667D01*
X131023593Y-27173000D02*
X131023593Y-28379667D01*
X130903593Y-27173000D02*
X130903593Y-28379667D01*
X130783593Y-27173000D02*
X130783593Y-28379667D01*
X130663593Y-27173000D02*
X130663593Y-28379667D01*
X130543593Y-27173000D02*
X130543593Y-28379667D01*
X130423593Y-27173000D02*
X130423593Y-28379667D01*
X130303593Y-27173000D02*
X130303593Y-28379667D01*
X130183593Y-27173000D02*
X130183593Y-28379667D01*
X130063593Y-27173000D02*
X130063593Y-28379667D01*
X129943593Y-27173000D02*
X131213593Y-27173000D01*
X137563593Y-28379667D02*
X138833593Y-28379667D01*
X135023593Y-28379667D02*
X136293593Y-28379667D01*
X132483593Y-28379667D02*
X133753593Y-28379667D01*
X129943593Y-28379667D02*
X131213593Y-28379667D01*
X138833593Y-30793000D02*
X137563593Y-30793000D01*
X137563593Y-30793000D02*
X137563593Y-27173000D01*
X136293593Y-30793000D02*
X135023593Y-30793000D01*
X135023593Y-30793000D02*
X135023593Y-27173000D01*
X133753593Y-30793000D02*
X132483593Y-30793000D01*
X132483593Y-30793000D02*
X132483593Y-27173000D01*
X131213593Y-30793000D02*
X129943593Y-30793000D01*
X129943593Y-30793000D02*
X129943593Y-27173000D01*
X138998593Y-32393000D02*
X140308593Y-32393000D01*
X136458593Y-32393000D02*
X137398593Y-32393000D01*
X133918593Y-32393000D02*
X134858593Y-32393000D01*
X131378593Y-32393000D02*
X132318593Y-32393000D01*
X128468593Y-32393000D02*
X129778593Y-32393000D01*
X176455408Y-93725642D02*
X176455408Y-93509970D01*
X177175408Y-93725642D02*
X177175408Y-93509970D01*
X154611408Y-91383642D02*
X154611408Y-91167970D01*
X155331408Y-91383642D02*
X155331408Y-91167970D01*
X132758593Y-51203836D02*
X132758593Y-50988164D01*
X133478593Y-51203836D02*
X133478593Y-50988164D01*
X160278408Y-76072806D02*
X155878408Y-76072806D01*
X160278408Y-75952806D02*
X160278408Y-76072806D01*
X160278408Y-73802806D02*
X160278408Y-74942806D01*
X160278408Y-72672806D02*
X160278408Y-72792806D01*
X155878408Y-76072806D02*
X155878408Y-75952806D01*
X155878408Y-74942806D02*
X155878408Y-73802806D01*
X155878408Y-72792806D02*
X155878408Y-72672806D01*
X155878408Y-72672806D02*
X160278408Y-72672806D01*
X173703408Y-30199903D02*
X175086408Y-30199903D01*
X173703408Y-30199903D02*
X173703408Y-31582903D01*
X185783408Y-30439903D02*
X185783408Y-37259903D01*
X184473408Y-30439903D02*
X185783408Y-30439903D01*
X181933408Y-30439903D02*
X182873408Y-30439903D01*
X179393408Y-30439903D02*
X180333408Y-30439903D01*
X176853408Y-30439903D02*
X177793408Y-30439903D01*
X173943408Y-30439903D02*
X175253408Y-30439903D01*
X173943408Y-30439903D02*
X173943408Y-37259903D01*
X184308408Y-32039903D02*
X184308408Y-35659903D01*
X184238408Y-32039903D02*
X184238408Y-33246570D01*
X184118408Y-32039903D02*
X184118408Y-33246570D01*
X183998408Y-32039903D02*
X183998408Y-33246570D01*
X183878408Y-32039903D02*
X183878408Y-33246570D01*
X183758408Y-32039903D02*
X183758408Y-33246570D01*
X183638408Y-32039903D02*
X183638408Y-33246570D01*
X183518408Y-32039903D02*
X183518408Y-33246570D01*
X183398408Y-32039903D02*
X183398408Y-33246570D01*
X183278408Y-32039903D02*
X183278408Y-33246570D01*
X183158408Y-32039903D02*
X183158408Y-33246570D01*
X183038408Y-32039903D02*
X184308408Y-32039903D01*
X181768408Y-32039903D02*
X181768408Y-35659903D01*
X181698408Y-32039903D02*
X181698408Y-33246570D01*
X181578408Y-32039903D02*
X181578408Y-33246570D01*
X181458408Y-32039903D02*
X181458408Y-33246570D01*
X181338408Y-32039903D02*
X181338408Y-33246570D01*
X181218408Y-32039903D02*
X181218408Y-33246570D01*
X181098408Y-32039903D02*
X181098408Y-33246570D01*
X180978408Y-32039903D02*
X180978408Y-33246570D01*
X180858408Y-32039903D02*
X180858408Y-33246570D01*
X180738408Y-32039903D02*
X180738408Y-33246570D01*
X180618408Y-32039903D02*
X180618408Y-33246570D01*
X180498408Y-32039903D02*
X181768408Y-32039903D01*
X179228408Y-32039903D02*
X179228408Y-35659903D01*
X179158408Y-32039903D02*
X179158408Y-33246570D01*
X179038408Y-32039903D02*
X179038408Y-33246570D01*
X178918408Y-32039903D02*
X178918408Y-33246570D01*
X178798408Y-32039903D02*
X178798408Y-33246570D01*
X178678408Y-32039903D02*
X178678408Y-33246570D01*
X178558408Y-32039903D02*
X178558408Y-33246570D01*
X178438408Y-32039903D02*
X178438408Y-33246570D01*
X178318408Y-32039903D02*
X178318408Y-33246570D01*
X178198408Y-32039903D02*
X178198408Y-33246570D01*
X178078408Y-32039903D02*
X178078408Y-33246570D01*
X177958408Y-32039903D02*
X179228408Y-32039903D01*
X176688408Y-32039903D02*
X176688408Y-35659903D01*
X176618408Y-32039903D02*
X176618408Y-33246570D01*
X176498408Y-32039903D02*
X176498408Y-33246570D01*
X176378408Y-32039903D02*
X176378408Y-33246570D01*
X176258408Y-32039903D02*
X176258408Y-33246570D01*
X176138408Y-32039903D02*
X176138408Y-33246570D01*
X176018408Y-32039903D02*
X176018408Y-33246570D01*
X175898408Y-32039903D02*
X175898408Y-33246570D01*
X175778408Y-32039903D02*
X175778408Y-33246570D01*
X175658408Y-32039903D02*
X175658408Y-33246570D01*
X175538408Y-32039903D02*
X175538408Y-33246570D01*
X175418408Y-32039903D02*
X176688408Y-32039903D01*
X183038408Y-33246570D02*
X184308408Y-33246570D01*
X180498408Y-33246570D02*
X181768408Y-33246570D01*
X177958408Y-33246570D02*
X179228408Y-33246570D01*
X175418408Y-33246570D02*
X176688408Y-33246570D01*
X184308408Y-35659903D02*
X183038408Y-35659903D01*
X183038408Y-35659903D02*
X183038408Y-32039903D01*
X181768408Y-35659903D02*
X180498408Y-35659903D01*
X180498408Y-35659903D02*
X180498408Y-32039903D01*
X179228408Y-35659903D02*
X177958408Y-35659903D01*
X177958408Y-35659903D02*
X177958408Y-32039903D01*
X176688408Y-35659903D02*
X175418408Y-35659903D01*
X175418408Y-35659903D02*
X175418408Y-32039903D01*
X184473408Y-37259903D02*
X185783408Y-37259903D01*
X181933408Y-37259903D02*
X182873408Y-37259903D01*
X179393408Y-37259903D02*
X180333408Y-37259903D01*
X176853408Y-37259903D02*
X177793408Y-37259903D01*
X173943408Y-37259903D02*
X175253408Y-37259903D01*
X188363572Y-106945806D02*
X188579244Y-106945806D01*
X188363572Y-107665806D02*
X188579244Y-107665806D01*
X121514071Y-97672518D02*
X121774071Y-97672518D01*
X126704071Y-97672518D02*
X126704071Y-99347518D01*
X126964071Y-97672518D02*
X126704071Y-97672518D01*
X121514071Y-94947518D02*
X121514071Y-97672518D01*
X121514071Y-94947518D02*
X121514071Y-92222518D01*
X126964071Y-94947518D02*
X126964071Y-97672518D01*
X126964071Y-94947518D02*
X126964071Y-92222518D01*
X121514071Y-92222518D02*
X121774071Y-92222518D01*
X126964071Y-92222518D02*
X126704071Y-92222518D01*
X127960593Y-25246000D02*
X127960593Y-29646000D01*
X127840593Y-25246000D02*
X127960593Y-25246000D01*
X125690593Y-25246000D02*
X126830593Y-25246000D01*
X124560593Y-25246000D02*
X124680593Y-25246000D01*
X127960593Y-29646000D02*
X127840593Y-29646000D01*
X126830593Y-29646000D02*
X125690593Y-29646000D01*
X124680593Y-29646000D02*
X124560593Y-29646000D01*
X124560593Y-29646000D02*
X124560593Y-25246000D01*
X176455408Y-43116739D02*
X176455408Y-42901067D01*
X177175408Y-43116739D02*
X177175408Y-42901067D01*
X160278408Y-25463903D02*
X155878408Y-25463903D01*
X160278408Y-25343903D02*
X160278408Y-25463903D01*
X160278408Y-23193903D02*
X160278408Y-24333903D01*
X160278408Y-22063903D02*
X160278408Y-22183903D01*
X155878408Y-25463903D02*
X155878408Y-25343903D01*
X155878408Y-24333903D02*
X155878408Y-23193903D01*
X155878408Y-22183903D02*
X155878408Y-22063903D01*
X155878408Y-22063903D02*
X160278408Y-22063903D01*
X120496593Y-29646000D02*
X120496593Y-25246000D01*
X120616593Y-29646000D02*
X120496593Y-29646000D01*
X122766593Y-29646000D02*
X121626593Y-29646000D01*
X123896593Y-29646000D02*
X123776593Y-29646000D01*
X120496593Y-25246000D02*
X120616593Y-25246000D01*
X121626593Y-25246000D02*
X122766593Y-25246000D01*
X123776593Y-25246000D02*
X123896593Y-25246000D01*
X123896593Y-25246000D02*
X123896593Y-29646000D01*
X133473593Y-35682497D02*
X133473593Y-35898169D01*
X132753593Y-35682497D02*
X132753593Y-35898169D01*
X120253071Y-89273518D02*
X120253071Y-84873518D01*
X120373071Y-89273518D02*
X120253071Y-89273518D01*
X122523071Y-89273518D02*
X121383071Y-89273518D01*
X123653071Y-89273518D02*
X123533071Y-89273518D01*
X120253071Y-84873518D02*
X120373071Y-84873518D01*
X121383071Y-84873518D02*
X122523071Y-84873518D01*
X123533071Y-84873518D02*
X123653071Y-84873518D01*
X123653071Y-84873518D02*
X123653071Y-89273518D01*
G36*
X168341411Y-88211687D02*
G01*
X168372385Y-88218957D01*
X168582831Y-88270070D01*
X168775435Y-88319765D01*
X168944899Y-88366471D01*
X169085925Y-88408614D01*
X169193218Y-88444621D01*
X169261478Y-88472921D01*
X169285408Y-88491939D01*
X169298218Y-88507920D01*
X169342558Y-88527892D01*
X169357207Y-88532634D01*
X169418785Y-88554841D01*
X169513132Y-88590321D01*
X169630365Y-88635335D01*
X169760606Y-88686141D01*
X170121503Y-88828000D01*
X170106315Y-88944513D01*
X170096227Y-89000663D01*
X170093904Y-89013596D01*
X170042346Y-89180586D01*
X169965993Y-89346047D01*
X169874817Y-89486628D01*
X169866849Y-89496412D01*
X169793842Y-89573620D01*
X169699503Y-89659456D01*
X169602155Y-89737089D01*
X169425108Y-89866747D01*
X169234608Y-89852693D01*
X169222350Y-89851666D01*
X169118807Y-89837745D01*
X168984850Y-89813462D01*
X168836441Y-89781933D01*
X168689543Y-89746276D01*
X168567264Y-89714994D01*
X168449330Y-89687622D01*
X168352900Y-89670618D01*
X168262896Y-89662029D01*
X168164237Y-89659898D01*
X168041843Y-89662270D01*
X168007262Y-89663297D01*
X167885632Y-89668512D01*
X167796916Y-89677128D01*
X167726604Y-89691973D01*
X167660187Y-89715873D01*
X167583157Y-89751658D01*
X167501625Y-89796899D01*
X167414624Y-89858054D01*
X167357466Y-89914033D01*
X167339175Y-89940109D01*
X167324923Y-89971630D01*
X167346371Y-89967293D01*
X167403250Y-89927021D01*
X167408860Y-89922996D01*
X167466325Y-89893040D01*
X167556669Y-89855294D01*
X167666234Y-89814848D01*
X167781366Y-89776792D01*
X167888408Y-89746214D01*
X167897134Y-89744057D01*
X167990850Y-89727064D01*
X168098277Y-89715809D01*
X168206615Y-89710591D01*
X168303065Y-89711706D01*
X168374829Y-89719452D01*
X168409108Y-89734126D01*
X168440357Y-89751616D01*
X168498723Y-89759526D01*
X168505946Y-89759769D01*
X168571773Y-89770087D01*
X168664744Y-89792568D01*
X168767166Y-89823025D01*
X168789968Y-89830382D01*
X168884147Y-89858935D01*
X168959431Y-89878968D01*
X169001231Y-89886526D01*
X169019424Y-89889311D01*
X169079375Y-89908923D01*
X169153572Y-89941132D01*
X169266374Y-89995739D01*
X169253193Y-90141103D01*
X169247505Y-90187990D01*
X169215797Y-90308282D01*
X169164860Y-90392292D01*
X169098142Y-90433520D01*
X169096579Y-90433860D01*
X169044172Y-90432426D01*
X168961703Y-90417750D01*
X168866308Y-90392838D01*
X168842512Y-90386056D01*
X168682293Y-90354213D01*
X168488244Y-90333426D01*
X168273746Y-90323677D01*
X168052180Y-90324949D01*
X167836929Y-90337223D01*
X167641372Y-90360481D01*
X167478893Y-90394706D01*
X167421547Y-90417233D01*
X167326940Y-90476318D01*
X167239154Y-90553290D01*
X167171573Y-90635737D01*
X167137579Y-90711247D01*
X167135040Y-90754381D01*
X167144095Y-90850524D01*
X167166022Y-90971509D01*
X167197784Y-91103652D01*
X167236343Y-91233270D01*
X167278660Y-91346680D01*
X167296430Y-91389605D01*
X167320267Y-91453636D01*
X167329608Y-91488831D01*
X167319411Y-91509723D01*
X167277332Y-91503958D01*
X167201849Y-91462269D01*
X167092096Y-91384274D01*
X167061701Y-91361585D01*
X166990959Y-91311660D01*
X166941833Y-91281277D01*
X166923515Y-91276324D01*
X166923531Y-91276889D01*
X166928327Y-91314511D01*
X166940305Y-91390748D01*
X166957563Y-91494699D01*
X166978198Y-91615464D01*
X167000309Y-91742142D01*
X167021994Y-91863833D01*
X167041351Y-91969636D01*
X167056478Y-92048650D01*
X167065474Y-92089976D01*
X167066926Y-92095341D01*
X167067831Y-92136222D01*
X167035082Y-92147126D01*
X167015579Y-92141675D01*
X166962716Y-92108771D01*
X166898587Y-92056505D01*
X166836413Y-91997000D01*
X166789413Y-91942380D01*
X166770808Y-91904770D01*
X166764863Y-91888735D01*
X166731631Y-91842217D01*
X166678939Y-91784322D01*
X166652146Y-91755250D01*
X166582839Y-91663910D01*
X166527333Y-91570539D01*
X166513796Y-91543550D01*
X166486199Y-91496335D01*
X166471803Y-91489215D01*
X166470282Y-91524513D01*
X166481307Y-91604553D01*
X166504548Y-91731659D01*
X166521011Y-91816631D01*
X166556314Y-91996070D01*
X166584199Y-92132582D01*
X166605809Y-92231217D01*
X166622282Y-92297020D01*
X166634762Y-92335041D01*
X166644388Y-92350326D01*
X166646102Y-92352378D01*
X166658430Y-92389927D01*
X166675784Y-92465997D01*
X166696104Y-92570854D01*
X166717328Y-92694765D01*
X166720047Y-92711772D01*
X166736349Y-92822634D01*
X166748809Y-92929499D01*
X166757894Y-93041499D01*
X166764069Y-93167765D01*
X166767799Y-93317427D01*
X166769552Y-93499617D01*
X166769792Y-93723465D01*
X166769380Y-93890683D01*
X166768302Y-94060766D01*
X166766356Y-94188492D01*
X166763278Y-94278581D01*
X166758804Y-94335750D01*
X166752671Y-94364718D01*
X166744615Y-94370204D01*
X166734372Y-94356926D01*
X166720321Y-94327836D01*
X166687123Y-94255304D01*
X166638386Y-94146915D01*
X166576693Y-94008466D01*
X166504626Y-93845756D01*
X166424765Y-93664580D01*
X166339693Y-93470736D01*
X166265986Y-93302582D01*
X166186487Y-93121582D01*
X166114975Y-92959160D01*
X166053923Y-92820910D01*
X166005801Y-92712427D01*
X165973080Y-92639304D01*
X165958232Y-92607136D01*
X165956118Y-92602887D01*
X165935006Y-92556839D01*
X165899242Y-92476196D01*
X165853257Y-92371009D01*
X165801477Y-92251332D01*
X165665908Y-91936439D01*
X163841610Y-90651748D01*
X163597609Y-90479666D01*
X163338166Y-90296111D01*
X163094092Y-90122824D01*
X162868303Y-89961903D01*
X162663711Y-89815446D01*
X162483233Y-89685553D01*
X162329784Y-89574321D01*
X162206277Y-89483848D01*
X162115627Y-89416234D01*
X162060750Y-89373577D01*
X162044560Y-89357975D01*
X162053934Y-89352869D01*
X162071808Y-89316589D01*
X162072414Y-89313336D01*
X162080991Y-89302326D01*
X169470301Y-89302326D01*
X169487046Y-89288965D01*
X169530163Y-89248050D01*
X169589065Y-89189190D01*
X169642110Y-89138904D01*
X169717248Y-89077458D01*
X169777933Y-89038359D01*
X169855767Y-89000663D01*
X169784834Y-88973694D01*
X169738438Y-88957889D01*
X169686209Y-88952337D01*
X169644487Y-88973890D01*
X169603158Y-89029101D01*
X169552108Y-89124526D01*
X169540612Y-89147484D01*
X169502249Y-89226317D01*
X169477158Y-89281526D01*
X169470301Y-89302326D01*
X162080991Y-89302326D01*
X162098098Y-89280365D01*
X162154064Y-89230572D01*
X162229890Y-89173398D01*
X162402296Y-89042396D01*
X162566129Y-88898870D01*
X162708157Y-88754958D01*
X162816416Y-88621911D01*
X162844441Y-88580241D01*
X162946666Y-88394073D01*
X163038706Y-88173088D01*
X163089803Y-88011913D01*
X166419261Y-88011913D01*
X166487085Y-88088275D01*
X166503724Y-88105827D01*
X166614437Y-88190089D01*
X166757610Y-88260247D01*
X166918109Y-88308566D01*
X166971810Y-88319457D01*
X167037518Y-88331084D01*
X167070509Y-88334526D01*
X167110063Y-88327019D01*
X167200902Y-88300735D01*
X167293695Y-88264742D01*
X167375723Y-88224889D01*
X167434267Y-88187024D01*
X167456608Y-88156995D01*
X167442517Y-88116449D01*
X167385624Y-88067927D01*
X167292875Y-88026279D01*
X167172665Y-87993203D01*
X167033390Y-87970399D01*
X166883447Y-87959567D01*
X166731232Y-87962406D01*
X166585139Y-87980614D01*
X166419261Y-88011913D01*
X163089803Y-88011913D01*
X163115835Y-87929801D01*
X163173330Y-87676726D01*
X163177402Y-87654206D01*
X163207359Y-87476945D01*
X163225707Y-87334881D01*
X163232669Y-87215238D01*
X163228466Y-87105241D01*
X163213320Y-86992115D01*
X163187453Y-86863085D01*
X163167584Y-86776128D01*
X163143873Y-86680602D01*
X163124831Y-86613122D01*
X163113340Y-86584526D01*
X163109615Y-86578659D01*
X163094182Y-86533458D01*
X163072627Y-86453622D01*
X163047245Y-86349644D01*
X163020331Y-86232015D01*
X162994181Y-86111229D01*
X162971089Y-85997777D01*
X162953352Y-85902151D01*
X162943263Y-85834845D01*
X162943118Y-85806349D01*
X162970281Y-85806508D01*
X163017276Y-85831334D01*
X163065722Y-85865378D01*
X163155934Y-85926868D01*
X163253036Y-85991337D01*
X163347251Y-86052473D01*
X163428804Y-86103959D01*
X163487920Y-86139481D01*
X163514822Y-86152725D01*
X163522968Y-86155527D01*
X163562192Y-86182341D01*
X163616493Y-86228357D01*
X163622259Y-86233499D01*
X163689544Y-86285708D01*
X163781096Y-86348302D01*
X163878848Y-86408851D01*
X163897634Y-86419932D01*
X163987641Y-86475910D01*
X164062519Y-86526869D01*
X164107641Y-86562958D01*
X164144105Y-86593906D01*
X164215556Y-86642520D01*
X164295749Y-86688764D01*
X164368175Y-86723334D01*
X164416324Y-86736926D01*
X164437923Y-86726812D01*
X164443013Y-86679776D01*
X164442939Y-86679322D01*
X164435880Y-86635895D01*
X164422189Y-86551451D01*
X164403311Y-86434910D01*
X164380691Y-86295196D01*
X164355774Y-86141228D01*
X164354853Y-86135538D01*
X164329287Y-85983012D01*
X164304786Y-85846142D01*
X164283018Y-85733566D01*
X164265649Y-85653922D01*
X164254347Y-85615848D01*
X164244115Y-85591886D01*
X164232366Y-85535655D01*
X164234076Y-85487639D01*
X164249858Y-85468046D01*
X164257578Y-85468668D01*
X164347029Y-85489082D01*
X164472288Y-85534724D01*
X164627397Y-85603195D01*
X164806398Y-85692097D01*
X164874249Y-85727812D01*
X165110998Y-85861147D01*
X165314251Y-85992770D01*
X165496354Y-86131913D01*
X165669657Y-86287806D01*
X165846506Y-86469681D01*
X165934522Y-86563443D01*
X166033488Y-86661834D01*
X166115130Y-86730977D01*
X166187817Y-86776861D01*
X166259919Y-86805479D01*
X166339802Y-86822821D01*
X166384277Y-86831274D01*
X166474983Y-86852563D01*
X166583324Y-86881069D01*
X166698152Y-86913510D01*
X166808321Y-86946605D01*
X166902684Y-86977073D01*
X166970096Y-87001631D01*
X166999408Y-87017000D01*
X167015598Y-87028799D01*
X167070052Y-87059659D01*
X167152709Y-87102763D01*
X167253408Y-87152683D01*
X167323853Y-87187255D01*
X167427481Y-87239688D01*
X167512203Y-87284412D01*
X167564516Y-87314409D01*
X167592027Y-87335968D01*
X167657799Y-87405612D01*
X167730751Y-87499501D01*
X167800940Y-87603416D01*
X167858418Y-87703135D01*
X167893241Y-87784439D01*
X167899433Y-87803788D01*
X167922255Y-87858103D01*
X167940846Y-87879926D01*
X167948722Y-87888139D01*
X167963762Y-87933485D01*
X167977077Y-88005245D01*
X167994313Y-88130565D01*
X168107399Y-88156995D01*
X168341411Y-88211687D01*
G37*
G36*
X161032566Y-87475805D02*
G01*
X161144708Y-87498816D01*
X161168020Y-87503708D01*
X161313851Y-87533666D01*
X161455454Y-87561783D01*
X161577687Y-87585095D01*
X161665408Y-87600643D01*
X161747588Y-87614327D01*
X161838256Y-87630027D01*
X161900358Y-87641477D01*
X161970208Y-87655362D01*
X161970876Y-88561394D01*
X161971543Y-89467426D01*
X163811558Y-90747589D01*
X165397366Y-91850892D01*
X165439816Y-91880426D01*
X165476324Y-91905826D01*
X165651572Y-92027752D01*
X166249290Y-93428176D01*
X166354981Y-93676090D01*
X166456168Y-93914008D01*
X166549478Y-94133973D01*
X166633180Y-94331878D01*
X166705544Y-94503616D01*
X166764839Y-94645081D01*
X166809335Y-94752165D01*
X166837302Y-94820761D01*
X166847008Y-94846762D01*
X166838333Y-94863734D01*
X166807909Y-94846581D01*
X166751400Y-94791236D01*
X166736698Y-94776544D01*
X166683912Y-94726204D01*
X166600298Y-94647852D01*
X166490121Y-94545438D01*
X166357647Y-94422914D01*
X166207143Y-94284230D01*
X166042875Y-94133337D01*
X165869108Y-93974185D01*
X165767806Y-93881536D01*
X165599114Y-93727250D01*
X165442361Y-93583880D01*
X165301807Y-93455320D01*
X165181708Y-93345466D01*
X165086323Y-93258211D01*
X165019909Y-93197450D01*
X164986725Y-93167077D01*
X164917141Y-93103331D01*
X164808925Y-93180527D01*
X164754642Y-93218200D01*
X164659981Y-93276202D01*
X164563599Y-93321878D01*
X164449405Y-93362335D01*
X164301307Y-93404678D01*
X164233989Y-93421710D01*
X164036743Y-93456994D01*
X163837108Y-93467720D01*
X163820623Y-93467660D01*
X163675331Y-93461817D01*
X163558801Y-93447718D01*
X163474695Y-93427190D01*
X163426673Y-93402058D01*
X163418396Y-93374150D01*
X163453526Y-93345294D01*
X163535722Y-93317316D01*
X163548333Y-93314052D01*
X163686941Y-93266132D01*
X163835225Y-93191671D01*
X164005038Y-93084795D01*
X164008512Y-93082433D01*
X164100809Y-93010529D01*
X164169625Y-92931068D01*
X164233099Y-92823247D01*
X164238924Y-92811909D01*
X164276927Y-92731706D01*
X164300108Y-92671397D01*
X164303642Y-92643292D01*
X164277579Y-92639423D01*
X164225766Y-92652214D01*
X164170594Y-92669664D01*
X164062514Y-92696882D01*
X163921992Y-92727751D01*
X163759090Y-92760414D01*
X163583866Y-92793013D01*
X163406382Y-92823693D01*
X163236697Y-92850596D01*
X163084872Y-92871866D01*
X162960967Y-92885646D01*
X162934329Y-92887867D01*
X162771224Y-92897302D01*
X162582638Y-92902644D01*
X162379460Y-92904088D01*
X162172575Y-92901832D01*
X161972871Y-92896072D01*
X161791234Y-92887005D01*
X161638551Y-92874826D01*
X161525708Y-92859734D01*
X161521106Y-92858882D01*
X161361941Y-92827473D01*
X161226731Y-92797003D01*
X161122035Y-92769208D01*
X161054408Y-92745825D01*
X161030408Y-92728589D01*
X161049539Y-92717809D01*
X161106911Y-92709116D01*
X161189158Y-92705695D01*
X161280699Y-92700162D01*
X161422878Y-92680613D01*
X161582782Y-92650342D01*
X161743863Y-92612904D01*
X161889571Y-92571854D01*
X162003360Y-92530748D01*
X162174369Y-92447376D01*
X162344011Y-92347017D01*
X162493717Y-92240839D01*
X162608909Y-92138290D01*
X162612693Y-92134314D01*
X162673049Y-92068459D01*
X162715908Y-92017230D01*
X162732208Y-91991425D01*
X162716495Y-91987157D01*
X162663545Y-91992461D01*
X162586158Y-92007735D01*
X162416514Y-92040108D01*
X162152420Y-92071310D01*
X161840056Y-92090064D01*
X161479989Y-92096326D01*
X161443772Y-92096268D01*
X160994933Y-92084790D01*
X160580793Y-92052558D01*
X160190002Y-91998381D01*
X159811208Y-91921065D01*
X159749175Y-91905826D01*
X165145208Y-91905826D01*
X165157908Y-91918526D01*
X165170608Y-91905826D01*
X165157908Y-91893126D01*
X165145208Y-91905826D01*
X159749175Y-91905826D01*
X159649239Y-91881276D01*
X159646003Y-91880426D01*
X165094408Y-91880426D01*
X165107108Y-91893126D01*
X165119808Y-91880426D01*
X165107108Y-91867726D01*
X165094408Y-91880426D01*
X159646003Y-91880426D01*
X159469395Y-91834037D01*
X159298930Y-91786282D01*
X159144510Y-91740088D01*
X159012802Y-91697531D01*
X158910472Y-91660689D01*
X158844185Y-91631637D01*
X158820608Y-91612453D01*
X158836951Y-91601572D01*
X158891730Y-91592008D01*
X158971719Y-91588326D01*
X159033575Y-91586096D01*
X159181592Y-91570376D01*
X159357013Y-91541816D01*
X159546349Y-91503038D01*
X159736110Y-91456667D01*
X159912808Y-91405325D01*
X160025338Y-91367157D01*
X160345534Y-91230643D01*
X160653822Y-91054064D01*
X160813923Y-90950586D01*
X160585616Y-90966659D01*
X160524302Y-90969744D01*
X160364361Y-90970987D01*
X160170536Y-90965714D01*
X159953898Y-90954557D01*
X159725517Y-90938146D01*
X159496464Y-90917112D01*
X159277808Y-90892088D01*
X159130231Y-90869080D01*
X158933546Y-90830746D01*
X158711913Y-90781543D01*
X158477402Y-90724423D01*
X158242084Y-90662334D01*
X158018030Y-90598229D01*
X157817308Y-90535058D01*
X157694707Y-90490714D01*
X157549061Y-90432030D01*
X157390678Y-90363530D01*
X157226169Y-90288510D01*
X157062144Y-90210265D01*
X156905216Y-90132092D01*
X156761995Y-90057285D01*
X156639093Y-89989141D01*
X156543120Y-89930955D01*
X156480688Y-89886023D01*
X156458408Y-89857641D01*
X156470837Y-89831826D01*
X156516922Y-89821251D01*
X156601205Y-89830097D01*
X156728052Y-89858375D01*
X156997864Y-89914171D01*
X157316666Y-89950791D01*
X157669484Y-89962726D01*
X157773918Y-89960223D01*
X158008500Y-89940643D01*
X158257629Y-89904191D01*
X158505022Y-89853949D01*
X158734390Y-89792997D01*
X158929449Y-89724415D01*
X159128165Y-89642186D01*
X158879137Y-89610908D01*
X158845298Y-89606610D01*
X158695294Y-89586772D01*
X158537690Y-89564952D01*
X158401508Y-89545144D01*
X158399546Y-89544847D01*
X158269904Y-89521292D01*
X158105682Y-89485644D01*
X157917413Y-89440730D01*
X157715633Y-89389377D01*
X157510877Y-89334411D01*
X157313680Y-89278659D01*
X157134576Y-89224948D01*
X156984101Y-89176105D01*
X156872790Y-89134956D01*
X156702004Y-89060792D01*
X156469228Y-88950615D01*
X156226506Y-88827312D01*
X155988265Y-88698490D01*
X155768932Y-88571758D01*
X155582933Y-88454724D01*
X155519181Y-88410807D01*
X155396792Y-88319885D01*
X155270282Y-88218710D01*
X155144515Y-88111953D01*
X155024351Y-88004282D01*
X154914654Y-87900366D01*
X154820286Y-87804874D01*
X154746109Y-87722475D01*
X154696986Y-87657838D01*
X154677779Y-87615632D01*
X154693350Y-87600526D01*
X154702610Y-87603803D01*
X154748676Y-87625661D01*
X154823205Y-87663524D01*
X154915600Y-87712071D01*
X154950380Y-87730260D01*
X155063096Y-87785403D01*
X155170004Y-87832836D01*
X155251908Y-87863893D01*
X155277397Y-87871688D01*
X155425471Y-87909556D01*
X155606287Y-87946503D01*
X155809557Y-87981252D01*
X156024994Y-88012522D01*
X156242310Y-88039034D01*
X156451218Y-88059509D01*
X156641428Y-88072667D01*
X156802654Y-88077228D01*
X156924608Y-88071914D01*
X157098708Y-88053115D01*
X156823008Y-87920058D01*
X156805582Y-87911620D01*
X156630859Y-87824527D01*
X156438658Y-87724992D01*
X156241653Y-87619863D01*
X156052517Y-87515987D01*
X155979715Y-87474631D01*
X158445502Y-87474631D01*
X158452965Y-87478308D01*
X158501158Y-87497295D01*
X158590151Y-87531052D01*
X158715724Y-87578015D01*
X158873653Y-87636619D01*
X159059719Y-87705300D01*
X159269698Y-87782492D01*
X159499370Y-87866631D01*
X159744513Y-87956151D01*
X159900452Y-88013044D01*
X160137798Y-88099778D01*
X160357714Y-88180312D01*
X160555871Y-88253051D01*
X160727938Y-88316401D01*
X160869587Y-88368765D01*
X160976486Y-88408550D01*
X161044305Y-88434158D01*
X161068715Y-88443996D01*
X161069411Y-88447865D01*
X161072204Y-88490725D01*
X161076051Y-88575836D01*
X161080719Y-88696911D01*
X161085974Y-88847661D01*
X161091583Y-89021801D01*
X161097311Y-89213040D01*
X161119308Y-89974655D01*
X162719508Y-90741457D01*
X162741369Y-90751932D01*
X163121384Y-90934014D01*
X163458256Y-91095380D01*
X163754505Y-91237222D01*
X164012654Y-91360734D01*
X164235223Y-91467109D01*
X164424734Y-91557541D01*
X164583708Y-91633223D01*
X164714666Y-91695349D01*
X164820129Y-91745112D01*
X164902619Y-91783705D01*
X164964657Y-91812321D01*
X165008764Y-91832155D01*
X165037461Y-91844399D01*
X165053270Y-91850247D01*
X165058712Y-91850892D01*
X165056308Y-91847527D01*
X165053338Y-91845397D01*
X165016027Y-91821981D01*
X164939366Y-91775227D01*
X164826715Y-91707150D01*
X164681436Y-91619764D01*
X164506893Y-91515085D01*
X164306448Y-91395128D01*
X164083462Y-91261906D01*
X163841298Y-91117436D01*
X163583319Y-90963731D01*
X163312886Y-90802807D01*
X161594863Y-89781102D01*
X161579047Y-89344864D01*
X161575565Y-89248794D01*
X161565876Y-88982302D01*
X161557667Y-88760969D01*
X161550637Y-88580551D01*
X161544489Y-88436808D01*
X161538921Y-88325496D01*
X161533637Y-88242374D01*
X161528335Y-88183199D01*
X161522718Y-88143730D01*
X161516485Y-88119724D01*
X161509337Y-88106940D01*
X161500976Y-88101134D01*
X161491102Y-88098066D01*
X161466311Y-88092294D01*
X161395803Y-88077104D01*
X161285869Y-88053937D01*
X161141756Y-88023867D01*
X160968710Y-87987968D01*
X160771974Y-87947313D01*
X160556796Y-87902977D01*
X160328421Y-87856033D01*
X160092094Y-87807555D01*
X159853060Y-87758617D01*
X159616566Y-87710292D01*
X159387857Y-87663654D01*
X159172179Y-87619778D01*
X158974777Y-87579736D01*
X158800896Y-87544603D01*
X158655783Y-87515452D01*
X158544682Y-87493357D01*
X158472840Y-87479392D01*
X158445502Y-87474631D01*
X155979715Y-87474631D01*
X155955413Y-87460826D01*
X158388808Y-87460826D01*
X158401508Y-87473526D01*
X158414208Y-87460826D01*
X158401508Y-87448126D01*
X158388808Y-87460826D01*
X155955413Y-87460826D01*
X155883920Y-87420214D01*
X155748536Y-87339392D01*
X155585597Y-87231918D01*
X155401070Y-87098850D01*
X155207297Y-86949702D01*
X155012951Y-86791715D01*
X154826705Y-86632133D01*
X154657233Y-86478196D01*
X154513210Y-86337146D01*
X154403309Y-86216226D01*
X154376022Y-86183358D01*
X154282726Y-86071249D01*
X154180592Y-85948818D01*
X154087275Y-85837239D01*
X154066626Y-85812159D01*
X153976830Y-85694274D01*
X153885301Y-85561749D01*
X153795916Y-85421601D01*
X153712554Y-85280849D01*
X153639090Y-85146512D01*
X153579404Y-85025609D01*
X153537372Y-84925157D01*
X153516872Y-84852176D01*
X153521783Y-84813685D01*
X153522282Y-84813322D01*
X153547790Y-84825422D01*
X153600975Y-84867080D01*
X153674356Y-84932020D01*
X153760454Y-85013964D01*
X153827598Y-85077325D01*
X153962342Y-85195036D01*
X154105618Y-85311093D01*
X154235908Y-85407681D01*
X154272669Y-85432882D01*
X154438195Y-85540521D01*
X154618732Y-85650139D01*
X154803006Y-85755440D01*
X154979743Y-85850130D01*
X155137669Y-85927915D01*
X155265508Y-85982500D01*
X155349774Y-86015777D01*
X155465040Y-86065207D01*
X155561293Y-86110513D01*
X155568187Y-86113904D01*
X155638823Y-86144209D01*
X155746597Y-86185949D01*
X155881773Y-86235541D01*
X156034616Y-86289401D01*
X156195393Y-86343946D01*
X156358562Y-86396880D01*
X156720525Y-86506881D01*
X157121209Y-86620034D01*
X157552786Y-86734408D01*
X158007428Y-86848076D01*
X158477308Y-86959107D01*
X158954600Y-87065572D01*
X159431476Y-87165542D01*
X159900108Y-87257088D01*
X160038376Y-87283132D01*
X160264939Y-87326175D01*
X160486661Y-87368716D01*
X160694521Y-87409003D01*
X160879496Y-87445283D01*
X160957445Y-87460826D01*
X161032566Y-87475805D01*
G37*
X154380908Y-97037806D02*
X155030908Y-97037806D01*
X154380908Y-97037806D02*
X153730908Y-97037806D01*
X154380908Y-93917806D02*
X156055908Y-93917806D01*
X154380908Y-93917806D02*
X153730908Y-93917806D01*
X181493408Y-40559067D02*
X181493408Y-40774739D01*
X180773408Y-40559067D02*
X180773408Y-40774739D01*
X154611408Y-40774739D02*
X154611408Y-40559067D01*
X155331408Y-40774739D02*
X155331408Y-40559067D01*
X127985071Y-84960518D02*
X129368071Y-84960518D01*
X127985071Y-84960518D02*
X127985071Y-86343518D01*
X140065071Y-85200518D02*
X140065071Y-92020518D01*
X138755071Y-85200518D02*
X140065071Y-85200518D01*
X136215071Y-85200518D02*
X137155071Y-85200518D01*
X133675071Y-85200518D02*
X134615071Y-85200518D01*
X131135071Y-85200518D02*
X132075071Y-85200518D01*
X128225071Y-85200518D02*
X129535071Y-85200518D01*
X128225071Y-85200518D02*
X128225071Y-92020518D01*
X138590071Y-86800518D02*
X138590071Y-90420518D01*
X138520071Y-86800518D02*
X138520071Y-88007185D01*
X138400071Y-86800518D02*
X138400071Y-88007185D01*
X138280071Y-86800518D02*
X138280071Y-88007185D01*
X138160071Y-86800518D02*
X138160071Y-88007185D01*
X138040071Y-86800518D02*
X138040071Y-88007185D01*
X137920071Y-86800518D02*
X137920071Y-88007185D01*
X137800071Y-86800518D02*
X137800071Y-88007185D01*
X137680071Y-86800518D02*
X137680071Y-88007185D01*
X137560071Y-86800518D02*
X137560071Y-88007185D01*
X137440071Y-86800518D02*
X137440071Y-88007185D01*
X137320071Y-86800518D02*
X138590071Y-86800518D01*
X136050071Y-86800518D02*
X136050071Y-90420518D01*
X135980071Y-86800518D02*
X135980071Y-88007185D01*
X135860071Y-86800518D02*
X135860071Y-88007185D01*
X135740071Y-86800518D02*
X135740071Y-88007185D01*
X135620071Y-86800518D02*
X135620071Y-88007185D01*
X135500071Y-86800518D02*
X135500071Y-88007185D01*
X135380071Y-86800518D02*
X135380071Y-88007185D01*
X135260071Y-86800518D02*
X135260071Y-88007185D01*
X135140071Y-86800518D02*
X135140071Y-88007185D01*
X135020071Y-86800518D02*
X135020071Y-88007185D01*
X134900071Y-86800518D02*
X134900071Y-88007185D01*
X134780071Y-86800518D02*
X136050071Y-86800518D01*
X133510071Y-86800518D02*
X133510071Y-90420518D01*
X133440071Y-86800518D02*
X133440071Y-88007185D01*
X133320071Y-86800518D02*
X133320071Y-88007185D01*
X133200071Y-86800518D02*
X133200071Y-88007185D01*
X133080071Y-86800518D02*
X133080071Y-88007185D01*
X132960071Y-86800518D02*
X132960071Y-88007185D01*
X132840071Y-86800518D02*
X132840071Y-88007185D01*
X132720071Y-86800518D02*
X132720071Y-88007185D01*
X132600071Y-86800518D02*
X132600071Y-88007185D01*
X132480071Y-86800518D02*
X132480071Y-88007185D01*
X132360071Y-86800518D02*
X132360071Y-88007185D01*
X132240071Y-86800518D02*
X133510071Y-86800518D01*
X130970071Y-86800518D02*
X130970071Y-90420518D01*
X130900071Y-86800518D02*
X130900071Y-88007185D01*
X130780071Y-86800518D02*
X130780071Y-88007185D01*
X130660071Y-86800518D02*
X130660071Y-88007185D01*
X130540071Y-86800518D02*
X130540071Y-88007185D01*
X130420071Y-86800518D02*
X130420071Y-88007185D01*
X130300071Y-86800518D02*
X130300071Y-88007185D01*
X130180071Y-86800518D02*
X130180071Y-88007185D01*
X130060071Y-86800518D02*
X130060071Y-88007185D01*
X129940071Y-86800518D02*
X129940071Y-88007185D01*
X129820071Y-86800518D02*
X129820071Y-88007185D01*
X129700071Y-86800518D02*
X130970071Y-86800518D01*
X137320071Y-88007185D02*
X138590071Y-88007185D01*
X134780071Y-88007185D02*
X136050071Y-88007185D01*
X132240071Y-88007185D02*
X133510071Y-88007185D01*
X129700071Y-88007185D02*
X130970071Y-88007185D01*
X138590071Y-90420518D02*
X137320071Y-90420518D01*
X137320071Y-90420518D02*
X137320071Y-86800518D01*
X136050071Y-90420518D02*
X134780071Y-90420518D01*
X134780071Y-90420518D02*
X134780071Y-86800518D01*
X133510071Y-90420518D02*
X132240071Y-90420518D01*
X132240071Y-90420518D02*
X132240071Y-86800518D01*
X130970071Y-90420518D02*
X129700071Y-90420518D01*
X129700071Y-90420518D02*
X129700071Y-86800518D01*
X138755071Y-92020518D02*
X140065071Y-92020518D01*
X136215071Y-92020518D02*
X137155071Y-92020518D01*
X133675071Y-92020518D02*
X134615071Y-92020518D01*
X131135071Y-92020518D02*
X132075071Y-92020518D01*
X128225071Y-92020518D02*
X129535071Y-92020518D01*
X183195408Y-103671306D02*
X183195408Y-104321306D01*
X183195408Y-103671306D02*
X183195408Y-103021306D01*
X186315408Y-103671306D02*
X186315408Y-105346306D01*
X186315408Y-103671306D02*
X186315408Y-103021306D01*
X134141429Y-37670333D02*
X133925757Y-37670333D01*
X134141429Y-36950333D02*
X133925757Y-36950333D01*
X154223408Y-103817806D02*
X154873408Y-103817806D01*
X154223408Y-103817806D02*
X153573408Y-103817806D01*
X154223408Y-100697806D02*
X155898408Y-100697806D01*
X154223408Y-100697806D02*
X153573408Y-100697806D01*
X133897907Y-97297851D02*
X133682235Y-97297851D01*
X133897907Y-96577851D02*
X133682235Y-96577851D01*
X185963408Y-59988903D02*
G75*
G03*
X185963408Y-59988903I-6100000J0D01*
G01*
X179996244Y-94842526D02*
X179780572Y-94842526D01*
X179996244Y-94122526D02*
X179780572Y-94122526D01*
X185152158Y-94375306D02*
X185152158Y-93725306D01*
X185152158Y-94375306D02*
X185152158Y-95025306D01*
X182032158Y-94375306D02*
X182032158Y-92700306D01*
X182032158Y-94375306D02*
X182032158Y-95025306D01*
X138930071Y-95560015D02*
X138930071Y-95775687D01*
X138210071Y-95560015D02*
X138210071Y-95775687D01*
X121032593Y-34168164D02*
X121032593Y-34383836D01*
X120312593Y-34168164D02*
X120312593Y-34383836D01*
X155813244Y-55786903D02*
X155597572Y-55786903D01*
X155813244Y-55066903D02*
X155597572Y-55066903D01*
G36*
X168341411Y-37602784D02*
G01*
X168372385Y-37610054D01*
X168582831Y-37661167D01*
X168775435Y-37710862D01*
X168944899Y-37757568D01*
X169085925Y-37799711D01*
X169193218Y-37835718D01*
X169261478Y-37864018D01*
X169285408Y-37883036D01*
X169298218Y-37899017D01*
X169342558Y-37918989D01*
X169357207Y-37923731D01*
X169418785Y-37945938D01*
X169513132Y-37981418D01*
X169630365Y-38026432D01*
X169760606Y-38077238D01*
X170121503Y-38219097D01*
X170106315Y-38335610D01*
X170096227Y-38391760D01*
X170093904Y-38404693D01*
X170042346Y-38571683D01*
X169965993Y-38737144D01*
X169874817Y-38877725D01*
X169866849Y-38887509D01*
X169793842Y-38964717D01*
X169699503Y-39050553D01*
X169602155Y-39128186D01*
X169425108Y-39257844D01*
X169234608Y-39243790D01*
X169222350Y-39242763D01*
X169118807Y-39228842D01*
X168984850Y-39204559D01*
X168836441Y-39173030D01*
X168689543Y-39137373D01*
X168567264Y-39106091D01*
X168449330Y-39078719D01*
X168352900Y-39061715D01*
X168262896Y-39053126D01*
X168164237Y-39050995D01*
X168041843Y-39053367D01*
X168007262Y-39054394D01*
X167885632Y-39059609D01*
X167796916Y-39068225D01*
X167726604Y-39083070D01*
X167660187Y-39106970D01*
X167583157Y-39142755D01*
X167501625Y-39187996D01*
X167414624Y-39249151D01*
X167357466Y-39305130D01*
X167339175Y-39331206D01*
X167324923Y-39362727D01*
X167346371Y-39358390D01*
X167403250Y-39318118D01*
X167408860Y-39314093D01*
X167466325Y-39284137D01*
X167556669Y-39246391D01*
X167666234Y-39205945D01*
X167781366Y-39167889D01*
X167888408Y-39137311D01*
X167897134Y-39135154D01*
X167990850Y-39118161D01*
X168098277Y-39106906D01*
X168206615Y-39101688D01*
X168303065Y-39102803D01*
X168374829Y-39110549D01*
X168409108Y-39125223D01*
X168440357Y-39142713D01*
X168498723Y-39150623D01*
X168505946Y-39150866D01*
X168571773Y-39161184D01*
X168664744Y-39183665D01*
X168767166Y-39214122D01*
X168789968Y-39221479D01*
X168884147Y-39250032D01*
X168959431Y-39270065D01*
X169001231Y-39277623D01*
X169019424Y-39280408D01*
X169079375Y-39300020D01*
X169153572Y-39332229D01*
X169266374Y-39386836D01*
X169253193Y-39532200D01*
X169247505Y-39579087D01*
X169215797Y-39699379D01*
X169164860Y-39783389D01*
X169098142Y-39824617D01*
X169096579Y-39824957D01*
X169044172Y-39823523D01*
X168961703Y-39808847D01*
X168866308Y-39783935D01*
X168842512Y-39777153D01*
X168682293Y-39745310D01*
X168488244Y-39724523D01*
X168273746Y-39714774D01*
X168052180Y-39716046D01*
X167836929Y-39728320D01*
X167641372Y-39751578D01*
X167478893Y-39785803D01*
X167421547Y-39808330D01*
X167326940Y-39867415D01*
X167239154Y-39944387D01*
X167171573Y-40026834D01*
X167137579Y-40102344D01*
X167135040Y-40145478D01*
X167144095Y-40241621D01*
X167166022Y-40362606D01*
X167197784Y-40494749D01*
X167236343Y-40624367D01*
X167278660Y-40737777D01*
X167296430Y-40780702D01*
X167320267Y-40844733D01*
X167329608Y-40879928D01*
X167319411Y-40900820D01*
X167277332Y-40895055D01*
X167201849Y-40853366D01*
X167092096Y-40775371D01*
X167061701Y-40752682D01*
X166990959Y-40702757D01*
X166941833Y-40672374D01*
X166923515Y-40667421D01*
X166923531Y-40667986D01*
X166928327Y-40705608D01*
X166940305Y-40781845D01*
X166957563Y-40885796D01*
X166978198Y-41006561D01*
X167000309Y-41133239D01*
X167021994Y-41254930D01*
X167041351Y-41360733D01*
X167056478Y-41439747D01*
X167065474Y-41481073D01*
X167066926Y-41486438D01*
X167067831Y-41527319D01*
X167035082Y-41538223D01*
X167015579Y-41532772D01*
X166962716Y-41499868D01*
X166898587Y-41447602D01*
X166836413Y-41388097D01*
X166789413Y-41333477D01*
X166770808Y-41295867D01*
X166764863Y-41279832D01*
X166731631Y-41233314D01*
X166678939Y-41175419D01*
X166652146Y-41146347D01*
X166582839Y-41055007D01*
X166527333Y-40961636D01*
X166513796Y-40934647D01*
X166486199Y-40887432D01*
X166471803Y-40880312D01*
X166470282Y-40915610D01*
X166481307Y-40995650D01*
X166504548Y-41122756D01*
X166521011Y-41207728D01*
X166556314Y-41387167D01*
X166584199Y-41523679D01*
X166605809Y-41622314D01*
X166622282Y-41688117D01*
X166634762Y-41726138D01*
X166644388Y-41741423D01*
X166646102Y-41743475D01*
X166658430Y-41781024D01*
X166675784Y-41857094D01*
X166696104Y-41961951D01*
X166717328Y-42085862D01*
X166720047Y-42102869D01*
X166736349Y-42213731D01*
X166748809Y-42320596D01*
X166757894Y-42432596D01*
X166764069Y-42558862D01*
X166767799Y-42708524D01*
X166769552Y-42890714D01*
X166769792Y-43114562D01*
X166769380Y-43281780D01*
X166768302Y-43451863D01*
X166766356Y-43579589D01*
X166763278Y-43669678D01*
X166758804Y-43726847D01*
X166752671Y-43755815D01*
X166744615Y-43761301D01*
X166734372Y-43748023D01*
X166720321Y-43718933D01*
X166687123Y-43646401D01*
X166638386Y-43538012D01*
X166576693Y-43399563D01*
X166504626Y-43236853D01*
X166424765Y-43055677D01*
X166339693Y-42861833D01*
X166265986Y-42693679D01*
X166186487Y-42512679D01*
X166114975Y-42350257D01*
X166053923Y-42212007D01*
X166005801Y-42103524D01*
X165973080Y-42030401D01*
X165958232Y-41998233D01*
X165956118Y-41993984D01*
X165935006Y-41947936D01*
X165899242Y-41867293D01*
X165853257Y-41762106D01*
X165801477Y-41642429D01*
X165665908Y-41327536D01*
X163841610Y-40042845D01*
X163597609Y-39870763D01*
X163338166Y-39687208D01*
X163094092Y-39513921D01*
X162868303Y-39353000D01*
X162663711Y-39206543D01*
X162483233Y-39076650D01*
X162329784Y-38965418D01*
X162206277Y-38874945D01*
X162115627Y-38807331D01*
X162060750Y-38764674D01*
X162044560Y-38749072D01*
X162053934Y-38743966D01*
X162071808Y-38707686D01*
X162072414Y-38704433D01*
X162080991Y-38693423D01*
X169470301Y-38693423D01*
X169487046Y-38680062D01*
X169530163Y-38639147D01*
X169589065Y-38580287D01*
X169642110Y-38530001D01*
X169717248Y-38468555D01*
X169777933Y-38429456D01*
X169855767Y-38391760D01*
X169784834Y-38364791D01*
X169738438Y-38348986D01*
X169686209Y-38343434D01*
X169644487Y-38364987D01*
X169603158Y-38420198D01*
X169552108Y-38515623D01*
X169540612Y-38538581D01*
X169502249Y-38617414D01*
X169477158Y-38672623D01*
X169470301Y-38693423D01*
X162080991Y-38693423D01*
X162098098Y-38671462D01*
X162154064Y-38621669D01*
X162229890Y-38564495D01*
X162402296Y-38433493D01*
X162566129Y-38289967D01*
X162708157Y-38146055D01*
X162816416Y-38013008D01*
X162844441Y-37971338D01*
X162946666Y-37785170D01*
X163038706Y-37564185D01*
X163089803Y-37403010D01*
X166419261Y-37403010D01*
X166487085Y-37479372D01*
X166503724Y-37496924D01*
X166614437Y-37581186D01*
X166757610Y-37651344D01*
X166918109Y-37699663D01*
X166971810Y-37710554D01*
X167037518Y-37722181D01*
X167070509Y-37725623D01*
X167110063Y-37718116D01*
X167200902Y-37691832D01*
X167293695Y-37655839D01*
X167375723Y-37615986D01*
X167434267Y-37578121D01*
X167456608Y-37548092D01*
X167442517Y-37507546D01*
X167385624Y-37459024D01*
X167292875Y-37417376D01*
X167172665Y-37384300D01*
X167033390Y-37361496D01*
X166883447Y-37350664D01*
X166731232Y-37353503D01*
X166585139Y-37371711D01*
X166419261Y-37403010D01*
X163089803Y-37403010D01*
X163115835Y-37320898D01*
X163173330Y-37067823D01*
X163177402Y-37045303D01*
X163207359Y-36868042D01*
X163225707Y-36725978D01*
X163232669Y-36606335D01*
X163228466Y-36496338D01*
X163213320Y-36383212D01*
X163187453Y-36254182D01*
X163167584Y-36167225D01*
X163143873Y-36071699D01*
X163124831Y-36004219D01*
X163113340Y-35975623D01*
X163109615Y-35969756D01*
X163094182Y-35924555D01*
X163072627Y-35844719D01*
X163047245Y-35740741D01*
X163020331Y-35623112D01*
X162994181Y-35502326D01*
X162971089Y-35388874D01*
X162953352Y-35293248D01*
X162943263Y-35225942D01*
X162943118Y-35197446D01*
X162970281Y-35197605D01*
X163017276Y-35222431D01*
X163065722Y-35256475D01*
X163155934Y-35317965D01*
X163253036Y-35382434D01*
X163347251Y-35443570D01*
X163428804Y-35495056D01*
X163487920Y-35530578D01*
X163514822Y-35543822D01*
X163522968Y-35546624D01*
X163562192Y-35573438D01*
X163616493Y-35619454D01*
X163622259Y-35624596D01*
X163689544Y-35676805D01*
X163781096Y-35739399D01*
X163878848Y-35799948D01*
X163897634Y-35811029D01*
X163987641Y-35867007D01*
X164062519Y-35917966D01*
X164107641Y-35954055D01*
X164144105Y-35985003D01*
X164215556Y-36033617D01*
X164295749Y-36079861D01*
X164368175Y-36114431D01*
X164416324Y-36128023D01*
X164437923Y-36117909D01*
X164443013Y-36070873D01*
X164442939Y-36070419D01*
X164435880Y-36026992D01*
X164422189Y-35942548D01*
X164403311Y-35826007D01*
X164380691Y-35686293D01*
X164355774Y-35532325D01*
X164354853Y-35526635D01*
X164329287Y-35374109D01*
X164304786Y-35237239D01*
X164283018Y-35124663D01*
X164265649Y-35045019D01*
X164254347Y-35006945D01*
X164244115Y-34982983D01*
X164232366Y-34926752D01*
X164234076Y-34878736D01*
X164249858Y-34859143D01*
X164257578Y-34859765D01*
X164347029Y-34880179D01*
X164472288Y-34925821D01*
X164627397Y-34994292D01*
X164806398Y-35083194D01*
X164874249Y-35118909D01*
X165110998Y-35252244D01*
X165314251Y-35383867D01*
X165496354Y-35523010D01*
X165669657Y-35678903D01*
X165846506Y-35860778D01*
X165934522Y-35954540D01*
X166033488Y-36052931D01*
X166115130Y-36122074D01*
X166187817Y-36167958D01*
X166259919Y-36196576D01*
X166339802Y-36213918D01*
X166384277Y-36222371D01*
X166474983Y-36243660D01*
X166583324Y-36272166D01*
X166698152Y-36304607D01*
X166808321Y-36337702D01*
X166902684Y-36368170D01*
X166970096Y-36392728D01*
X166999408Y-36408097D01*
X167015598Y-36419896D01*
X167070052Y-36450756D01*
X167152709Y-36493860D01*
X167253408Y-36543780D01*
X167323853Y-36578352D01*
X167427481Y-36630785D01*
X167512203Y-36675509D01*
X167564516Y-36705506D01*
X167592027Y-36727065D01*
X167657799Y-36796709D01*
X167730751Y-36890598D01*
X167800940Y-36994513D01*
X167858418Y-37094232D01*
X167893241Y-37175536D01*
X167899433Y-37194885D01*
X167922255Y-37249200D01*
X167940846Y-37271023D01*
X167948722Y-37279236D01*
X167963762Y-37324582D01*
X167977077Y-37396342D01*
X167994313Y-37521662D01*
X168107399Y-37548092D01*
X168341411Y-37602784D01*
G37*
G36*
X161032566Y-36866902D02*
G01*
X161144708Y-36889913D01*
X161168020Y-36894805D01*
X161313851Y-36924763D01*
X161455454Y-36952880D01*
X161577687Y-36976192D01*
X161665408Y-36991740D01*
X161747588Y-37005424D01*
X161838256Y-37021124D01*
X161900358Y-37032574D01*
X161970208Y-37046459D01*
X161970876Y-37952491D01*
X161971543Y-38858523D01*
X163811558Y-40138686D01*
X165397366Y-41241989D01*
X165439816Y-41271523D01*
X165476324Y-41296923D01*
X165651572Y-41418849D01*
X166249290Y-42819273D01*
X166354981Y-43067187D01*
X166456168Y-43305105D01*
X166549478Y-43525070D01*
X166633180Y-43722975D01*
X166705544Y-43894713D01*
X166764839Y-44036178D01*
X166809335Y-44143262D01*
X166837302Y-44211858D01*
X166847008Y-44237859D01*
X166838333Y-44254831D01*
X166807909Y-44237678D01*
X166751400Y-44182333D01*
X166736698Y-44167641D01*
X166683912Y-44117301D01*
X166600298Y-44038949D01*
X166490121Y-43936535D01*
X166357647Y-43814011D01*
X166207143Y-43675327D01*
X166042875Y-43524434D01*
X165869108Y-43365282D01*
X165767806Y-43272633D01*
X165599114Y-43118347D01*
X165442361Y-42974977D01*
X165301807Y-42846417D01*
X165181708Y-42736563D01*
X165086323Y-42649308D01*
X165019909Y-42588547D01*
X164986725Y-42558174D01*
X164917141Y-42494428D01*
X164808925Y-42571624D01*
X164754642Y-42609297D01*
X164659981Y-42667299D01*
X164563599Y-42712975D01*
X164449405Y-42753432D01*
X164301307Y-42795775D01*
X164233989Y-42812807D01*
X164036743Y-42848091D01*
X163837108Y-42858817D01*
X163820623Y-42858757D01*
X163675331Y-42852914D01*
X163558801Y-42838815D01*
X163474695Y-42818287D01*
X163426673Y-42793155D01*
X163418396Y-42765247D01*
X163453526Y-42736391D01*
X163535722Y-42708413D01*
X163548333Y-42705149D01*
X163686941Y-42657229D01*
X163835225Y-42582768D01*
X164005038Y-42475892D01*
X164008512Y-42473530D01*
X164100809Y-42401626D01*
X164169625Y-42322165D01*
X164233099Y-42214344D01*
X164238924Y-42203006D01*
X164276927Y-42122803D01*
X164300108Y-42062494D01*
X164303642Y-42034389D01*
X164277579Y-42030520D01*
X164225766Y-42043311D01*
X164170594Y-42060761D01*
X164062514Y-42087979D01*
X163921992Y-42118848D01*
X163759090Y-42151511D01*
X163583866Y-42184110D01*
X163406382Y-42214790D01*
X163236697Y-42241693D01*
X163084872Y-42262963D01*
X162960967Y-42276743D01*
X162934329Y-42278964D01*
X162771224Y-42288399D01*
X162582638Y-42293741D01*
X162379460Y-42295185D01*
X162172575Y-42292929D01*
X161972871Y-42287169D01*
X161791234Y-42278102D01*
X161638551Y-42265923D01*
X161525708Y-42250831D01*
X161521106Y-42249979D01*
X161361941Y-42218570D01*
X161226731Y-42188100D01*
X161122035Y-42160305D01*
X161054408Y-42136922D01*
X161030408Y-42119686D01*
X161049539Y-42108906D01*
X161106911Y-42100213D01*
X161189158Y-42096792D01*
X161280699Y-42091259D01*
X161422878Y-42071710D01*
X161582782Y-42041439D01*
X161743863Y-42004001D01*
X161889571Y-41962951D01*
X162003360Y-41921845D01*
X162174369Y-41838473D01*
X162344011Y-41738114D01*
X162493717Y-41631936D01*
X162608909Y-41529387D01*
X162612693Y-41525411D01*
X162673049Y-41459556D01*
X162715908Y-41408327D01*
X162732208Y-41382522D01*
X162716495Y-41378254D01*
X162663545Y-41383558D01*
X162586158Y-41398832D01*
X162416514Y-41431205D01*
X162152420Y-41462407D01*
X161840056Y-41481161D01*
X161479989Y-41487423D01*
X161443772Y-41487365D01*
X160994933Y-41475887D01*
X160580793Y-41443655D01*
X160190002Y-41389478D01*
X159811208Y-41312162D01*
X159749175Y-41296923D01*
X165145208Y-41296923D01*
X165157908Y-41309623D01*
X165170608Y-41296923D01*
X165157908Y-41284223D01*
X165145208Y-41296923D01*
X159749175Y-41296923D01*
X159649239Y-41272373D01*
X159646003Y-41271523D01*
X165094408Y-41271523D01*
X165107108Y-41284223D01*
X165119808Y-41271523D01*
X165107108Y-41258823D01*
X165094408Y-41271523D01*
X159646003Y-41271523D01*
X159469395Y-41225134D01*
X159298930Y-41177379D01*
X159144510Y-41131185D01*
X159012802Y-41088628D01*
X158910472Y-41051786D01*
X158844185Y-41022734D01*
X158820608Y-41003550D01*
X158836951Y-40992669D01*
X158891730Y-40983105D01*
X158971719Y-40979423D01*
X159033575Y-40977193D01*
X159181592Y-40961473D01*
X159357013Y-40932913D01*
X159546349Y-40894135D01*
X159736110Y-40847764D01*
X159912808Y-40796422D01*
X160025338Y-40758254D01*
X160345534Y-40621740D01*
X160653822Y-40445161D01*
X160813923Y-40341683D01*
X160585616Y-40357756D01*
X160524302Y-40360841D01*
X160364361Y-40362084D01*
X160170536Y-40356811D01*
X159953898Y-40345654D01*
X159725517Y-40329243D01*
X159496464Y-40308209D01*
X159277808Y-40283185D01*
X159130231Y-40260177D01*
X158933546Y-40221843D01*
X158711913Y-40172640D01*
X158477402Y-40115520D01*
X158242084Y-40053431D01*
X158018030Y-39989326D01*
X157817308Y-39926155D01*
X157694707Y-39881811D01*
X157549061Y-39823127D01*
X157390678Y-39754627D01*
X157226169Y-39679607D01*
X157062144Y-39601362D01*
X156905216Y-39523189D01*
X156761995Y-39448382D01*
X156639093Y-39380238D01*
X156543120Y-39322052D01*
X156480688Y-39277120D01*
X156458408Y-39248738D01*
X156470837Y-39222923D01*
X156516922Y-39212348D01*
X156601205Y-39221194D01*
X156728052Y-39249472D01*
X156997864Y-39305268D01*
X157316666Y-39341888D01*
X157669484Y-39353823D01*
X157773918Y-39351320D01*
X158008500Y-39331740D01*
X158257629Y-39295288D01*
X158505022Y-39245046D01*
X158734390Y-39184094D01*
X158929449Y-39115512D01*
X159128165Y-39033283D01*
X158879137Y-39002005D01*
X158845298Y-38997707D01*
X158695294Y-38977869D01*
X158537690Y-38956049D01*
X158401508Y-38936241D01*
X158399546Y-38935944D01*
X158269904Y-38912389D01*
X158105682Y-38876741D01*
X157917413Y-38831827D01*
X157715633Y-38780474D01*
X157510877Y-38725508D01*
X157313680Y-38669756D01*
X157134576Y-38616045D01*
X156984101Y-38567202D01*
X156872790Y-38526053D01*
X156702004Y-38451889D01*
X156469228Y-38341712D01*
X156226506Y-38218409D01*
X155988265Y-38089587D01*
X155768932Y-37962855D01*
X155582933Y-37845821D01*
X155519181Y-37801904D01*
X155396792Y-37710982D01*
X155270282Y-37609807D01*
X155144515Y-37503050D01*
X155024351Y-37395379D01*
X154914654Y-37291463D01*
X154820286Y-37195971D01*
X154746109Y-37113572D01*
X154696986Y-37048935D01*
X154677779Y-37006729D01*
X154693350Y-36991623D01*
X154702610Y-36994900D01*
X154748676Y-37016758D01*
X154823205Y-37054621D01*
X154915600Y-37103168D01*
X154950380Y-37121357D01*
X155063096Y-37176500D01*
X155170004Y-37223933D01*
X155251908Y-37254990D01*
X155277397Y-37262785D01*
X155425471Y-37300653D01*
X155606287Y-37337600D01*
X155809557Y-37372349D01*
X156024994Y-37403619D01*
X156242310Y-37430131D01*
X156451218Y-37450606D01*
X156641428Y-37463764D01*
X156802654Y-37468325D01*
X156924608Y-37463011D01*
X157098708Y-37444212D01*
X156823008Y-37311155D01*
X156805582Y-37302717D01*
X156630859Y-37215624D01*
X156438658Y-37116089D01*
X156241653Y-37010960D01*
X156052517Y-36907084D01*
X155979715Y-36865728D01*
X158445502Y-36865728D01*
X158452965Y-36869405D01*
X158501158Y-36888392D01*
X158590151Y-36922149D01*
X158715724Y-36969112D01*
X158873653Y-37027716D01*
X159059719Y-37096397D01*
X159269698Y-37173589D01*
X159499370Y-37257728D01*
X159744513Y-37347248D01*
X159900452Y-37404141D01*
X160137798Y-37490875D01*
X160357714Y-37571409D01*
X160555871Y-37644148D01*
X160727938Y-37707498D01*
X160869587Y-37759862D01*
X160976486Y-37799647D01*
X161044305Y-37825255D01*
X161068715Y-37835093D01*
X161069411Y-37838962D01*
X161072204Y-37881822D01*
X161076051Y-37966933D01*
X161080719Y-38088008D01*
X161085974Y-38238758D01*
X161091583Y-38412898D01*
X161097311Y-38604137D01*
X161119308Y-39365752D01*
X162719508Y-40132554D01*
X162741369Y-40143029D01*
X163121384Y-40325111D01*
X163458256Y-40486477D01*
X163754505Y-40628319D01*
X164012654Y-40751831D01*
X164235223Y-40858206D01*
X164424734Y-40948638D01*
X164583708Y-41024320D01*
X164714666Y-41086446D01*
X164820129Y-41136209D01*
X164902619Y-41174802D01*
X164964657Y-41203418D01*
X165008764Y-41223252D01*
X165037461Y-41235496D01*
X165053270Y-41241344D01*
X165058712Y-41241989D01*
X165056308Y-41238624D01*
X165053338Y-41236494D01*
X165016027Y-41213078D01*
X164939366Y-41166324D01*
X164826715Y-41098247D01*
X164681436Y-41010861D01*
X164506893Y-40906182D01*
X164306448Y-40786225D01*
X164083462Y-40653003D01*
X163841298Y-40508533D01*
X163583319Y-40354828D01*
X163312886Y-40193904D01*
X161594863Y-39172199D01*
X161579047Y-38735961D01*
X161575565Y-38639891D01*
X161565876Y-38373399D01*
X161557667Y-38152066D01*
X161550637Y-37971648D01*
X161544489Y-37827905D01*
X161538921Y-37716593D01*
X161533637Y-37633471D01*
X161528335Y-37574296D01*
X161522718Y-37534827D01*
X161516485Y-37510821D01*
X161509337Y-37498037D01*
X161500976Y-37492231D01*
X161491102Y-37489163D01*
X161466311Y-37483391D01*
X161395803Y-37468201D01*
X161285869Y-37445034D01*
X161141756Y-37414964D01*
X160968710Y-37379065D01*
X160771974Y-37338410D01*
X160556796Y-37294074D01*
X160328421Y-37247130D01*
X160092094Y-37198652D01*
X159853060Y-37149714D01*
X159616566Y-37101389D01*
X159387857Y-37054751D01*
X159172179Y-37010875D01*
X158974777Y-36970833D01*
X158800896Y-36935700D01*
X158655783Y-36906549D01*
X158544682Y-36884454D01*
X158472840Y-36870489D01*
X158445502Y-36865728D01*
X155979715Y-36865728D01*
X155955413Y-36851923D01*
X158388808Y-36851923D01*
X158401508Y-36864623D01*
X158414208Y-36851923D01*
X158401508Y-36839223D01*
X158388808Y-36851923D01*
X155955413Y-36851923D01*
X155883920Y-36811311D01*
X155748536Y-36730489D01*
X155585597Y-36623015D01*
X155401070Y-36489947D01*
X155207297Y-36340799D01*
X155012951Y-36182812D01*
X154826705Y-36023230D01*
X154657233Y-35869293D01*
X154513210Y-35728243D01*
X154403309Y-35607323D01*
X154376022Y-35574455D01*
X154282726Y-35462346D01*
X154180592Y-35339915D01*
X154087275Y-35228336D01*
X154066626Y-35203256D01*
X153976830Y-35085371D01*
X153885301Y-34952846D01*
X153795916Y-34812698D01*
X153712554Y-34671946D01*
X153639090Y-34537609D01*
X153579404Y-34416706D01*
X153537372Y-34316254D01*
X153516872Y-34243273D01*
X153521783Y-34204782D01*
X153522282Y-34204419D01*
X153547790Y-34216519D01*
X153600975Y-34258177D01*
X153674356Y-34323117D01*
X153760454Y-34405061D01*
X153827598Y-34468422D01*
X153962342Y-34586133D01*
X154105618Y-34702190D01*
X154235908Y-34798778D01*
X154272669Y-34823979D01*
X154438195Y-34931618D01*
X154618732Y-35041236D01*
X154803006Y-35146537D01*
X154979743Y-35241227D01*
X155137669Y-35319012D01*
X155265508Y-35373597D01*
X155349774Y-35406874D01*
X155465040Y-35456304D01*
X155561293Y-35501610D01*
X155568187Y-35505001D01*
X155638823Y-35535306D01*
X155746597Y-35577046D01*
X155881773Y-35626638D01*
X156034616Y-35680498D01*
X156195393Y-35735043D01*
X156358562Y-35787977D01*
X156720525Y-35897978D01*
X157121209Y-36011131D01*
X157552786Y-36125505D01*
X158007428Y-36239173D01*
X158477308Y-36350204D01*
X158954600Y-36456669D01*
X159431476Y-36556639D01*
X159900108Y-36648185D01*
X160038376Y-36674229D01*
X160264939Y-36717272D01*
X160486661Y-36759813D01*
X160694521Y-36800100D01*
X160879496Y-36836380D01*
X160957445Y-36851923D01*
X161032566Y-36866902D01*
G37*
X132515071Y-110831354D02*
X132515071Y-110615682D01*
X133235071Y-110831354D02*
X133235071Y-110615682D01*
X182991244Y-91155806D02*
X182775572Y-91155806D01*
X182991244Y-90435806D02*
X182775572Y-90435806D01*
X135073593Y-35782497D02*
X135073593Y-35998169D01*
X134353593Y-35782497D02*
X134353593Y-35998169D01*
X137680071Y-95560015D02*
X137680071Y-95775687D01*
X136960071Y-95560015D02*
X136960071Y-95775687D01*
X137923593Y-35932497D02*
X137923593Y-36148169D01*
X137203593Y-35932497D02*
X137203593Y-36148169D01*
X119296593Y-34383836D02*
X119296593Y-34168164D01*
X120016593Y-34383836D02*
X120016593Y-34168164D01*
X158441244Y-26548903D02*
X158225572Y-26548903D01*
X158441244Y-25828903D02*
X158225572Y-25828903D01*
X176481572Y-90435806D02*
X176697244Y-90435806D01*
X176481572Y-91155806D02*
X176697244Y-91155806D01*
X128155071Y-93343682D02*
X128155071Y-93559354D01*
X127435071Y-93343682D02*
X127435071Y-93559354D01*
X108090071Y-80597851D02*
X118370071Y-80597851D01*
X108090071Y-101157851D02*
X108090071Y-80597851D01*
X110580071Y-80657851D02*
X115880071Y-80657851D01*
X110580071Y-101097851D02*
X110580071Y-80657851D01*
X112230071Y-101097851D02*
X110580071Y-101097851D01*
X115880071Y-80657851D02*
X115880071Y-101097851D01*
X115880071Y-101097851D02*
X114230071Y-101097851D01*
X118370071Y-80597851D02*
X118370071Y-101157851D01*
X118370071Y-101157851D02*
X108090071Y-101157851D01*
X114230071Y-101097851D02*
G75*
G03*
X112230071Y-101097851I-1000000J0D01*
G01*
X185963408Y-110597806D02*
G75*
G03*
X185963408Y-110597806I-6100000J0D01*
G01*
X178953408Y-40559067D02*
X178953408Y-40774739D01*
X178233408Y-40559067D02*
X178233408Y-40774739D01*
X127717071Y-84873518D02*
X127717071Y-89273518D01*
X127597071Y-84873518D02*
X127717071Y-84873518D01*
X125447071Y-84873518D02*
X126587071Y-84873518D01*
X124317071Y-84873518D02*
X124437071Y-84873518D01*
X127717071Y-89273518D02*
X127597071Y-89273518D01*
X126587071Y-89273518D02*
X125447071Y-89273518D01*
X124437071Y-89273518D02*
X124317071Y-89273518D01*
X124317071Y-89273518D02*
X124317071Y-84873518D01*
X155813244Y-106395806D02*
X155597572Y-106395806D01*
X155813244Y-105675806D02*
X155597572Y-105675806D01*
X133230071Y-95310015D02*
X133230071Y-95525687D01*
X132510071Y-95310015D02*
X132510071Y-95525687D01*
X139091429Y-37970333D02*
X138875757Y-37970333D01*
X139091429Y-37250333D02*
X138875757Y-37250333D01*
X183195408Y-53062403D02*
X183195408Y-53712403D01*
X183195408Y-53062403D02*
X183195408Y-52412403D01*
X186315408Y-53062403D02*
X186315408Y-54737403D01*
X186315408Y-53062403D02*
X186315408Y-52412403D01*
X182991244Y-40546903D02*
X182775572Y-40546903D01*
X182991244Y-39826903D02*
X182775572Y-39826903D01*
X138847907Y-97597851D02*
X138632235Y-97597851D01*
X138847907Y-96877851D02*
X138632235Y-96877851D01*
X173703408Y-80808806D02*
X175086408Y-80808806D01*
X173703408Y-80808806D02*
X173703408Y-82191806D01*
X185783408Y-81048806D02*
X185783408Y-87868806D01*
X184473408Y-81048806D02*
X185783408Y-81048806D01*
X181933408Y-81048806D02*
X182873408Y-81048806D01*
X179393408Y-81048806D02*
X180333408Y-81048806D01*
X176853408Y-81048806D02*
X177793408Y-81048806D01*
X173943408Y-81048806D02*
X175253408Y-81048806D01*
X173943408Y-81048806D02*
X173943408Y-87868806D01*
X184308408Y-82648806D02*
X184308408Y-86268806D01*
X184238408Y-82648806D02*
X184238408Y-83855473D01*
X184118408Y-82648806D02*
X184118408Y-83855473D01*
X183998408Y-82648806D02*
X183998408Y-83855473D01*
X183878408Y-82648806D02*
X183878408Y-83855473D01*
X183758408Y-82648806D02*
X183758408Y-83855473D01*
X183638408Y-82648806D02*
X183638408Y-83855473D01*
X183518408Y-82648806D02*
X183518408Y-83855473D01*
X183398408Y-82648806D02*
X183398408Y-83855473D01*
X183278408Y-82648806D02*
X183278408Y-83855473D01*
X183158408Y-82648806D02*
X183158408Y-83855473D01*
X183038408Y-82648806D02*
X184308408Y-82648806D01*
X181768408Y-82648806D02*
X181768408Y-86268806D01*
X181698408Y-82648806D02*
X181698408Y-83855473D01*
X181578408Y-82648806D02*
X181578408Y-83855473D01*
X181458408Y-82648806D02*
X181458408Y-83855473D01*
X181338408Y-82648806D02*
X181338408Y-83855473D01*
X181218408Y-82648806D02*
X181218408Y-83855473D01*
X181098408Y-82648806D02*
X181098408Y-83855473D01*
X180978408Y-82648806D02*
X180978408Y-83855473D01*
X180858408Y-82648806D02*
X180858408Y-83855473D01*
X180738408Y-82648806D02*
X180738408Y-83855473D01*
X180618408Y-82648806D02*
X180618408Y-83855473D01*
X180498408Y-82648806D02*
X181768408Y-82648806D01*
X179228408Y-82648806D02*
X179228408Y-86268806D01*
X179158408Y-82648806D02*
X179158408Y-83855473D01*
X179038408Y-82648806D02*
X179038408Y-83855473D01*
X178918408Y-82648806D02*
X178918408Y-83855473D01*
X178798408Y-82648806D02*
X178798408Y-83855473D01*
X178678408Y-82648806D02*
X178678408Y-83855473D01*
X178558408Y-82648806D02*
X178558408Y-83855473D01*
X178438408Y-82648806D02*
X178438408Y-83855473D01*
X178318408Y-82648806D02*
X178318408Y-83855473D01*
X178198408Y-82648806D02*
X178198408Y-83855473D01*
X178078408Y-82648806D02*
X178078408Y-83855473D01*
X177958408Y-82648806D02*
X179228408Y-82648806D01*
X176688408Y-82648806D02*
X176688408Y-86268806D01*
X176618408Y-82648806D02*
X176618408Y-83855473D01*
X176498408Y-82648806D02*
X176498408Y-83855473D01*
X176378408Y-82648806D02*
X176378408Y-83855473D01*
X176258408Y-82648806D02*
X176258408Y-83855473D01*
X176138408Y-82648806D02*
X176138408Y-83855473D01*
X176018408Y-82648806D02*
X176018408Y-83855473D01*
X175898408Y-82648806D02*
X175898408Y-83855473D01*
X175778408Y-82648806D02*
X175778408Y-83855473D01*
X175658408Y-82648806D02*
X175658408Y-83855473D01*
X175538408Y-82648806D02*
X175538408Y-83855473D01*
X175418408Y-82648806D02*
X176688408Y-82648806D01*
X183038408Y-83855473D02*
X184308408Y-83855473D01*
X180498408Y-83855473D02*
X181768408Y-83855473D01*
X177958408Y-83855473D02*
X179228408Y-83855473D01*
X175418408Y-83855473D02*
X176688408Y-83855473D01*
X184308408Y-86268806D02*
X183038408Y-86268806D01*
X183038408Y-86268806D02*
X183038408Y-82648806D01*
X181768408Y-86268806D02*
X180498408Y-86268806D01*
X180498408Y-86268806D02*
X180498408Y-82648806D01*
X179228408Y-86268806D02*
X177958408Y-86268806D01*
X177958408Y-86268806D02*
X177958408Y-82648806D01*
X176688408Y-86268806D02*
X175418408Y-86268806D01*
X175418408Y-86268806D02*
X175418408Y-82648806D01*
X184473408Y-87868806D02*
X185783408Y-87868806D01*
X181933408Y-87868806D02*
X182873408Y-87868806D01*
X179393408Y-87868806D02*
X180333408Y-87868806D01*
X176853408Y-87868806D02*
X177793408Y-87868806D01*
X173943408Y-87868806D02*
X175253408Y-87868806D01*
X139173593Y-35932497D02*
X139173593Y-36148169D01*
X138453593Y-35932497D02*
X138453593Y-36148169D01*
X108333593Y-20970333D02*
X118613593Y-20970333D01*
X108333593Y-41530333D02*
X108333593Y-20970333D01*
X110823593Y-21030333D02*
X116123593Y-21030333D01*
X110823593Y-41470333D02*
X110823593Y-21030333D01*
X112473593Y-41470333D02*
X110823593Y-41470333D01*
X116123593Y-21030333D02*
X116123593Y-41470333D01*
X116123593Y-41470333D02*
X114473593Y-41470333D01*
X118613593Y-20970333D02*
X118613593Y-41530333D01*
X118613593Y-41530333D02*
X108333593Y-41530333D01*
X114473593Y-41470333D02*
G75*
G03*
X112473593Y-41470333I-1000000J0D01*
G01*
%LPC*%
D13*
X158129926Y-62950000D03*
X159849926Y-62980000D03*
X158166593Y-113270000D03*
X159886593Y-113300000D03*
D14*
X181696593Y-74450000D03*
X181726593Y-72730000D03*
D15*
X181086593Y-22980000D03*
X182806593Y-23010000D03*
X124696593Y-22630000D03*
X122976593Y-22600000D03*
X125076593Y-81440000D03*
X122866593Y-81420000D03*
D16*
X150683408Y-40768903D03*
D17*
X150683408Y-33148903D03*
D18*
X185992158Y-74037806D03*
D19*
X144866593Y-43304452D03*
D20*
X188575908Y-50378903D03*
X188575908Y-51648903D03*
X188575908Y-100987806D03*
X188575908Y-102257806D03*
D21*
X176037158Y-76262806D03*
X170257158Y-76262806D03*
D22*
X177467158Y-76762806D03*
D23*
X177467158Y-72582806D03*
D22*
X168827158Y-76762806D03*
D23*
X168827158Y-72582806D03*
D24*
X119921071Y-115521518D03*
D14*
X150468408Y-103527806D03*
X150468408Y-102257806D03*
D19*
X144866593Y-42304452D03*
D18*
X152367158Y-23228903D03*
D14*
X150468408Y-95112806D03*
X150468408Y-93842806D03*
D19*
X144866593Y-46304451D03*
D21*
X139968593Y-47098000D03*
X139968593Y-41318000D03*
D25*
X139468593Y-48528000D03*
D26*
X143648593Y-48528000D03*
D25*
X139468593Y-39888000D03*
D26*
X143648593Y-39888000D03*
D19*
X148446593Y-45320000D03*
D16*
X187392158Y-91507806D03*
D17*
X187392158Y-83887806D03*
D24*
X141754593Y-22620000D03*
D18*
X154463408Y-115687806D03*
D21*
X176037158Y-25653903D03*
X170257158Y-25653903D03*
D22*
X177467158Y-26153903D03*
D23*
X177467158Y-21973903D03*
D22*
X168827158Y-26153903D03*
D23*
X168827158Y-21973903D03*
D27*
X187737408Y-53902903D03*
D17*
X187737408Y-61522903D03*
D16*
X187392158Y-40898903D03*
D17*
X187392158Y-33278903D03*
D28*
X166623408Y-29323623D03*
D29*
X166623408Y-31863623D03*
X164083408Y-29323623D03*
X164083408Y-31863623D03*
X161543408Y-29323623D03*
X161543408Y-31863623D03*
X159003408Y-29323623D03*
X159003408Y-31863623D03*
D24*
X141511071Y-82247518D03*
D14*
X150468408Y-44503903D03*
X150468408Y-43233903D03*
D18*
X187229408Y-116195806D03*
X185992158Y-23428903D03*
D19*
X148446593Y-46320000D03*
D16*
X150683408Y-91377806D03*
D17*
X150683408Y-83757806D03*
D27*
X150743408Y-105987806D03*
D17*
X150743408Y-113607806D03*
D24*
X120850151Y-22771558D03*
D21*
X139725071Y-106725518D03*
X139725071Y-100945518D03*
D25*
X139225071Y-108155518D03*
D26*
X143405071Y-108155518D03*
D25*
X139225071Y-99515518D03*
D26*
X143405071Y-99515518D03*
D27*
X187737408Y-104511806D03*
D17*
X187737408Y-112131806D03*
D27*
X150743408Y-55378903D03*
D17*
X150743408Y-62998903D03*
D24*
X120606629Y-82399076D03*
D19*
X148446593Y-43320001D03*
D18*
X154463408Y-65078903D03*
D20*
X188350908Y-93812806D03*
X188350908Y-95082806D03*
D14*
X150468408Y-52918903D03*
X150468408Y-51648903D03*
D28*
X166623408Y-79932526D03*
D29*
X166623408Y-82472526D03*
X164083408Y-79932526D03*
X164083408Y-82472526D03*
X161543408Y-79932526D03*
X161543408Y-82472526D03*
X159003408Y-79932526D03*
X159003408Y-82472526D03*
D19*
X144866593Y-45304451D03*
D18*
X152367158Y-73837806D03*
D24*
X140241071Y-115775518D03*
D19*
X148446593Y-44320000D03*
D20*
X188350908Y-43203903D03*
X188350908Y-44473903D03*
D24*
X120164593Y-55894000D03*
D19*
X144866593Y-44304451D03*
X148446593Y-42320001D03*
D24*
X140484593Y-56148000D03*
D18*
X187229408Y-65586903D03*
D30*
X180368408Y-43873623D03*
X179408408Y-43873623D03*
D24*
X158823408Y-108662526D03*
X159908408Y-102082526D03*
D31*
X182642158Y-42828903D03*
X184542158Y-42828903D03*
X183592158Y-44703903D03*
D30*
X181297158Y-92787806D03*
X180337158Y-92787806D03*
D32*
X115275151Y-56296558D03*
D33*
X111979229Y-108799076D03*
D34*
X176109408Y-40186903D03*
X177069408Y-40186903D03*
D30*
X158813408Y-76797806D03*
X157853408Y-76797806D03*
D35*
X128038593Y-33344000D03*
X128038593Y-34304000D03*
D36*
X114867619Y-103049076D03*
D33*
X122484593Y-71140000D03*
X115812593Y-67620000D03*
D37*
X126387593Y-38920000D03*
X125117593Y-38920000D03*
X123847593Y-38920000D03*
X122577593Y-38920000D03*
X122577593Y-31720000D03*
X123847593Y-31720000D03*
X125117593Y-31720000D03*
X126387593Y-31720000D03*
D32*
X113631629Y-114149076D03*
D36*
X109722349Y-43421558D03*
D34*
X187991408Y-56696903D03*
X188951408Y-56696903D03*
D33*
X124152593Y-67620000D03*
D24*
X185208408Y-47273623D03*
X101076593Y-114980000D03*
D33*
X114921149Y-49171558D03*
D24*
X162898408Y-106482526D03*
D35*
X181133408Y-90795806D03*
X181133408Y-91755806D03*
D33*
X130824593Y-74660000D03*
D32*
X111100151Y-56321558D03*
X116431629Y-115949076D03*
D38*
X119413071Y-94383518D03*
X119413071Y-93423518D03*
D33*
X109280831Y-108799076D03*
X110630030Y-108799076D03*
D39*
X118325151Y-57196558D03*
D33*
X114130593Y-64100000D03*
D40*
X155160908Y-50698903D03*
X155160908Y-52598903D03*
X153285908Y-51648903D03*
D33*
X132492593Y-71140000D03*
X134160593Y-71140000D03*
D32*
X112487651Y-56321558D03*
D35*
X120429071Y-93423518D03*
X120429071Y-94383518D03*
D24*
X162808408Y-57933623D03*
D30*
X181297158Y-42178903D03*
X180337158Y-42178903D03*
D33*
X134160593Y-74660000D03*
D41*
X166228408Y-73292806D03*
X162078408Y-73292806D03*
X166228408Y-75442806D03*
X162078408Y-75442806D03*
D33*
X109331629Y-105899076D03*
X130824593Y-71140000D03*
D35*
X134470071Y-95037851D03*
X134470071Y-95997851D03*
D33*
X117619547Y-49171558D03*
D42*
X113644129Y-112174076D03*
D33*
X130824593Y-67620000D03*
D32*
X112244129Y-115949076D03*
D33*
X122470593Y-64100000D03*
X108175151Y-49171558D03*
X110808593Y-71140000D03*
X135828593Y-71140000D03*
D36*
X115111141Y-43421558D03*
D33*
X116321146Y-46271558D03*
X115798593Y-64100000D03*
D24*
X161258408Y-51473623D03*
X164308408Y-55873623D03*
X161258408Y-102082526D03*
X101526593Y-24000000D03*
D40*
X155318408Y-43918903D03*
X155318408Y-45818903D03*
X153443408Y-44868903D03*
D35*
X178593408Y-90795806D03*
X178593408Y-91755806D03*
D33*
X129156593Y-74660000D03*
D36*
X117808340Y-43421558D03*
D33*
X127488593Y-71140000D03*
X140832593Y-71140000D03*
X135814593Y-64100000D03*
D32*
X116381629Y-114149076D03*
D41*
X166228408Y-22683903D03*
X162078408Y-22683903D03*
X166228408Y-24833903D03*
X162078408Y-24833903D03*
D24*
X157398408Y-108632526D03*
D33*
X132478593Y-64100000D03*
D43*
X130578593Y-24678000D03*
X133118593Y-24678000D03*
X135658593Y-24678000D03*
X138198593Y-24678000D03*
X138198593Y-33288000D03*
X135658593Y-33288000D03*
X133118593Y-33288000D03*
X130578593Y-33288000D03*
D38*
X176815408Y-94097806D03*
X176815408Y-93137806D03*
D42*
X113887651Y-52546558D03*
D33*
X125820593Y-74660000D03*
D32*
X112244129Y-114149076D03*
D38*
X154971408Y-91755806D03*
X154971408Y-90795806D03*
X133118593Y-51576000D03*
X133118593Y-50616000D03*
D33*
X117480593Y-67620000D03*
X135828593Y-74660000D03*
D32*
X115031629Y-114149076D03*
D24*
X157433408Y-55938903D03*
X157258408Y-103582526D03*
D41*
X160153408Y-73297806D03*
X156003408Y-73297806D03*
X160153408Y-75447806D03*
X156003408Y-75447806D03*
D33*
X107931629Y-108799076D03*
D32*
X113875151Y-56321558D03*
D33*
X109140593Y-74660000D03*
D32*
X139512651Y-52871558D03*
D33*
X140832593Y-74660000D03*
X142500593Y-67620000D03*
D36*
X111069547Y-43421558D03*
D39*
X118081629Y-114049076D03*
D32*
X116625151Y-54521558D03*
D36*
X110826025Y-103049076D03*
D24*
X157258408Y-54423623D03*
D36*
X113763943Y-43421558D03*
D42*
X109481629Y-112174076D03*
D43*
X176053408Y-29544903D03*
X178593408Y-29544903D03*
X181133408Y-29544903D03*
X183673408Y-29544903D03*
X183673408Y-38154903D03*
X181133408Y-38154903D03*
X178593408Y-38154903D03*
X176053408Y-38154903D03*
D33*
X109126593Y-64100000D03*
X122484593Y-67620000D03*
D24*
X160408408Y-58063623D03*
D32*
X110856629Y-115949076D03*
D24*
X157258408Y-52973623D03*
D33*
X125806593Y-64100000D03*
X137496593Y-74660000D03*
D32*
X109469129Y-114149076D03*
D24*
X195906593Y-24000000D03*
D33*
X137496593Y-71140000D03*
D24*
X157258408Y-51523623D03*
X157398408Y-58023623D03*
D33*
X124138593Y-64100000D03*
D32*
X111100151Y-54521558D03*
X108325151Y-54521558D03*
D34*
X187991408Y-107305806D03*
X188951408Y-107305806D03*
D37*
X126144071Y-98547518D03*
X124874071Y-98547518D03*
X123604071Y-98547518D03*
X122334071Y-98547518D03*
X122334071Y-91347518D03*
X123604071Y-91347518D03*
X124874071Y-91347518D03*
X126144071Y-91347518D03*
D36*
X116458340Y-43421558D03*
D24*
X186658408Y-97882526D03*
X195666593Y-114980000D03*
X157433408Y-106547806D03*
D44*
X125185593Y-25371000D03*
X125185593Y-29521000D03*
X127335593Y-25371000D03*
X127335593Y-29521000D03*
D36*
X113520421Y-103049076D03*
D24*
X165908408Y-106522526D03*
D33*
X125820593Y-67620000D03*
D38*
X176815408Y-43488903D03*
X176815408Y-42528903D03*
D41*
X160153408Y-22688903D03*
X156003408Y-22688903D03*
X160153408Y-24838903D03*
X156003408Y-24838903D03*
D33*
X129156593Y-67620000D03*
D42*
X108337651Y-52546558D03*
D45*
X123271593Y-29521000D03*
X123271593Y-25371000D03*
X121121593Y-29521000D03*
X121121593Y-25371000D03*
D33*
X125820593Y-71140000D03*
X113328428Y-108799076D03*
D24*
X164308408Y-106482526D03*
D32*
X116675151Y-56321558D03*
X115275151Y-54521558D03*
D33*
X114971947Y-46271558D03*
D35*
X133113593Y-35310333D03*
X133113593Y-36270333D03*
D33*
X140832593Y-67620000D03*
D24*
X182308408Y-97882526D03*
D33*
X116077624Y-105899076D03*
D36*
X112173223Y-103049076D03*
D24*
X182308408Y-47273623D03*
D33*
X110808593Y-74660000D03*
X129156593Y-71140000D03*
X114144593Y-74660000D03*
D39*
X118325151Y-55809058D03*
D45*
X123028071Y-89148518D03*
X123028071Y-84998518D03*
X120878071Y-89148518D03*
X120878071Y-84998518D03*
D24*
X157258408Y-102132526D03*
D33*
X113571950Y-49171558D03*
X112462593Y-64100000D03*
X139164593Y-67620000D03*
X112222751Y-49171558D03*
D32*
X139269129Y-112499076D03*
D33*
X109524353Y-49171558D03*
D24*
X165908408Y-55913623D03*
D40*
X155318408Y-94527806D03*
X155318408Y-96427806D03*
X153443408Y-95477806D03*
D33*
X139164593Y-71140000D03*
D39*
X118081629Y-116824076D03*
D33*
X117480593Y-71140000D03*
X117480593Y-74660000D03*
D32*
X109469129Y-115949076D03*
D35*
X181133408Y-40186903D03*
X181133408Y-41146903D03*
D24*
X160443408Y-106587806D03*
D38*
X154971408Y-41146903D03*
X154971408Y-40186903D03*
D43*
X130335071Y-84305518D03*
X132875071Y-84305518D03*
X135415071Y-84305518D03*
X137955071Y-84305518D03*
X137955071Y-92915518D03*
X135415071Y-92915518D03*
X132875071Y-92915518D03*
X130335071Y-92915518D03*
D33*
X119134593Y-64100000D03*
X127488593Y-74660000D03*
X110680828Y-105899076D03*
D24*
X163858408Y-51523623D03*
D32*
X113875151Y-54521558D03*
D42*
X112256629Y-112174076D03*
D32*
X115031629Y-115924076D03*
D33*
X124152593Y-71140000D03*
D24*
X166218408Y-97082526D03*
D46*
X185705408Y-104608806D03*
X183805408Y-104608806D03*
X184755408Y-102733806D03*
D33*
X127474593Y-64100000D03*
D24*
X160443408Y-55978903D03*
D33*
X109575151Y-46271558D03*
X134146593Y-64100000D03*
D30*
X134513593Y-37310333D03*
X133553593Y-37310333D03*
D40*
X155160908Y-101307806D03*
X155160908Y-103207806D03*
X153285908Y-102257806D03*
D30*
X134270071Y-96937851D03*
X133310071Y-96937851D03*
D33*
X109140593Y-71140000D03*
D24*
X162808408Y-108542526D03*
D36*
X112416745Y-43421558D03*
D33*
X110873552Y-49171558D03*
D32*
X110856629Y-114149076D03*
D47*
X179863408Y-56188903D03*
D18*
X179863408Y-63788903D03*
D30*
X180368408Y-94482526D03*
X179408408Y-94482526D03*
D33*
X122484593Y-74660000D03*
X137496593Y-67620000D03*
D31*
X182642158Y-93437806D03*
X184542158Y-93437806D03*
X183592158Y-95312806D03*
D32*
X112487651Y-54521558D03*
D33*
X115812593Y-74660000D03*
D24*
X158858408Y-55968903D03*
D33*
X127488593Y-67620000D03*
D32*
X113631629Y-115949076D03*
D33*
X139150593Y-64100000D03*
D35*
X138570071Y-95187851D03*
X138570071Y-96147851D03*
D24*
X165818408Y-108582526D03*
D33*
X114728425Y-105899076D03*
X107982427Y-105899076D03*
D24*
X158858408Y-106577806D03*
X164808408Y-97882526D03*
D36*
X116214818Y-103049076D03*
D35*
X120672593Y-33796000D03*
X120672593Y-34756000D03*
D36*
X109478827Y-103049076D03*
D30*
X156185408Y-55426903D03*
X155225408Y-55426903D03*
D32*
X140900151Y-52871558D03*
D33*
X110808593Y-67620000D03*
X142486593Y-64100000D03*
X129142593Y-64100000D03*
X120816593Y-67620000D03*
D42*
X109725151Y-52546558D03*
D33*
X119148593Y-71140000D03*
D38*
X132875071Y-111203518D03*
X132875071Y-110243518D03*
D33*
X109140593Y-67620000D03*
D30*
X183363408Y-90795806D03*
X182403408Y-90795806D03*
D24*
X159908408Y-51473623D03*
X158558408Y-51473623D03*
X165818408Y-57973623D03*
D35*
X134713593Y-35410333D03*
X134713593Y-36370333D03*
X137320071Y-95187851D03*
X137320071Y-96147851D03*
D24*
X163858408Y-102132526D03*
D36*
X108131629Y-103049076D03*
D33*
X110794593Y-64100000D03*
D35*
X137563593Y-35560333D03*
X137563593Y-36520333D03*
D24*
X164808408Y-47273623D03*
X158823408Y-58053623D03*
D33*
X139164593Y-74660000D03*
X110924350Y-46271558D03*
D38*
X119656593Y-34756000D03*
X119656593Y-33796000D03*
D32*
X140656629Y-112499076D03*
D30*
X158813408Y-26188903D03*
X157853408Y-26188903D03*
D34*
X176109408Y-90795806D03*
X177069408Y-90795806D03*
D33*
X117426823Y-105899076D03*
D42*
X110869129Y-112174076D03*
D33*
X112030027Y-105899076D03*
D32*
X137881629Y-112499076D03*
D33*
X142500593Y-71140000D03*
X117670345Y-46271558D03*
D35*
X127795071Y-92971518D03*
X127795071Y-93931518D03*
D39*
X118325151Y-54421558D03*
D24*
X183758408Y-47273623D03*
D48*
X109420071Y-99767851D03*
D17*
X109420071Y-97227851D03*
X109420071Y-94687851D03*
X109420071Y-92147851D03*
X109420071Y-89607851D03*
X109420071Y-87067851D03*
X109420071Y-84527851D03*
X109420071Y-81987851D03*
X117040071Y-81987851D03*
X117040071Y-84527851D03*
X117040071Y-87067851D03*
X117040071Y-89607851D03*
X117040071Y-92147851D03*
X117040071Y-94687851D03*
X117040071Y-97227851D03*
X117040071Y-99767851D03*
D24*
X160408408Y-108672526D03*
X162898408Y-55873623D03*
X166218408Y-46473623D03*
D33*
X140818593Y-64100000D03*
D32*
X109712651Y-54521558D03*
D33*
X120802593Y-64100000D03*
X120816593Y-71140000D03*
X116270348Y-49171558D03*
X124152593Y-74660000D03*
D47*
X179863408Y-106797806D03*
D18*
X179863408Y-114397806D03*
D33*
X112476593Y-71140000D03*
X112273549Y-46271558D03*
X113379226Y-105899076D03*
D24*
X162558408Y-102082526D03*
X158558408Y-102082526D03*
D33*
X115812593Y-71140000D03*
D24*
X183758408Y-97882526D03*
D33*
X112476593Y-74660000D03*
X117466593Y-64100000D03*
D42*
X108094129Y-112174076D03*
D35*
X178593408Y-40186903D03*
X178593408Y-41146903D03*
D32*
X138125151Y-52871558D03*
D24*
X186658408Y-47273623D03*
X162558408Y-51473623D03*
D33*
X120816593Y-74660000D03*
X130810593Y-64100000D03*
D44*
X124942071Y-84998518D03*
X124942071Y-89148518D03*
X127092071Y-84998518D03*
X127092071Y-89148518D03*
D33*
X108225949Y-46271558D03*
D30*
X156185408Y-106035806D03*
X155225408Y-106035806D03*
D32*
X109712651Y-56321558D03*
D33*
X135828593Y-67620000D03*
X114144593Y-71140000D03*
D32*
X108081629Y-115949076D03*
D33*
X116026826Y-108799076D03*
X114144593Y-67620000D03*
X113622748Y-46271558D03*
D42*
X112500151Y-52546558D03*
D33*
X132492593Y-74660000D03*
X142500593Y-74660000D03*
X117376025Y-108799076D03*
D35*
X132870071Y-94937851D03*
X132870071Y-95897851D03*
D24*
X164218408Y-108542526D03*
D30*
X139463593Y-37610333D03*
X138503593Y-37610333D03*
D32*
X108081629Y-114149076D03*
D36*
X108375151Y-43421558D03*
D33*
X119148593Y-74660000D03*
D46*
X185705408Y-53999903D03*
X183805408Y-53999903D03*
X184755408Y-52124903D03*
D33*
X114677627Y-108799076D03*
D30*
X183363408Y-40186903D03*
X182403408Y-40186903D03*
D24*
X157258408Y-105032526D03*
D30*
X139220071Y-97237851D03*
X138260071Y-97237851D03*
D33*
X132492593Y-67620000D03*
X119148593Y-67620000D03*
D36*
X117564818Y-103049076D03*
D24*
X185208408Y-97882526D03*
X164218408Y-57933623D03*
D42*
X111112651Y-52546558D03*
D39*
X118081629Y-115436576D03*
D33*
X112476593Y-67620000D03*
X137482593Y-64100000D03*
D32*
X108325151Y-56321558D03*
D43*
X176053408Y-80153806D03*
X178593408Y-80153806D03*
X181133408Y-80153806D03*
X183673408Y-80153806D03*
X183673408Y-88763806D03*
X181133408Y-88763806D03*
X178593408Y-88763806D03*
X176053408Y-88763806D03*
D35*
X138813593Y-35560333D03*
X138813593Y-36520333D03*
D33*
X134160593Y-67620000D03*
D48*
X109663593Y-40140333D03*
D17*
X109663593Y-37600333D03*
X109663593Y-35060333D03*
X109663593Y-32520333D03*
X109663593Y-29980333D03*
X109663593Y-27440333D03*
X109663593Y-24900333D03*
X109663593Y-22360333D03*
X117283593Y-22360333D03*
X117283593Y-24900333D03*
X117283593Y-27440333D03*
X117283593Y-29980333D03*
X117283593Y-32520333D03*
X117283593Y-35060333D03*
X117283593Y-37600333D03*
X117283593Y-40140333D03*
%LPD*%
M02*
