M48
; DRILL file {KiCad 7.0.5} date Mon Oct  2 17:03:22 2023
; FORMAT={-:-/ absolute / metric / decimal}
; #@! TF.CreationDate,2023-10-02T17:03:22+03:00
; #@! TF.GenerationSoftware,Kicad,Pcbnew,7.0.5
; #@! TF.FileFunction,NonPlated,1,2,NPTH
FMAT,2
METRIC
; #@! TA.AperFunction,NonPlated,NPTH,ComponentDrill
T1C0.500
; #@! TA.AperFunction,NonPlated,NPTH,ComponentDrill
T2C0.650
; #@! TA.AperFunction,NonPlated,NPTH,ComponentDrill
T3C1.000
; #@! TA.AperFunction,NonPlated,NPTH,ComponentDrill
T4C2.000
%
G90
G05
T1
X144.867Y-42.304
X144.867Y-43.304
X144.867Y-44.304
X144.867Y-45.304
X144.867Y-46.304
X148.447Y-42.32
X148.447Y-43.32
X148.447Y-44.32
X148.447Y-45.32
X148.447Y-46.32
T2
X139.725Y-100.946
X139.725Y-106.726
X139.969Y-41.318
X139.969Y-47.098
X170.257Y-25.654
X170.257Y-76.263
X176.037Y-25.654
X176.037Y-76.263
T3
X119.921Y-115.522
X120.165Y-55.894
X120.607Y-82.399
X120.85Y-22.772
X140.241Y-115.776
X140.485Y-56.148
X141.511Y-82.248
X141.755Y-22.62
T4
X152.367Y-23.229
X152.367Y-73.838
X154.463Y-65.079
X154.463Y-115.688
X185.992Y-23.429
X185.992Y-74.038
X187.229Y-65.587
X187.229Y-116.196
T0
M30
