G04 #@! TF.GenerationSoftware,KiCad,Pcbnew,7.0.5*
G04 #@! TF.CreationDate,2023-09-28T01:47:38+03:00*
G04 #@! TF.ProjectId,RP2040_minimal,52503230-3430-45f6-9d69-6e696d616c2e,REV1*
G04 #@! TF.SameCoordinates,Original*
G04 #@! TF.FileFunction,Paste,Bot*
G04 #@! TF.FilePolarity,Positive*
%FSLAX46Y46*%
G04 Gerber Fmt 4.6, Leading zero omitted, Abs format (unit mm)*
G04 Created by KiCad (PCBNEW 7.0.5) date 2023-09-28 01:47:38*
%MOMM*%
%LPD*%
G01*
G04 APERTURE LIST*
G04 Aperture macros list*
%AMRoundRect*
0 Rectangle with rounded corners*
0 $1 Rounding radius*
0 $2 $3 $4 $5 $6 $7 $8 $9 X,Y pos of 4 corners*
0 Add a 4 corners polygon primitive as box body*
4,1,4,$2,$3,$4,$5,$6,$7,$8,$9,$2,$3,0*
0 Add four circle primitives for the rounded corners*
1,1,$1+$1,$2,$3*
1,1,$1+$1,$4,$5*
1,1,$1+$1,$6,$7*
1,1,$1+$1,$8,$9*
0 Add four rect primitives between the rounded corners*
20,1,$1+$1,$2,$3,$4,$5,0*
20,1,$1+$1,$4,$5,$6,$7,0*
20,1,$1+$1,$6,$7,$8,$9,0*
20,1,$1+$1,$8,$9,$2,$3,0*%
G04 Aperture macros list end*
%ADD10RoundRect,0.150000X0.150000X-0.650000X0.150000X0.650000X-0.150000X0.650000X-0.150000X-0.650000X0*%
%ADD11R,1.120000X2.440000*%
%ADD12RoundRect,0.140000X0.140000X0.170000X-0.140000X0.170000X-0.140000X-0.170000X0.140000X-0.170000X0*%
%ADD13RoundRect,0.140000X-0.170000X0.140000X-0.170000X-0.140000X0.170000X-0.140000X0.170000X0.140000X0*%
%ADD14R,0.650000X1.050000*%
%ADD15RoundRect,0.140000X0.170000X-0.140000X0.170000X0.140000X-0.170000X0.140000X-0.170000X-0.140000X0*%
%ADD16RoundRect,0.140000X-0.140000X-0.170000X0.140000X-0.170000X0.140000X0.170000X-0.140000X0.170000X0*%
%ADD17RoundRect,0.150000X-0.150000X0.587500X-0.150000X-0.587500X0.150000X-0.587500X0.150000X0.587500X0*%
%ADD18RoundRect,0.150000X0.150000X-0.587500X0.150000X0.587500X-0.150000X0.587500X-0.150000X-0.587500X0*%
%ADD19RoundRect,0.150000X0.587500X0.150000X-0.587500X0.150000X-0.587500X-0.150000X0.587500X-0.150000X0*%
%ADD20R,1.050000X0.650000*%
G04 APERTURE END LIST*
D10*
X47749000Y-82330000D03*
X46479000Y-82330000D03*
X45209000Y-82330000D03*
X43939000Y-82330000D03*
X43939000Y-89530000D03*
X45209000Y-89530000D03*
X46479000Y-89530000D03*
X47749000Y-89530000D03*
D11*
X51940000Y-83898000D03*
X54480000Y-83898000D03*
X57020000Y-83898000D03*
X59560000Y-83898000D03*
X59560000Y-75288000D03*
X57020000Y-75288000D03*
X54480000Y-75288000D03*
X51940000Y-75288000D03*
D12*
X60825000Y-88220333D03*
X59865000Y-88220333D03*
X55875000Y-87920333D03*
X54915000Y-87920333D03*
D13*
X60175000Y-86170333D03*
X60175000Y-87130333D03*
X58925000Y-86170333D03*
X58925000Y-87130333D03*
X56075000Y-86020333D03*
X56075000Y-86980333D03*
X54475000Y-85920333D03*
X54475000Y-86880333D03*
D14*
X46547000Y-75981000D03*
X46547000Y-80131000D03*
X48697000Y-80131000D03*
X48697000Y-75981000D03*
X44633000Y-80131000D03*
X44633000Y-75981000D03*
X42483000Y-75981000D03*
X42483000Y-80131000D03*
D13*
X42034000Y-84406000D03*
X42034000Y-85366000D03*
D15*
X41018000Y-85366000D03*
X41018000Y-84406000D03*
X54480000Y-102186000D03*
X54480000Y-101226000D03*
D13*
X49400000Y-84914000D03*
X49400000Y-83954000D03*
D16*
X111233000Y-106573280D03*
X112193000Y-106573280D03*
X99351000Y-90063280D03*
X100311000Y-90063280D03*
D13*
X101835000Y-90063280D03*
X101835000Y-91023280D03*
D17*
X105883750Y-92705280D03*
X107783750Y-92705280D03*
X106833750Y-94580280D03*
D13*
X104375000Y-90063280D03*
X104375000Y-91023280D03*
D18*
X108947000Y-103876280D03*
X107047000Y-103876280D03*
X107997000Y-102001280D03*
D12*
X79427000Y-105303280D03*
X78467000Y-105303280D03*
D15*
X78213000Y-91023280D03*
X78213000Y-90063280D03*
D19*
X78402500Y-100575280D03*
X78402500Y-102475280D03*
X76527500Y-101525280D03*
D12*
X106605000Y-90063280D03*
X105645000Y-90063280D03*
X104538750Y-92055280D03*
X103578750Y-92055280D03*
D20*
X89470000Y-72560280D03*
X85320000Y-72560280D03*
X89470000Y-74710280D03*
X85320000Y-74710280D03*
D11*
X99295000Y-79421280D03*
X101835000Y-79421280D03*
X104375000Y-79421280D03*
X106915000Y-79421280D03*
X106915000Y-88031280D03*
X104375000Y-88031280D03*
X101835000Y-88031280D03*
X99295000Y-88031280D03*
D19*
X78560000Y-93795280D03*
X78560000Y-95695280D03*
X76685000Y-94745280D03*
D20*
X83395000Y-72565280D03*
X79245000Y-72565280D03*
X83395000Y-74715280D03*
X79245000Y-74715280D03*
D12*
X103610000Y-93750000D03*
X102650000Y-93750000D03*
X82055000Y-76065280D03*
X81095000Y-76065280D03*
D15*
X100057000Y-93365280D03*
X100057000Y-92405280D03*
M02*
