G04 #@! TF.GenerationSoftware,KiCad,Pcbnew,7.0.5*
G04 #@! TF.CreationDate,2023-09-28T01:47:38+03:00*
G04 #@! TF.ProjectId,RP2040_minimal,52503230-3430-45f6-9d69-6e696d616c2e,REV1*
G04 #@! TF.SameCoordinates,Original*
G04 #@! TF.FileFunction,Soldermask,Bot*
G04 #@! TF.FilePolarity,Negative*
%FSLAX46Y46*%
G04 Gerber Fmt 4.6, Leading zero omitted, Abs format (unit mm)*
G04 Created by KiCad (PCBNEW 7.0.5) date 2023-09-28 01:47:38*
%MOMM*%
%LPD*%
G01*
G04 APERTURE LIST*
G04 APERTURE END LIST*
G36*
X110814925Y-114105150D02*
G01*
X111033775Y-114180282D01*
X111237274Y-114290410D01*
X111419871Y-114432531D01*
X111576586Y-114602768D01*
X111703143Y-114796478D01*
X111796090Y-115008376D01*
X111852892Y-115232683D01*
X111872000Y-115463280D01*
X111852892Y-115693877D01*
X111796090Y-115918184D01*
X111703143Y-116130082D01*
X111576586Y-116323792D01*
X111419871Y-116494029D01*
X111237274Y-116636150D01*
X111033775Y-116746278D01*
X110814925Y-116821410D01*
X110586694Y-116859495D01*
X110355306Y-116859495D01*
X110127075Y-116821410D01*
X109908225Y-116746278D01*
X109704726Y-116636150D01*
X109522129Y-116494029D01*
X109365414Y-116323792D01*
X109238857Y-116130082D01*
X109145910Y-115918184D01*
X109089108Y-115693877D01*
X109070000Y-115463280D01*
X109089108Y-115232683D01*
X109145910Y-115008376D01*
X109238857Y-114796478D01*
X109365414Y-114602768D01*
X109522129Y-114432531D01*
X109704726Y-114290410D01*
X109908225Y-114180282D01*
X110127075Y-114105150D01*
X110355306Y-114067065D01*
X110586694Y-114067065D01*
X110814925Y-114105150D01*
G37*
G36*
X78048925Y-113597150D02*
G01*
X78267775Y-113672282D01*
X78471274Y-113782410D01*
X78653871Y-113924531D01*
X78810586Y-114094768D01*
X78937143Y-114288478D01*
X79030090Y-114500376D01*
X79086892Y-114724683D01*
X79106000Y-114955280D01*
X79086892Y-115185877D01*
X79030090Y-115410184D01*
X78937143Y-115622082D01*
X78810586Y-115815792D01*
X78653871Y-115986029D01*
X78471274Y-116128150D01*
X78267775Y-116238278D01*
X78048925Y-116313410D01*
X77820694Y-116351495D01*
X77589306Y-116351495D01*
X77361075Y-116313410D01*
X77142225Y-116238278D01*
X76938726Y-116128150D01*
X76756129Y-115986029D01*
X76599414Y-115815792D01*
X76472857Y-115622082D01*
X76379910Y-115410184D01*
X76323108Y-115185877D01*
X76304000Y-114955280D01*
X76323108Y-114724683D01*
X76379910Y-114500376D01*
X76472857Y-114288478D01*
X76599414Y-114094768D01*
X76756129Y-113924531D01*
X76938726Y-113782410D01*
X77142225Y-113672282D01*
X77361075Y-113597150D01*
X77589306Y-113559065D01*
X77820694Y-113559065D01*
X78048925Y-113597150D01*
G37*
G36*
X103152465Y-112618955D02*
G01*
X103201955Y-112618955D01*
X103257070Y-112629257D01*
X103310040Y-112634475D01*
X103350279Y-112646681D01*
X103392570Y-112654587D01*
X103451142Y-112677277D01*
X103507200Y-112694283D01*
X103539231Y-112711403D01*
X103573382Y-112724634D01*
X103632719Y-112761373D01*
X103688904Y-112791405D01*
X103712509Y-112810777D01*
X103738251Y-112826716D01*
X103795290Y-112878714D01*
X103848169Y-112922111D01*
X103863839Y-112941204D01*
X103881557Y-112957357D01*
X103932989Y-113025464D01*
X103978875Y-113081376D01*
X103987748Y-113097977D01*
X103998415Y-113112102D01*
X104040860Y-113197344D01*
X104075997Y-113263080D01*
X104079743Y-113275431D01*
X104084848Y-113285682D01*
X104114997Y-113391648D01*
X104135805Y-113460240D01*
X104136488Y-113467180D01*
X104137915Y-113472194D01*
X104152739Y-113632173D01*
X104156000Y-113665280D01*
X104152738Y-113698389D01*
X104137915Y-113858365D01*
X104136488Y-113863377D01*
X104135805Y-113870320D01*
X104114993Y-113938926D01*
X104084848Y-114044877D01*
X104079744Y-114055126D01*
X104075997Y-114067480D01*
X104040853Y-114133229D01*
X103998415Y-114218457D01*
X103987750Y-114232579D01*
X103978875Y-114249184D01*
X103932979Y-114305107D01*
X103881557Y-114373202D01*
X103863842Y-114389351D01*
X103848169Y-114408449D01*
X103795279Y-114451854D01*
X103738251Y-114503843D01*
X103712514Y-114519778D01*
X103688904Y-114539155D01*
X103632707Y-114569192D01*
X103573382Y-114605925D01*
X103539238Y-114619152D01*
X103507200Y-114636277D01*
X103451130Y-114653285D01*
X103392570Y-114675972D01*
X103350286Y-114683876D01*
X103310040Y-114696085D01*
X103257067Y-114701302D01*
X103201955Y-114711605D01*
X103152465Y-114711605D01*
X103105000Y-114716280D01*
X103057535Y-114711605D01*
X103008045Y-114711605D01*
X102952931Y-114701302D01*
X102899960Y-114696085D01*
X102859714Y-114683876D01*
X102817429Y-114675972D01*
X102758865Y-114653284D01*
X102702800Y-114636277D01*
X102670764Y-114619153D01*
X102636617Y-114605925D01*
X102577285Y-114569188D01*
X102521096Y-114539155D01*
X102497488Y-114519780D01*
X102471748Y-114503843D01*
X102414710Y-114451845D01*
X102361831Y-114408449D01*
X102346160Y-114389354D01*
X102328442Y-114373202D01*
X102277007Y-114305091D01*
X102231125Y-114249184D01*
X102222252Y-114232583D01*
X102211584Y-114218457D01*
X102169131Y-114133201D01*
X102134003Y-114067480D01*
X102130257Y-114055131D01*
X102125151Y-114044877D01*
X102094990Y-113938873D01*
X102074195Y-113870320D01*
X102073511Y-113863383D01*
X102072084Y-113858365D01*
X102057244Y-113698218D01*
X102054000Y-113665280D01*
X102057243Y-113632344D01*
X102072084Y-113472194D01*
X102073511Y-113467175D01*
X102074195Y-113460240D01*
X102094986Y-113391701D01*
X102125151Y-113285682D01*
X102130257Y-113275426D01*
X102134003Y-113263080D01*
X102169124Y-113197371D01*
X102211584Y-113112102D01*
X102222253Y-113097972D01*
X102231125Y-113081376D01*
X102276998Y-113025479D01*
X102328442Y-112957357D01*
X102346163Y-112941201D01*
X102361831Y-112922111D01*
X102414699Y-112878723D01*
X102471748Y-112826716D01*
X102497493Y-112810775D01*
X102521096Y-112791405D01*
X102577273Y-112761377D01*
X102636617Y-112724634D01*
X102670771Y-112711402D01*
X102702800Y-112694283D01*
X102758853Y-112677279D01*
X102817429Y-112654587D01*
X102859721Y-112646681D01*
X102899960Y-112634475D01*
X102952928Y-112629257D01*
X103008045Y-112618955D01*
X103057535Y-112618955D01*
X103105000Y-112614280D01*
X103152465Y-112618955D01*
G37*
G36*
X74247973Y-112065931D02*
G01*
X74410500Y-112138292D01*
X74554430Y-112242864D01*
X74673473Y-112375075D01*
X74762427Y-112529147D01*
X74817404Y-112698347D01*
X74836000Y-112875280D01*
X74817404Y-113052213D01*
X74762427Y-113221413D01*
X74673473Y-113375485D01*
X74554430Y-113507696D01*
X74410500Y-113612268D01*
X74247973Y-113684629D01*
X74073954Y-113721618D01*
X73896046Y-113721618D01*
X73722027Y-113684629D01*
X73559500Y-113612268D01*
X73415570Y-113507696D01*
X73296527Y-113375485D01*
X73207573Y-113221413D01*
X73152596Y-113052213D01*
X73134000Y-112875280D01*
X73152596Y-112698347D01*
X73207573Y-112529147D01*
X73296527Y-112375075D01*
X73415570Y-112242864D01*
X73559500Y-112138292D01*
X73722027Y-112065931D01*
X73896046Y-112028942D01*
X74073954Y-112028942D01*
X74247973Y-112065931D01*
G37*
G36*
X111241973Y-110589931D02*
G01*
X111404500Y-110662292D01*
X111548430Y-110766864D01*
X111667473Y-110899075D01*
X111756427Y-111053147D01*
X111811404Y-111222347D01*
X111830000Y-111399280D01*
X111811404Y-111576213D01*
X111756427Y-111745413D01*
X111667473Y-111899485D01*
X111548430Y-112031696D01*
X111404500Y-112136268D01*
X111241973Y-112208629D01*
X111067954Y-112245618D01*
X110890046Y-112245618D01*
X110716027Y-112208629D01*
X110553500Y-112136268D01*
X110409570Y-112031696D01*
X110290527Y-111899485D01*
X110201573Y-111745413D01*
X110146596Y-111576213D01*
X110128000Y-111399280D01*
X110146596Y-111222347D01*
X110201573Y-111053147D01*
X110290527Y-110899075D01*
X110409570Y-110766864D01*
X110553500Y-110662292D01*
X110716027Y-110589931D01*
X110890046Y-110552942D01*
X111067954Y-110552942D01*
X111241973Y-110589931D01*
G37*
G36*
X83792609Y-107407775D02*
G01*
X83925500Y-107462820D01*
X84039616Y-107550384D01*
X84127180Y-107664500D01*
X84182225Y-107797391D01*
X84201000Y-107940000D01*
X84182225Y-108082609D01*
X84127180Y-108215500D01*
X84039616Y-108329616D01*
X83925500Y-108417180D01*
X83792609Y-108472225D01*
X83650000Y-108491000D01*
X83507391Y-108472225D01*
X83374500Y-108417180D01*
X83260384Y-108329616D01*
X83172820Y-108215500D01*
X83117775Y-108082609D01*
X83099000Y-107940000D01*
X83117775Y-107797391D01*
X83172820Y-107664500D01*
X83260384Y-107550384D01*
X83374500Y-107462820D01*
X83507391Y-107407775D01*
X83650000Y-107389000D01*
X83792609Y-107407775D01*
G37*
G36*
X82207609Y-107397775D02*
G01*
X82340500Y-107452820D01*
X82454616Y-107540384D01*
X82542180Y-107654500D01*
X82597225Y-107787391D01*
X82616000Y-107930000D01*
X82597225Y-108072609D01*
X82542180Y-108205500D01*
X82454616Y-108319616D01*
X82340500Y-108407180D01*
X82207609Y-108462225D01*
X82065000Y-108481000D01*
X81922391Y-108462225D01*
X81789500Y-108407180D01*
X81675384Y-108319616D01*
X81587820Y-108205500D01*
X81532775Y-108072609D01*
X81514000Y-107930000D01*
X81532775Y-107787391D01*
X81587820Y-107654500D01*
X81675384Y-107540384D01*
X81789500Y-107452820D01*
X81922391Y-107397775D01*
X82065000Y-107379000D01*
X82207609Y-107397775D01*
G37*
G36*
X80782609Y-107367775D02*
G01*
X80915500Y-107422820D01*
X81029616Y-107510384D01*
X81117180Y-107624500D01*
X81172225Y-107757391D01*
X81191000Y-107900000D01*
X81172225Y-108042609D01*
X81117180Y-108175500D01*
X81029616Y-108289616D01*
X80915500Y-108377180D01*
X80782609Y-108432225D01*
X80640000Y-108451000D01*
X80497391Y-108432225D01*
X80364500Y-108377180D01*
X80250384Y-108289616D01*
X80162820Y-108175500D01*
X80107775Y-108042609D01*
X80089000Y-107900000D01*
X80107775Y-107757391D01*
X80162820Y-107624500D01*
X80250384Y-107510384D01*
X80364500Y-107422820D01*
X80497391Y-107367775D01*
X80640000Y-107349000D01*
X80782609Y-107367775D01*
G37*
G36*
X89202609Y-107317775D02*
G01*
X89335500Y-107372820D01*
X89449616Y-107460384D01*
X89537180Y-107574500D01*
X89592225Y-107707391D01*
X89611000Y-107850000D01*
X89592225Y-107992609D01*
X89537180Y-108125500D01*
X89449616Y-108239616D01*
X89335500Y-108327180D01*
X89202609Y-108382225D01*
X89060000Y-108401000D01*
X88917391Y-108382225D01*
X88784500Y-108327180D01*
X88670384Y-108239616D01*
X88582820Y-108125500D01*
X88527775Y-107992609D01*
X88509000Y-107850000D01*
X88527775Y-107707391D01*
X88582820Y-107574500D01*
X88670384Y-107460384D01*
X88784500Y-107372820D01*
X88917391Y-107317775D01*
X89060000Y-107299000D01*
X89202609Y-107317775D01*
G37*
G36*
X86192609Y-107277775D02*
G01*
X86325500Y-107332820D01*
X86439616Y-107420384D01*
X86527180Y-107534500D01*
X86582225Y-107667391D01*
X86601000Y-107810000D01*
X86582225Y-107952609D01*
X86527180Y-108085500D01*
X86439616Y-108199616D01*
X86325500Y-108287180D01*
X86192609Y-108342225D01*
X86050000Y-108361000D01*
X85907391Y-108342225D01*
X85774500Y-108287180D01*
X85660384Y-108199616D01*
X85572820Y-108085500D01*
X85517775Y-107952609D01*
X85499000Y-107810000D01*
X85517775Y-107667391D01*
X85572820Y-107534500D01*
X85660384Y-107420384D01*
X85774500Y-107332820D01*
X85907391Y-107277775D01*
X86050000Y-107259000D01*
X86192609Y-107277775D01*
G37*
G36*
X87602609Y-107277775D02*
G01*
X87735500Y-107332820D01*
X87849616Y-107420384D01*
X87937180Y-107534500D01*
X87992225Y-107667391D01*
X88011000Y-107810000D01*
X87992225Y-107952609D01*
X87937180Y-108085500D01*
X87849616Y-108199616D01*
X87735500Y-108287180D01*
X87602609Y-108342225D01*
X87460000Y-108361000D01*
X87317391Y-108342225D01*
X87184500Y-108287180D01*
X87070384Y-108199616D01*
X86982820Y-108085500D01*
X86927775Y-107952609D01*
X86909000Y-107810000D01*
X86927775Y-107667391D01*
X86982820Y-107534500D01*
X87070384Y-107420384D01*
X87184500Y-107332820D01*
X87317391Y-107277775D01*
X87460000Y-107259000D01*
X87602609Y-107277775D01*
G37*
G36*
X40206075Y-107259440D02*
G01*
X40222620Y-107270496D01*
X40233676Y-107287041D01*
X40237558Y-107306558D01*
X40237558Y-108306558D01*
X40233676Y-108326075D01*
X40222620Y-108342620D01*
X40206075Y-108353676D01*
X40186558Y-108357558D01*
X39186558Y-108357558D01*
X39167041Y-108353676D01*
X39150496Y-108342620D01*
X39139440Y-108326075D01*
X39135558Y-108306558D01*
X39135558Y-107306558D01*
X39139440Y-107287041D01*
X39150496Y-107270496D01*
X39167041Y-107259440D01*
X39186558Y-107255558D01*
X40186558Y-107255558D01*
X40206075Y-107259440D01*
G37*
G36*
X30206075Y-106384440D02*
G01*
X30222620Y-106395496D01*
X30233676Y-106412041D01*
X30237558Y-106431558D01*
X30237558Y-107431558D01*
X30233676Y-107451075D01*
X30222620Y-107467620D01*
X30206075Y-107478676D01*
X30186558Y-107482558D01*
X29186558Y-107482558D01*
X29167041Y-107478676D01*
X29150496Y-107467620D01*
X29139440Y-107451075D01*
X29135558Y-107431558D01*
X29135558Y-106431558D01*
X29139440Y-106412041D01*
X29150496Y-106395496D01*
X29167041Y-106384440D01*
X29186558Y-106380558D01*
X30186558Y-106380558D01*
X30206075Y-106384440D01*
G37*
G36*
X31593575Y-106384440D02*
G01*
X31610120Y-106395496D01*
X31621176Y-106412041D01*
X31625058Y-106431558D01*
X31625058Y-107431558D01*
X31621176Y-107451075D01*
X31610120Y-107467620D01*
X31593575Y-107478676D01*
X31574058Y-107482558D01*
X30574058Y-107482558D01*
X30554541Y-107478676D01*
X30537996Y-107467620D01*
X30526940Y-107451075D01*
X30523058Y-107431558D01*
X30523058Y-106431558D01*
X30526940Y-106412041D01*
X30537996Y-106395496D01*
X30554541Y-106384440D01*
X30574058Y-106380558D01*
X31574058Y-106380558D01*
X31593575Y-106384440D01*
G37*
G36*
X32981075Y-106384440D02*
G01*
X32997620Y-106395496D01*
X33008676Y-106412041D01*
X33012558Y-106431558D01*
X33012558Y-107431558D01*
X33008676Y-107451075D01*
X32997620Y-107467620D01*
X32981075Y-107478676D01*
X32961558Y-107482558D01*
X31961558Y-107482558D01*
X31942041Y-107478676D01*
X31925496Y-107467620D01*
X31914440Y-107451075D01*
X31910558Y-107431558D01*
X31910558Y-106431558D01*
X31914440Y-106412041D01*
X31925496Y-106395496D01*
X31942041Y-106384440D01*
X31961558Y-106380558D01*
X32961558Y-106380558D01*
X32981075Y-106384440D01*
G37*
G36*
X34368575Y-106384440D02*
G01*
X34385120Y-106395496D01*
X34396176Y-106412041D01*
X34400058Y-106431558D01*
X34400058Y-107431558D01*
X34396176Y-107451075D01*
X34385120Y-107467620D01*
X34368575Y-107478676D01*
X34349058Y-107482558D01*
X33349058Y-107482558D01*
X33329541Y-107478676D01*
X33312996Y-107467620D01*
X33301940Y-107451075D01*
X33298058Y-107431558D01*
X33298058Y-106431558D01*
X33301940Y-106412041D01*
X33312996Y-106395496D01*
X33329541Y-106384440D01*
X33349058Y-106380558D01*
X34349058Y-106380558D01*
X34368575Y-106384440D01*
G37*
G36*
X35756075Y-106384440D02*
G01*
X35772620Y-106395496D01*
X35783676Y-106412041D01*
X35787558Y-106431558D01*
X35787558Y-107431558D01*
X35783676Y-107451075D01*
X35772620Y-107467620D01*
X35756075Y-107478676D01*
X35736558Y-107482558D01*
X34736558Y-107482558D01*
X34717041Y-107478676D01*
X34700496Y-107467620D01*
X34689440Y-107451075D01*
X34685558Y-107431558D01*
X34685558Y-106431558D01*
X34689440Y-106412041D01*
X34700496Y-106395496D01*
X34717041Y-106384440D01*
X34736558Y-106380558D01*
X35736558Y-106380558D01*
X35756075Y-106384440D01*
G37*
G36*
X38556075Y-106384440D02*
G01*
X38572620Y-106395496D01*
X38583676Y-106412041D01*
X38587558Y-106431558D01*
X38587558Y-107431558D01*
X38583676Y-107451075D01*
X38572620Y-107467620D01*
X38556075Y-107478676D01*
X38536558Y-107482558D01*
X37536558Y-107482558D01*
X37517041Y-107478676D01*
X37500496Y-107467620D01*
X37489440Y-107451075D01*
X37485558Y-107431558D01*
X37485558Y-106431558D01*
X37489440Y-106412041D01*
X37500496Y-106395496D01*
X37517041Y-106384440D01*
X37536558Y-106380558D01*
X38536558Y-106380558D01*
X38556075Y-106384440D01*
G37*
G36*
X37156075Y-106359440D02*
G01*
X37172620Y-106370496D01*
X37183676Y-106387041D01*
X37187558Y-106406558D01*
X37187558Y-107406558D01*
X37183676Y-107426075D01*
X37172620Y-107442620D01*
X37156075Y-107453676D01*
X37136558Y-107457558D01*
X36136558Y-107457558D01*
X36117041Y-107453676D01*
X36100496Y-107442620D01*
X36089440Y-107426075D01*
X36085558Y-107406558D01*
X36085558Y-106406558D01*
X36089440Y-106387041D01*
X36100496Y-106370496D01*
X36117041Y-106359440D01*
X36136558Y-106355558D01*
X37136558Y-106355558D01*
X37156075Y-106359440D01*
G37*
G36*
X105937609Y-106343055D02*
G01*
X106070500Y-106398100D01*
X106184616Y-106485664D01*
X106272180Y-106599780D01*
X106327225Y-106732671D01*
X106346000Y-106875280D01*
X106327225Y-107017889D01*
X106272180Y-107150780D01*
X106184616Y-107264896D01*
X106070500Y-107352460D01*
X105937609Y-107407505D01*
X105795000Y-107426280D01*
X105652391Y-107407505D01*
X105519500Y-107352460D01*
X105405384Y-107264896D01*
X105317820Y-107150780D01*
X105262775Y-107017889D01*
X105244000Y-106875280D01*
X105262775Y-106732671D01*
X105317820Y-106599780D01*
X105405384Y-106485664D01*
X105519500Y-106398100D01*
X105652391Y-106343055D01*
X105795000Y-106324280D01*
X105937609Y-106343055D01*
G37*
G36*
X107342609Y-106267775D02*
G01*
X107475500Y-106322820D01*
X107589616Y-106410384D01*
X107677180Y-106524500D01*
X107732225Y-106657391D01*
X107751000Y-106800000D01*
X107732225Y-106942609D01*
X107677180Y-107075500D01*
X107589616Y-107189616D01*
X107475500Y-107277180D01*
X107342609Y-107332225D01*
X107200000Y-107351000D01*
X107057391Y-107332225D01*
X106924500Y-107277180D01*
X106810384Y-107189616D01*
X106722820Y-107075500D01*
X106667775Y-106942609D01*
X106649000Y-106800000D01*
X106667775Y-106657391D01*
X106722820Y-106524500D01*
X106810384Y-106410384D01*
X106924500Y-106322820D01*
X107057391Y-106267775D01*
X107200000Y-106249000D01*
X107342609Y-106267775D01*
G37*
G36*
X61988609Y-106225775D02*
G01*
X62121500Y-106280820D01*
X62235616Y-106368384D01*
X62323180Y-106482500D01*
X62378225Y-106615391D01*
X62397000Y-106758000D01*
X62378225Y-106900609D01*
X62323180Y-107033500D01*
X62235616Y-107147616D01*
X62121500Y-107235180D01*
X61988609Y-107290225D01*
X61846000Y-107309000D01*
X61703391Y-107290225D01*
X61570500Y-107235180D01*
X61456384Y-107147616D01*
X61368820Y-107033500D01*
X61313775Y-106900609D01*
X61295000Y-106758000D01*
X61313775Y-106615391D01*
X61368820Y-106482500D01*
X61456384Y-106368384D01*
X61570500Y-106280820D01*
X61703391Y-106225775D01*
X61846000Y-106207000D01*
X61988609Y-106225775D01*
G37*
G36*
X104124517Y-105018162D02*
G01*
X104141062Y-105029218D01*
X104152118Y-105045763D01*
X104156000Y-105065280D01*
X104156000Y-107065280D01*
X104152118Y-107084797D01*
X104141062Y-107101342D01*
X104124517Y-107112398D01*
X104105000Y-107116280D01*
X102105000Y-107116280D01*
X102085483Y-107112398D01*
X102068938Y-107101342D01*
X102057882Y-107084797D01*
X102054000Y-107065280D01*
X102054000Y-105065280D01*
X102057882Y-105045763D01*
X102068938Y-105029218D01*
X102085483Y-105018162D01*
X102105000Y-105014280D01*
X104105000Y-105014280D01*
X104124517Y-105018162D01*
G37*
G36*
X41668609Y-105971775D02*
G01*
X41801500Y-106026820D01*
X41915616Y-106114384D01*
X42003180Y-106228500D01*
X42058225Y-106361391D01*
X42077000Y-106504000D01*
X42058225Y-106646609D01*
X42003180Y-106779500D01*
X41915616Y-106893616D01*
X41801500Y-106981180D01*
X41668609Y-107036225D01*
X41526000Y-107055000D01*
X41383391Y-107036225D01*
X41250500Y-106981180D01*
X41136384Y-106893616D01*
X41048820Y-106779500D01*
X40993775Y-106646609D01*
X40975000Y-106504000D01*
X40993775Y-106361391D01*
X41048820Y-106228500D01*
X41136384Y-106114384D01*
X41250500Y-106026820D01*
X41383391Y-105971775D01*
X41526000Y-105953000D01*
X41668609Y-105971775D01*
G37*
G36*
X40206075Y-105871940D02*
G01*
X40222620Y-105882996D01*
X40233676Y-105899541D01*
X40237558Y-105919058D01*
X40237558Y-106919058D01*
X40233676Y-106938575D01*
X40222620Y-106955120D01*
X40206075Y-106966176D01*
X40186558Y-106970058D01*
X39186558Y-106970058D01*
X39167041Y-106966176D01*
X39150496Y-106955120D01*
X39139440Y-106938575D01*
X39135558Y-106919058D01*
X39135558Y-105919058D01*
X39139440Y-105899541D01*
X39150496Y-105882996D01*
X39167041Y-105871940D01*
X39186558Y-105868058D01*
X40186558Y-105868058D01*
X40206075Y-105871940D01*
G37*
G36*
X111446093Y-106226819D02*
G01*
X111508057Y-106268223D01*
X111549461Y-106330187D01*
X111564000Y-106403280D01*
X111564000Y-106743280D01*
X111549461Y-106816373D01*
X111508057Y-106878337D01*
X111446093Y-106919741D01*
X111373000Y-106934280D01*
X111093000Y-106934280D01*
X111019907Y-106919741D01*
X110957943Y-106878337D01*
X110916539Y-106816373D01*
X110902000Y-106743280D01*
X110902000Y-106403280D01*
X110916539Y-106330187D01*
X110957943Y-106268223D01*
X111019907Y-106226819D01*
X111093000Y-106212280D01*
X111373000Y-106212280D01*
X111446093Y-106226819D01*
G37*
G36*
X112406093Y-106226819D02*
G01*
X112468057Y-106268223D01*
X112509461Y-106330187D01*
X112524000Y-106403280D01*
X112524000Y-106743280D01*
X112509461Y-106816373D01*
X112468057Y-106878337D01*
X112406093Y-106919741D01*
X112333000Y-106934280D01*
X112053000Y-106934280D01*
X111979907Y-106919741D01*
X111917943Y-106878337D01*
X111876539Y-106816373D01*
X111862000Y-106743280D01*
X111862000Y-106403280D01*
X111876539Y-106330187D01*
X111917943Y-106268223D01*
X111979907Y-106226819D01*
X112053000Y-106212280D01*
X112333000Y-106212280D01*
X112406093Y-106226819D01*
G37*
G36*
X83827609Y-105323055D02*
G01*
X83960500Y-105378100D01*
X84074616Y-105465664D01*
X84162180Y-105579780D01*
X84217225Y-105712671D01*
X84236000Y-105855280D01*
X84217225Y-105997889D01*
X84162180Y-106130780D01*
X84074616Y-106244896D01*
X83960500Y-106332460D01*
X83827609Y-106387505D01*
X83685000Y-106406280D01*
X83542391Y-106387505D01*
X83409500Y-106332460D01*
X83295384Y-106244896D01*
X83207820Y-106130780D01*
X83152775Y-105997889D01*
X83134000Y-105855280D01*
X83152775Y-105712671D01*
X83207820Y-105579780D01*
X83295384Y-105465664D01*
X83409500Y-105378100D01*
X83542391Y-105323055D01*
X83685000Y-105304280D01*
X83827609Y-105323055D01*
G37*
G36*
X82242609Y-105313055D02*
G01*
X82375500Y-105368100D01*
X82489616Y-105455664D01*
X82577180Y-105569780D01*
X82632225Y-105702671D01*
X82651000Y-105845280D01*
X82632225Y-105987889D01*
X82577180Y-106120780D01*
X82489616Y-106234896D01*
X82375500Y-106322460D01*
X82242609Y-106377505D01*
X82100000Y-106396280D01*
X81957391Y-106377505D01*
X81824500Y-106322460D01*
X81710384Y-106234896D01*
X81622820Y-106120780D01*
X81567775Y-105987889D01*
X81549000Y-105845280D01*
X81567775Y-105702671D01*
X81622820Y-105569780D01*
X81710384Y-105455664D01*
X81824500Y-105368100D01*
X81957391Y-105313055D01*
X82100000Y-105294280D01*
X82242609Y-105313055D01*
G37*
G36*
X80817609Y-105283055D02*
G01*
X80950500Y-105338100D01*
X81064616Y-105425664D01*
X81152180Y-105539780D01*
X81207225Y-105672671D01*
X81226000Y-105815280D01*
X81207225Y-105957889D01*
X81152180Y-106090780D01*
X81064616Y-106204896D01*
X80950500Y-106292460D01*
X80817609Y-106347505D01*
X80675000Y-106366280D01*
X80532391Y-106347505D01*
X80399500Y-106292460D01*
X80285384Y-106204896D01*
X80197820Y-106090780D01*
X80142775Y-105957889D01*
X80124000Y-105815280D01*
X80142775Y-105672671D01*
X80197820Y-105539780D01*
X80285384Y-105425664D01*
X80399500Y-105338100D01*
X80532391Y-105283055D01*
X80675000Y-105264280D01*
X80817609Y-105283055D01*
G37*
G36*
X89292609Y-105257775D02*
G01*
X89425500Y-105312820D01*
X89539616Y-105400384D01*
X89627180Y-105514500D01*
X89682225Y-105647391D01*
X89701000Y-105790000D01*
X89682225Y-105932609D01*
X89627180Y-106065500D01*
X89539616Y-106179616D01*
X89425500Y-106267180D01*
X89292609Y-106322225D01*
X89150000Y-106341000D01*
X89007391Y-106322225D01*
X88874500Y-106267180D01*
X88760384Y-106179616D01*
X88672820Y-106065500D01*
X88617775Y-105932609D01*
X88599000Y-105790000D01*
X88617775Y-105647391D01*
X88672820Y-105514500D01*
X88760384Y-105400384D01*
X88874500Y-105312820D01*
X89007391Y-105257775D01*
X89150000Y-105239000D01*
X89292609Y-105257775D01*
G37*
G36*
X86282609Y-105217775D02*
G01*
X86415500Y-105272820D01*
X86529616Y-105360384D01*
X86617180Y-105474500D01*
X86672225Y-105607391D01*
X86691000Y-105750000D01*
X86672225Y-105892609D01*
X86617180Y-106025500D01*
X86529616Y-106139616D01*
X86415500Y-106227180D01*
X86282609Y-106282225D01*
X86140000Y-106301000D01*
X85997391Y-106282225D01*
X85864500Y-106227180D01*
X85750384Y-106139616D01*
X85662820Y-106025500D01*
X85607775Y-105892609D01*
X85589000Y-105750000D01*
X85607775Y-105607391D01*
X85662820Y-105474500D01*
X85750384Y-105360384D01*
X85864500Y-105272820D01*
X85997391Y-105217775D01*
X86140000Y-105199000D01*
X86282609Y-105217775D01*
G37*
G36*
X87692609Y-105217775D02*
G01*
X87825500Y-105272820D01*
X87939616Y-105360384D01*
X88027180Y-105474500D01*
X88082225Y-105607391D01*
X88101000Y-105750000D01*
X88082225Y-105892609D01*
X88027180Y-106025500D01*
X87939616Y-106139616D01*
X87825500Y-106227180D01*
X87692609Y-106282225D01*
X87550000Y-106301000D01*
X87407391Y-106282225D01*
X87274500Y-106227180D01*
X87160384Y-106139616D01*
X87072820Y-106025500D01*
X87017775Y-105892609D01*
X86999000Y-105750000D01*
X87017775Y-105607391D01*
X87072820Y-105474500D01*
X87160384Y-105360384D01*
X87274500Y-105272820D01*
X87407391Y-105217775D01*
X87550000Y-105199000D01*
X87692609Y-105217775D01*
G37*
G36*
X74804517Y-104408162D02*
G01*
X74821062Y-104419218D01*
X74832118Y-104435763D01*
X74836000Y-104455280D01*
X74836000Y-106055280D01*
X74832118Y-106074797D01*
X74821062Y-106091342D01*
X74804517Y-106102398D01*
X74785000Y-106106280D01*
X73185000Y-106106280D01*
X73165483Y-106102398D01*
X73148938Y-106091342D01*
X73137882Y-106074797D01*
X73134000Y-106055280D01*
X73134000Y-104455280D01*
X73137882Y-104435763D01*
X73148938Y-104419218D01*
X73165483Y-104408162D01*
X73185000Y-104404280D01*
X74785000Y-104404280D01*
X74804517Y-104408162D01*
G37*
G36*
X30206075Y-104584440D02*
G01*
X30222620Y-104595496D01*
X30233676Y-104612041D01*
X30237558Y-104631558D01*
X30237558Y-105631558D01*
X30233676Y-105651075D01*
X30222620Y-105667620D01*
X30206075Y-105678676D01*
X30186558Y-105682558D01*
X29186558Y-105682558D01*
X29167041Y-105678676D01*
X29150496Y-105667620D01*
X29139440Y-105651075D01*
X29135558Y-105631558D01*
X29135558Y-104631558D01*
X29139440Y-104612041D01*
X29150496Y-104595496D01*
X29167041Y-104584440D01*
X29186558Y-104580558D01*
X30186558Y-104580558D01*
X30206075Y-104584440D01*
G37*
G36*
X31593575Y-104584440D02*
G01*
X31610120Y-104595496D01*
X31621176Y-104612041D01*
X31625058Y-104631558D01*
X31625058Y-105631558D01*
X31621176Y-105651075D01*
X31610120Y-105667620D01*
X31593575Y-105678676D01*
X31574058Y-105682558D01*
X30574058Y-105682558D01*
X30554541Y-105678676D01*
X30537996Y-105667620D01*
X30526940Y-105651075D01*
X30523058Y-105631558D01*
X30523058Y-104631558D01*
X30526940Y-104612041D01*
X30537996Y-104595496D01*
X30554541Y-104584440D01*
X30574058Y-104580558D01*
X31574058Y-104580558D01*
X31593575Y-104584440D01*
G37*
G36*
X32981075Y-104584440D02*
G01*
X32997620Y-104595496D01*
X33008676Y-104612041D01*
X33012558Y-104631558D01*
X33012558Y-105631558D01*
X33008676Y-105651075D01*
X32997620Y-105667620D01*
X32981075Y-105678676D01*
X32961558Y-105682558D01*
X31961558Y-105682558D01*
X31942041Y-105678676D01*
X31925496Y-105667620D01*
X31914440Y-105651075D01*
X31910558Y-105631558D01*
X31910558Y-104631558D01*
X31914440Y-104612041D01*
X31925496Y-104595496D01*
X31942041Y-104584440D01*
X31961558Y-104580558D01*
X32961558Y-104580558D01*
X32981075Y-104584440D01*
G37*
G36*
X34368575Y-104584440D02*
G01*
X34385120Y-104595496D01*
X34396176Y-104612041D01*
X34400058Y-104631558D01*
X34400058Y-105631558D01*
X34396176Y-105651075D01*
X34385120Y-105667620D01*
X34368575Y-105678676D01*
X34349058Y-105682558D01*
X33349058Y-105682558D01*
X33329541Y-105678676D01*
X33312996Y-105667620D01*
X33301940Y-105651075D01*
X33298058Y-105631558D01*
X33298058Y-104631558D01*
X33301940Y-104612041D01*
X33312996Y-104595496D01*
X33329541Y-104584440D01*
X33349058Y-104580558D01*
X34349058Y-104580558D01*
X34368575Y-104584440D01*
G37*
G36*
X35756075Y-104584440D02*
G01*
X35772620Y-104595496D01*
X35783676Y-104612041D01*
X35787558Y-104631558D01*
X35787558Y-105631558D01*
X35783676Y-105651075D01*
X35772620Y-105667620D01*
X35756075Y-105678676D01*
X35736558Y-105682558D01*
X34736558Y-105682558D01*
X34717041Y-105678676D01*
X34700496Y-105667620D01*
X34689440Y-105651075D01*
X34685558Y-105631558D01*
X34685558Y-104631558D01*
X34689440Y-104612041D01*
X34700496Y-104595496D01*
X34717041Y-104584440D01*
X34736558Y-104580558D01*
X35736558Y-104580558D01*
X35756075Y-104584440D01*
G37*
G36*
X37156075Y-104584440D02*
G01*
X37172620Y-104595496D01*
X37183676Y-104612041D01*
X37187558Y-104631558D01*
X37187558Y-105631558D01*
X37183676Y-105651075D01*
X37172620Y-105667620D01*
X37156075Y-105678676D01*
X37136558Y-105682558D01*
X36136558Y-105682558D01*
X36117041Y-105678676D01*
X36100496Y-105667620D01*
X36089440Y-105651075D01*
X36085558Y-105631558D01*
X36085558Y-104631558D01*
X36089440Y-104612041D01*
X36100496Y-104595496D01*
X36117041Y-104584440D01*
X36136558Y-104580558D01*
X37136558Y-104580558D01*
X37156075Y-104584440D01*
G37*
G36*
X38506075Y-104584440D02*
G01*
X38522620Y-104595496D01*
X38533676Y-104612041D01*
X38537558Y-104631558D01*
X38537558Y-105631558D01*
X38533676Y-105651075D01*
X38522620Y-105667620D01*
X38506075Y-105678676D01*
X38486558Y-105682558D01*
X37486558Y-105682558D01*
X37467041Y-105678676D01*
X37450496Y-105667620D01*
X37439440Y-105651075D01*
X37435558Y-105631558D01*
X37435558Y-104631558D01*
X37439440Y-104612041D01*
X37450496Y-104595496D01*
X37467041Y-104584440D01*
X37486558Y-104580558D01*
X38486558Y-104580558D01*
X38506075Y-104584440D01*
G37*
G36*
X78680093Y-104956819D02*
G01*
X78742057Y-104998223D01*
X78783461Y-105060187D01*
X78798000Y-105133280D01*
X78798000Y-105473280D01*
X78783461Y-105546373D01*
X78742057Y-105608337D01*
X78680093Y-105649741D01*
X78607000Y-105664280D01*
X78327000Y-105664280D01*
X78253907Y-105649741D01*
X78191943Y-105608337D01*
X78150539Y-105546373D01*
X78136000Y-105473280D01*
X78136000Y-105133280D01*
X78150539Y-105060187D01*
X78191943Y-104998223D01*
X78253907Y-104956819D01*
X78327000Y-104942280D01*
X78607000Y-104942280D01*
X78680093Y-104956819D01*
G37*
G36*
X79640093Y-104956819D02*
G01*
X79702057Y-104998223D01*
X79743461Y-105060187D01*
X79758000Y-105133280D01*
X79758000Y-105473280D01*
X79743461Y-105546373D01*
X79702057Y-105608337D01*
X79640093Y-105649741D01*
X79567000Y-105664280D01*
X79287000Y-105664280D01*
X79213907Y-105649741D01*
X79151943Y-105608337D01*
X79110539Y-105546373D01*
X79096000Y-105473280D01*
X79096000Y-105133280D01*
X79110539Y-105060187D01*
X79151943Y-104998223D01*
X79213907Y-104956819D01*
X79287000Y-104942280D01*
X79567000Y-104942280D01*
X79640093Y-104956819D01*
G37*
G36*
X40206075Y-104484440D02*
G01*
X40222620Y-104495496D01*
X40233676Y-104512041D01*
X40237558Y-104531558D01*
X40237558Y-105531558D01*
X40233676Y-105551075D01*
X40222620Y-105567620D01*
X40206075Y-105578676D01*
X40186558Y-105582558D01*
X39186558Y-105582558D01*
X39167041Y-105578676D01*
X39150496Y-105567620D01*
X39139440Y-105551075D01*
X39135558Y-105531558D01*
X39135558Y-104531558D01*
X39139440Y-104512041D01*
X39150496Y-104495496D01*
X39167041Y-104484440D01*
X39186558Y-104480558D01*
X40186558Y-104480558D01*
X40206075Y-104484440D01*
G37*
G36*
X80642609Y-103767775D02*
G01*
X80775500Y-103822820D01*
X80889616Y-103910384D01*
X80977180Y-104024500D01*
X81032225Y-104157391D01*
X81051000Y-104300000D01*
X81032225Y-104442609D01*
X80977180Y-104575500D01*
X80889616Y-104689616D01*
X80775500Y-104777180D01*
X80642609Y-104832225D01*
X80500000Y-104851000D01*
X80357391Y-104832225D01*
X80224500Y-104777180D01*
X80110384Y-104689616D01*
X80022820Y-104575500D01*
X79967775Y-104442609D01*
X79949000Y-104300000D01*
X79967775Y-104157391D01*
X80022820Y-104024500D01*
X80110384Y-103910384D01*
X80224500Y-103822820D01*
X80357391Y-103767775D01*
X80500000Y-103749000D01*
X80642609Y-103767775D01*
G37*
G36*
X107273919Y-103103080D02*
G01*
X107339128Y-103146652D01*
X107382700Y-103211861D01*
X107398000Y-103288780D01*
X107398000Y-104463780D01*
X107382700Y-104540699D01*
X107339128Y-104605908D01*
X107273919Y-104649480D01*
X107197000Y-104664780D01*
X106897000Y-104664780D01*
X106820081Y-104649480D01*
X106754872Y-104605908D01*
X106711300Y-104540699D01*
X106696000Y-104463780D01*
X106696000Y-103288780D01*
X106711300Y-103211861D01*
X106754872Y-103146652D01*
X106820081Y-103103080D01*
X106897000Y-103087780D01*
X107197000Y-103087780D01*
X107273919Y-103103080D01*
G37*
G36*
X109173919Y-103103080D02*
G01*
X109239128Y-103146652D01*
X109282700Y-103211861D01*
X109298000Y-103288780D01*
X109298000Y-104463780D01*
X109282700Y-104540699D01*
X109239128Y-104605908D01*
X109173919Y-104649480D01*
X109097000Y-104664780D01*
X108797000Y-104664780D01*
X108720081Y-104649480D01*
X108654872Y-104605908D01*
X108611300Y-104540699D01*
X108596000Y-104463780D01*
X108596000Y-103288780D01*
X108611300Y-103211861D01*
X108654872Y-103146652D01*
X108720081Y-103103080D01*
X108797000Y-103087780D01*
X109097000Y-103087780D01*
X109173919Y-103103080D01*
G37*
G36*
X111798517Y-102932162D02*
G01*
X111815062Y-102943218D01*
X111826118Y-102959763D01*
X111830000Y-102979280D01*
X111830000Y-104579280D01*
X111826118Y-104598797D01*
X111815062Y-104615342D01*
X111798517Y-104626398D01*
X111779000Y-104630280D01*
X110179000Y-104630280D01*
X110159483Y-104626398D01*
X110142938Y-104615342D01*
X110131882Y-104598797D01*
X110128000Y-104579280D01*
X110128000Y-102979280D01*
X110131882Y-102959763D01*
X110142938Y-102943218D01*
X110159483Y-102932162D01*
X110179000Y-102928280D01*
X111779000Y-102928280D01*
X111798517Y-102932162D01*
G37*
G36*
X60006075Y-102934440D02*
G01*
X60022620Y-102945496D01*
X60033676Y-102962041D01*
X60037558Y-102981558D01*
X60037558Y-103981558D01*
X60033676Y-104001075D01*
X60022620Y-104017620D01*
X60006075Y-104028676D01*
X59986558Y-104032558D01*
X58986558Y-104032558D01*
X58967041Y-104028676D01*
X58950496Y-104017620D01*
X58939440Y-104001075D01*
X58935558Y-103981558D01*
X58935558Y-102981558D01*
X58939440Y-102962041D01*
X58950496Y-102945496D01*
X58967041Y-102934440D01*
X58986558Y-102930558D01*
X59986558Y-102930558D01*
X60006075Y-102934440D01*
G37*
G36*
X61393575Y-102934440D02*
G01*
X61410120Y-102945496D01*
X61421176Y-102962041D01*
X61425058Y-102981558D01*
X61425058Y-103981558D01*
X61421176Y-104001075D01*
X61410120Y-104017620D01*
X61393575Y-104028676D01*
X61374058Y-104032558D01*
X60374058Y-104032558D01*
X60354541Y-104028676D01*
X60337996Y-104017620D01*
X60326940Y-104001075D01*
X60323058Y-103981558D01*
X60323058Y-102981558D01*
X60326940Y-102962041D01*
X60337996Y-102945496D01*
X60354541Y-102934440D01*
X60374058Y-102930558D01*
X61374058Y-102930558D01*
X61393575Y-102934440D01*
G37*
G36*
X62781075Y-102934440D02*
G01*
X62797620Y-102945496D01*
X62808676Y-102962041D01*
X62812558Y-102981558D01*
X62812558Y-103981558D01*
X62808676Y-104001075D01*
X62797620Y-104017620D01*
X62781075Y-104028676D01*
X62761558Y-104032558D01*
X61761558Y-104032558D01*
X61742041Y-104028676D01*
X61725496Y-104017620D01*
X61714440Y-104001075D01*
X61710558Y-103981558D01*
X61710558Y-102981558D01*
X61714440Y-102962041D01*
X61725496Y-102945496D01*
X61742041Y-102934440D01*
X61761558Y-102930558D01*
X62761558Y-102930558D01*
X62781075Y-102934440D01*
G37*
G36*
X30218575Y-102609440D02*
G01*
X30235120Y-102620496D01*
X30246176Y-102637041D01*
X30250058Y-102656558D01*
X30250058Y-103656558D01*
X30246176Y-103676075D01*
X30235120Y-103692620D01*
X30218575Y-103703676D01*
X30199058Y-103707558D01*
X29199058Y-103707558D01*
X29179541Y-103703676D01*
X29162996Y-103692620D01*
X29151940Y-103676075D01*
X29148058Y-103656558D01*
X29148058Y-102656558D01*
X29151940Y-102637041D01*
X29162996Y-102620496D01*
X29179541Y-102609440D01*
X29199058Y-102605558D01*
X30199058Y-102605558D01*
X30218575Y-102609440D01*
G37*
G36*
X31606075Y-102609440D02*
G01*
X31622620Y-102620496D01*
X31633676Y-102637041D01*
X31637558Y-102656558D01*
X31637558Y-103656558D01*
X31633676Y-103676075D01*
X31622620Y-103692620D01*
X31606075Y-103703676D01*
X31586558Y-103707558D01*
X30586558Y-103707558D01*
X30567041Y-103703676D01*
X30550496Y-103692620D01*
X30539440Y-103676075D01*
X30535558Y-103656558D01*
X30535558Y-102656558D01*
X30539440Y-102637041D01*
X30550496Y-102620496D01*
X30567041Y-102609440D01*
X30586558Y-102605558D01*
X31586558Y-102605558D01*
X31606075Y-102609440D01*
G37*
G36*
X32993575Y-102609440D02*
G01*
X33010120Y-102620496D01*
X33021176Y-102637041D01*
X33025058Y-102656558D01*
X33025058Y-103656558D01*
X33021176Y-103676075D01*
X33010120Y-103692620D01*
X32993575Y-103703676D01*
X32974058Y-103707558D01*
X31974058Y-103707558D01*
X31954541Y-103703676D01*
X31937996Y-103692620D01*
X31926940Y-103676075D01*
X31923058Y-103656558D01*
X31923058Y-102656558D01*
X31926940Y-102637041D01*
X31937996Y-102620496D01*
X31954541Y-102609440D01*
X31974058Y-102605558D01*
X32974058Y-102605558D01*
X32993575Y-102609440D01*
G37*
G36*
X34381075Y-102609440D02*
G01*
X34397620Y-102620496D01*
X34408676Y-102637041D01*
X34412558Y-102656558D01*
X34412558Y-103656558D01*
X34408676Y-103676075D01*
X34397620Y-103692620D01*
X34381075Y-103703676D01*
X34361558Y-103707558D01*
X33361558Y-103707558D01*
X33342041Y-103703676D01*
X33325496Y-103692620D01*
X33314440Y-103676075D01*
X33310558Y-103656558D01*
X33310558Y-102656558D01*
X33314440Y-102637041D01*
X33325496Y-102620496D01*
X33342041Y-102609440D01*
X33361558Y-102605558D01*
X34361558Y-102605558D01*
X34381075Y-102609440D01*
G37*
G36*
X35768575Y-102609440D02*
G01*
X35785120Y-102620496D01*
X35796176Y-102637041D01*
X35800058Y-102656558D01*
X35800058Y-103656558D01*
X35796176Y-103676075D01*
X35785120Y-103692620D01*
X35768575Y-103703676D01*
X35749058Y-103707558D01*
X34749058Y-103707558D01*
X34729541Y-103703676D01*
X34712996Y-103692620D01*
X34701940Y-103676075D01*
X34698058Y-103656558D01*
X34698058Y-102656558D01*
X34701940Y-102637041D01*
X34712996Y-102620496D01*
X34729541Y-102609440D01*
X34749058Y-102605558D01*
X35749058Y-102605558D01*
X35768575Y-102609440D01*
G37*
G36*
X80642609Y-102317775D02*
G01*
X80775500Y-102372820D01*
X80889616Y-102460384D01*
X80977180Y-102574500D01*
X81032225Y-102707391D01*
X81051000Y-102850000D01*
X81032225Y-102992609D01*
X80977180Y-103125500D01*
X80889616Y-103239616D01*
X80775500Y-103327180D01*
X80642609Y-103382225D01*
X80500000Y-103401000D01*
X80357391Y-103382225D01*
X80224500Y-103327180D01*
X80110384Y-103239616D01*
X80022820Y-103125500D01*
X79967775Y-102992609D01*
X79949000Y-102850000D01*
X79967775Y-102707391D01*
X80022820Y-102574500D01*
X80110384Y-102460384D01*
X80224500Y-102372820D01*
X80357391Y-102317775D01*
X80500000Y-102299000D01*
X80642609Y-102317775D01*
G37*
G36*
X75229517Y-102248162D02*
G01*
X75246062Y-102259218D01*
X75257118Y-102275763D01*
X75261000Y-102295280D01*
X75261000Y-103295280D01*
X75257118Y-103314797D01*
X75246062Y-103331342D01*
X75229517Y-103342398D01*
X75210000Y-103346280D01*
X72210000Y-103346280D01*
X72190483Y-103342398D01*
X72173938Y-103331342D01*
X72162882Y-103314797D01*
X72159000Y-103295280D01*
X72159000Y-102295280D01*
X72162882Y-102275763D01*
X72173938Y-102259218D01*
X72190483Y-102248162D01*
X72210000Y-102244280D01*
X75210000Y-102244280D01*
X75229517Y-102248162D01*
G37*
G36*
X79066919Y-102139580D02*
G01*
X79132128Y-102183152D01*
X79175700Y-102248361D01*
X79191000Y-102325280D01*
X79191000Y-102625280D01*
X79175700Y-102702199D01*
X79132128Y-102767408D01*
X79066919Y-102810980D01*
X78990000Y-102826280D01*
X77815000Y-102826280D01*
X77738081Y-102810980D01*
X77672872Y-102767408D01*
X77629300Y-102702199D01*
X77614000Y-102625280D01*
X77614000Y-102325280D01*
X77629300Y-102248361D01*
X77672872Y-102183152D01*
X77738081Y-102139580D01*
X77815000Y-102124280D01*
X78990000Y-102124280D01*
X79066919Y-102139580D01*
G37*
G36*
X108223919Y-101228080D02*
G01*
X108289128Y-101271652D01*
X108332700Y-101336861D01*
X108348000Y-101413780D01*
X108348000Y-102588780D01*
X108332700Y-102665699D01*
X108289128Y-102730908D01*
X108223919Y-102774480D01*
X108147000Y-102789780D01*
X107847000Y-102789780D01*
X107770081Y-102774480D01*
X107704872Y-102730908D01*
X107661300Y-102665699D01*
X107646000Y-102588780D01*
X107646000Y-101413780D01*
X107661300Y-101336861D01*
X107704872Y-101271652D01*
X107770081Y-101228080D01*
X107847000Y-101212780D01*
X108147000Y-101212780D01*
X108223919Y-101228080D01*
G37*
G36*
X54723093Y-101869539D02*
G01*
X54785057Y-101910943D01*
X54826461Y-101972907D01*
X54841000Y-102046000D01*
X54841000Y-102326000D01*
X54826461Y-102399093D01*
X54785057Y-102461057D01*
X54723093Y-102502461D01*
X54650000Y-102517000D01*
X54310000Y-102517000D01*
X54236907Y-102502461D01*
X54174943Y-102461057D01*
X54133539Y-102399093D01*
X54119000Y-102326000D01*
X54119000Y-102046000D01*
X54133539Y-101972907D01*
X54174943Y-101910943D01*
X54236907Y-101869539D01*
X54310000Y-101855000D01*
X54650000Y-101855000D01*
X54723093Y-101869539D01*
G37*
G36*
X75229517Y-100978162D02*
G01*
X75246062Y-100989218D01*
X75257118Y-101005763D01*
X75261000Y-101025280D01*
X75261000Y-102025280D01*
X75257118Y-102044797D01*
X75246062Y-102061342D01*
X75229517Y-102072398D01*
X75210000Y-102076280D01*
X72210000Y-102076280D01*
X72190483Y-102072398D01*
X72173938Y-102061342D01*
X72162882Y-102044797D01*
X72159000Y-102025280D01*
X72159000Y-101025280D01*
X72162882Y-101005763D01*
X72173938Y-100989218D01*
X72190483Y-100978162D01*
X72210000Y-100974280D01*
X75210000Y-100974280D01*
X75229517Y-100978162D01*
G37*
G36*
X113337017Y-100978162D02*
G01*
X113353562Y-100989218D01*
X113364618Y-101005763D01*
X113368500Y-101025280D01*
X113368500Y-102025280D01*
X113364618Y-102044797D01*
X113353562Y-102061342D01*
X113337017Y-102072398D01*
X113317500Y-102076280D01*
X110317500Y-102076280D01*
X110297983Y-102072398D01*
X110281438Y-102061342D01*
X110270382Y-102044797D01*
X110266500Y-102025280D01*
X110266500Y-101025280D01*
X110270382Y-101005763D01*
X110281438Y-100989218D01*
X110297983Y-100978162D01*
X110317500Y-100974280D01*
X113317500Y-100974280D01*
X113337017Y-100978162D01*
G37*
G36*
X80642609Y-100867775D02*
G01*
X80775500Y-100922820D01*
X80889616Y-101010384D01*
X80977180Y-101124500D01*
X81032225Y-101257391D01*
X81051000Y-101400000D01*
X81032225Y-101542609D01*
X80977180Y-101675500D01*
X80889616Y-101789616D01*
X80775500Y-101877180D01*
X80642609Y-101932225D01*
X80500000Y-101951000D01*
X80357391Y-101932225D01*
X80224500Y-101877180D01*
X80110384Y-101789616D01*
X80022820Y-101675500D01*
X79967775Y-101542609D01*
X79949000Y-101400000D01*
X79967775Y-101257391D01*
X80022820Y-101124500D01*
X80110384Y-101010384D01*
X80224500Y-100922820D01*
X80357391Y-100867775D01*
X80500000Y-100849000D01*
X80642609Y-100867775D01*
G37*
G36*
X87242609Y-100867775D02*
G01*
X87375500Y-100922820D01*
X87489616Y-101010384D01*
X87577180Y-101124500D01*
X87632225Y-101257391D01*
X87651000Y-101400000D01*
X87632225Y-101542609D01*
X87577180Y-101675500D01*
X87489616Y-101789616D01*
X87375500Y-101877180D01*
X87242609Y-101932225D01*
X87100000Y-101951000D01*
X86957391Y-101932225D01*
X86824500Y-101877180D01*
X86710384Y-101789616D01*
X86622820Y-101675500D01*
X86567775Y-101542609D01*
X86549000Y-101400000D01*
X86567775Y-101257391D01*
X86622820Y-101124500D01*
X86710384Y-101010384D01*
X86824500Y-100922820D01*
X86957391Y-100867775D01*
X87100000Y-100849000D01*
X87242609Y-100867775D01*
G37*
G36*
X81942609Y-100817775D02*
G01*
X82075500Y-100872820D01*
X82189616Y-100960384D01*
X82277180Y-101074500D01*
X82332225Y-101207391D01*
X82351000Y-101350000D01*
X82332225Y-101492609D01*
X82277180Y-101625500D01*
X82189616Y-101739616D01*
X82075500Y-101827180D01*
X81942609Y-101882225D01*
X81800000Y-101901000D01*
X81657391Y-101882225D01*
X81524500Y-101827180D01*
X81410384Y-101739616D01*
X81322820Y-101625500D01*
X81267775Y-101492609D01*
X81249000Y-101350000D01*
X81267775Y-101207391D01*
X81322820Y-101074500D01*
X81410384Y-100960384D01*
X81524500Y-100872820D01*
X81657391Y-100817775D01*
X81800000Y-100799000D01*
X81942609Y-100817775D01*
G37*
G36*
X83292609Y-100817775D02*
G01*
X83425500Y-100872820D01*
X83539616Y-100960384D01*
X83627180Y-101074500D01*
X83682225Y-101207391D01*
X83701000Y-101350000D01*
X83682225Y-101492609D01*
X83627180Y-101625500D01*
X83539616Y-101739616D01*
X83425500Y-101827180D01*
X83292609Y-101882225D01*
X83150000Y-101901000D01*
X83007391Y-101882225D01*
X82874500Y-101827180D01*
X82760384Y-101739616D01*
X82672820Y-101625500D01*
X82617775Y-101492609D01*
X82599000Y-101350000D01*
X82617775Y-101207391D01*
X82672820Y-101074500D01*
X82760384Y-100960384D01*
X82874500Y-100872820D01*
X83007391Y-100817775D01*
X83150000Y-100799000D01*
X83292609Y-100817775D01*
G37*
G36*
X84642609Y-100817775D02*
G01*
X84775500Y-100872820D01*
X84889616Y-100960384D01*
X84977180Y-101074500D01*
X85032225Y-101207391D01*
X85051000Y-101350000D01*
X85032225Y-101492609D01*
X84977180Y-101625500D01*
X84889616Y-101739616D01*
X84775500Y-101827180D01*
X84642609Y-101882225D01*
X84500000Y-101901000D01*
X84357391Y-101882225D01*
X84224500Y-101827180D01*
X84110384Y-101739616D01*
X84022820Y-101625500D01*
X83967775Y-101492609D01*
X83949000Y-101350000D01*
X83967775Y-101207391D01*
X84022820Y-101074500D01*
X84110384Y-100960384D01*
X84224500Y-100872820D01*
X84357391Y-100817775D01*
X84500000Y-100799000D01*
X84642609Y-100817775D01*
G37*
G36*
X85942609Y-100817775D02*
G01*
X86075500Y-100872820D01*
X86189616Y-100960384D01*
X86277180Y-101074500D01*
X86332225Y-101207391D01*
X86351000Y-101350000D01*
X86332225Y-101492609D01*
X86277180Y-101625500D01*
X86189616Y-101739616D01*
X86075500Y-101827180D01*
X85942609Y-101882225D01*
X85800000Y-101901000D01*
X85657391Y-101882225D01*
X85524500Y-101827180D01*
X85410384Y-101739616D01*
X85322820Y-101625500D01*
X85267775Y-101492609D01*
X85249000Y-101350000D01*
X85267775Y-101207391D01*
X85322820Y-101074500D01*
X85410384Y-100960384D01*
X85524500Y-100872820D01*
X85657391Y-100817775D01*
X85800000Y-100799000D01*
X85942609Y-100817775D01*
G37*
G36*
X77191919Y-101189580D02*
G01*
X77257128Y-101233152D01*
X77300700Y-101298361D01*
X77316000Y-101375280D01*
X77316000Y-101675280D01*
X77300700Y-101752199D01*
X77257128Y-101817408D01*
X77191919Y-101860980D01*
X77115000Y-101876280D01*
X75940000Y-101876280D01*
X75863081Y-101860980D01*
X75797872Y-101817408D01*
X75754300Y-101752199D01*
X75739000Y-101675280D01*
X75739000Y-101375280D01*
X75754300Y-101298361D01*
X75797872Y-101233152D01*
X75863081Y-101189580D01*
X75940000Y-101174280D01*
X77115000Y-101174280D01*
X77191919Y-101189580D01*
G37*
G36*
X54723093Y-100909539D02*
G01*
X54785057Y-100950943D01*
X54826461Y-101012907D01*
X54841000Y-101086000D01*
X54841000Y-101366000D01*
X54826461Y-101439093D01*
X54785057Y-101501057D01*
X54723093Y-101542461D01*
X54650000Y-101557000D01*
X54310000Y-101557000D01*
X54236907Y-101542461D01*
X54174943Y-101501057D01*
X54133539Y-101439093D01*
X54119000Y-101366000D01*
X54119000Y-101086000D01*
X54133539Y-101012907D01*
X54174943Y-100950943D01*
X54236907Y-100909539D01*
X54310000Y-100895000D01*
X54650000Y-100895000D01*
X54723093Y-100909539D01*
G37*
G36*
X79066919Y-100239580D02*
G01*
X79132128Y-100283152D01*
X79175700Y-100348361D01*
X79191000Y-100425280D01*
X79191000Y-100725280D01*
X79175700Y-100802199D01*
X79132128Y-100867408D01*
X79066919Y-100910980D01*
X78990000Y-100926280D01*
X77815000Y-100926280D01*
X77738081Y-100910980D01*
X77672872Y-100867408D01*
X77629300Y-100802199D01*
X77614000Y-100725280D01*
X77614000Y-100425280D01*
X77629300Y-100348361D01*
X77672872Y-100283152D01*
X77738081Y-100239580D01*
X77815000Y-100224280D01*
X78990000Y-100224280D01*
X79066919Y-100239580D01*
G37*
G36*
X30056075Y-98734440D02*
G01*
X30072620Y-98745496D01*
X30083676Y-98762041D01*
X30087558Y-98781558D01*
X30087558Y-100781558D01*
X30083676Y-100801075D01*
X30072620Y-100817620D01*
X30056075Y-100828676D01*
X30036558Y-100832558D01*
X29036558Y-100832558D01*
X29017041Y-100828676D01*
X29000496Y-100817620D01*
X28989440Y-100801075D01*
X28985558Y-100781558D01*
X28985558Y-98781558D01*
X28989440Y-98762041D01*
X29000496Y-98745496D01*
X29017041Y-98734440D01*
X29036558Y-98730558D01*
X30036558Y-98730558D01*
X30056075Y-98734440D01*
G37*
G36*
X31405277Y-98734440D02*
G01*
X31421822Y-98745496D01*
X31432878Y-98762041D01*
X31436760Y-98781558D01*
X31436760Y-100781558D01*
X31432878Y-100801075D01*
X31421822Y-100817620D01*
X31405277Y-100828676D01*
X31385760Y-100832558D01*
X30385760Y-100832558D01*
X30366243Y-100828676D01*
X30349698Y-100817620D01*
X30338642Y-100801075D01*
X30334760Y-100781558D01*
X30334760Y-98781558D01*
X30338642Y-98762041D01*
X30349698Y-98745496D01*
X30366243Y-98734440D01*
X30385760Y-98730558D01*
X31385760Y-98730558D01*
X31405277Y-98734440D01*
G37*
G36*
X32754476Y-98734440D02*
G01*
X32771021Y-98745496D01*
X32782077Y-98762041D01*
X32785959Y-98781558D01*
X32785959Y-100781558D01*
X32782077Y-100801075D01*
X32771021Y-100817620D01*
X32754476Y-100828676D01*
X32734959Y-100832558D01*
X31734959Y-100832558D01*
X31715442Y-100828676D01*
X31698897Y-100817620D01*
X31687841Y-100801075D01*
X31683959Y-100781558D01*
X31683959Y-98781558D01*
X31687841Y-98762041D01*
X31698897Y-98745496D01*
X31715442Y-98734440D01*
X31734959Y-98730558D01*
X32734959Y-98730558D01*
X32754476Y-98734440D01*
G37*
G36*
X34103675Y-98734440D02*
G01*
X34120220Y-98745496D01*
X34131276Y-98762041D01*
X34135158Y-98781558D01*
X34135158Y-100781558D01*
X34131276Y-100801075D01*
X34120220Y-100817620D01*
X34103675Y-100828676D01*
X34084158Y-100832558D01*
X33084158Y-100832558D01*
X33064641Y-100828676D01*
X33048096Y-100817620D01*
X33037040Y-100801075D01*
X33033158Y-100781558D01*
X33033158Y-98781558D01*
X33037040Y-98762041D01*
X33048096Y-98745496D01*
X33064641Y-98734440D01*
X33084158Y-98730558D01*
X34084158Y-98730558D01*
X34103675Y-98734440D01*
G37*
G36*
X35452874Y-98734440D02*
G01*
X35469419Y-98745496D01*
X35480475Y-98762041D01*
X35484357Y-98781558D01*
X35484357Y-100781558D01*
X35480475Y-100801075D01*
X35469419Y-100817620D01*
X35452874Y-100828676D01*
X35433357Y-100832558D01*
X34433357Y-100832558D01*
X34413840Y-100828676D01*
X34397295Y-100817620D01*
X34386239Y-100801075D01*
X34382357Y-100781558D01*
X34382357Y-98781558D01*
X34386239Y-98762041D01*
X34397295Y-98745496D01*
X34413840Y-98734440D01*
X34433357Y-98730558D01*
X35433357Y-98730558D01*
X35452874Y-98734440D01*
G37*
G36*
X36802073Y-98734440D02*
G01*
X36818618Y-98745496D01*
X36829674Y-98762041D01*
X36833556Y-98781558D01*
X36833556Y-100781558D01*
X36829674Y-100801075D01*
X36818618Y-100817620D01*
X36802073Y-100828676D01*
X36782556Y-100832558D01*
X35782556Y-100832558D01*
X35763039Y-100828676D01*
X35746494Y-100817620D01*
X35735438Y-100801075D01*
X35731556Y-100781558D01*
X35731556Y-98781558D01*
X35735438Y-98762041D01*
X35746494Y-98745496D01*
X35763039Y-98734440D01*
X35782556Y-98730558D01*
X36782556Y-98730558D01*
X36802073Y-98734440D01*
G37*
G36*
X38151272Y-98734440D02*
G01*
X38167817Y-98745496D01*
X38178873Y-98762041D01*
X38182755Y-98781558D01*
X38182755Y-100781558D01*
X38178873Y-100801075D01*
X38167817Y-100817620D01*
X38151272Y-100828676D01*
X38131755Y-100832558D01*
X37131755Y-100832558D01*
X37112238Y-100828676D01*
X37095693Y-100817620D01*
X37084637Y-100801075D01*
X37080755Y-100781558D01*
X37080755Y-98781558D01*
X37084637Y-98762041D01*
X37095693Y-98745496D01*
X37112238Y-98734440D01*
X37131755Y-98730558D01*
X38131755Y-98730558D01*
X38151272Y-98734440D01*
G37*
G36*
X39500471Y-98734440D02*
G01*
X39517016Y-98745496D01*
X39528072Y-98762041D01*
X39531954Y-98781558D01*
X39531954Y-100781558D01*
X39528072Y-100801075D01*
X39517016Y-100817620D01*
X39500471Y-100828676D01*
X39480954Y-100832558D01*
X38480954Y-100832558D01*
X38461437Y-100828676D01*
X38444892Y-100817620D01*
X38433836Y-100801075D01*
X38429954Y-100781558D01*
X38429954Y-98781558D01*
X38433836Y-98762041D01*
X38444892Y-98745496D01*
X38461437Y-98734440D01*
X38480954Y-98730558D01*
X39480954Y-98730558D01*
X39500471Y-98734440D01*
G37*
G36*
X113337017Y-99708162D02*
G01*
X113353562Y-99719218D01*
X113364618Y-99735763D01*
X113368500Y-99755280D01*
X113368500Y-100755280D01*
X113364618Y-100774797D01*
X113353562Y-100791342D01*
X113337017Y-100802398D01*
X113317500Y-100806280D01*
X110317500Y-100806280D01*
X110297983Y-100802398D01*
X110281438Y-100791342D01*
X110270382Y-100774797D01*
X110266500Y-100755280D01*
X110266500Y-99755280D01*
X110270382Y-99735763D01*
X110281438Y-99719218D01*
X110297983Y-99708162D01*
X110317500Y-99704280D01*
X113317500Y-99704280D01*
X113337017Y-99708162D01*
G37*
G36*
X61455028Y-98592132D02*
G01*
X61489587Y-98601815D01*
X61522506Y-98606149D01*
X61558989Y-98621260D01*
X61599519Y-98632617D01*
X61627534Y-98649653D01*
X61655306Y-98661157D01*
X61689128Y-98687109D01*
X61727729Y-98710583D01*
X61747982Y-98732269D01*
X61769341Y-98748658D01*
X61797213Y-98784982D01*
X61830150Y-98820249D01*
X61842370Y-98843832D01*
X61856842Y-98862693D01*
X61875567Y-98907899D01*
X61899186Y-98953481D01*
X61903955Y-98976434D01*
X61911850Y-98995493D01*
X61918651Y-99047155D01*
X61929715Y-99100398D01*
X61928328Y-99120664D01*
X61930611Y-99138000D01*
X61923392Y-99192831D01*
X61919475Y-99250104D01*
X61913721Y-99266294D01*
X61911850Y-99280507D01*
X61889454Y-99334573D01*
X61869225Y-99391496D01*
X61861122Y-99402975D01*
X61856843Y-99413306D01*
X61819217Y-99462339D01*
X61782691Y-99514087D01*
X61774227Y-99520972D01*
X61769341Y-99527341D01*
X61717588Y-99567051D01*
X61666291Y-99608785D01*
X61659167Y-99611879D01*
X61655306Y-99614842D01*
X61591477Y-99641280D01*
X61528658Y-99668567D01*
X61524086Y-99669195D01*
X61522506Y-99669850D01*
X61447010Y-99679789D01*
X61380000Y-99689000D01*
X61377051Y-99689000D01*
X60282949Y-99689000D01*
X60280000Y-99689000D01*
X60204972Y-99683868D01*
X60170407Y-99674183D01*
X60137493Y-99669850D01*
X60101015Y-99654740D01*
X60060481Y-99643383D01*
X60032462Y-99626344D01*
X60004693Y-99614842D01*
X59970872Y-99588891D01*
X59932271Y-99565417D01*
X59912016Y-99543729D01*
X59890658Y-99527341D01*
X59862785Y-99491015D01*
X59829850Y-99455751D01*
X59817630Y-99432168D01*
X59803157Y-99413306D01*
X59784429Y-99368095D01*
X59760814Y-99322519D01*
X59756044Y-99299568D01*
X59748149Y-99280506D01*
X59741346Y-99228832D01*
X59730285Y-99175602D01*
X59731670Y-99155340D01*
X59729388Y-99138000D01*
X59736608Y-99083152D01*
X59740525Y-99025896D01*
X59746277Y-99009710D01*
X59748149Y-98995492D01*
X59770553Y-98941402D01*
X59790775Y-98884504D01*
X59798874Y-98873029D01*
X59803156Y-98862693D01*
X59840802Y-98813631D01*
X59877309Y-98761913D01*
X59885767Y-98755031D01*
X59890658Y-98748658D01*
X59942449Y-98708917D01*
X59993709Y-98667215D01*
X60000827Y-98664122D01*
X60004693Y-98661157D01*
X60068592Y-98634688D01*
X60131342Y-98607433D01*
X60135908Y-98606805D01*
X60137493Y-98606149D01*
X60213082Y-98596197D01*
X60280000Y-98587000D01*
X61380000Y-98587000D01*
X61455028Y-98592132D01*
G37*
G36*
X65485028Y-98592132D02*
G01*
X65519587Y-98601815D01*
X65552506Y-98606149D01*
X65588989Y-98621260D01*
X65629519Y-98632617D01*
X65657534Y-98649653D01*
X65685306Y-98661157D01*
X65719128Y-98687109D01*
X65757729Y-98710583D01*
X65777982Y-98732269D01*
X65799341Y-98748658D01*
X65827213Y-98784982D01*
X65860150Y-98820249D01*
X65872370Y-98843832D01*
X65886842Y-98862693D01*
X65905567Y-98907899D01*
X65929186Y-98953481D01*
X65933955Y-98976434D01*
X65941850Y-98995493D01*
X65948651Y-99047155D01*
X65959715Y-99100398D01*
X65958328Y-99120664D01*
X65960611Y-99138000D01*
X65953392Y-99192831D01*
X65949475Y-99250104D01*
X65943721Y-99266294D01*
X65941850Y-99280507D01*
X65919454Y-99334573D01*
X65899225Y-99391496D01*
X65891122Y-99402975D01*
X65886843Y-99413306D01*
X65849217Y-99462339D01*
X65812691Y-99514087D01*
X65804227Y-99520972D01*
X65799341Y-99527341D01*
X65747588Y-99567051D01*
X65696291Y-99608785D01*
X65689167Y-99611879D01*
X65685306Y-99614842D01*
X65621477Y-99641280D01*
X65558658Y-99668567D01*
X65554086Y-99669195D01*
X65552506Y-99669850D01*
X65477010Y-99679789D01*
X65410000Y-99689000D01*
X65407051Y-99689000D01*
X64612949Y-99689000D01*
X64610000Y-99689000D01*
X64534972Y-99683868D01*
X64500407Y-99674183D01*
X64467493Y-99669850D01*
X64431015Y-99654740D01*
X64390481Y-99643383D01*
X64362462Y-99626344D01*
X64334693Y-99614842D01*
X64300872Y-99588891D01*
X64262271Y-99565417D01*
X64242016Y-99543729D01*
X64220658Y-99527341D01*
X64192785Y-99491015D01*
X64159850Y-99455751D01*
X64147630Y-99432168D01*
X64133157Y-99413306D01*
X64114429Y-99368095D01*
X64090814Y-99322519D01*
X64086044Y-99299568D01*
X64078149Y-99280506D01*
X64071346Y-99228832D01*
X64060285Y-99175602D01*
X64061670Y-99155340D01*
X64059388Y-99138000D01*
X64066608Y-99083152D01*
X64070525Y-99025896D01*
X64076277Y-99009710D01*
X64078149Y-98995492D01*
X64100553Y-98941402D01*
X64120775Y-98884504D01*
X64128874Y-98873029D01*
X64133156Y-98862693D01*
X64170802Y-98813631D01*
X64207309Y-98761913D01*
X64215767Y-98755031D01*
X64220658Y-98748658D01*
X64272449Y-98708917D01*
X64323709Y-98667215D01*
X64330827Y-98664122D01*
X64334693Y-98661157D01*
X64398592Y-98634688D01*
X64461342Y-98607433D01*
X64465908Y-98606805D01*
X64467493Y-98606149D01*
X64543082Y-98596197D01*
X64610000Y-98587000D01*
X65410000Y-98587000D01*
X65485028Y-98592132D01*
G37*
G36*
X61446190Y-97350403D02*
G01*
X61551007Y-97403810D01*
X61634190Y-97486993D01*
X61687597Y-97591810D01*
X61706000Y-97708000D01*
X61687597Y-97824190D01*
X61634190Y-97929007D01*
X61551007Y-98012190D01*
X61446190Y-98065597D01*
X61330000Y-98084000D01*
X61213810Y-98065597D01*
X61108993Y-98012190D01*
X61025810Y-97929007D01*
X60972403Y-97824190D01*
X60954000Y-97708000D01*
X60972403Y-97591810D01*
X61025810Y-97486993D01*
X61108993Y-97403810D01*
X61213810Y-97350403D01*
X61330000Y-97332000D01*
X61446190Y-97350403D01*
G37*
G36*
X30106873Y-95834440D02*
G01*
X30123418Y-95845496D01*
X30134474Y-95862041D01*
X30138356Y-95881558D01*
X30138356Y-97881558D01*
X30134474Y-97901075D01*
X30123418Y-97917620D01*
X30106873Y-97928676D01*
X30087356Y-97932558D01*
X29087356Y-97932558D01*
X29067839Y-97928676D01*
X29051294Y-97917620D01*
X29040238Y-97901075D01*
X29036356Y-97881558D01*
X29036356Y-95881558D01*
X29040238Y-95862041D01*
X29051294Y-95845496D01*
X29067839Y-95834440D01*
X29087356Y-95830558D01*
X30087356Y-95830558D01*
X30106873Y-95834440D01*
G37*
G36*
X31456075Y-95834440D02*
G01*
X31472620Y-95845496D01*
X31483676Y-95862041D01*
X31487558Y-95881558D01*
X31487558Y-97881558D01*
X31483676Y-97901075D01*
X31472620Y-97917620D01*
X31456075Y-97928676D01*
X31436558Y-97932558D01*
X30436558Y-97932558D01*
X30417041Y-97928676D01*
X30400496Y-97917620D01*
X30389440Y-97901075D01*
X30385558Y-97881558D01*
X30385558Y-95881558D01*
X30389440Y-95862041D01*
X30400496Y-95845496D01*
X30417041Y-95834440D01*
X30436558Y-95830558D01*
X31436558Y-95830558D01*
X31456075Y-95834440D01*
G37*
G36*
X32805274Y-95834440D02*
G01*
X32821819Y-95845496D01*
X32832875Y-95862041D01*
X32836757Y-95881558D01*
X32836757Y-97881558D01*
X32832875Y-97901075D01*
X32821819Y-97917620D01*
X32805274Y-97928676D01*
X32785757Y-97932558D01*
X31785757Y-97932558D01*
X31766240Y-97928676D01*
X31749695Y-97917620D01*
X31738639Y-97901075D01*
X31734757Y-97881558D01*
X31734757Y-95881558D01*
X31738639Y-95862041D01*
X31749695Y-95845496D01*
X31766240Y-95834440D01*
X31785757Y-95830558D01*
X32785757Y-95830558D01*
X32805274Y-95834440D01*
G37*
G36*
X34154473Y-95834440D02*
G01*
X34171018Y-95845496D01*
X34182074Y-95862041D01*
X34185956Y-95881558D01*
X34185956Y-97881558D01*
X34182074Y-97901075D01*
X34171018Y-97917620D01*
X34154473Y-97928676D01*
X34134956Y-97932558D01*
X33134956Y-97932558D01*
X33115439Y-97928676D01*
X33098894Y-97917620D01*
X33087838Y-97901075D01*
X33083956Y-97881558D01*
X33083956Y-95881558D01*
X33087838Y-95862041D01*
X33098894Y-95845496D01*
X33115439Y-95834440D01*
X33134956Y-95830558D01*
X34134956Y-95830558D01*
X34154473Y-95834440D01*
G37*
G36*
X35503672Y-95834440D02*
G01*
X35520217Y-95845496D01*
X35531273Y-95862041D01*
X35535155Y-95881558D01*
X35535155Y-97881558D01*
X35531273Y-97901075D01*
X35520217Y-97917620D01*
X35503672Y-97928676D01*
X35484155Y-97932558D01*
X34484155Y-97932558D01*
X34464638Y-97928676D01*
X34448093Y-97917620D01*
X34437037Y-97901075D01*
X34433155Y-97881558D01*
X34433155Y-95881558D01*
X34437037Y-95862041D01*
X34448093Y-95845496D01*
X34464638Y-95834440D01*
X34484155Y-95830558D01*
X35484155Y-95830558D01*
X35503672Y-95834440D01*
G37*
G36*
X36852871Y-95834440D02*
G01*
X36869416Y-95845496D01*
X36880472Y-95862041D01*
X36884354Y-95881558D01*
X36884354Y-97881558D01*
X36880472Y-97901075D01*
X36869416Y-97917620D01*
X36852871Y-97928676D01*
X36833354Y-97932558D01*
X35833354Y-97932558D01*
X35813837Y-97928676D01*
X35797292Y-97917620D01*
X35786236Y-97901075D01*
X35782354Y-97881558D01*
X35782354Y-95881558D01*
X35786236Y-95862041D01*
X35797292Y-95845496D01*
X35813837Y-95834440D01*
X35833354Y-95830558D01*
X36833354Y-95830558D01*
X36852871Y-95834440D01*
G37*
G36*
X38202070Y-95834440D02*
G01*
X38218615Y-95845496D01*
X38229671Y-95862041D01*
X38233553Y-95881558D01*
X38233553Y-97881558D01*
X38229671Y-97901075D01*
X38218615Y-97917620D01*
X38202070Y-97928676D01*
X38182553Y-97932558D01*
X37182553Y-97932558D01*
X37163036Y-97928676D01*
X37146491Y-97917620D01*
X37135435Y-97901075D01*
X37131553Y-97881558D01*
X37131553Y-95881558D01*
X37135435Y-95862041D01*
X37146491Y-95845496D01*
X37163036Y-95834440D01*
X37182553Y-95830558D01*
X38182553Y-95830558D01*
X38202070Y-95834440D01*
G37*
G36*
X39551269Y-95834440D02*
G01*
X39567814Y-95845496D01*
X39578870Y-95862041D01*
X39582752Y-95881558D01*
X39582752Y-97881558D01*
X39578870Y-97901075D01*
X39567814Y-97917620D01*
X39551269Y-97928676D01*
X39531752Y-97932558D01*
X38531752Y-97932558D01*
X38512235Y-97928676D01*
X38495690Y-97917620D01*
X38484634Y-97901075D01*
X38480752Y-97881558D01*
X38480752Y-95881558D01*
X38484634Y-95862041D01*
X38495690Y-95845496D01*
X38512235Y-95834440D01*
X38531752Y-95830558D01*
X39531752Y-95830558D01*
X39551269Y-95834440D01*
G37*
G36*
X88192609Y-96617775D02*
G01*
X88325500Y-96672820D01*
X88439616Y-96760384D01*
X88527180Y-96874500D01*
X88582225Y-97007391D01*
X88601000Y-97150000D01*
X88582225Y-97292609D01*
X88527180Y-97425500D01*
X88439616Y-97539616D01*
X88325500Y-97627180D01*
X88192609Y-97682225D01*
X88050000Y-97701000D01*
X87907391Y-97682225D01*
X87774500Y-97627180D01*
X87660384Y-97539616D01*
X87572820Y-97425500D01*
X87517775Y-97292609D01*
X87499000Y-97150000D01*
X87517775Y-97007391D01*
X87572820Y-96874500D01*
X87660384Y-96760384D01*
X87774500Y-96672820D01*
X87907391Y-96617775D01*
X88050000Y-96599000D01*
X88192609Y-96617775D01*
G37*
G36*
X105692609Y-96617775D02*
G01*
X105825500Y-96672820D01*
X105939616Y-96760384D01*
X106027180Y-96874500D01*
X106082225Y-97007391D01*
X106101000Y-97150000D01*
X106082225Y-97292609D01*
X106027180Y-97425500D01*
X105939616Y-97539616D01*
X105825500Y-97627180D01*
X105692609Y-97682225D01*
X105550000Y-97701000D01*
X105407391Y-97682225D01*
X105274500Y-97627180D01*
X105160384Y-97539616D01*
X105072820Y-97425500D01*
X105017775Y-97292609D01*
X104999000Y-97150000D01*
X105017775Y-97007391D01*
X105072820Y-96874500D01*
X105160384Y-96760384D01*
X105274500Y-96672820D01*
X105407391Y-96617775D01*
X105550000Y-96599000D01*
X105692609Y-96617775D01*
G37*
G36*
X107142609Y-96617775D02*
G01*
X107275500Y-96672820D01*
X107389616Y-96760384D01*
X107477180Y-96874500D01*
X107532225Y-97007391D01*
X107551000Y-97150000D01*
X107532225Y-97292609D01*
X107477180Y-97425500D01*
X107389616Y-97539616D01*
X107275500Y-97627180D01*
X107142609Y-97682225D01*
X107000000Y-97701000D01*
X106857391Y-97682225D01*
X106724500Y-97627180D01*
X106610384Y-97539616D01*
X106522820Y-97425500D01*
X106467775Y-97292609D01*
X106449000Y-97150000D01*
X106467775Y-97007391D01*
X106522820Y-96874500D01*
X106610384Y-96760384D01*
X106724500Y-96672820D01*
X106857391Y-96617775D01*
X107000000Y-96599000D01*
X107142609Y-96617775D01*
G37*
G36*
X108592609Y-96617775D02*
G01*
X108725500Y-96672820D01*
X108839616Y-96760384D01*
X108927180Y-96874500D01*
X108982225Y-97007391D01*
X109001000Y-97150000D01*
X108982225Y-97292609D01*
X108927180Y-97425500D01*
X108839616Y-97539616D01*
X108725500Y-97627180D01*
X108592609Y-97682225D01*
X108450000Y-97701000D01*
X108307391Y-97682225D01*
X108174500Y-97627180D01*
X108060384Y-97539616D01*
X107972820Y-97425500D01*
X107917775Y-97292609D01*
X107899000Y-97150000D01*
X107917775Y-97007391D01*
X107972820Y-96874500D01*
X108060384Y-96760384D01*
X108174500Y-96672820D01*
X108307391Y-96617775D01*
X108450000Y-96599000D01*
X108592609Y-96617775D01*
G37*
G36*
X110042609Y-96617775D02*
G01*
X110175500Y-96672820D01*
X110289616Y-96760384D01*
X110377180Y-96874500D01*
X110432225Y-97007391D01*
X110451000Y-97150000D01*
X110432225Y-97292609D01*
X110377180Y-97425500D01*
X110289616Y-97539616D01*
X110175500Y-97627180D01*
X110042609Y-97682225D01*
X109900000Y-97701000D01*
X109757391Y-97682225D01*
X109624500Y-97627180D01*
X109510384Y-97539616D01*
X109422820Y-97425500D01*
X109367775Y-97292609D01*
X109349000Y-97150000D01*
X109367775Y-97007391D01*
X109422820Y-96874500D01*
X109510384Y-96760384D01*
X109624500Y-96672820D01*
X109757391Y-96617775D01*
X109900000Y-96599000D01*
X110042609Y-96617775D01*
G37*
G36*
X89602609Y-95817775D02*
G01*
X89735500Y-95872820D01*
X89849616Y-95960384D01*
X89937180Y-96074500D01*
X89992225Y-96207391D01*
X90011000Y-96350000D01*
X89992225Y-96492609D01*
X89937180Y-96625500D01*
X89849616Y-96739616D01*
X89735500Y-96827180D01*
X89602609Y-96882225D01*
X89460000Y-96901000D01*
X89317391Y-96882225D01*
X89184500Y-96827180D01*
X89070384Y-96739616D01*
X88982820Y-96625500D01*
X88927775Y-96492609D01*
X88909000Y-96350000D01*
X88927775Y-96207391D01*
X88982820Y-96074500D01*
X89070384Y-95960384D01*
X89184500Y-95872820D01*
X89317391Y-95817775D01*
X89460000Y-95799000D01*
X89602609Y-95817775D01*
G37*
G36*
X79224419Y-95359580D02*
G01*
X79289628Y-95403152D01*
X79333200Y-95468361D01*
X79348500Y-95545280D01*
X79348500Y-95845280D01*
X79333200Y-95922199D01*
X79289628Y-95987408D01*
X79224419Y-96030980D01*
X79147500Y-96046280D01*
X77972500Y-96046280D01*
X77895581Y-96030980D01*
X77830372Y-95987408D01*
X77786800Y-95922199D01*
X77771500Y-95845280D01*
X77771500Y-95545280D01*
X77786800Y-95468361D01*
X77830372Y-95403152D01*
X77895581Y-95359580D01*
X77972500Y-95344280D01*
X79147500Y-95344280D01*
X79224419Y-95359580D01*
G37*
G36*
X107060669Y-93807080D02*
G01*
X107125878Y-93850652D01*
X107169450Y-93915861D01*
X107184750Y-93992780D01*
X107184750Y-95167780D01*
X107169450Y-95244699D01*
X107125878Y-95309908D01*
X107060669Y-95353480D01*
X106983750Y-95368780D01*
X106683750Y-95368780D01*
X106606831Y-95353480D01*
X106541622Y-95309908D01*
X106498050Y-95244699D01*
X106482750Y-95167780D01*
X106482750Y-93992780D01*
X106498050Y-93915861D01*
X106541622Y-93850652D01*
X106606831Y-93807080D01*
X106683750Y-93791780D01*
X106983750Y-93791780D01*
X107060669Y-93807080D01*
G37*
G36*
X77349419Y-94409580D02*
G01*
X77414628Y-94453152D01*
X77458200Y-94518361D01*
X77473500Y-94595280D01*
X77473500Y-94895280D01*
X77458200Y-94972199D01*
X77414628Y-95037408D01*
X77349419Y-95080980D01*
X77272500Y-95096280D01*
X76097500Y-95096280D01*
X76020581Y-95080980D01*
X75955372Y-95037408D01*
X75911800Y-94972199D01*
X75896500Y-94895280D01*
X75896500Y-94595280D01*
X75911800Y-94518361D01*
X75955372Y-94453152D01*
X76020581Y-94409580D01*
X76097500Y-94394280D01*
X77272500Y-94394280D01*
X77349419Y-94409580D01*
G37*
G36*
X30256075Y-92984440D02*
G01*
X30272620Y-92995496D01*
X30283676Y-93012041D01*
X30287558Y-93031558D01*
X30287558Y-95031558D01*
X30283676Y-95051075D01*
X30272620Y-95067620D01*
X30256075Y-95078676D01*
X30236558Y-95082558D01*
X29236558Y-95082558D01*
X29217041Y-95078676D01*
X29200496Y-95067620D01*
X29189440Y-95051075D01*
X29185558Y-95031558D01*
X29185558Y-93031558D01*
X29189440Y-93012041D01*
X29200496Y-92995496D01*
X29217041Y-92984440D01*
X29236558Y-92980558D01*
X30236558Y-92980558D01*
X30256075Y-92984440D01*
G37*
G36*
X31603273Y-92984440D02*
G01*
X31619818Y-92995496D01*
X31630874Y-93012041D01*
X31634756Y-93031558D01*
X31634756Y-95031558D01*
X31630874Y-95051075D01*
X31619818Y-95067620D01*
X31603273Y-95078676D01*
X31583756Y-95082558D01*
X30583756Y-95082558D01*
X30564239Y-95078676D01*
X30547694Y-95067620D01*
X30536638Y-95051075D01*
X30532756Y-95031558D01*
X30532756Y-93031558D01*
X30536638Y-93012041D01*
X30547694Y-92995496D01*
X30564239Y-92984440D01*
X30583756Y-92980558D01*
X31583756Y-92980558D01*
X31603273Y-92984440D01*
G37*
G36*
X32950471Y-92984440D02*
G01*
X32967016Y-92995496D01*
X32978072Y-93012041D01*
X32981954Y-93031558D01*
X32981954Y-95031558D01*
X32978072Y-95051075D01*
X32967016Y-95067620D01*
X32950471Y-95078676D01*
X32930954Y-95082558D01*
X31930954Y-95082558D01*
X31911437Y-95078676D01*
X31894892Y-95067620D01*
X31883836Y-95051075D01*
X31879954Y-95031558D01*
X31879954Y-93031558D01*
X31883836Y-93012041D01*
X31894892Y-92995496D01*
X31911437Y-92984440D01*
X31930954Y-92980558D01*
X32930954Y-92980558D01*
X32950471Y-92984440D01*
G37*
G36*
X34297669Y-92984440D02*
G01*
X34314214Y-92995496D01*
X34325270Y-93012041D01*
X34329152Y-93031558D01*
X34329152Y-95031558D01*
X34325270Y-95051075D01*
X34314214Y-95067620D01*
X34297669Y-95078676D01*
X34278152Y-95082558D01*
X33278152Y-95082558D01*
X33258635Y-95078676D01*
X33242090Y-95067620D01*
X33231034Y-95051075D01*
X33227152Y-95031558D01*
X33227152Y-93031558D01*
X33231034Y-93012041D01*
X33242090Y-92995496D01*
X33258635Y-92984440D01*
X33278152Y-92980558D01*
X34278152Y-92980558D01*
X34297669Y-92984440D01*
G37*
G36*
X35644867Y-92984440D02*
G01*
X35661412Y-92995496D01*
X35672468Y-93012041D01*
X35676350Y-93031558D01*
X35676350Y-95031558D01*
X35672468Y-95051075D01*
X35661412Y-95067620D01*
X35644867Y-95078676D01*
X35625350Y-95082558D01*
X34625350Y-95082558D01*
X34605833Y-95078676D01*
X34589288Y-95067620D01*
X34578232Y-95051075D01*
X34574350Y-95031558D01*
X34574350Y-93031558D01*
X34578232Y-93012041D01*
X34589288Y-92995496D01*
X34605833Y-92984440D01*
X34625350Y-92980558D01*
X35625350Y-92980558D01*
X35644867Y-92984440D01*
G37*
G36*
X36992065Y-92984440D02*
G01*
X37008610Y-92995496D01*
X37019666Y-93012041D01*
X37023548Y-93031558D01*
X37023548Y-95031558D01*
X37019666Y-95051075D01*
X37008610Y-95067620D01*
X36992065Y-95078676D01*
X36972548Y-95082558D01*
X35972548Y-95082558D01*
X35953031Y-95078676D01*
X35936486Y-95067620D01*
X35925430Y-95051075D01*
X35921548Y-95031558D01*
X35921548Y-93031558D01*
X35925430Y-93012041D01*
X35936486Y-92995496D01*
X35953031Y-92984440D01*
X35972548Y-92980558D01*
X36972548Y-92980558D01*
X36992065Y-92984440D01*
G37*
G36*
X38339264Y-92984440D02*
G01*
X38355809Y-92995496D01*
X38366865Y-93012041D01*
X38370747Y-93031558D01*
X38370747Y-95031558D01*
X38366865Y-95051075D01*
X38355809Y-95067620D01*
X38339264Y-95078676D01*
X38319747Y-95082558D01*
X37319747Y-95082558D01*
X37300230Y-95078676D01*
X37283685Y-95067620D01*
X37272629Y-95051075D01*
X37268747Y-95031558D01*
X37268747Y-93031558D01*
X37272629Y-93012041D01*
X37283685Y-92995496D01*
X37300230Y-92984440D01*
X37319747Y-92980558D01*
X38319747Y-92980558D01*
X38339264Y-92984440D01*
G37*
G36*
X39689264Y-92984440D02*
G01*
X39705809Y-92995496D01*
X39716865Y-93012041D01*
X39720747Y-93031558D01*
X39720747Y-95031558D01*
X39716865Y-95051075D01*
X39705809Y-95067620D01*
X39689264Y-95078676D01*
X39669747Y-95082558D01*
X38669747Y-95082558D01*
X38650230Y-95078676D01*
X38633685Y-95067620D01*
X38622629Y-95051075D01*
X38618747Y-95031558D01*
X38618747Y-93031558D01*
X38622629Y-93012041D01*
X38633685Y-92995496D01*
X38650230Y-92984440D01*
X38669747Y-92980558D01*
X39669747Y-92980558D01*
X39689264Y-92984440D01*
G37*
G36*
X75229517Y-93833162D02*
G01*
X75246062Y-93844218D01*
X75257118Y-93860763D01*
X75261000Y-93880280D01*
X75261000Y-94880280D01*
X75257118Y-94899797D01*
X75246062Y-94916342D01*
X75229517Y-94927398D01*
X75210000Y-94931280D01*
X72210000Y-94931280D01*
X72190483Y-94927398D01*
X72173938Y-94916342D01*
X72162882Y-94899797D01*
X72159000Y-94880280D01*
X72159000Y-93880280D01*
X72162882Y-93860763D01*
X72173938Y-93844218D01*
X72190483Y-93833162D01*
X72210000Y-93829280D01*
X75210000Y-93829280D01*
X75229517Y-93833162D01*
G37*
G36*
X113112017Y-93803162D02*
G01*
X113128562Y-93814218D01*
X113139618Y-93830763D01*
X113143500Y-93850280D01*
X113143500Y-94850280D01*
X113139618Y-94869797D01*
X113128562Y-94886342D01*
X113112017Y-94897398D01*
X113092500Y-94901280D01*
X110092500Y-94901280D01*
X110072983Y-94897398D01*
X110056438Y-94886342D01*
X110045382Y-94869797D01*
X110041500Y-94850280D01*
X110041500Y-93850280D01*
X110045382Y-93830763D01*
X110056438Y-93814218D01*
X110072983Y-93803162D01*
X110092500Y-93799280D01*
X113092500Y-93799280D01*
X113112017Y-93803162D01*
G37*
G36*
X79224419Y-93459580D02*
G01*
X79289628Y-93503152D01*
X79333200Y-93568361D01*
X79348500Y-93645280D01*
X79348500Y-93945280D01*
X79333200Y-94022199D01*
X79289628Y-94087408D01*
X79224419Y-94130980D01*
X79147500Y-94146280D01*
X77972500Y-94146280D01*
X77895581Y-94130980D01*
X77830372Y-94087408D01*
X77786800Y-94022199D01*
X77771500Y-93945280D01*
X77771500Y-93645280D01*
X77786800Y-93568361D01*
X77830372Y-93503152D01*
X77895581Y-93459580D01*
X77972500Y-93444280D01*
X79147500Y-93444280D01*
X79224419Y-93459580D01*
G37*
G36*
X102863093Y-93403539D02*
G01*
X102925057Y-93444943D01*
X102966461Y-93506907D01*
X102981000Y-93580000D01*
X102981000Y-93920000D01*
X102966461Y-93993093D01*
X102925057Y-94055057D01*
X102863093Y-94096461D01*
X102790000Y-94111000D01*
X102510000Y-94111000D01*
X102436907Y-94096461D01*
X102374943Y-94055057D01*
X102333539Y-93993093D01*
X102319000Y-93920000D01*
X102319000Y-93580000D01*
X102333539Y-93506907D01*
X102374943Y-93444943D01*
X102436907Y-93403539D01*
X102510000Y-93389000D01*
X102790000Y-93389000D01*
X102863093Y-93403539D01*
G37*
G36*
X103823093Y-93403539D02*
G01*
X103885057Y-93444943D01*
X103926461Y-93506907D01*
X103941000Y-93580000D01*
X103941000Y-93920000D01*
X103926461Y-93993093D01*
X103885057Y-94055057D01*
X103823093Y-94096461D01*
X103750000Y-94111000D01*
X103470000Y-94111000D01*
X103396907Y-94096461D01*
X103334943Y-94055057D01*
X103293539Y-93993093D01*
X103279000Y-93920000D01*
X103279000Y-93580000D01*
X103293539Y-93506907D01*
X103334943Y-93444943D01*
X103396907Y-93403539D01*
X103470000Y-93389000D01*
X103750000Y-93389000D01*
X103823093Y-93403539D01*
G37*
G36*
X100300093Y-93048819D02*
G01*
X100362057Y-93090223D01*
X100403461Y-93152187D01*
X100418000Y-93225280D01*
X100418000Y-93505280D01*
X100403461Y-93578373D01*
X100362057Y-93640337D01*
X100300093Y-93681741D01*
X100227000Y-93696280D01*
X99887000Y-93696280D01*
X99813907Y-93681741D01*
X99751943Y-93640337D01*
X99710539Y-93578373D01*
X99696000Y-93505280D01*
X99696000Y-93225280D01*
X99710539Y-93152187D01*
X99751943Y-93090223D01*
X99813907Y-93048819D01*
X99887000Y-93034280D01*
X100227000Y-93034280D01*
X100300093Y-93048819D01*
G37*
G36*
X75229517Y-92563162D02*
G01*
X75246062Y-92574218D01*
X75257118Y-92590763D01*
X75261000Y-92610280D01*
X75261000Y-93610280D01*
X75257118Y-93629797D01*
X75246062Y-93646342D01*
X75229517Y-93657398D01*
X75210000Y-93661280D01*
X72210000Y-93661280D01*
X72190483Y-93657398D01*
X72173938Y-93646342D01*
X72162882Y-93629797D01*
X72159000Y-93610280D01*
X72159000Y-92610280D01*
X72162882Y-92590763D01*
X72173938Y-92574218D01*
X72190483Y-92563162D01*
X72210000Y-92559280D01*
X75210000Y-92559280D01*
X75229517Y-92563162D01*
G37*
G36*
X113112017Y-92533162D02*
G01*
X113128562Y-92544218D01*
X113139618Y-92560763D01*
X113143500Y-92580280D01*
X113143500Y-93580280D01*
X113139618Y-93599797D01*
X113128562Y-93616342D01*
X113112017Y-93627398D01*
X113092500Y-93631280D01*
X110092500Y-93631280D01*
X110072983Y-93627398D01*
X110056438Y-93616342D01*
X110045382Y-93599797D01*
X110041500Y-93580280D01*
X110041500Y-92580280D01*
X110045382Y-92560763D01*
X110056438Y-92544218D01*
X110072983Y-92533162D01*
X110092500Y-92529280D01*
X113092500Y-92529280D01*
X113112017Y-92533162D01*
G37*
G36*
X106110669Y-91932080D02*
G01*
X106175878Y-91975652D01*
X106219450Y-92040861D01*
X106234750Y-92117780D01*
X106234750Y-93292780D01*
X106219450Y-93369699D01*
X106175878Y-93434908D01*
X106110669Y-93478480D01*
X106033750Y-93493780D01*
X105733750Y-93493780D01*
X105656831Y-93478480D01*
X105591622Y-93434908D01*
X105548050Y-93369699D01*
X105532750Y-93292780D01*
X105532750Y-92117780D01*
X105548050Y-92040861D01*
X105591622Y-91975652D01*
X105656831Y-91932080D01*
X105733750Y-91916780D01*
X106033750Y-91916780D01*
X106110669Y-91932080D01*
G37*
G36*
X108010669Y-91932080D02*
G01*
X108075878Y-91975652D01*
X108119450Y-92040861D01*
X108134750Y-92117780D01*
X108134750Y-93292780D01*
X108119450Y-93369699D01*
X108075878Y-93434908D01*
X108010669Y-93478480D01*
X107933750Y-93493780D01*
X107633750Y-93493780D01*
X107556831Y-93478480D01*
X107491622Y-93434908D01*
X107448050Y-93369699D01*
X107432750Y-93292780D01*
X107432750Y-92117780D01*
X107448050Y-92040861D01*
X107491622Y-91975652D01*
X107556831Y-91932080D01*
X107633750Y-91916780D01*
X107933750Y-91916780D01*
X108010669Y-91932080D01*
G37*
G36*
X100300093Y-92088819D02*
G01*
X100362057Y-92130223D01*
X100403461Y-92192187D01*
X100418000Y-92265280D01*
X100418000Y-92545280D01*
X100403461Y-92618373D01*
X100362057Y-92680337D01*
X100300093Y-92721741D01*
X100227000Y-92736280D01*
X99887000Y-92736280D01*
X99813907Y-92721741D01*
X99751943Y-92680337D01*
X99710539Y-92618373D01*
X99696000Y-92545280D01*
X99696000Y-92265280D01*
X99710539Y-92192187D01*
X99751943Y-92130223D01*
X99813907Y-92088819D01*
X99887000Y-92074280D01*
X100227000Y-92074280D01*
X100300093Y-92088819D01*
G37*
G36*
X103791843Y-91708819D02*
G01*
X103853807Y-91750223D01*
X103895211Y-91812187D01*
X103909750Y-91885280D01*
X103909750Y-92225280D01*
X103895211Y-92298373D01*
X103853807Y-92360337D01*
X103791843Y-92401741D01*
X103718750Y-92416280D01*
X103438750Y-92416280D01*
X103365657Y-92401741D01*
X103303693Y-92360337D01*
X103262289Y-92298373D01*
X103247750Y-92225280D01*
X103247750Y-91885280D01*
X103262289Y-91812187D01*
X103303693Y-91750223D01*
X103365657Y-91708819D01*
X103438750Y-91694280D01*
X103718750Y-91694280D01*
X103791843Y-91708819D01*
G37*
G36*
X104751843Y-91708819D02*
G01*
X104813807Y-91750223D01*
X104855211Y-91812187D01*
X104869750Y-91885280D01*
X104869750Y-92225280D01*
X104855211Y-92298373D01*
X104813807Y-92360337D01*
X104751843Y-92401741D01*
X104678750Y-92416280D01*
X104398750Y-92416280D01*
X104325657Y-92401741D01*
X104263693Y-92360337D01*
X104222289Y-92298373D01*
X104207750Y-92225280D01*
X104207750Y-91885280D01*
X104222289Y-91812187D01*
X104263693Y-91750223D01*
X104325657Y-91708819D01*
X104398750Y-91694280D01*
X104678750Y-91694280D01*
X104751843Y-91708819D01*
G37*
G36*
X61446190Y-91570403D02*
G01*
X61551007Y-91623810D01*
X61634190Y-91706993D01*
X61687597Y-91811810D01*
X61706000Y-91928000D01*
X61687597Y-92044190D01*
X61634190Y-92149007D01*
X61551007Y-92232190D01*
X61446190Y-92285597D01*
X61330000Y-92304000D01*
X61213810Y-92285597D01*
X61108993Y-92232190D01*
X61025810Y-92149007D01*
X60972403Y-92044190D01*
X60954000Y-91928000D01*
X60972403Y-91811810D01*
X61025810Y-91706993D01*
X61108993Y-91623810D01*
X61213810Y-91570403D01*
X61330000Y-91552000D01*
X61446190Y-91570403D01*
G37*
G36*
X111453267Y-89928162D02*
G01*
X111469812Y-89939218D01*
X111480868Y-89955763D01*
X111484750Y-89975280D01*
X111484750Y-91575280D01*
X111480868Y-91594797D01*
X111469812Y-91611342D01*
X111453267Y-91622398D01*
X111433750Y-91626280D01*
X109833750Y-91626280D01*
X109814233Y-91622398D01*
X109797688Y-91611342D01*
X109786632Y-91594797D01*
X109782750Y-91575280D01*
X109782750Y-89975280D01*
X109786632Y-89955763D01*
X109797688Y-89939218D01*
X109814233Y-89928162D01*
X109833750Y-89924280D01*
X111433750Y-89924280D01*
X111453267Y-89928162D01*
G37*
G36*
X31844517Y-89903215D02*
G01*
X31861062Y-89914271D01*
X31872118Y-89930816D01*
X31876000Y-89950333D01*
X31876000Y-91550333D01*
X31872118Y-91569850D01*
X31861062Y-91586395D01*
X31844517Y-91597451D01*
X31825000Y-91601333D01*
X30225000Y-91601333D01*
X30205483Y-91597451D01*
X30188938Y-91586395D01*
X30177882Y-91569850D01*
X30174000Y-91550333D01*
X30174000Y-89950333D01*
X30177882Y-89930816D01*
X30188938Y-89914271D01*
X30205483Y-89903215D01*
X30225000Y-89899333D01*
X31825000Y-89899333D01*
X31844517Y-89903215D01*
G37*
G36*
X38907973Y-89940984D02*
G01*
X39070500Y-90013345D01*
X39214430Y-90117917D01*
X39333473Y-90250128D01*
X39422427Y-90404200D01*
X39477404Y-90573400D01*
X39496000Y-90750333D01*
X39477404Y-90927266D01*
X39422427Y-91096466D01*
X39333473Y-91250538D01*
X39214430Y-91382749D01*
X39070500Y-91487321D01*
X38907973Y-91559682D01*
X38733954Y-91596671D01*
X38556046Y-91596671D01*
X38382027Y-91559682D01*
X38219500Y-91487321D01*
X38075570Y-91382749D01*
X37956527Y-91250538D01*
X37867573Y-91096466D01*
X37812596Y-90927266D01*
X37794000Y-90750333D01*
X37812596Y-90573400D01*
X37867573Y-90404200D01*
X37956527Y-90250128D01*
X38075570Y-90117917D01*
X38219500Y-90013345D01*
X38382027Y-89940984D01*
X38556046Y-89903995D01*
X38733954Y-89903995D01*
X38907973Y-89940984D01*
G37*
G36*
X74744517Y-89798162D02*
G01*
X74761062Y-89809218D01*
X74772118Y-89825763D01*
X74776000Y-89845280D01*
X74776000Y-91445280D01*
X74772118Y-91464797D01*
X74761062Y-91481342D01*
X74744517Y-91492398D01*
X74725000Y-91496280D01*
X73125000Y-91496280D01*
X73105483Y-91492398D01*
X73088938Y-91481342D01*
X73077882Y-91464797D01*
X73074000Y-91445280D01*
X73074000Y-89845280D01*
X73077882Y-89825763D01*
X73088938Y-89809218D01*
X73105483Y-89798162D01*
X73125000Y-89794280D01*
X74725000Y-89794280D01*
X74744517Y-89798162D01*
G37*
G36*
X78456093Y-90706819D02*
G01*
X78518057Y-90748223D01*
X78559461Y-90810187D01*
X78574000Y-90883280D01*
X78574000Y-91163280D01*
X78559461Y-91236373D01*
X78518057Y-91298337D01*
X78456093Y-91339741D01*
X78383000Y-91354280D01*
X78043000Y-91354280D01*
X77969907Y-91339741D01*
X77907943Y-91298337D01*
X77866539Y-91236373D01*
X77852000Y-91163280D01*
X77852000Y-90883280D01*
X77866539Y-90810187D01*
X77907943Y-90748223D01*
X77969907Y-90706819D01*
X78043000Y-90692280D01*
X78383000Y-90692280D01*
X78456093Y-90706819D01*
G37*
G36*
X102078093Y-90706819D02*
G01*
X102140057Y-90748223D01*
X102181461Y-90810187D01*
X102196000Y-90883280D01*
X102196000Y-91163280D01*
X102181461Y-91236373D01*
X102140057Y-91298337D01*
X102078093Y-91339741D01*
X102005000Y-91354280D01*
X101665000Y-91354280D01*
X101591907Y-91339741D01*
X101529943Y-91298337D01*
X101488539Y-91236373D01*
X101474000Y-91163280D01*
X101474000Y-90883280D01*
X101488539Y-90810187D01*
X101529943Y-90748223D01*
X101591907Y-90706819D01*
X101665000Y-90692280D01*
X102005000Y-90692280D01*
X102078093Y-90706819D01*
G37*
G36*
X104618093Y-90706819D02*
G01*
X104680057Y-90748223D01*
X104721461Y-90810187D01*
X104736000Y-90883280D01*
X104736000Y-91163280D01*
X104721461Y-91236373D01*
X104680057Y-91298337D01*
X104618093Y-91339741D01*
X104545000Y-91354280D01*
X104205000Y-91354280D01*
X104131907Y-91339741D01*
X104069943Y-91298337D01*
X104028539Y-91236373D01*
X104014000Y-91163280D01*
X104014000Y-90883280D01*
X104028539Y-90810187D01*
X104069943Y-90748223D01*
X104131907Y-90706819D01*
X104205000Y-90692280D01*
X104545000Y-90692280D01*
X104618093Y-90706819D01*
G37*
G36*
X61455028Y-89952132D02*
G01*
X61489587Y-89961815D01*
X61522506Y-89966149D01*
X61558989Y-89981260D01*
X61599519Y-89992617D01*
X61627534Y-90009653D01*
X61655306Y-90021157D01*
X61689128Y-90047109D01*
X61727729Y-90070583D01*
X61747982Y-90092269D01*
X61769341Y-90108658D01*
X61797213Y-90144982D01*
X61830150Y-90180249D01*
X61842370Y-90203832D01*
X61856842Y-90222693D01*
X61875567Y-90267899D01*
X61899186Y-90313481D01*
X61903955Y-90336434D01*
X61911850Y-90355493D01*
X61918651Y-90407155D01*
X61929715Y-90460398D01*
X61928328Y-90480664D01*
X61930611Y-90498000D01*
X61923392Y-90552831D01*
X61919475Y-90610104D01*
X61913721Y-90626294D01*
X61911850Y-90640507D01*
X61889454Y-90694573D01*
X61869225Y-90751496D01*
X61861122Y-90762975D01*
X61856843Y-90773306D01*
X61819217Y-90822339D01*
X61782691Y-90874087D01*
X61774227Y-90880972D01*
X61769341Y-90887341D01*
X61717588Y-90927051D01*
X61666291Y-90968785D01*
X61659167Y-90971879D01*
X61655306Y-90974842D01*
X61591477Y-91001280D01*
X61528658Y-91028567D01*
X61524086Y-91029195D01*
X61522506Y-91029850D01*
X61447010Y-91039789D01*
X61380000Y-91049000D01*
X61377051Y-91049000D01*
X60282949Y-91049000D01*
X60280000Y-91049000D01*
X60204972Y-91043868D01*
X60170407Y-91034183D01*
X60137493Y-91029850D01*
X60101015Y-91014740D01*
X60060481Y-91003383D01*
X60032462Y-90986344D01*
X60004693Y-90974842D01*
X59970872Y-90948891D01*
X59932271Y-90925417D01*
X59912016Y-90903729D01*
X59890658Y-90887341D01*
X59862785Y-90851015D01*
X59829850Y-90815751D01*
X59817630Y-90792168D01*
X59803157Y-90773306D01*
X59784429Y-90728095D01*
X59760814Y-90682519D01*
X59756044Y-90659568D01*
X59748149Y-90640506D01*
X59741346Y-90588832D01*
X59730285Y-90535602D01*
X59731670Y-90515340D01*
X59729388Y-90498000D01*
X59736608Y-90443152D01*
X59740525Y-90385896D01*
X59746277Y-90369710D01*
X59748149Y-90355492D01*
X59770553Y-90301402D01*
X59790775Y-90244504D01*
X59798874Y-90233029D01*
X59803156Y-90222693D01*
X59840802Y-90173631D01*
X59877309Y-90121913D01*
X59885767Y-90115031D01*
X59890658Y-90108658D01*
X59942449Y-90068917D01*
X59993709Y-90027215D01*
X60000827Y-90024122D01*
X60004693Y-90021157D01*
X60068592Y-89994688D01*
X60131342Y-89967433D01*
X60135908Y-89966805D01*
X60137493Y-89966149D01*
X60213082Y-89956197D01*
X60280000Y-89947000D01*
X61380000Y-89947000D01*
X61455028Y-89952132D01*
G37*
G36*
X65485028Y-89952132D02*
G01*
X65519587Y-89961815D01*
X65552506Y-89966149D01*
X65588989Y-89981260D01*
X65629519Y-89992617D01*
X65657534Y-90009653D01*
X65685306Y-90021157D01*
X65719128Y-90047109D01*
X65757729Y-90070583D01*
X65777982Y-90092269D01*
X65799341Y-90108658D01*
X65827213Y-90144982D01*
X65860150Y-90180249D01*
X65872370Y-90203832D01*
X65886842Y-90222693D01*
X65905567Y-90267899D01*
X65929186Y-90313481D01*
X65933955Y-90336434D01*
X65941850Y-90355493D01*
X65948651Y-90407155D01*
X65959715Y-90460398D01*
X65958328Y-90480664D01*
X65960611Y-90498000D01*
X65953392Y-90552831D01*
X65949475Y-90610104D01*
X65943721Y-90626294D01*
X65941850Y-90640507D01*
X65919454Y-90694573D01*
X65899225Y-90751496D01*
X65891122Y-90762975D01*
X65886843Y-90773306D01*
X65849217Y-90822339D01*
X65812691Y-90874087D01*
X65804227Y-90880972D01*
X65799341Y-90887341D01*
X65747588Y-90927051D01*
X65696291Y-90968785D01*
X65689167Y-90971879D01*
X65685306Y-90974842D01*
X65621477Y-91001280D01*
X65558658Y-91028567D01*
X65554086Y-91029195D01*
X65552506Y-91029850D01*
X65477010Y-91039789D01*
X65410000Y-91049000D01*
X65407051Y-91049000D01*
X64612949Y-91049000D01*
X64610000Y-91049000D01*
X64534972Y-91043868D01*
X64500407Y-91034183D01*
X64467493Y-91029850D01*
X64431015Y-91014740D01*
X64390481Y-91003383D01*
X64362462Y-90986344D01*
X64334693Y-90974842D01*
X64300872Y-90948891D01*
X64262271Y-90925417D01*
X64242016Y-90903729D01*
X64220658Y-90887341D01*
X64192785Y-90851015D01*
X64159850Y-90815751D01*
X64147630Y-90792168D01*
X64133157Y-90773306D01*
X64114429Y-90728095D01*
X64090814Y-90682519D01*
X64086044Y-90659568D01*
X64078149Y-90640506D01*
X64071346Y-90588832D01*
X64060285Y-90535602D01*
X64061670Y-90515340D01*
X64059388Y-90498000D01*
X64066608Y-90443152D01*
X64070525Y-90385896D01*
X64076277Y-90369710D01*
X64078149Y-90355492D01*
X64100553Y-90301402D01*
X64120775Y-90244504D01*
X64128874Y-90233029D01*
X64133156Y-90222693D01*
X64170802Y-90173631D01*
X64207309Y-90121913D01*
X64215767Y-90115031D01*
X64220658Y-90108658D01*
X64272449Y-90068917D01*
X64323709Y-90027215D01*
X64330827Y-90024122D01*
X64334693Y-90021157D01*
X64398592Y-89994688D01*
X64461342Y-89967433D01*
X64465908Y-89966805D01*
X64467493Y-89966149D01*
X64543082Y-89956197D01*
X64610000Y-89947000D01*
X65410000Y-89947000D01*
X65485028Y-89952132D01*
G37*
G36*
X99564093Y-89716819D02*
G01*
X99626057Y-89758223D01*
X99667461Y-89820187D01*
X99682000Y-89893280D01*
X99682000Y-90233280D01*
X99667461Y-90306373D01*
X99626057Y-90368337D01*
X99564093Y-90409741D01*
X99491000Y-90424280D01*
X99211000Y-90424280D01*
X99137907Y-90409741D01*
X99075943Y-90368337D01*
X99034539Y-90306373D01*
X99020000Y-90233280D01*
X99020000Y-89893280D01*
X99034539Y-89820187D01*
X99075943Y-89758223D01*
X99137907Y-89716819D01*
X99211000Y-89702280D01*
X99491000Y-89702280D01*
X99564093Y-89716819D01*
G37*
G36*
X100524093Y-89716819D02*
G01*
X100586057Y-89758223D01*
X100627461Y-89820187D01*
X100642000Y-89893280D01*
X100642000Y-90233280D01*
X100627461Y-90306373D01*
X100586057Y-90368337D01*
X100524093Y-90409741D01*
X100451000Y-90424280D01*
X100171000Y-90424280D01*
X100097907Y-90409741D01*
X100035943Y-90368337D01*
X99994539Y-90306373D01*
X99980000Y-90233280D01*
X99980000Y-89893280D01*
X99994539Y-89820187D01*
X100035943Y-89758223D01*
X100097907Y-89716819D01*
X100171000Y-89702280D01*
X100451000Y-89702280D01*
X100524093Y-89716819D01*
G37*
G36*
X105858093Y-89716819D02*
G01*
X105920057Y-89758223D01*
X105961461Y-89820187D01*
X105976000Y-89893280D01*
X105976000Y-90233280D01*
X105961461Y-90306373D01*
X105920057Y-90368337D01*
X105858093Y-90409741D01*
X105785000Y-90424280D01*
X105505000Y-90424280D01*
X105431907Y-90409741D01*
X105369943Y-90368337D01*
X105328539Y-90306373D01*
X105314000Y-90233280D01*
X105314000Y-89893280D01*
X105328539Y-89820187D01*
X105369943Y-89758223D01*
X105431907Y-89716819D01*
X105505000Y-89702280D01*
X105785000Y-89702280D01*
X105858093Y-89716819D01*
G37*
G36*
X106818093Y-89716819D02*
G01*
X106880057Y-89758223D01*
X106921461Y-89820187D01*
X106936000Y-89893280D01*
X106936000Y-90233280D01*
X106921461Y-90306373D01*
X106880057Y-90368337D01*
X106818093Y-90409741D01*
X106745000Y-90424280D01*
X106465000Y-90424280D01*
X106391907Y-90409741D01*
X106329943Y-90368337D01*
X106288539Y-90306373D01*
X106274000Y-90233280D01*
X106274000Y-89893280D01*
X106288539Y-89820187D01*
X106329943Y-89758223D01*
X106391907Y-89716819D01*
X106465000Y-89702280D01*
X106745000Y-89702280D01*
X106818093Y-89716819D01*
G37*
G36*
X78456093Y-89746819D02*
G01*
X78518057Y-89788223D01*
X78559461Y-89850187D01*
X78574000Y-89923280D01*
X78574000Y-90203280D01*
X78559461Y-90276373D01*
X78518057Y-90338337D01*
X78456093Y-90379741D01*
X78383000Y-90394280D01*
X78043000Y-90394280D01*
X77969907Y-90379741D01*
X77907943Y-90338337D01*
X77866539Y-90276373D01*
X77852000Y-90203280D01*
X77852000Y-89923280D01*
X77866539Y-89850187D01*
X77907943Y-89788223D01*
X77969907Y-89746819D01*
X78043000Y-89732280D01*
X78383000Y-89732280D01*
X78456093Y-89746819D01*
G37*
G36*
X102078093Y-89746819D02*
G01*
X102140057Y-89788223D01*
X102181461Y-89850187D01*
X102196000Y-89923280D01*
X102196000Y-90203280D01*
X102181461Y-90276373D01*
X102140057Y-90338337D01*
X102078093Y-90379741D01*
X102005000Y-90394280D01*
X101665000Y-90394280D01*
X101591907Y-90379741D01*
X101529943Y-90338337D01*
X101488539Y-90276373D01*
X101474000Y-90203280D01*
X101474000Y-89923280D01*
X101488539Y-89850187D01*
X101529943Y-89788223D01*
X101591907Y-89746819D01*
X101665000Y-89732280D01*
X102005000Y-89732280D01*
X102078093Y-89746819D01*
G37*
G36*
X104618093Y-89746819D02*
G01*
X104680057Y-89788223D01*
X104721461Y-89850187D01*
X104736000Y-89923280D01*
X104736000Y-90203280D01*
X104721461Y-90276373D01*
X104680057Y-90338337D01*
X104618093Y-90379741D01*
X104545000Y-90394280D01*
X104205000Y-90394280D01*
X104131907Y-90379741D01*
X104069943Y-90338337D01*
X104028539Y-90276373D01*
X104014000Y-90203280D01*
X104014000Y-89923280D01*
X104028539Y-89850187D01*
X104069943Y-89788223D01*
X104131907Y-89746819D01*
X104205000Y-89732280D01*
X104545000Y-89732280D01*
X104618093Y-89746819D01*
G37*
G36*
X44165919Y-88694300D02*
G01*
X44231128Y-88737872D01*
X44274700Y-88803081D01*
X44290000Y-88880000D01*
X44290000Y-90180000D01*
X44274700Y-90256919D01*
X44231128Y-90322128D01*
X44165919Y-90365700D01*
X44089000Y-90381000D01*
X43789000Y-90381000D01*
X43712081Y-90365700D01*
X43646872Y-90322128D01*
X43603300Y-90256919D01*
X43588000Y-90180000D01*
X43588000Y-88880000D01*
X43603300Y-88803081D01*
X43646872Y-88737872D01*
X43712081Y-88694300D01*
X43789000Y-88679000D01*
X44089000Y-88679000D01*
X44165919Y-88694300D01*
G37*
G36*
X45435919Y-88694300D02*
G01*
X45501128Y-88737872D01*
X45544700Y-88803081D01*
X45560000Y-88880000D01*
X45560000Y-90180000D01*
X45544700Y-90256919D01*
X45501128Y-90322128D01*
X45435919Y-90365700D01*
X45359000Y-90381000D01*
X45059000Y-90381000D01*
X44982081Y-90365700D01*
X44916872Y-90322128D01*
X44873300Y-90256919D01*
X44858000Y-90180000D01*
X44858000Y-88880000D01*
X44873300Y-88803081D01*
X44916872Y-88737872D01*
X44982081Y-88694300D01*
X45059000Y-88679000D01*
X45359000Y-88679000D01*
X45435919Y-88694300D01*
G37*
G36*
X46705919Y-88694300D02*
G01*
X46771128Y-88737872D01*
X46814700Y-88803081D01*
X46830000Y-88880000D01*
X46830000Y-90180000D01*
X46814700Y-90256919D01*
X46771128Y-90322128D01*
X46705919Y-90365700D01*
X46629000Y-90381000D01*
X46329000Y-90381000D01*
X46252081Y-90365700D01*
X46186872Y-90322128D01*
X46143300Y-90256919D01*
X46128000Y-90180000D01*
X46128000Y-88880000D01*
X46143300Y-88803081D01*
X46186872Y-88737872D01*
X46252081Y-88694300D01*
X46329000Y-88679000D01*
X46629000Y-88679000D01*
X46705919Y-88694300D01*
G37*
G36*
X47975919Y-88694300D02*
G01*
X48041128Y-88737872D01*
X48084700Y-88803081D01*
X48100000Y-88880000D01*
X48100000Y-90180000D01*
X48084700Y-90256919D01*
X48041128Y-90322128D01*
X47975919Y-90365700D01*
X47899000Y-90381000D01*
X47599000Y-90381000D01*
X47522081Y-90365700D01*
X47456872Y-90322128D01*
X47413300Y-90256919D01*
X47398000Y-90180000D01*
X47398000Y-88880000D01*
X47413300Y-88803081D01*
X47456872Y-88737872D01*
X47522081Y-88694300D01*
X47599000Y-88679000D01*
X47899000Y-88679000D01*
X47975919Y-88694300D01*
G37*
G36*
X99874517Y-86764162D02*
G01*
X99891062Y-86775218D01*
X99902118Y-86791763D01*
X99906000Y-86811280D01*
X99906000Y-89251280D01*
X99902118Y-89270797D01*
X99891062Y-89287342D01*
X99874517Y-89298398D01*
X99855000Y-89302280D01*
X98735000Y-89302280D01*
X98715483Y-89298398D01*
X98698938Y-89287342D01*
X98687882Y-89270797D01*
X98684000Y-89251280D01*
X98684000Y-86811280D01*
X98687882Y-86791763D01*
X98698938Y-86775218D01*
X98715483Y-86764162D01*
X98735000Y-86760280D01*
X99855000Y-86760280D01*
X99874517Y-86764162D01*
G37*
G36*
X102414517Y-86764162D02*
G01*
X102431062Y-86775218D01*
X102442118Y-86791763D01*
X102446000Y-86811280D01*
X102446000Y-89251280D01*
X102442118Y-89270797D01*
X102431062Y-89287342D01*
X102414517Y-89298398D01*
X102395000Y-89302280D01*
X101275000Y-89302280D01*
X101255483Y-89298398D01*
X101238938Y-89287342D01*
X101227882Y-89270797D01*
X101224000Y-89251280D01*
X101224000Y-86811280D01*
X101227882Y-86791763D01*
X101238938Y-86775218D01*
X101255483Y-86764162D01*
X101275000Y-86760280D01*
X102395000Y-86760280D01*
X102414517Y-86764162D01*
G37*
G36*
X104954517Y-86764162D02*
G01*
X104971062Y-86775218D01*
X104982118Y-86791763D01*
X104986000Y-86811280D01*
X104986000Y-89251280D01*
X104982118Y-89270797D01*
X104971062Y-89287342D01*
X104954517Y-89298398D01*
X104935000Y-89302280D01*
X103815000Y-89302280D01*
X103795483Y-89298398D01*
X103778938Y-89287342D01*
X103767882Y-89270797D01*
X103764000Y-89251280D01*
X103764000Y-86811280D01*
X103767882Y-86791763D01*
X103778938Y-86775218D01*
X103795483Y-86764162D01*
X103815000Y-86760280D01*
X104935000Y-86760280D01*
X104954517Y-86764162D01*
G37*
G36*
X107494517Y-86764162D02*
G01*
X107511062Y-86775218D01*
X107522118Y-86791763D01*
X107526000Y-86811280D01*
X107526000Y-89251280D01*
X107522118Y-89270797D01*
X107511062Y-89287342D01*
X107494517Y-89298398D01*
X107475000Y-89302280D01*
X106355000Y-89302280D01*
X106335483Y-89298398D01*
X106318938Y-89287342D01*
X106307882Y-89270797D01*
X106304000Y-89251280D01*
X106304000Y-86811280D01*
X106307882Y-86791763D01*
X106318938Y-86775218D01*
X106335483Y-86764162D01*
X106355000Y-86760280D01*
X107475000Y-86760280D01*
X107494517Y-86764162D01*
G37*
G36*
X31287973Y-87400984D02*
G01*
X31450500Y-87473345D01*
X31594430Y-87577917D01*
X31713473Y-87710128D01*
X31802427Y-87864200D01*
X31857404Y-88033400D01*
X31876000Y-88210333D01*
X31857404Y-88387266D01*
X31802427Y-88556466D01*
X31713473Y-88710538D01*
X31594430Y-88842749D01*
X31450500Y-88947321D01*
X31287973Y-89019682D01*
X31113954Y-89056671D01*
X30936046Y-89056671D01*
X30762027Y-89019682D01*
X30599500Y-88947321D01*
X30455570Y-88842749D01*
X30336527Y-88710538D01*
X30247573Y-88556466D01*
X30192596Y-88387266D01*
X30174000Y-88210333D01*
X30192596Y-88033400D01*
X30247573Y-87864200D01*
X30336527Y-87710128D01*
X30455570Y-87577917D01*
X30599500Y-87473345D01*
X30762027Y-87400984D01*
X30936046Y-87363995D01*
X31113954Y-87363995D01*
X31287973Y-87400984D01*
G37*
G36*
X38907973Y-87400984D02*
G01*
X39070500Y-87473345D01*
X39214430Y-87577917D01*
X39333473Y-87710128D01*
X39422427Y-87864200D01*
X39477404Y-88033400D01*
X39496000Y-88210333D01*
X39477404Y-88387266D01*
X39422427Y-88556466D01*
X39333473Y-88710538D01*
X39214430Y-88842749D01*
X39070500Y-88947321D01*
X38907973Y-89019682D01*
X38733954Y-89056671D01*
X38556046Y-89056671D01*
X38382027Y-89019682D01*
X38219500Y-88947321D01*
X38075570Y-88842749D01*
X37956527Y-88710538D01*
X37867573Y-88556466D01*
X37812596Y-88387266D01*
X37794000Y-88210333D01*
X37812596Y-88033400D01*
X37867573Y-87864200D01*
X37956527Y-87710128D01*
X38075570Y-87577917D01*
X38219500Y-87473345D01*
X38382027Y-87400984D01*
X38556046Y-87363995D01*
X38733954Y-87363995D01*
X38907973Y-87400984D01*
G37*
G36*
X60078093Y-87873872D02*
G01*
X60140057Y-87915276D01*
X60181461Y-87977240D01*
X60196000Y-88050333D01*
X60196000Y-88390333D01*
X60181461Y-88463426D01*
X60140057Y-88525390D01*
X60078093Y-88566794D01*
X60005000Y-88581333D01*
X59725000Y-88581333D01*
X59651907Y-88566794D01*
X59589943Y-88525390D01*
X59548539Y-88463426D01*
X59534000Y-88390333D01*
X59534000Y-88050333D01*
X59548539Y-87977240D01*
X59589943Y-87915276D01*
X59651907Y-87873872D01*
X59725000Y-87859333D01*
X60005000Y-87859333D01*
X60078093Y-87873872D01*
G37*
G36*
X61038093Y-87873872D02*
G01*
X61100057Y-87915276D01*
X61141461Y-87977240D01*
X61156000Y-88050333D01*
X61156000Y-88390333D01*
X61141461Y-88463426D01*
X61100057Y-88525390D01*
X61038093Y-88566794D01*
X60965000Y-88581333D01*
X60685000Y-88581333D01*
X60611907Y-88566794D01*
X60549943Y-88525390D01*
X60508539Y-88463426D01*
X60494000Y-88390333D01*
X60494000Y-88050333D01*
X60508539Y-87977240D01*
X60549943Y-87915276D01*
X60611907Y-87873872D01*
X60685000Y-87859333D01*
X60965000Y-87859333D01*
X61038093Y-87873872D01*
G37*
G36*
X55128093Y-87573872D02*
G01*
X55190057Y-87615276D01*
X55231461Y-87677240D01*
X55246000Y-87750333D01*
X55246000Y-88090333D01*
X55231461Y-88163426D01*
X55190057Y-88225390D01*
X55128093Y-88266794D01*
X55055000Y-88281333D01*
X54775000Y-88281333D01*
X54701907Y-88266794D01*
X54639943Y-88225390D01*
X54598539Y-88163426D01*
X54584000Y-88090333D01*
X54584000Y-87750333D01*
X54598539Y-87677240D01*
X54639943Y-87615276D01*
X54701907Y-87573872D01*
X54775000Y-87559333D01*
X55055000Y-87559333D01*
X55128093Y-87573872D01*
G37*
G36*
X56088093Y-87573872D02*
G01*
X56150057Y-87615276D01*
X56191461Y-87677240D01*
X56206000Y-87750333D01*
X56206000Y-88090333D01*
X56191461Y-88163426D01*
X56150057Y-88225390D01*
X56088093Y-88266794D01*
X56015000Y-88281333D01*
X55735000Y-88281333D01*
X55661907Y-88266794D01*
X55599943Y-88225390D01*
X55558539Y-88163426D01*
X55544000Y-88090333D01*
X55544000Y-87750333D01*
X55558539Y-87677240D01*
X55599943Y-87615276D01*
X55661907Y-87573872D01*
X55735000Y-87559333D01*
X56015000Y-87559333D01*
X56088093Y-87573872D01*
G37*
G36*
X59168093Y-86813872D02*
G01*
X59230057Y-86855276D01*
X59271461Y-86917240D01*
X59286000Y-86990333D01*
X59286000Y-87270333D01*
X59271461Y-87343426D01*
X59230057Y-87405390D01*
X59168093Y-87446794D01*
X59095000Y-87461333D01*
X58755000Y-87461333D01*
X58681907Y-87446794D01*
X58619943Y-87405390D01*
X58578539Y-87343426D01*
X58564000Y-87270333D01*
X58564000Y-86990333D01*
X58578539Y-86917240D01*
X58619943Y-86855276D01*
X58681907Y-86813872D01*
X58755000Y-86799333D01*
X59095000Y-86799333D01*
X59168093Y-86813872D01*
G37*
G36*
X60418093Y-86813872D02*
G01*
X60480057Y-86855276D01*
X60521461Y-86917240D01*
X60536000Y-86990333D01*
X60536000Y-87270333D01*
X60521461Y-87343426D01*
X60480057Y-87405390D01*
X60418093Y-87446794D01*
X60345000Y-87461333D01*
X60005000Y-87461333D01*
X59931907Y-87446794D01*
X59869943Y-87405390D01*
X59828539Y-87343426D01*
X59814000Y-87270333D01*
X59814000Y-86990333D01*
X59828539Y-86917240D01*
X59869943Y-86855276D01*
X59931907Y-86813872D01*
X60005000Y-86799333D01*
X60345000Y-86799333D01*
X60418093Y-86813872D01*
G37*
G36*
X56318093Y-86663872D02*
G01*
X56380057Y-86705276D01*
X56421461Y-86767240D01*
X56436000Y-86840333D01*
X56436000Y-87120333D01*
X56421461Y-87193426D01*
X56380057Y-87255390D01*
X56318093Y-87296794D01*
X56245000Y-87311333D01*
X55905000Y-87311333D01*
X55831907Y-87296794D01*
X55769943Y-87255390D01*
X55728539Y-87193426D01*
X55714000Y-87120333D01*
X55714000Y-86840333D01*
X55728539Y-86767240D01*
X55769943Y-86705276D01*
X55831907Y-86663872D01*
X55905000Y-86649333D01*
X56245000Y-86649333D01*
X56318093Y-86663872D01*
G37*
G36*
X54718093Y-86563872D02*
G01*
X54780057Y-86605276D01*
X54821461Y-86667240D01*
X54836000Y-86740333D01*
X54836000Y-87020333D01*
X54821461Y-87093426D01*
X54780057Y-87155390D01*
X54718093Y-87196794D01*
X54645000Y-87211333D01*
X54305000Y-87211333D01*
X54231907Y-87196794D01*
X54169943Y-87155390D01*
X54128539Y-87093426D01*
X54114000Y-87020333D01*
X54114000Y-86740333D01*
X54128539Y-86667240D01*
X54169943Y-86605276D01*
X54231907Y-86563872D01*
X54305000Y-86549333D01*
X54645000Y-86549333D01*
X54718093Y-86563872D01*
G37*
G36*
X31287973Y-84860984D02*
G01*
X31450500Y-84933345D01*
X31594430Y-85037917D01*
X31713473Y-85170128D01*
X31802427Y-85324200D01*
X31857404Y-85493400D01*
X31876000Y-85670333D01*
X31857404Y-85847266D01*
X31802427Y-86016466D01*
X31713473Y-86170538D01*
X31594430Y-86302749D01*
X31450500Y-86407321D01*
X31287973Y-86479682D01*
X31113954Y-86516671D01*
X30936046Y-86516671D01*
X30762027Y-86479682D01*
X30599500Y-86407321D01*
X30455570Y-86302749D01*
X30336527Y-86170538D01*
X30247573Y-86016466D01*
X30192596Y-85847266D01*
X30174000Y-85670333D01*
X30192596Y-85493400D01*
X30247573Y-85324200D01*
X30336527Y-85170128D01*
X30455570Y-85037917D01*
X30599500Y-84933345D01*
X30762027Y-84860984D01*
X30936046Y-84823995D01*
X31113954Y-84823995D01*
X31287973Y-84860984D01*
G37*
G36*
X38907973Y-84860984D02*
G01*
X39070500Y-84933345D01*
X39214430Y-85037917D01*
X39333473Y-85170128D01*
X39422427Y-85324200D01*
X39477404Y-85493400D01*
X39496000Y-85670333D01*
X39477404Y-85847266D01*
X39422427Y-86016466D01*
X39333473Y-86170538D01*
X39214430Y-86302749D01*
X39070500Y-86407321D01*
X38907973Y-86479682D01*
X38733954Y-86516671D01*
X38556046Y-86516671D01*
X38382027Y-86479682D01*
X38219500Y-86407321D01*
X38075570Y-86302749D01*
X37956527Y-86170538D01*
X37867573Y-86016466D01*
X37812596Y-85847266D01*
X37794000Y-85670333D01*
X37812596Y-85493400D01*
X37867573Y-85324200D01*
X37956527Y-85170128D01*
X38075570Y-85037917D01*
X38219500Y-84933345D01*
X38382027Y-84860984D01*
X38556046Y-84823995D01*
X38733954Y-84823995D01*
X38907973Y-84860984D01*
G37*
G36*
X59168093Y-85853872D02*
G01*
X59230057Y-85895276D01*
X59271461Y-85957240D01*
X59286000Y-86030333D01*
X59286000Y-86310333D01*
X59271461Y-86383426D01*
X59230057Y-86445390D01*
X59168093Y-86486794D01*
X59095000Y-86501333D01*
X58755000Y-86501333D01*
X58681907Y-86486794D01*
X58619943Y-86445390D01*
X58578539Y-86383426D01*
X58564000Y-86310333D01*
X58564000Y-86030333D01*
X58578539Y-85957240D01*
X58619943Y-85895276D01*
X58681907Y-85853872D01*
X58755000Y-85839333D01*
X59095000Y-85839333D01*
X59168093Y-85853872D01*
G37*
G36*
X60418093Y-85853872D02*
G01*
X60480057Y-85895276D01*
X60521461Y-85957240D01*
X60536000Y-86030333D01*
X60536000Y-86310333D01*
X60521461Y-86383426D01*
X60480057Y-86445390D01*
X60418093Y-86486794D01*
X60345000Y-86501333D01*
X60005000Y-86501333D01*
X59931907Y-86486794D01*
X59869943Y-86445390D01*
X59828539Y-86383426D01*
X59814000Y-86310333D01*
X59814000Y-86030333D01*
X59828539Y-85957240D01*
X59869943Y-85895276D01*
X59931907Y-85853872D01*
X60005000Y-85839333D01*
X60345000Y-85839333D01*
X60418093Y-85853872D01*
G37*
G36*
X56318093Y-85703872D02*
G01*
X56380057Y-85745276D01*
X56421461Y-85807240D01*
X56436000Y-85880333D01*
X56436000Y-86160333D01*
X56421461Y-86233426D01*
X56380057Y-86295390D01*
X56318093Y-86336794D01*
X56245000Y-86351333D01*
X55905000Y-86351333D01*
X55831907Y-86336794D01*
X55769943Y-86295390D01*
X55728539Y-86233426D01*
X55714000Y-86160333D01*
X55714000Y-85880333D01*
X55728539Y-85807240D01*
X55769943Y-85745276D01*
X55831907Y-85703872D01*
X55905000Y-85689333D01*
X56245000Y-85689333D01*
X56318093Y-85703872D01*
G37*
G36*
X54718093Y-85603872D02*
G01*
X54780057Y-85645276D01*
X54821461Y-85707240D01*
X54836000Y-85780333D01*
X54836000Y-86060333D01*
X54821461Y-86133426D01*
X54780057Y-86195390D01*
X54718093Y-86236794D01*
X54645000Y-86251333D01*
X54305000Y-86251333D01*
X54231907Y-86236794D01*
X54169943Y-86195390D01*
X54128539Y-86133426D01*
X54114000Y-86060333D01*
X54114000Y-85780333D01*
X54128539Y-85707240D01*
X54169943Y-85645276D01*
X54231907Y-85603872D01*
X54305000Y-85589333D01*
X54645000Y-85589333D01*
X54718093Y-85603872D01*
G37*
G36*
X41261093Y-85049539D02*
G01*
X41323057Y-85090943D01*
X41364461Y-85152907D01*
X41379000Y-85226000D01*
X41379000Y-85506000D01*
X41364461Y-85579093D01*
X41323057Y-85641057D01*
X41261093Y-85682461D01*
X41188000Y-85697000D01*
X40848000Y-85697000D01*
X40774907Y-85682461D01*
X40712943Y-85641057D01*
X40671539Y-85579093D01*
X40657000Y-85506000D01*
X40657000Y-85226000D01*
X40671539Y-85152907D01*
X40712943Y-85090943D01*
X40774907Y-85049539D01*
X40848000Y-85035000D01*
X41188000Y-85035000D01*
X41261093Y-85049539D01*
G37*
G36*
X42277093Y-85049539D02*
G01*
X42339057Y-85090943D01*
X42380461Y-85152907D01*
X42395000Y-85226000D01*
X42395000Y-85506000D01*
X42380461Y-85579093D01*
X42339057Y-85641057D01*
X42277093Y-85682461D01*
X42204000Y-85697000D01*
X41864000Y-85697000D01*
X41790907Y-85682461D01*
X41728943Y-85641057D01*
X41687539Y-85579093D01*
X41673000Y-85506000D01*
X41673000Y-85226000D01*
X41687539Y-85152907D01*
X41728943Y-85090943D01*
X41790907Y-85049539D01*
X41864000Y-85035000D01*
X42204000Y-85035000D01*
X42277093Y-85049539D01*
G37*
G36*
X49643093Y-84597539D02*
G01*
X49705057Y-84638943D01*
X49746461Y-84700907D01*
X49761000Y-84774000D01*
X49761000Y-85054000D01*
X49746461Y-85127093D01*
X49705057Y-85189057D01*
X49643093Y-85230461D01*
X49570000Y-85245000D01*
X49230000Y-85245000D01*
X49156907Y-85230461D01*
X49094943Y-85189057D01*
X49053539Y-85127093D01*
X49039000Y-85054000D01*
X49039000Y-84774000D01*
X49053539Y-84700907D01*
X49094943Y-84638943D01*
X49156907Y-84597539D01*
X49230000Y-84583000D01*
X49570000Y-84583000D01*
X49643093Y-84597539D01*
G37*
G36*
X52519517Y-82630882D02*
G01*
X52536062Y-82641938D01*
X52547118Y-82658483D01*
X52551000Y-82678000D01*
X52551000Y-85118000D01*
X52547118Y-85137517D01*
X52536062Y-85154062D01*
X52519517Y-85165118D01*
X52500000Y-85169000D01*
X51380000Y-85169000D01*
X51360483Y-85165118D01*
X51343938Y-85154062D01*
X51332882Y-85137517D01*
X51329000Y-85118000D01*
X51329000Y-82678000D01*
X51332882Y-82658483D01*
X51343938Y-82641938D01*
X51360483Y-82630882D01*
X51380000Y-82627000D01*
X52500000Y-82627000D01*
X52519517Y-82630882D01*
G37*
G36*
X55059517Y-82630882D02*
G01*
X55076062Y-82641938D01*
X55087118Y-82658483D01*
X55091000Y-82678000D01*
X55091000Y-85118000D01*
X55087118Y-85137517D01*
X55076062Y-85154062D01*
X55059517Y-85165118D01*
X55040000Y-85169000D01*
X53920000Y-85169000D01*
X53900483Y-85165118D01*
X53883938Y-85154062D01*
X53872882Y-85137517D01*
X53869000Y-85118000D01*
X53869000Y-82678000D01*
X53872882Y-82658483D01*
X53883938Y-82641938D01*
X53900483Y-82630882D01*
X53920000Y-82627000D01*
X55040000Y-82627000D01*
X55059517Y-82630882D01*
G37*
G36*
X57599517Y-82630882D02*
G01*
X57616062Y-82641938D01*
X57627118Y-82658483D01*
X57631000Y-82678000D01*
X57631000Y-85118000D01*
X57627118Y-85137517D01*
X57616062Y-85154062D01*
X57599517Y-85165118D01*
X57580000Y-85169000D01*
X56460000Y-85169000D01*
X56440483Y-85165118D01*
X56423938Y-85154062D01*
X56412882Y-85137517D01*
X56409000Y-85118000D01*
X56409000Y-82678000D01*
X56412882Y-82658483D01*
X56423938Y-82641938D01*
X56440483Y-82630882D01*
X56460000Y-82627000D01*
X57580000Y-82627000D01*
X57599517Y-82630882D01*
G37*
G36*
X60139517Y-82630882D02*
G01*
X60156062Y-82641938D01*
X60167118Y-82658483D01*
X60171000Y-82678000D01*
X60171000Y-85118000D01*
X60167118Y-85137517D01*
X60156062Y-85154062D01*
X60139517Y-85165118D01*
X60120000Y-85169000D01*
X59000000Y-85169000D01*
X58980483Y-85165118D01*
X58963938Y-85154062D01*
X58952882Y-85137517D01*
X58949000Y-85118000D01*
X58949000Y-82678000D01*
X58952882Y-82658483D01*
X58963938Y-82641938D01*
X58980483Y-82630882D01*
X59000000Y-82627000D01*
X60120000Y-82627000D01*
X60139517Y-82630882D01*
G37*
G36*
X41261093Y-84089539D02*
G01*
X41323057Y-84130943D01*
X41364461Y-84192907D01*
X41379000Y-84266000D01*
X41379000Y-84546000D01*
X41364461Y-84619093D01*
X41323057Y-84681057D01*
X41261093Y-84722461D01*
X41188000Y-84737000D01*
X40848000Y-84737000D01*
X40774907Y-84722461D01*
X40712943Y-84681057D01*
X40671539Y-84619093D01*
X40657000Y-84546000D01*
X40657000Y-84266000D01*
X40671539Y-84192907D01*
X40712943Y-84130943D01*
X40774907Y-84089539D01*
X40848000Y-84075000D01*
X41188000Y-84075000D01*
X41261093Y-84089539D01*
G37*
G36*
X42277093Y-84089539D02*
G01*
X42339057Y-84130943D01*
X42380461Y-84192907D01*
X42395000Y-84266000D01*
X42395000Y-84546000D01*
X42380461Y-84619093D01*
X42339057Y-84681057D01*
X42277093Y-84722461D01*
X42204000Y-84737000D01*
X41864000Y-84737000D01*
X41790907Y-84722461D01*
X41728943Y-84681057D01*
X41687539Y-84619093D01*
X41673000Y-84546000D01*
X41673000Y-84266000D01*
X41687539Y-84192907D01*
X41728943Y-84130943D01*
X41790907Y-84089539D01*
X41864000Y-84075000D01*
X42204000Y-84075000D01*
X42277093Y-84089539D01*
G37*
G36*
X49643093Y-83637539D02*
G01*
X49705057Y-83678943D01*
X49746461Y-83740907D01*
X49761000Y-83814000D01*
X49761000Y-84094000D01*
X49746461Y-84167093D01*
X49705057Y-84229057D01*
X49643093Y-84270461D01*
X49570000Y-84285000D01*
X49230000Y-84285000D01*
X49156907Y-84270461D01*
X49094943Y-84229057D01*
X49053539Y-84167093D01*
X49039000Y-84094000D01*
X49039000Y-83814000D01*
X49053539Y-83740907D01*
X49094943Y-83678943D01*
X49156907Y-83637539D01*
X49230000Y-83623000D01*
X49570000Y-83623000D01*
X49643093Y-83637539D01*
G37*
G36*
X110896723Y-82345931D02*
G01*
X111059250Y-82418292D01*
X111203180Y-82522864D01*
X111322223Y-82655075D01*
X111411177Y-82809147D01*
X111466154Y-82978347D01*
X111484750Y-83155280D01*
X111466154Y-83332213D01*
X111411177Y-83501413D01*
X111322223Y-83655485D01*
X111203180Y-83787696D01*
X111059250Y-83892268D01*
X110896723Y-83964629D01*
X110722704Y-84001618D01*
X110544796Y-84001618D01*
X110370777Y-83964629D01*
X110208250Y-83892268D01*
X110064320Y-83787696D01*
X109945277Y-83655485D01*
X109856323Y-83501413D01*
X109801346Y-83332213D01*
X109782750Y-83155280D01*
X109801346Y-82978347D01*
X109856323Y-82809147D01*
X109945277Y-82655075D01*
X110064320Y-82522864D01*
X110208250Y-82418292D01*
X110370777Y-82345931D01*
X110544796Y-82308942D01*
X110722704Y-82308942D01*
X110896723Y-82345931D01*
G37*
G36*
X31287973Y-82320984D02*
G01*
X31450500Y-82393345D01*
X31594430Y-82497917D01*
X31713473Y-82630128D01*
X31802427Y-82784200D01*
X31857404Y-82953400D01*
X31876000Y-83130333D01*
X31857404Y-83307266D01*
X31802427Y-83476466D01*
X31713473Y-83630538D01*
X31594430Y-83762749D01*
X31450500Y-83867321D01*
X31287973Y-83939682D01*
X31113954Y-83976671D01*
X30936046Y-83976671D01*
X30762027Y-83939682D01*
X30599500Y-83867321D01*
X30455570Y-83762749D01*
X30336527Y-83630538D01*
X30247573Y-83476466D01*
X30192596Y-83307266D01*
X30174000Y-83130333D01*
X30192596Y-82953400D01*
X30247573Y-82784200D01*
X30336527Y-82630128D01*
X30455570Y-82497917D01*
X30599500Y-82393345D01*
X30762027Y-82320984D01*
X30936046Y-82283995D01*
X31113954Y-82283995D01*
X31287973Y-82320984D01*
G37*
G36*
X38907973Y-82320984D02*
G01*
X39070500Y-82393345D01*
X39214430Y-82497917D01*
X39333473Y-82630128D01*
X39422427Y-82784200D01*
X39477404Y-82953400D01*
X39496000Y-83130333D01*
X39477404Y-83307266D01*
X39422427Y-83476466D01*
X39333473Y-83630538D01*
X39214430Y-83762749D01*
X39070500Y-83867321D01*
X38907973Y-83939682D01*
X38733954Y-83976671D01*
X38556046Y-83976671D01*
X38382027Y-83939682D01*
X38219500Y-83867321D01*
X38075570Y-83762749D01*
X37956527Y-83630538D01*
X37867573Y-83476466D01*
X37812596Y-83307266D01*
X37794000Y-83130333D01*
X37812596Y-82953400D01*
X37867573Y-82784200D01*
X37956527Y-82630128D01*
X38075570Y-82497917D01*
X38219500Y-82393345D01*
X38382027Y-82320984D01*
X38556046Y-82283995D01*
X38733954Y-82283995D01*
X38907973Y-82320984D01*
G37*
G36*
X74187973Y-82215931D02*
G01*
X74350500Y-82288292D01*
X74494430Y-82392864D01*
X74613473Y-82525075D01*
X74702427Y-82679147D01*
X74757404Y-82848347D01*
X74776000Y-83025280D01*
X74757404Y-83202213D01*
X74702427Y-83371413D01*
X74613473Y-83525485D01*
X74494430Y-83657696D01*
X74350500Y-83762268D01*
X74187973Y-83834629D01*
X74013954Y-83871618D01*
X73836046Y-83871618D01*
X73662027Y-83834629D01*
X73499500Y-83762268D01*
X73355570Y-83657696D01*
X73236527Y-83525485D01*
X73147573Y-83371413D01*
X73092596Y-83202213D01*
X73074000Y-83025280D01*
X73092596Y-82848347D01*
X73147573Y-82679147D01*
X73236527Y-82525075D01*
X73355570Y-82392864D01*
X73499500Y-82288292D01*
X73662027Y-82215931D01*
X73836046Y-82178942D01*
X74013954Y-82178942D01*
X74187973Y-82215931D01*
G37*
G36*
X44165919Y-81494300D02*
G01*
X44231128Y-81537872D01*
X44274700Y-81603081D01*
X44290000Y-81680000D01*
X44290000Y-82980000D01*
X44274700Y-83056919D01*
X44231128Y-83122128D01*
X44165919Y-83165700D01*
X44089000Y-83181000D01*
X43789000Y-83181000D01*
X43712081Y-83165700D01*
X43646872Y-83122128D01*
X43603300Y-83056919D01*
X43588000Y-82980000D01*
X43588000Y-81680000D01*
X43603300Y-81603081D01*
X43646872Y-81537872D01*
X43712081Y-81494300D01*
X43789000Y-81479000D01*
X44089000Y-81479000D01*
X44165919Y-81494300D01*
G37*
G36*
X45435919Y-81494300D02*
G01*
X45501128Y-81537872D01*
X45544700Y-81603081D01*
X45560000Y-81680000D01*
X45560000Y-82980000D01*
X45544700Y-83056919D01*
X45501128Y-83122128D01*
X45435919Y-83165700D01*
X45359000Y-83181000D01*
X45059000Y-83181000D01*
X44982081Y-83165700D01*
X44916872Y-83122128D01*
X44873300Y-83056919D01*
X44858000Y-82980000D01*
X44858000Y-81680000D01*
X44873300Y-81603081D01*
X44916872Y-81537872D01*
X44982081Y-81494300D01*
X45059000Y-81479000D01*
X45359000Y-81479000D01*
X45435919Y-81494300D01*
G37*
G36*
X46705919Y-81494300D02*
G01*
X46771128Y-81537872D01*
X46814700Y-81603081D01*
X46830000Y-81680000D01*
X46830000Y-82980000D01*
X46814700Y-83056919D01*
X46771128Y-83122128D01*
X46705919Y-83165700D01*
X46629000Y-83181000D01*
X46329000Y-83181000D01*
X46252081Y-83165700D01*
X46186872Y-83122128D01*
X46143300Y-83056919D01*
X46128000Y-82980000D01*
X46128000Y-81680000D01*
X46143300Y-81603081D01*
X46186872Y-81537872D01*
X46252081Y-81494300D01*
X46329000Y-81479000D01*
X46629000Y-81479000D01*
X46705919Y-81494300D01*
G37*
G36*
X47975919Y-81494300D02*
G01*
X48041128Y-81537872D01*
X48084700Y-81603081D01*
X48100000Y-81680000D01*
X48100000Y-82980000D01*
X48084700Y-83056919D01*
X48041128Y-83122128D01*
X47975919Y-83165700D01*
X47899000Y-83181000D01*
X47599000Y-83181000D01*
X47522081Y-83165700D01*
X47456872Y-83122128D01*
X47413300Y-83056919D01*
X47398000Y-82980000D01*
X47398000Y-81680000D01*
X47413300Y-81603081D01*
X47456872Y-81537872D01*
X47522081Y-81494300D01*
X47599000Y-81479000D01*
X47899000Y-81479000D01*
X47975919Y-81494300D01*
G37*
G36*
X82292913Y-80843936D02*
G01*
X82339180Y-80843936D01*
X82379129Y-80852427D01*
X82420733Y-80856525D01*
X82472998Y-80872379D01*
X82523424Y-80883098D01*
X82555694Y-80897465D01*
X82589712Y-80907785D01*
X82643767Y-80936678D01*
X82695500Y-80959711D01*
X82719551Y-80977185D01*
X82745447Y-80991027D01*
X82798271Y-81034378D01*
X82847887Y-81070427D01*
X82863996Y-81088318D01*
X82881948Y-81103051D01*
X82930188Y-81161831D01*
X82973924Y-81210405D01*
X82983111Y-81226319D01*
X82993972Y-81239552D01*
X83034149Y-81314719D01*
X83068104Y-81373530D01*
X83072009Y-81385550D01*
X83077214Y-81395287D01*
X83105913Y-81489896D01*
X83126311Y-81552672D01*
X83127028Y-81559502D01*
X83128474Y-81564266D01*
X83142536Y-81707042D01*
X83146000Y-81740000D01*
X83142535Y-81772959D01*
X83128474Y-81915733D01*
X83127029Y-81920496D01*
X83126311Y-81927328D01*
X83105909Y-81990117D01*
X83077214Y-82084712D01*
X83072010Y-82094447D01*
X83068104Y-82106470D01*
X83034142Y-82165293D01*
X82993972Y-82240447D01*
X82983113Y-82253677D01*
X82973924Y-82269595D01*
X82930178Y-82318178D01*
X82881948Y-82376948D01*
X82864000Y-82391677D01*
X82847887Y-82409573D01*
X82798260Y-82445628D01*
X82745447Y-82488972D01*
X82719557Y-82502810D01*
X82695500Y-82520289D01*
X82643756Y-82543326D01*
X82589712Y-82572214D01*
X82555701Y-82582531D01*
X82523424Y-82596902D01*
X82472987Y-82607622D01*
X82420733Y-82623474D01*
X82379138Y-82627570D01*
X82339180Y-82636064D01*
X82292903Y-82636064D01*
X82245000Y-82640782D01*
X82197097Y-82636064D01*
X82150820Y-82636064D01*
X82110862Y-82627570D01*
X82069266Y-82623474D01*
X82017009Y-82607621D01*
X81966576Y-82596902D01*
X81934300Y-82582532D01*
X81900287Y-82572214D01*
X81846237Y-82543323D01*
X81794500Y-82520289D01*
X81770445Y-82502812D01*
X81744552Y-82488972D01*
X81691730Y-82445622D01*
X81642113Y-82409573D01*
X81626002Y-82391680D01*
X81608051Y-82376948D01*
X81559809Y-82318166D01*
X81516076Y-82269595D01*
X81506888Y-82253681D01*
X81496027Y-82240447D01*
X81455844Y-82165269D01*
X81421896Y-82106470D01*
X81417991Y-82094451D01*
X81412785Y-82084712D01*
X81384075Y-81990071D01*
X81363689Y-81927328D01*
X81362971Y-81920501D01*
X81361525Y-81915733D01*
X81347448Y-81772808D01*
X81344000Y-81740000D01*
X81347448Y-81707194D01*
X81361525Y-81564266D01*
X81362971Y-81559497D01*
X81363689Y-81552672D01*
X81384071Y-81489942D01*
X81412785Y-81395287D01*
X81417991Y-81385545D01*
X81421896Y-81373530D01*
X81455836Y-81314742D01*
X81496027Y-81239552D01*
X81506890Y-81226314D01*
X81516076Y-81210405D01*
X81559800Y-81161843D01*
X81608051Y-81103051D01*
X81626005Y-81088315D01*
X81642113Y-81070427D01*
X81691720Y-81034385D01*
X81744552Y-80991027D01*
X81770450Y-80977183D01*
X81794500Y-80959711D01*
X81846226Y-80936681D01*
X81900287Y-80907785D01*
X81934307Y-80897464D01*
X81966576Y-80883098D01*
X82016998Y-80872380D01*
X82069266Y-80856525D01*
X82110871Y-80852427D01*
X82150820Y-80843936D01*
X82197086Y-80843936D01*
X82244999Y-80839217D01*
X82292913Y-80843936D01*
G37*
G36*
X84832913Y-80843936D02*
G01*
X84879180Y-80843936D01*
X84919129Y-80852427D01*
X84960733Y-80856525D01*
X85012998Y-80872379D01*
X85063424Y-80883098D01*
X85095694Y-80897465D01*
X85129712Y-80907785D01*
X85183767Y-80936678D01*
X85235500Y-80959711D01*
X85259551Y-80977185D01*
X85285447Y-80991027D01*
X85338271Y-81034378D01*
X85387887Y-81070427D01*
X85403996Y-81088318D01*
X85421948Y-81103051D01*
X85470188Y-81161831D01*
X85513924Y-81210405D01*
X85523111Y-81226319D01*
X85533972Y-81239552D01*
X85574149Y-81314719D01*
X85608104Y-81373530D01*
X85612009Y-81385550D01*
X85617214Y-81395287D01*
X85645913Y-81489896D01*
X85666311Y-81552672D01*
X85667028Y-81559502D01*
X85668474Y-81564266D01*
X85682537Y-81707054D01*
X85686000Y-81740000D01*
X85682534Y-81772972D01*
X85668474Y-81915733D01*
X85667029Y-81920496D01*
X85666311Y-81927328D01*
X85645909Y-81990117D01*
X85617214Y-82084712D01*
X85612010Y-82094447D01*
X85608104Y-82106470D01*
X85574142Y-82165293D01*
X85533972Y-82240447D01*
X85523113Y-82253677D01*
X85513924Y-82269595D01*
X85470178Y-82318178D01*
X85421948Y-82376948D01*
X85404000Y-82391677D01*
X85387887Y-82409573D01*
X85338260Y-82445628D01*
X85285447Y-82488972D01*
X85259557Y-82502810D01*
X85235500Y-82520289D01*
X85183756Y-82543326D01*
X85129712Y-82572214D01*
X85095701Y-82582531D01*
X85063424Y-82596902D01*
X85012987Y-82607622D01*
X84960733Y-82623474D01*
X84919138Y-82627570D01*
X84879180Y-82636064D01*
X84832903Y-82636064D01*
X84785000Y-82640782D01*
X84737097Y-82636064D01*
X84690820Y-82636064D01*
X84650862Y-82627570D01*
X84609266Y-82623474D01*
X84557009Y-82607621D01*
X84506576Y-82596902D01*
X84474300Y-82582532D01*
X84440287Y-82572214D01*
X84386237Y-82543323D01*
X84334500Y-82520289D01*
X84310445Y-82502812D01*
X84284552Y-82488972D01*
X84231730Y-82445622D01*
X84182113Y-82409573D01*
X84166002Y-82391680D01*
X84148051Y-82376948D01*
X84099809Y-82318166D01*
X84056076Y-82269595D01*
X84046888Y-82253681D01*
X84036027Y-82240447D01*
X83995844Y-82165269D01*
X83961896Y-82106470D01*
X83957991Y-82094451D01*
X83952785Y-82084712D01*
X83924075Y-81990071D01*
X83903689Y-81927328D01*
X83902971Y-81920501D01*
X83901525Y-81915733D01*
X83887449Y-81772820D01*
X83884000Y-81740000D01*
X83887446Y-81707206D01*
X83901525Y-81564266D01*
X83902971Y-81559497D01*
X83903689Y-81552672D01*
X83924071Y-81489942D01*
X83952785Y-81395287D01*
X83957991Y-81385545D01*
X83961896Y-81373530D01*
X83995836Y-81314742D01*
X84036027Y-81239552D01*
X84046890Y-81226314D01*
X84056076Y-81210405D01*
X84099800Y-81161843D01*
X84148051Y-81103051D01*
X84166005Y-81088315D01*
X84182113Y-81070427D01*
X84231720Y-81034385D01*
X84284552Y-80991027D01*
X84310450Y-80977183D01*
X84334500Y-80959711D01*
X84386226Y-80936681D01*
X84440287Y-80907785D01*
X84474307Y-80897464D01*
X84506576Y-80883098D01*
X84556998Y-80872380D01*
X84609266Y-80856525D01*
X84650871Y-80852427D01*
X84690820Y-80843936D01*
X84737086Y-80843936D01*
X84785000Y-80839217D01*
X84832913Y-80843936D01*
G37*
G36*
X87372913Y-80843936D02*
G01*
X87419180Y-80843936D01*
X87459129Y-80852427D01*
X87500733Y-80856525D01*
X87552998Y-80872379D01*
X87603424Y-80883098D01*
X87635694Y-80897465D01*
X87669712Y-80907785D01*
X87723767Y-80936678D01*
X87775500Y-80959711D01*
X87799551Y-80977185D01*
X87825447Y-80991027D01*
X87878271Y-81034378D01*
X87927887Y-81070427D01*
X87943996Y-81088318D01*
X87961948Y-81103051D01*
X88010188Y-81161831D01*
X88053924Y-81210405D01*
X88063111Y-81226319D01*
X88073972Y-81239552D01*
X88114149Y-81314719D01*
X88148104Y-81373530D01*
X88152009Y-81385550D01*
X88157214Y-81395287D01*
X88185913Y-81489896D01*
X88206311Y-81552672D01*
X88207028Y-81559502D01*
X88208474Y-81564266D01*
X88222536Y-81707042D01*
X88226000Y-81740000D01*
X88222535Y-81772959D01*
X88208474Y-81915733D01*
X88207029Y-81920496D01*
X88206311Y-81927328D01*
X88185909Y-81990117D01*
X88157214Y-82084712D01*
X88152010Y-82094447D01*
X88148104Y-82106470D01*
X88114142Y-82165293D01*
X88073972Y-82240447D01*
X88063113Y-82253677D01*
X88053924Y-82269595D01*
X88010178Y-82318178D01*
X87961948Y-82376948D01*
X87944000Y-82391677D01*
X87927887Y-82409573D01*
X87878260Y-82445628D01*
X87825447Y-82488972D01*
X87799557Y-82502810D01*
X87775500Y-82520289D01*
X87723756Y-82543326D01*
X87669712Y-82572214D01*
X87635701Y-82582531D01*
X87603424Y-82596902D01*
X87552987Y-82607622D01*
X87500733Y-82623474D01*
X87459138Y-82627570D01*
X87419180Y-82636064D01*
X87372903Y-82636064D01*
X87325000Y-82640782D01*
X87277097Y-82636064D01*
X87230820Y-82636064D01*
X87190862Y-82627570D01*
X87149266Y-82623474D01*
X87097009Y-82607621D01*
X87046576Y-82596902D01*
X87014300Y-82582532D01*
X86980287Y-82572214D01*
X86926237Y-82543323D01*
X86874500Y-82520289D01*
X86850445Y-82502812D01*
X86824552Y-82488972D01*
X86771730Y-82445622D01*
X86722113Y-82409573D01*
X86706002Y-82391680D01*
X86688051Y-82376948D01*
X86639809Y-82318166D01*
X86596076Y-82269595D01*
X86586888Y-82253681D01*
X86576027Y-82240447D01*
X86535844Y-82165269D01*
X86501896Y-82106470D01*
X86497991Y-82094451D01*
X86492785Y-82084712D01*
X86464075Y-81990071D01*
X86443689Y-81927328D01*
X86442971Y-81920501D01*
X86441525Y-81915733D01*
X86427448Y-81772808D01*
X86424000Y-81740000D01*
X86427448Y-81707194D01*
X86441525Y-81564266D01*
X86442971Y-81559497D01*
X86443689Y-81552672D01*
X86464071Y-81489942D01*
X86492785Y-81395287D01*
X86497991Y-81385545D01*
X86501896Y-81373530D01*
X86535836Y-81314742D01*
X86576027Y-81239552D01*
X86586890Y-81226314D01*
X86596076Y-81210405D01*
X86639800Y-81161843D01*
X86688051Y-81103051D01*
X86706005Y-81088315D01*
X86722113Y-81070427D01*
X86771720Y-81034385D01*
X86824552Y-80991027D01*
X86850450Y-80977183D01*
X86874500Y-80959711D01*
X86926226Y-80936681D01*
X86980287Y-80907785D01*
X87014307Y-80897464D01*
X87046576Y-80883098D01*
X87096998Y-80872380D01*
X87149266Y-80856525D01*
X87190871Y-80852427D01*
X87230820Y-80843936D01*
X87277086Y-80843936D01*
X87325000Y-80839217D01*
X87372913Y-80843936D01*
G37*
G36*
X89912913Y-80843936D02*
G01*
X89959180Y-80843936D01*
X89999129Y-80852427D01*
X90040733Y-80856525D01*
X90092998Y-80872379D01*
X90143424Y-80883098D01*
X90175694Y-80897465D01*
X90209712Y-80907785D01*
X90263767Y-80936678D01*
X90315500Y-80959711D01*
X90339551Y-80977185D01*
X90365447Y-80991027D01*
X90418271Y-81034378D01*
X90467887Y-81070427D01*
X90483996Y-81088318D01*
X90501948Y-81103051D01*
X90550188Y-81161831D01*
X90593924Y-81210405D01*
X90603111Y-81226319D01*
X90613972Y-81239552D01*
X90654149Y-81314719D01*
X90688104Y-81373530D01*
X90692009Y-81385550D01*
X90697214Y-81395287D01*
X90725913Y-81489896D01*
X90746311Y-81552672D01*
X90747028Y-81559502D01*
X90748474Y-81564266D01*
X90762537Y-81707054D01*
X90766000Y-81740000D01*
X90762534Y-81772972D01*
X90748474Y-81915733D01*
X90747029Y-81920496D01*
X90746311Y-81927328D01*
X90725909Y-81990117D01*
X90697214Y-82084712D01*
X90692010Y-82094447D01*
X90688104Y-82106470D01*
X90654142Y-82165293D01*
X90613972Y-82240447D01*
X90603113Y-82253677D01*
X90593924Y-82269595D01*
X90550178Y-82318178D01*
X90501948Y-82376948D01*
X90484000Y-82391677D01*
X90467887Y-82409573D01*
X90418260Y-82445628D01*
X90365447Y-82488972D01*
X90339557Y-82502810D01*
X90315500Y-82520289D01*
X90263756Y-82543326D01*
X90209712Y-82572214D01*
X90175701Y-82582531D01*
X90143424Y-82596902D01*
X90092987Y-82607622D01*
X90040733Y-82623474D01*
X89999138Y-82627570D01*
X89959180Y-82636064D01*
X89912902Y-82636064D01*
X89864999Y-82640782D01*
X89817096Y-82636064D01*
X89770820Y-82636064D01*
X89730862Y-82627570D01*
X89689266Y-82623474D01*
X89637009Y-82607621D01*
X89586576Y-82596902D01*
X89554300Y-82582532D01*
X89520287Y-82572214D01*
X89466237Y-82543323D01*
X89414500Y-82520289D01*
X89390445Y-82502812D01*
X89364552Y-82488972D01*
X89311730Y-82445622D01*
X89262113Y-82409573D01*
X89246002Y-82391680D01*
X89228051Y-82376948D01*
X89179809Y-82318166D01*
X89136076Y-82269595D01*
X89126888Y-82253681D01*
X89116027Y-82240447D01*
X89075844Y-82165269D01*
X89041896Y-82106470D01*
X89037991Y-82094451D01*
X89032785Y-82084712D01*
X89004075Y-81990071D01*
X88983689Y-81927328D01*
X88982971Y-81920501D01*
X88981525Y-81915733D01*
X88967449Y-81772820D01*
X88964000Y-81740000D01*
X88967446Y-81707206D01*
X88981525Y-81564266D01*
X88982971Y-81559497D01*
X88983689Y-81552672D01*
X89004071Y-81489942D01*
X89032785Y-81395287D01*
X89037991Y-81385545D01*
X89041896Y-81373530D01*
X89075836Y-81314742D01*
X89116027Y-81239552D01*
X89126890Y-81226314D01*
X89136076Y-81210405D01*
X89179800Y-81161843D01*
X89228051Y-81103051D01*
X89246005Y-81088315D01*
X89262113Y-81070427D01*
X89311720Y-81034385D01*
X89364552Y-80991027D01*
X89390450Y-80977183D01*
X89414500Y-80959711D01*
X89466226Y-80936681D01*
X89520287Y-80907785D01*
X89554307Y-80897464D01*
X89586576Y-80883098D01*
X89636998Y-80872380D01*
X89689266Y-80856525D01*
X89730871Y-80852427D01*
X89770820Y-80843936D01*
X89817086Y-80843936D01*
X89864999Y-80839217D01*
X89912913Y-80843936D01*
G37*
G36*
X31287973Y-79780984D02*
G01*
X31450500Y-79853345D01*
X31594430Y-79957917D01*
X31713473Y-80090128D01*
X31802427Y-80244200D01*
X31857404Y-80413400D01*
X31876000Y-80590333D01*
X31857404Y-80767266D01*
X31802427Y-80936466D01*
X31713473Y-81090538D01*
X31594430Y-81222749D01*
X31450500Y-81327321D01*
X31287973Y-81399682D01*
X31113954Y-81436671D01*
X30936046Y-81436671D01*
X30762027Y-81399682D01*
X30599500Y-81327321D01*
X30455570Y-81222749D01*
X30336527Y-81090538D01*
X30247573Y-80936466D01*
X30192596Y-80767266D01*
X30174000Y-80590333D01*
X30192596Y-80413400D01*
X30247573Y-80244200D01*
X30336527Y-80090128D01*
X30455570Y-79957917D01*
X30599500Y-79853345D01*
X30762027Y-79780984D01*
X30936046Y-79743995D01*
X31113954Y-79743995D01*
X31287973Y-79780984D01*
G37*
G36*
X38907973Y-79780984D02*
G01*
X39070500Y-79853345D01*
X39214430Y-79957917D01*
X39333473Y-80090128D01*
X39422427Y-80244200D01*
X39477404Y-80413400D01*
X39496000Y-80590333D01*
X39477404Y-80767266D01*
X39422427Y-80936466D01*
X39333473Y-81090538D01*
X39214430Y-81222749D01*
X39070500Y-81327321D01*
X38907973Y-81399682D01*
X38733954Y-81436671D01*
X38556046Y-81436671D01*
X38382027Y-81399682D01*
X38219500Y-81327321D01*
X38075570Y-81222749D01*
X37956527Y-81090538D01*
X37867573Y-80936466D01*
X37812596Y-80767266D01*
X37794000Y-80590333D01*
X37812596Y-80413400D01*
X37867573Y-80244200D01*
X37956527Y-80090128D01*
X38075570Y-79957917D01*
X38219500Y-79853345D01*
X38382027Y-79780984D01*
X38556046Y-79743995D01*
X38733954Y-79743995D01*
X38907973Y-79780984D01*
G37*
G36*
X42827517Y-79558882D02*
G01*
X42844062Y-79569938D01*
X42855118Y-79586483D01*
X42859000Y-79606000D01*
X42859000Y-80656000D01*
X42855118Y-80675517D01*
X42844062Y-80692062D01*
X42827517Y-80703118D01*
X42808000Y-80707000D01*
X42158000Y-80707000D01*
X42138483Y-80703118D01*
X42121938Y-80692062D01*
X42110882Y-80675517D01*
X42107000Y-80656000D01*
X42107000Y-79606000D01*
X42110882Y-79586483D01*
X42121938Y-79569938D01*
X42138483Y-79558882D01*
X42158000Y-79555000D01*
X42808000Y-79555000D01*
X42827517Y-79558882D01*
G37*
G36*
X44977517Y-79558882D02*
G01*
X44994062Y-79569938D01*
X45005118Y-79586483D01*
X45009000Y-79606000D01*
X45009000Y-80656000D01*
X45005118Y-80675517D01*
X44994062Y-80692062D01*
X44977517Y-80703118D01*
X44958000Y-80707000D01*
X44308000Y-80707000D01*
X44288483Y-80703118D01*
X44271938Y-80692062D01*
X44260882Y-80675517D01*
X44257000Y-80656000D01*
X44257000Y-79606000D01*
X44260882Y-79586483D01*
X44271938Y-79569938D01*
X44288483Y-79558882D01*
X44308000Y-79555000D01*
X44958000Y-79555000D01*
X44977517Y-79558882D01*
G37*
G36*
X46891517Y-79558882D02*
G01*
X46908062Y-79569938D01*
X46919118Y-79586483D01*
X46923000Y-79606000D01*
X46923000Y-80656000D01*
X46919118Y-80675517D01*
X46908062Y-80692062D01*
X46891517Y-80703118D01*
X46872000Y-80707000D01*
X46222000Y-80707000D01*
X46202483Y-80703118D01*
X46185938Y-80692062D01*
X46174882Y-80675517D01*
X46171000Y-80656000D01*
X46171000Y-79606000D01*
X46174882Y-79586483D01*
X46185938Y-79569938D01*
X46202483Y-79558882D01*
X46222000Y-79555000D01*
X46872000Y-79555000D01*
X46891517Y-79558882D01*
G37*
G36*
X49041517Y-79558882D02*
G01*
X49058062Y-79569938D01*
X49069118Y-79586483D01*
X49073000Y-79606000D01*
X49073000Y-80656000D01*
X49069118Y-80675517D01*
X49058062Y-80692062D01*
X49041517Y-80703118D01*
X49022000Y-80707000D01*
X48372000Y-80707000D01*
X48352483Y-80703118D01*
X48335938Y-80692062D01*
X48324882Y-80675517D01*
X48321000Y-80656000D01*
X48321000Y-79606000D01*
X48324882Y-79586483D01*
X48335938Y-79569938D01*
X48352483Y-79558882D01*
X48372000Y-79555000D01*
X49022000Y-79555000D01*
X49041517Y-79558882D01*
G37*
G36*
X99874517Y-78154162D02*
G01*
X99891062Y-78165218D01*
X99902118Y-78181763D01*
X99906000Y-78201280D01*
X99906000Y-80641280D01*
X99902118Y-80660797D01*
X99891062Y-80677342D01*
X99874517Y-80688398D01*
X99855000Y-80692280D01*
X98735000Y-80692280D01*
X98715483Y-80688398D01*
X98698938Y-80677342D01*
X98687882Y-80660797D01*
X98684000Y-80641280D01*
X98684000Y-78201280D01*
X98687882Y-78181763D01*
X98698938Y-78165218D01*
X98715483Y-78154162D01*
X98735000Y-78150280D01*
X99855000Y-78150280D01*
X99874517Y-78154162D01*
G37*
G36*
X102414517Y-78154162D02*
G01*
X102431062Y-78165218D01*
X102442118Y-78181763D01*
X102446000Y-78201280D01*
X102446000Y-80641280D01*
X102442118Y-80660797D01*
X102431062Y-80677342D01*
X102414517Y-80688398D01*
X102395000Y-80692280D01*
X101275000Y-80692280D01*
X101255483Y-80688398D01*
X101238938Y-80677342D01*
X101227882Y-80660797D01*
X101224000Y-80641280D01*
X101224000Y-78201280D01*
X101227882Y-78181763D01*
X101238938Y-78165218D01*
X101255483Y-78154162D01*
X101275000Y-78150280D01*
X102395000Y-78150280D01*
X102414517Y-78154162D01*
G37*
G36*
X104954517Y-78154162D02*
G01*
X104971062Y-78165218D01*
X104982118Y-78181763D01*
X104986000Y-78201280D01*
X104986000Y-80641280D01*
X104982118Y-80660797D01*
X104971062Y-80677342D01*
X104954517Y-80688398D01*
X104935000Y-80692280D01*
X103815000Y-80692280D01*
X103795483Y-80688398D01*
X103778938Y-80677342D01*
X103767882Y-80660797D01*
X103764000Y-80641280D01*
X103764000Y-78201280D01*
X103767882Y-78181763D01*
X103778938Y-78165218D01*
X103795483Y-78154162D01*
X103815000Y-78150280D01*
X104935000Y-78150280D01*
X104954517Y-78154162D01*
G37*
G36*
X107494517Y-78154162D02*
G01*
X107511062Y-78165218D01*
X107522118Y-78181763D01*
X107526000Y-78201280D01*
X107526000Y-80641280D01*
X107522118Y-80660797D01*
X107511062Y-80677342D01*
X107494517Y-80688398D01*
X107475000Y-80692280D01*
X106355000Y-80692280D01*
X106335483Y-80688398D01*
X106318938Y-80677342D01*
X106307882Y-80660797D01*
X106304000Y-80641280D01*
X106304000Y-78201280D01*
X106307882Y-78181763D01*
X106318938Y-78165218D01*
X106335483Y-78154162D01*
X106355000Y-78150280D01*
X107475000Y-78150280D01*
X107494517Y-78154162D01*
G37*
G36*
X90734517Y-78302882D02*
G01*
X90751062Y-78313938D01*
X90762118Y-78330483D01*
X90766000Y-78350000D01*
X90766000Y-80050000D01*
X90762118Y-80069517D01*
X90751062Y-80086062D01*
X90734517Y-80097118D01*
X90715000Y-80101000D01*
X89015000Y-80101000D01*
X88995483Y-80097118D01*
X88978938Y-80086062D01*
X88967882Y-80069517D01*
X88964000Y-80050000D01*
X88964000Y-78350000D01*
X88967882Y-78330483D01*
X88978938Y-78313938D01*
X88995483Y-78302882D01*
X89015000Y-78299000D01*
X90715000Y-78299000D01*
X90734517Y-78302882D01*
G37*
G36*
X82292913Y-78303936D02*
G01*
X82339180Y-78303936D01*
X82379129Y-78312427D01*
X82420733Y-78316525D01*
X82472998Y-78332379D01*
X82523424Y-78343098D01*
X82555694Y-78357465D01*
X82589712Y-78367785D01*
X82643767Y-78396678D01*
X82695500Y-78419711D01*
X82719551Y-78437185D01*
X82745447Y-78451027D01*
X82798271Y-78494378D01*
X82847887Y-78530427D01*
X82863996Y-78548318D01*
X82881948Y-78563051D01*
X82930188Y-78621831D01*
X82973924Y-78670405D01*
X82983111Y-78686319D01*
X82993972Y-78699552D01*
X83034149Y-78774719D01*
X83068104Y-78833530D01*
X83072009Y-78845550D01*
X83077214Y-78855287D01*
X83105913Y-78949896D01*
X83126311Y-79012672D01*
X83127028Y-79019502D01*
X83128474Y-79024266D01*
X83142536Y-79167042D01*
X83146000Y-79200000D01*
X83142535Y-79232959D01*
X83128474Y-79375733D01*
X83127029Y-79380496D01*
X83126311Y-79387328D01*
X83105909Y-79450117D01*
X83077214Y-79544712D01*
X83072010Y-79554447D01*
X83068104Y-79566470D01*
X83034142Y-79625293D01*
X82993972Y-79700447D01*
X82983113Y-79713677D01*
X82973924Y-79729595D01*
X82930178Y-79778178D01*
X82881948Y-79836948D01*
X82864000Y-79851677D01*
X82847887Y-79869573D01*
X82798260Y-79905628D01*
X82745447Y-79948972D01*
X82719557Y-79962810D01*
X82695500Y-79980289D01*
X82643756Y-80003326D01*
X82589712Y-80032214D01*
X82555701Y-80042531D01*
X82523424Y-80056902D01*
X82472987Y-80067622D01*
X82420733Y-80083474D01*
X82379138Y-80087570D01*
X82339180Y-80096064D01*
X82292903Y-80096064D01*
X82245000Y-80100782D01*
X82197097Y-80096064D01*
X82150820Y-80096064D01*
X82110862Y-80087570D01*
X82069266Y-80083474D01*
X82017009Y-80067621D01*
X81966576Y-80056902D01*
X81934300Y-80042532D01*
X81900287Y-80032214D01*
X81846237Y-80003323D01*
X81794500Y-79980289D01*
X81770445Y-79962812D01*
X81744552Y-79948972D01*
X81691730Y-79905622D01*
X81642113Y-79869573D01*
X81626002Y-79851680D01*
X81608051Y-79836948D01*
X81559809Y-79778166D01*
X81516076Y-79729595D01*
X81506888Y-79713681D01*
X81496027Y-79700447D01*
X81455844Y-79625269D01*
X81421896Y-79566470D01*
X81417991Y-79554451D01*
X81412785Y-79544712D01*
X81384075Y-79450071D01*
X81363689Y-79387328D01*
X81362971Y-79380501D01*
X81361525Y-79375733D01*
X81347448Y-79232808D01*
X81344000Y-79200000D01*
X81347448Y-79167194D01*
X81361525Y-79024266D01*
X81362971Y-79019497D01*
X81363689Y-79012672D01*
X81384071Y-78949942D01*
X81412785Y-78855287D01*
X81417991Y-78845545D01*
X81421896Y-78833530D01*
X81455836Y-78774742D01*
X81496027Y-78699552D01*
X81506890Y-78686314D01*
X81516076Y-78670405D01*
X81559800Y-78621843D01*
X81608051Y-78563051D01*
X81626005Y-78548315D01*
X81642113Y-78530427D01*
X81691720Y-78494385D01*
X81744552Y-78451027D01*
X81770450Y-78437183D01*
X81794500Y-78419711D01*
X81846226Y-78396681D01*
X81900287Y-78367785D01*
X81934307Y-78357464D01*
X81966576Y-78343098D01*
X82016998Y-78332380D01*
X82069266Y-78316525D01*
X82110871Y-78312427D01*
X82150820Y-78303936D01*
X82197086Y-78303936D01*
X82245000Y-78299217D01*
X82292913Y-78303936D01*
G37*
G36*
X84832913Y-78303936D02*
G01*
X84879180Y-78303936D01*
X84919129Y-78312427D01*
X84960733Y-78316525D01*
X85012998Y-78332379D01*
X85063424Y-78343098D01*
X85095694Y-78357465D01*
X85129712Y-78367785D01*
X85183767Y-78396678D01*
X85235500Y-78419711D01*
X85259551Y-78437185D01*
X85285447Y-78451027D01*
X85338271Y-78494378D01*
X85387887Y-78530427D01*
X85403996Y-78548318D01*
X85421948Y-78563051D01*
X85470188Y-78621831D01*
X85513924Y-78670405D01*
X85523111Y-78686319D01*
X85533972Y-78699552D01*
X85574149Y-78774719D01*
X85608104Y-78833530D01*
X85612009Y-78845550D01*
X85617214Y-78855287D01*
X85645913Y-78949896D01*
X85666311Y-79012672D01*
X85667028Y-79019502D01*
X85668474Y-79024266D01*
X85682536Y-79167042D01*
X85686000Y-79200000D01*
X85682535Y-79232959D01*
X85668474Y-79375733D01*
X85667029Y-79380496D01*
X85666311Y-79387328D01*
X85645909Y-79450117D01*
X85617214Y-79544712D01*
X85612010Y-79554447D01*
X85608104Y-79566470D01*
X85574142Y-79625293D01*
X85533972Y-79700447D01*
X85523113Y-79713677D01*
X85513924Y-79729595D01*
X85470178Y-79778178D01*
X85421948Y-79836948D01*
X85404000Y-79851677D01*
X85387887Y-79869573D01*
X85338260Y-79905628D01*
X85285447Y-79948972D01*
X85259557Y-79962810D01*
X85235500Y-79980289D01*
X85183756Y-80003326D01*
X85129712Y-80032214D01*
X85095701Y-80042531D01*
X85063424Y-80056902D01*
X85012987Y-80067622D01*
X84960733Y-80083474D01*
X84919138Y-80087570D01*
X84879180Y-80096064D01*
X84832902Y-80096064D01*
X84784999Y-80100782D01*
X84737096Y-80096064D01*
X84690820Y-80096064D01*
X84650862Y-80087570D01*
X84609266Y-80083474D01*
X84557009Y-80067621D01*
X84506576Y-80056902D01*
X84474300Y-80042532D01*
X84440287Y-80032214D01*
X84386237Y-80003323D01*
X84334500Y-79980289D01*
X84310445Y-79962812D01*
X84284552Y-79948972D01*
X84231730Y-79905622D01*
X84182113Y-79869573D01*
X84166002Y-79851680D01*
X84148051Y-79836948D01*
X84099809Y-79778166D01*
X84056076Y-79729595D01*
X84046888Y-79713681D01*
X84036027Y-79700447D01*
X83995844Y-79625269D01*
X83961896Y-79566470D01*
X83957991Y-79554451D01*
X83952785Y-79544712D01*
X83924075Y-79450071D01*
X83903689Y-79387328D01*
X83902971Y-79380501D01*
X83901525Y-79375733D01*
X83887448Y-79232808D01*
X83884000Y-79200000D01*
X83887448Y-79167194D01*
X83901525Y-79024266D01*
X83902971Y-79019497D01*
X83903689Y-79012672D01*
X83924071Y-78949942D01*
X83952785Y-78855287D01*
X83957991Y-78845545D01*
X83961896Y-78833530D01*
X83995836Y-78774742D01*
X84036027Y-78699552D01*
X84046890Y-78686314D01*
X84056076Y-78670405D01*
X84099800Y-78621843D01*
X84148051Y-78563051D01*
X84166005Y-78548315D01*
X84182113Y-78530427D01*
X84231720Y-78494385D01*
X84284552Y-78451027D01*
X84310450Y-78437183D01*
X84334500Y-78419711D01*
X84386226Y-78396681D01*
X84440287Y-78367785D01*
X84474307Y-78357464D01*
X84506576Y-78343098D01*
X84556998Y-78332380D01*
X84609266Y-78316525D01*
X84650871Y-78312427D01*
X84690820Y-78303936D01*
X84737086Y-78303936D01*
X84784999Y-78299217D01*
X84832913Y-78303936D01*
G37*
G36*
X87372913Y-78303936D02*
G01*
X87419180Y-78303936D01*
X87459129Y-78312427D01*
X87500733Y-78316525D01*
X87552998Y-78332379D01*
X87603424Y-78343098D01*
X87635694Y-78357465D01*
X87669712Y-78367785D01*
X87723767Y-78396678D01*
X87775500Y-78419711D01*
X87799551Y-78437185D01*
X87825447Y-78451027D01*
X87878271Y-78494378D01*
X87927887Y-78530427D01*
X87943996Y-78548318D01*
X87961948Y-78563051D01*
X88010188Y-78621831D01*
X88053924Y-78670405D01*
X88063111Y-78686319D01*
X88073972Y-78699552D01*
X88114149Y-78774719D01*
X88148104Y-78833530D01*
X88152009Y-78845550D01*
X88157214Y-78855287D01*
X88185913Y-78949896D01*
X88206311Y-79012672D01*
X88207028Y-79019502D01*
X88208474Y-79024266D01*
X88222536Y-79167042D01*
X88226000Y-79200000D01*
X88222535Y-79232959D01*
X88208474Y-79375733D01*
X88207029Y-79380496D01*
X88206311Y-79387328D01*
X88185909Y-79450117D01*
X88157214Y-79544712D01*
X88152010Y-79554447D01*
X88148104Y-79566470D01*
X88114142Y-79625293D01*
X88073972Y-79700447D01*
X88063113Y-79713677D01*
X88053924Y-79729595D01*
X88010178Y-79778178D01*
X87961948Y-79836948D01*
X87944000Y-79851677D01*
X87927887Y-79869573D01*
X87878260Y-79905628D01*
X87825447Y-79948972D01*
X87799557Y-79962810D01*
X87775500Y-79980289D01*
X87723756Y-80003326D01*
X87669712Y-80032214D01*
X87635701Y-80042531D01*
X87603424Y-80056902D01*
X87552987Y-80067622D01*
X87500733Y-80083474D01*
X87459138Y-80087570D01*
X87419180Y-80096064D01*
X87372903Y-80096064D01*
X87325000Y-80100782D01*
X87277097Y-80096064D01*
X87230820Y-80096064D01*
X87190862Y-80087570D01*
X87149266Y-80083474D01*
X87097009Y-80067621D01*
X87046576Y-80056902D01*
X87014300Y-80042532D01*
X86980287Y-80032214D01*
X86926237Y-80003323D01*
X86874500Y-79980289D01*
X86850445Y-79962812D01*
X86824552Y-79948972D01*
X86771730Y-79905622D01*
X86722113Y-79869573D01*
X86706002Y-79851680D01*
X86688051Y-79836948D01*
X86639809Y-79778166D01*
X86596076Y-79729595D01*
X86586888Y-79713681D01*
X86576027Y-79700447D01*
X86535844Y-79625269D01*
X86501896Y-79566470D01*
X86497991Y-79554451D01*
X86492785Y-79544712D01*
X86464075Y-79450071D01*
X86443689Y-79387328D01*
X86442971Y-79380501D01*
X86441525Y-79375733D01*
X86427448Y-79232808D01*
X86424000Y-79200000D01*
X86427448Y-79167194D01*
X86441525Y-79024266D01*
X86442971Y-79019497D01*
X86443689Y-79012672D01*
X86464071Y-78949942D01*
X86492785Y-78855287D01*
X86497991Y-78845545D01*
X86501896Y-78833530D01*
X86535836Y-78774742D01*
X86576027Y-78699552D01*
X86586890Y-78686314D01*
X86596076Y-78670405D01*
X86639800Y-78621843D01*
X86688051Y-78563051D01*
X86706005Y-78548315D01*
X86722113Y-78530427D01*
X86771720Y-78494385D01*
X86824552Y-78451027D01*
X86850450Y-78437183D01*
X86874500Y-78419711D01*
X86926226Y-78396681D01*
X86980287Y-78367785D01*
X87014307Y-78357464D01*
X87046576Y-78343098D01*
X87096998Y-78332380D01*
X87149266Y-78316525D01*
X87190871Y-78312427D01*
X87230820Y-78303936D01*
X87277086Y-78303936D01*
X87325000Y-78299217D01*
X87372913Y-78303936D01*
G37*
G36*
X31287973Y-77240984D02*
G01*
X31450500Y-77313345D01*
X31594430Y-77417917D01*
X31713473Y-77550128D01*
X31802427Y-77704200D01*
X31857404Y-77873400D01*
X31876000Y-78050333D01*
X31857404Y-78227266D01*
X31802427Y-78396466D01*
X31713473Y-78550538D01*
X31594430Y-78682749D01*
X31450500Y-78787321D01*
X31287973Y-78859682D01*
X31113954Y-78896671D01*
X30936046Y-78896671D01*
X30762027Y-78859682D01*
X30599500Y-78787321D01*
X30455570Y-78682749D01*
X30336527Y-78550538D01*
X30247573Y-78396466D01*
X30192596Y-78227266D01*
X30174000Y-78050333D01*
X30192596Y-77873400D01*
X30247573Y-77704200D01*
X30336527Y-77550128D01*
X30455570Y-77417917D01*
X30599500Y-77313345D01*
X30762027Y-77240984D01*
X30936046Y-77203995D01*
X31113954Y-77203995D01*
X31287973Y-77240984D01*
G37*
G36*
X38907973Y-77240984D02*
G01*
X39070500Y-77313345D01*
X39214430Y-77417917D01*
X39333473Y-77550128D01*
X39422427Y-77704200D01*
X39477404Y-77873400D01*
X39496000Y-78050333D01*
X39477404Y-78227266D01*
X39422427Y-78396466D01*
X39333473Y-78550538D01*
X39214430Y-78682749D01*
X39070500Y-78787321D01*
X38907973Y-78859682D01*
X38733954Y-78896671D01*
X38556046Y-78896671D01*
X38382027Y-78859682D01*
X38219500Y-78787321D01*
X38075570Y-78682749D01*
X37956527Y-78550538D01*
X37867573Y-78396466D01*
X37812596Y-78227266D01*
X37794000Y-78050333D01*
X37812596Y-77873400D01*
X37867573Y-77704200D01*
X37956527Y-77550128D01*
X38075570Y-77417917D01*
X38219500Y-77313345D01*
X38382027Y-77240984D01*
X38556046Y-77203995D01*
X38733954Y-77203995D01*
X38907973Y-77240984D01*
G37*
G36*
X92123596Y-74936888D02*
G01*
X92180854Y-74940805D01*
X92197039Y-74946557D01*
X92211257Y-74948429D01*
X92265340Y-74970831D01*
X92322246Y-74991055D01*
X92333721Y-74999155D01*
X92344056Y-75003436D01*
X92393106Y-75041073D01*
X92444837Y-75077589D01*
X92451719Y-75086049D01*
X92458091Y-75090938D01*
X92497815Y-75142708D01*
X92539535Y-75193989D01*
X92542628Y-75201110D01*
X92545592Y-75204973D01*
X92572039Y-75268822D01*
X92599317Y-75331622D01*
X92599945Y-75336192D01*
X92600600Y-75337773D01*
X92610542Y-75413291D01*
X92619750Y-75480280D01*
X92619750Y-76580280D01*
X92614618Y-76655308D01*
X92604933Y-76689873D01*
X92600600Y-76722786D01*
X92585491Y-76759261D01*
X92574133Y-76799799D01*
X92557093Y-76827819D01*
X92545592Y-76855586D01*
X92519644Y-76889402D01*
X92496167Y-76928009D01*
X92474477Y-76948266D01*
X92458091Y-76969621D01*
X92421771Y-76997489D01*
X92386501Y-77030430D01*
X92362914Y-77042651D01*
X92344056Y-77057122D01*
X92298854Y-77075845D01*
X92253269Y-77099466D01*
X92230313Y-77104236D01*
X92211256Y-77112130D01*
X92159595Y-77118931D01*
X92106352Y-77129995D01*
X92086085Y-77128608D01*
X92068750Y-77130891D01*
X92013918Y-77123672D01*
X91956646Y-77119755D01*
X91940456Y-77114001D01*
X91926242Y-77112130D01*
X91872169Y-77089732D01*
X91815254Y-77069505D01*
X91803776Y-77061403D01*
X91793443Y-77057123D01*
X91744397Y-77019489D01*
X91692663Y-76982971D01*
X91685779Y-76974510D01*
X91679408Y-76969621D01*
X91639680Y-76917846D01*
X91597965Y-76866571D01*
X91594871Y-76859450D01*
X91591907Y-76855586D01*
X91565447Y-76791708D01*
X91538183Y-76728938D01*
X91537555Y-76724370D01*
X91536899Y-76722786D01*
X91526949Y-76647207D01*
X91517750Y-76580280D01*
X91517750Y-75480280D01*
X91522882Y-75405252D01*
X91532565Y-75370692D01*
X91536899Y-75337773D01*
X91552011Y-75301287D01*
X91563367Y-75260761D01*
X91580402Y-75232747D01*
X91591907Y-75204973D01*
X91617862Y-75171146D01*
X91641333Y-75132551D01*
X91663016Y-75112299D01*
X91679408Y-75090938D01*
X91715738Y-75063060D01*
X91750999Y-75030130D01*
X91774578Y-75017911D01*
X91793443Y-75003437D01*
X91838658Y-74984707D01*
X91884231Y-74961094D01*
X91907179Y-74956325D01*
X91926243Y-74948429D01*
X91977918Y-74941625D01*
X92031148Y-74930565D01*
X92051409Y-74931950D01*
X92068750Y-74929668D01*
X92123596Y-74936888D01*
G37*
G36*
X100763596Y-74936888D02*
G01*
X100820854Y-74940805D01*
X100837039Y-74946557D01*
X100851257Y-74948429D01*
X100905340Y-74970831D01*
X100962246Y-74991055D01*
X100973721Y-74999155D01*
X100984056Y-75003436D01*
X101033106Y-75041073D01*
X101084837Y-75077589D01*
X101091719Y-75086049D01*
X101098091Y-75090938D01*
X101137815Y-75142708D01*
X101179535Y-75193989D01*
X101182628Y-75201110D01*
X101185592Y-75204973D01*
X101212039Y-75268822D01*
X101239317Y-75331622D01*
X101239945Y-75336192D01*
X101240600Y-75337773D01*
X101250542Y-75413291D01*
X101259750Y-75480280D01*
X101259750Y-76580280D01*
X101254618Y-76655308D01*
X101244933Y-76689873D01*
X101240600Y-76722786D01*
X101225491Y-76759261D01*
X101214133Y-76799799D01*
X101197093Y-76827819D01*
X101185592Y-76855586D01*
X101159644Y-76889402D01*
X101136167Y-76928009D01*
X101114477Y-76948266D01*
X101098091Y-76969621D01*
X101061771Y-76997489D01*
X101026501Y-77030430D01*
X101002914Y-77042651D01*
X100984056Y-77057122D01*
X100938854Y-77075845D01*
X100893269Y-77099466D01*
X100870313Y-77104236D01*
X100851256Y-77112130D01*
X100799595Y-77118931D01*
X100746352Y-77129995D01*
X100726085Y-77128608D01*
X100708750Y-77130891D01*
X100653918Y-77123672D01*
X100596646Y-77119755D01*
X100580456Y-77114001D01*
X100566242Y-77112130D01*
X100512169Y-77089732D01*
X100455254Y-77069505D01*
X100443776Y-77061403D01*
X100433443Y-77057123D01*
X100384397Y-77019489D01*
X100332663Y-76982971D01*
X100325779Y-76974510D01*
X100319408Y-76969621D01*
X100279680Y-76917846D01*
X100237965Y-76866571D01*
X100234871Y-76859450D01*
X100231907Y-76855586D01*
X100205447Y-76791708D01*
X100178183Y-76728938D01*
X100177555Y-76724370D01*
X100176899Y-76722786D01*
X100166949Y-76647207D01*
X100157750Y-76580280D01*
X100157750Y-75480280D01*
X100162882Y-75405252D01*
X100172565Y-75370692D01*
X100176899Y-75337773D01*
X100192011Y-75301287D01*
X100203367Y-75260761D01*
X100220402Y-75232747D01*
X100231907Y-75204973D01*
X100257862Y-75171146D01*
X100281333Y-75132551D01*
X100303016Y-75112299D01*
X100319408Y-75090938D01*
X100355738Y-75063060D01*
X100390999Y-75030130D01*
X100414578Y-75017911D01*
X100433443Y-75003437D01*
X100478658Y-74984707D01*
X100524231Y-74961094D01*
X100547179Y-74956325D01*
X100566243Y-74948429D01*
X100617918Y-74941625D01*
X100671148Y-74930565D01*
X100691409Y-74931950D01*
X100708750Y-74929668D01*
X100763596Y-74936888D01*
G37*
G36*
X52519517Y-74020882D02*
G01*
X52536062Y-74031938D01*
X52547118Y-74048483D01*
X52551000Y-74068000D01*
X52551000Y-76508000D01*
X52547118Y-76527517D01*
X52536062Y-76544062D01*
X52519517Y-76555118D01*
X52500000Y-76559000D01*
X51380000Y-76559000D01*
X51360483Y-76555118D01*
X51343938Y-76544062D01*
X51332882Y-76527517D01*
X51329000Y-76508000D01*
X51329000Y-74068000D01*
X51332882Y-74048483D01*
X51343938Y-74031938D01*
X51360483Y-74020882D01*
X51380000Y-74017000D01*
X52500000Y-74017000D01*
X52519517Y-74020882D01*
G37*
G36*
X55059517Y-74020882D02*
G01*
X55076062Y-74031938D01*
X55087118Y-74048483D01*
X55091000Y-74068000D01*
X55091000Y-76508000D01*
X55087118Y-76527517D01*
X55076062Y-76544062D01*
X55059517Y-76555118D01*
X55040000Y-76559000D01*
X53920000Y-76559000D01*
X53900483Y-76555118D01*
X53883938Y-76544062D01*
X53872882Y-76527517D01*
X53869000Y-76508000D01*
X53869000Y-74068000D01*
X53872882Y-74048483D01*
X53883938Y-74031938D01*
X53900483Y-74020882D01*
X53920000Y-74017000D01*
X55040000Y-74017000D01*
X55059517Y-74020882D01*
G37*
G36*
X57599517Y-74020882D02*
G01*
X57616062Y-74031938D01*
X57627118Y-74048483D01*
X57631000Y-74068000D01*
X57631000Y-76508000D01*
X57627118Y-76527517D01*
X57616062Y-76544062D01*
X57599517Y-76555118D01*
X57580000Y-76559000D01*
X56460000Y-76559000D01*
X56440483Y-76555118D01*
X56423938Y-76544062D01*
X56412882Y-76527517D01*
X56409000Y-76508000D01*
X56409000Y-74068000D01*
X56412882Y-74048483D01*
X56423938Y-74031938D01*
X56440483Y-74020882D01*
X56460000Y-74017000D01*
X57580000Y-74017000D01*
X57599517Y-74020882D01*
G37*
G36*
X60139517Y-74020882D02*
G01*
X60156062Y-74031938D01*
X60167118Y-74048483D01*
X60171000Y-74068000D01*
X60171000Y-76508000D01*
X60167118Y-76527517D01*
X60156062Y-76544062D01*
X60139517Y-76555118D01*
X60120000Y-76559000D01*
X59000000Y-76559000D01*
X58980483Y-76555118D01*
X58963938Y-76544062D01*
X58952882Y-76527517D01*
X58949000Y-76508000D01*
X58949000Y-74068000D01*
X58952882Y-74048483D01*
X58963938Y-74031938D01*
X58980483Y-74020882D01*
X59000000Y-74017000D01*
X60120000Y-74017000D01*
X60139517Y-74020882D01*
G37*
G36*
X42827517Y-75408882D02*
G01*
X42844062Y-75419938D01*
X42855118Y-75436483D01*
X42859000Y-75456000D01*
X42859000Y-76506000D01*
X42855118Y-76525517D01*
X42844062Y-76542062D01*
X42827517Y-76553118D01*
X42808000Y-76557000D01*
X42158000Y-76557000D01*
X42138483Y-76553118D01*
X42121938Y-76542062D01*
X42110882Y-76525517D01*
X42107000Y-76506000D01*
X42107000Y-75456000D01*
X42110882Y-75436483D01*
X42121938Y-75419938D01*
X42138483Y-75408882D01*
X42158000Y-75405000D01*
X42808000Y-75405000D01*
X42827517Y-75408882D01*
G37*
G36*
X44977517Y-75408882D02*
G01*
X44994062Y-75419938D01*
X45005118Y-75436483D01*
X45009000Y-75456000D01*
X45009000Y-76506000D01*
X45005118Y-76525517D01*
X44994062Y-76542062D01*
X44977517Y-76553118D01*
X44958000Y-76557000D01*
X44308000Y-76557000D01*
X44288483Y-76553118D01*
X44271938Y-76542062D01*
X44260882Y-76525517D01*
X44257000Y-76506000D01*
X44257000Y-75456000D01*
X44260882Y-75436483D01*
X44271938Y-75419938D01*
X44288483Y-75408882D01*
X44308000Y-75405000D01*
X44958000Y-75405000D01*
X44977517Y-75408882D01*
G37*
G36*
X46891517Y-75408882D02*
G01*
X46908062Y-75419938D01*
X46919118Y-75436483D01*
X46923000Y-75456000D01*
X46923000Y-76506000D01*
X46919118Y-76525517D01*
X46908062Y-76542062D01*
X46891517Y-76553118D01*
X46872000Y-76557000D01*
X46222000Y-76557000D01*
X46202483Y-76553118D01*
X46185938Y-76542062D01*
X46174882Y-76525517D01*
X46171000Y-76506000D01*
X46171000Y-75456000D01*
X46174882Y-75436483D01*
X46185938Y-75419938D01*
X46202483Y-75408882D01*
X46222000Y-75405000D01*
X46872000Y-75405000D01*
X46891517Y-75408882D01*
G37*
G36*
X49041517Y-75408882D02*
G01*
X49058062Y-75419938D01*
X49069118Y-75436483D01*
X49073000Y-75456000D01*
X49073000Y-76506000D01*
X49069118Y-76525517D01*
X49058062Y-76542062D01*
X49041517Y-76553118D01*
X49022000Y-76557000D01*
X48372000Y-76557000D01*
X48352483Y-76553118D01*
X48335938Y-76542062D01*
X48324882Y-76525517D01*
X48321000Y-76506000D01*
X48321000Y-75456000D01*
X48324882Y-75436483D01*
X48335938Y-75419938D01*
X48352483Y-75408882D01*
X48372000Y-75405000D01*
X49022000Y-75405000D01*
X49041517Y-75408882D01*
G37*
G36*
X81308093Y-75718819D02*
G01*
X81370057Y-75760223D01*
X81411461Y-75822187D01*
X81426000Y-75895280D01*
X81426000Y-76235280D01*
X81411461Y-76308373D01*
X81370057Y-76370337D01*
X81308093Y-76411741D01*
X81235000Y-76426280D01*
X80955000Y-76426280D01*
X80881907Y-76411741D01*
X80819943Y-76370337D01*
X80778539Y-76308373D01*
X80764000Y-76235280D01*
X80764000Y-75895280D01*
X80778539Y-75822187D01*
X80819943Y-75760223D01*
X80881907Y-75718819D01*
X80955000Y-75704280D01*
X81235000Y-75704280D01*
X81308093Y-75718819D01*
G37*
G36*
X82268093Y-75718819D02*
G01*
X82330057Y-75760223D01*
X82371461Y-75822187D01*
X82386000Y-75895280D01*
X82386000Y-76235280D01*
X82371461Y-76308373D01*
X82330057Y-76370337D01*
X82268093Y-76411741D01*
X82195000Y-76426280D01*
X81915000Y-76426280D01*
X81841907Y-76411741D01*
X81779943Y-76370337D01*
X81738539Y-76308373D01*
X81724000Y-76235280D01*
X81724000Y-75895280D01*
X81738539Y-75822187D01*
X81779943Y-75760223D01*
X81841907Y-75718819D01*
X81915000Y-75704280D01*
X82195000Y-75704280D01*
X82268093Y-75718819D01*
G37*
G36*
X31287973Y-74700984D02*
G01*
X31450500Y-74773345D01*
X31594430Y-74877917D01*
X31713473Y-75010128D01*
X31802427Y-75164200D01*
X31857404Y-75333400D01*
X31876000Y-75510333D01*
X31857404Y-75687266D01*
X31802427Y-75856466D01*
X31713473Y-76010538D01*
X31594430Y-76142749D01*
X31450500Y-76247321D01*
X31287973Y-76319682D01*
X31113954Y-76356671D01*
X30936046Y-76356671D01*
X30762027Y-76319682D01*
X30599500Y-76247321D01*
X30455570Y-76142749D01*
X30336527Y-76010538D01*
X30247573Y-75856466D01*
X30192596Y-75687266D01*
X30174000Y-75510333D01*
X30192596Y-75333400D01*
X30247573Y-75164200D01*
X30336527Y-75010128D01*
X30455570Y-74877917D01*
X30599500Y-74773345D01*
X30762027Y-74700984D01*
X30936046Y-74663995D01*
X31113954Y-74663995D01*
X31287973Y-74700984D01*
G37*
G36*
X38907973Y-74700984D02*
G01*
X39070500Y-74773345D01*
X39214430Y-74877917D01*
X39333473Y-75010128D01*
X39422427Y-75164200D01*
X39477404Y-75333400D01*
X39496000Y-75510333D01*
X39477404Y-75687266D01*
X39422427Y-75856466D01*
X39333473Y-76010538D01*
X39214430Y-76142749D01*
X39070500Y-76247321D01*
X38907973Y-76319682D01*
X38733954Y-76356671D01*
X38556046Y-76356671D01*
X38382027Y-76319682D01*
X38219500Y-76247321D01*
X38075570Y-76142749D01*
X37956527Y-76010538D01*
X37867573Y-75856466D01*
X37812596Y-75687266D01*
X37794000Y-75510333D01*
X37812596Y-75333400D01*
X37867573Y-75164200D01*
X37956527Y-75010128D01*
X38075570Y-74877917D01*
X38219500Y-74773345D01*
X38382027Y-74700984D01*
X38556046Y-74663995D01*
X38733954Y-74663995D01*
X38907973Y-74700984D01*
G37*
G36*
X93614940Y-75172683D02*
G01*
X93719757Y-75226090D01*
X93802940Y-75309273D01*
X93856347Y-75414090D01*
X93874750Y-75530280D01*
X93856347Y-75646470D01*
X93802940Y-75751287D01*
X93719757Y-75834470D01*
X93614940Y-75887877D01*
X93498750Y-75906280D01*
X93382560Y-75887877D01*
X93277743Y-75834470D01*
X93194560Y-75751287D01*
X93141153Y-75646470D01*
X93122750Y-75530280D01*
X93141153Y-75414090D01*
X93194560Y-75309273D01*
X93277743Y-75226090D01*
X93382560Y-75172683D01*
X93498750Y-75154280D01*
X93614940Y-75172683D01*
G37*
G36*
X99394940Y-75172683D02*
G01*
X99499757Y-75226090D01*
X99582940Y-75309273D01*
X99636347Y-75414090D01*
X99654750Y-75530280D01*
X99636347Y-75646470D01*
X99582940Y-75751287D01*
X99499757Y-75834470D01*
X99394940Y-75887877D01*
X99278750Y-75906280D01*
X99162560Y-75887877D01*
X99057743Y-75834470D01*
X98974560Y-75751287D01*
X98921153Y-75646470D01*
X98902750Y-75530280D01*
X98921153Y-75414090D01*
X98974560Y-75309273D01*
X99057743Y-75226090D01*
X99162560Y-75172683D01*
X99278750Y-75154280D01*
X99394940Y-75172683D01*
G37*
G36*
X79789517Y-74343162D02*
G01*
X79806062Y-74354218D01*
X79817118Y-74370763D01*
X79821000Y-74390280D01*
X79821000Y-75040280D01*
X79817118Y-75059797D01*
X79806062Y-75076342D01*
X79789517Y-75087398D01*
X79770000Y-75091280D01*
X78720000Y-75091280D01*
X78700483Y-75087398D01*
X78683938Y-75076342D01*
X78672882Y-75059797D01*
X78669000Y-75040280D01*
X78669000Y-74390280D01*
X78672882Y-74370763D01*
X78683938Y-74354218D01*
X78700483Y-74343162D01*
X78720000Y-74339280D01*
X79770000Y-74339280D01*
X79789517Y-74343162D01*
G37*
G36*
X83939517Y-74343162D02*
G01*
X83956062Y-74354218D01*
X83967118Y-74370763D01*
X83971000Y-74390280D01*
X83971000Y-75040280D01*
X83967118Y-75059797D01*
X83956062Y-75076342D01*
X83939517Y-75087398D01*
X83920000Y-75091280D01*
X82870000Y-75091280D01*
X82850483Y-75087398D01*
X82833938Y-75076342D01*
X82822882Y-75059797D01*
X82819000Y-75040280D01*
X82819000Y-74390280D01*
X82822882Y-74370763D01*
X82833938Y-74354218D01*
X82850483Y-74343162D01*
X82870000Y-74339280D01*
X83920000Y-74339280D01*
X83939517Y-74343162D01*
G37*
G36*
X85864517Y-74338162D02*
G01*
X85881062Y-74349218D01*
X85892118Y-74365763D01*
X85896000Y-74385280D01*
X85896000Y-75035280D01*
X85892118Y-75054797D01*
X85881062Y-75071342D01*
X85864517Y-75082398D01*
X85845000Y-75086280D01*
X84795000Y-75086280D01*
X84775483Y-75082398D01*
X84758938Y-75071342D01*
X84747882Y-75054797D01*
X84744000Y-75035280D01*
X84744000Y-74385280D01*
X84747882Y-74365763D01*
X84758938Y-74349218D01*
X84775483Y-74338162D01*
X84795000Y-74334280D01*
X85845000Y-74334280D01*
X85864517Y-74338162D01*
G37*
G36*
X90014517Y-74338162D02*
G01*
X90031062Y-74349218D01*
X90042118Y-74365763D01*
X90046000Y-74385280D01*
X90046000Y-75035280D01*
X90042118Y-75054797D01*
X90031062Y-75071342D01*
X90014517Y-75082398D01*
X89995000Y-75086280D01*
X88945000Y-75086280D01*
X88925483Y-75082398D01*
X88908938Y-75071342D01*
X88897882Y-75054797D01*
X88894000Y-75035280D01*
X88894000Y-74385280D01*
X88897882Y-74365763D01*
X88908938Y-74349218D01*
X88925483Y-74338162D01*
X88945000Y-74334280D01*
X89995000Y-74334280D01*
X90014517Y-74338162D01*
G37*
G36*
X109577675Y-71947150D02*
G01*
X109796525Y-72022282D01*
X110000024Y-72132410D01*
X110182621Y-72274531D01*
X110339336Y-72444768D01*
X110465893Y-72638478D01*
X110558840Y-72850376D01*
X110615642Y-73074683D01*
X110634750Y-73305280D01*
X110615642Y-73535877D01*
X110558840Y-73760184D01*
X110465893Y-73972082D01*
X110339336Y-74165792D01*
X110182621Y-74336029D01*
X110000024Y-74478150D01*
X109796525Y-74588278D01*
X109577675Y-74663410D01*
X109349444Y-74701495D01*
X109118056Y-74701495D01*
X108889825Y-74663410D01*
X108670975Y-74588278D01*
X108467476Y-74478150D01*
X108284879Y-74336029D01*
X108128164Y-74165792D01*
X108001607Y-73972082D01*
X107908660Y-73760184D01*
X107851858Y-73535877D01*
X107832750Y-73305280D01*
X107851858Y-73074683D01*
X107908660Y-72850376D01*
X108001607Y-72638478D01*
X108128164Y-72444768D01*
X108284879Y-72274531D01*
X108467476Y-72132410D01*
X108670975Y-72022282D01*
X108889825Y-71947150D01*
X109118056Y-71909065D01*
X109349444Y-71909065D01*
X109577675Y-71947150D01*
G37*
G36*
X75952675Y-71747150D02*
G01*
X76171525Y-71822282D01*
X76375024Y-71932410D01*
X76557621Y-72074531D01*
X76714336Y-72244768D01*
X76840893Y-72438478D01*
X76933840Y-72650376D01*
X76990642Y-72874683D01*
X77009750Y-73105280D01*
X76990642Y-73335877D01*
X76933840Y-73560184D01*
X76840893Y-73772082D01*
X76714336Y-73965792D01*
X76557621Y-74136029D01*
X76375024Y-74278150D01*
X76171525Y-74388278D01*
X75952675Y-74463410D01*
X75724444Y-74501495D01*
X75493056Y-74501495D01*
X75264825Y-74463410D01*
X75045975Y-74388278D01*
X74842476Y-74278150D01*
X74659879Y-74136029D01*
X74503164Y-73965792D01*
X74376607Y-73772082D01*
X74283660Y-73560184D01*
X74226858Y-73335877D01*
X74207750Y-73105280D01*
X74226858Y-72874683D01*
X74283660Y-72650376D01*
X74376607Y-72438478D01*
X74503164Y-72244768D01*
X74659879Y-72074531D01*
X74842476Y-71932410D01*
X75045975Y-71822282D01*
X75264825Y-71747150D01*
X75493056Y-71709065D01*
X75724444Y-71709065D01*
X75952675Y-71747150D01*
G37*
G36*
X42354167Y-72849333D02*
G01*
X42487058Y-72904378D01*
X42601174Y-72991942D01*
X42688738Y-73106058D01*
X42743783Y-73238949D01*
X42762558Y-73381558D01*
X42743783Y-73524167D01*
X42688738Y-73657058D01*
X42601174Y-73771174D01*
X42487058Y-73858738D01*
X42354167Y-73913783D01*
X42211558Y-73932558D01*
X42068949Y-73913783D01*
X41936058Y-73858738D01*
X41821942Y-73771174D01*
X41734378Y-73657058D01*
X41679333Y-73524167D01*
X41660558Y-73381558D01*
X41679333Y-73238949D01*
X41734378Y-73106058D01*
X41821942Y-72991942D01*
X41936058Y-72904378D01*
X42068949Y-72849333D01*
X42211558Y-72830558D01*
X42354167Y-72849333D01*
G37*
G36*
X31287973Y-72160984D02*
G01*
X31450500Y-72233345D01*
X31594430Y-72337917D01*
X31713473Y-72470128D01*
X31802427Y-72624200D01*
X31857404Y-72793400D01*
X31876000Y-72970333D01*
X31857404Y-73147266D01*
X31802427Y-73316466D01*
X31713473Y-73470538D01*
X31594430Y-73602749D01*
X31450500Y-73707321D01*
X31287973Y-73779682D01*
X31113954Y-73816671D01*
X30936046Y-73816671D01*
X30762027Y-73779682D01*
X30599500Y-73707321D01*
X30455570Y-73602749D01*
X30336527Y-73470538D01*
X30247573Y-73316466D01*
X30192596Y-73147266D01*
X30174000Y-72970333D01*
X30192596Y-72793400D01*
X30247573Y-72624200D01*
X30336527Y-72470128D01*
X30455570Y-72337917D01*
X30599500Y-72233345D01*
X30762027Y-72160984D01*
X30936046Y-72123995D01*
X31113954Y-72123995D01*
X31287973Y-72160984D01*
G37*
G36*
X38907973Y-72160984D02*
G01*
X39070500Y-72233345D01*
X39214430Y-72337917D01*
X39333473Y-72470128D01*
X39422427Y-72624200D01*
X39477404Y-72793400D01*
X39496000Y-72970333D01*
X39477404Y-73147266D01*
X39422427Y-73316466D01*
X39333473Y-73470538D01*
X39214430Y-73602749D01*
X39070500Y-73707321D01*
X38907973Y-73779682D01*
X38733954Y-73816671D01*
X38556046Y-73816671D01*
X38382027Y-73779682D01*
X38219500Y-73707321D01*
X38075570Y-73602749D01*
X37956527Y-73470538D01*
X37867573Y-73316466D01*
X37812596Y-73147266D01*
X37794000Y-72970333D01*
X37812596Y-72793400D01*
X37867573Y-72624200D01*
X37956527Y-72470128D01*
X38075570Y-72337917D01*
X38219500Y-72233345D01*
X38382027Y-72160984D01*
X38556046Y-72123995D01*
X38733954Y-72123995D01*
X38907973Y-72160984D01*
G37*
G36*
X63258609Y-72697775D02*
G01*
X63391500Y-72752820D01*
X63505616Y-72840384D01*
X63593180Y-72954500D01*
X63648225Y-73087391D01*
X63667000Y-73230000D01*
X63648225Y-73372609D01*
X63593180Y-73505500D01*
X63505616Y-73619616D01*
X63391500Y-73707180D01*
X63258609Y-73762225D01*
X63116000Y-73781000D01*
X62973391Y-73762225D01*
X62840500Y-73707180D01*
X62726384Y-73619616D01*
X62638820Y-73505500D01*
X62583775Y-73372609D01*
X62565000Y-73230000D01*
X62583775Y-73087391D01*
X62638820Y-72954500D01*
X62726384Y-72840384D01*
X62840500Y-72752820D01*
X62973391Y-72697775D01*
X63116000Y-72679000D01*
X63258609Y-72697775D01*
G37*
G36*
X79789517Y-72193162D02*
G01*
X79806062Y-72204218D01*
X79817118Y-72220763D01*
X79821000Y-72240280D01*
X79821000Y-72890280D01*
X79817118Y-72909797D01*
X79806062Y-72926342D01*
X79789517Y-72937398D01*
X79770000Y-72941280D01*
X78720000Y-72941280D01*
X78700483Y-72937398D01*
X78683938Y-72926342D01*
X78672882Y-72909797D01*
X78669000Y-72890280D01*
X78669000Y-72240280D01*
X78672882Y-72220763D01*
X78683938Y-72204218D01*
X78700483Y-72193162D01*
X78720000Y-72189280D01*
X79770000Y-72189280D01*
X79789517Y-72193162D01*
G37*
G36*
X83939517Y-72193162D02*
G01*
X83956062Y-72204218D01*
X83967118Y-72220763D01*
X83971000Y-72240280D01*
X83971000Y-72890280D01*
X83967118Y-72909797D01*
X83956062Y-72926342D01*
X83939517Y-72937398D01*
X83920000Y-72941280D01*
X82870000Y-72941280D01*
X82850483Y-72937398D01*
X82833938Y-72926342D01*
X82822882Y-72909797D01*
X82819000Y-72890280D01*
X82819000Y-72240280D01*
X82822882Y-72220763D01*
X82833938Y-72204218D01*
X82850483Y-72193162D01*
X82870000Y-72189280D01*
X83920000Y-72189280D01*
X83939517Y-72193162D01*
G37*
G36*
X85864517Y-72188162D02*
G01*
X85881062Y-72199218D01*
X85892118Y-72215763D01*
X85896000Y-72235280D01*
X85896000Y-72885280D01*
X85892118Y-72904797D01*
X85881062Y-72921342D01*
X85864517Y-72932398D01*
X85845000Y-72936280D01*
X84795000Y-72936280D01*
X84775483Y-72932398D01*
X84758938Y-72921342D01*
X84747882Y-72904797D01*
X84744000Y-72885280D01*
X84744000Y-72235280D01*
X84747882Y-72215763D01*
X84758938Y-72199218D01*
X84775483Y-72188162D01*
X84795000Y-72184280D01*
X85845000Y-72184280D01*
X85864517Y-72188162D01*
G37*
G36*
X90014517Y-72188162D02*
G01*
X90031062Y-72199218D01*
X90042118Y-72215763D01*
X90046000Y-72235280D01*
X90046000Y-72885280D01*
X90042118Y-72904797D01*
X90031062Y-72921342D01*
X90014517Y-72932398D01*
X89995000Y-72936280D01*
X88945000Y-72936280D01*
X88925483Y-72932398D01*
X88908938Y-72921342D01*
X88897882Y-72904797D01*
X88894000Y-72885280D01*
X88894000Y-72235280D01*
X88897882Y-72215763D01*
X88908938Y-72199218D01*
X88925483Y-72188162D01*
X88945000Y-72184280D01*
X89995000Y-72184280D01*
X90014517Y-72188162D01*
G37*
G36*
X92123596Y-70906888D02*
G01*
X92180854Y-70910805D01*
X92197039Y-70916557D01*
X92211257Y-70918429D01*
X92265340Y-70940831D01*
X92322246Y-70961055D01*
X92333721Y-70969155D01*
X92344056Y-70973436D01*
X92393106Y-71011073D01*
X92444837Y-71047589D01*
X92451719Y-71056049D01*
X92458091Y-71060938D01*
X92497815Y-71112708D01*
X92539535Y-71163989D01*
X92542628Y-71171110D01*
X92545592Y-71174973D01*
X92572039Y-71238822D01*
X92599317Y-71301622D01*
X92599945Y-71306192D01*
X92600600Y-71307773D01*
X92610542Y-71383291D01*
X92619750Y-71450280D01*
X92619750Y-72250280D01*
X92614618Y-72325308D01*
X92604933Y-72359873D01*
X92600600Y-72392786D01*
X92585491Y-72429261D01*
X92574133Y-72469799D01*
X92557093Y-72497819D01*
X92545592Y-72525586D01*
X92519644Y-72559402D01*
X92496167Y-72598009D01*
X92474477Y-72618266D01*
X92458091Y-72639621D01*
X92421771Y-72667489D01*
X92386501Y-72700430D01*
X92362914Y-72712651D01*
X92344056Y-72727122D01*
X92298854Y-72745845D01*
X92253269Y-72769466D01*
X92230313Y-72774236D01*
X92211256Y-72782130D01*
X92159595Y-72788931D01*
X92106352Y-72799995D01*
X92086085Y-72798608D01*
X92068750Y-72800891D01*
X92013918Y-72793672D01*
X91956646Y-72789755D01*
X91940456Y-72784001D01*
X91926242Y-72782130D01*
X91872169Y-72759732D01*
X91815254Y-72739505D01*
X91803776Y-72731403D01*
X91793443Y-72727123D01*
X91744397Y-72689489D01*
X91692663Y-72652971D01*
X91685779Y-72644510D01*
X91679408Y-72639621D01*
X91639680Y-72587846D01*
X91597965Y-72536571D01*
X91594871Y-72529450D01*
X91591907Y-72525586D01*
X91565447Y-72461708D01*
X91538183Y-72398938D01*
X91537555Y-72394370D01*
X91536899Y-72392786D01*
X91526949Y-72317207D01*
X91517750Y-72250280D01*
X91517750Y-71450280D01*
X91522882Y-71375252D01*
X91532565Y-71340692D01*
X91536899Y-71307773D01*
X91552011Y-71271287D01*
X91563367Y-71230761D01*
X91580402Y-71202747D01*
X91591907Y-71174973D01*
X91617862Y-71141146D01*
X91641333Y-71102551D01*
X91663016Y-71082299D01*
X91679408Y-71060938D01*
X91715738Y-71033060D01*
X91750999Y-71000130D01*
X91774578Y-70987911D01*
X91793443Y-70973437D01*
X91838658Y-70954707D01*
X91884231Y-70931094D01*
X91907179Y-70926325D01*
X91926243Y-70918429D01*
X91977918Y-70911625D01*
X92031148Y-70900565D01*
X92051409Y-70901950D01*
X92068750Y-70899668D01*
X92123596Y-70906888D01*
G37*
G36*
X100763596Y-70906888D02*
G01*
X100820854Y-70910805D01*
X100837039Y-70916557D01*
X100851257Y-70918429D01*
X100905340Y-70940831D01*
X100962246Y-70961055D01*
X100973721Y-70969155D01*
X100984056Y-70973436D01*
X101033106Y-71011073D01*
X101084837Y-71047589D01*
X101091719Y-71056049D01*
X101098091Y-71060938D01*
X101137815Y-71112708D01*
X101179535Y-71163989D01*
X101182628Y-71171110D01*
X101185592Y-71174973D01*
X101212039Y-71238822D01*
X101239317Y-71301622D01*
X101239945Y-71306192D01*
X101240600Y-71307773D01*
X101250542Y-71383291D01*
X101259750Y-71450280D01*
X101259750Y-72250280D01*
X101254618Y-72325308D01*
X101244933Y-72359873D01*
X101240600Y-72392786D01*
X101225491Y-72429261D01*
X101214133Y-72469799D01*
X101197093Y-72497819D01*
X101185592Y-72525586D01*
X101159644Y-72559402D01*
X101136167Y-72598009D01*
X101114477Y-72618266D01*
X101098091Y-72639621D01*
X101061771Y-72667489D01*
X101026501Y-72700430D01*
X101002914Y-72712651D01*
X100984056Y-72727122D01*
X100938854Y-72745845D01*
X100893269Y-72769466D01*
X100870313Y-72774236D01*
X100851256Y-72782130D01*
X100799595Y-72788931D01*
X100746352Y-72799995D01*
X100726085Y-72798608D01*
X100708750Y-72800891D01*
X100653918Y-72793672D01*
X100596646Y-72789755D01*
X100580456Y-72784001D01*
X100566242Y-72782130D01*
X100512169Y-72759732D01*
X100455254Y-72739505D01*
X100443776Y-72731403D01*
X100433443Y-72727123D01*
X100384397Y-72689489D01*
X100332663Y-72652971D01*
X100325779Y-72644510D01*
X100319408Y-72639621D01*
X100279680Y-72587846D01*
X100237965Y-72536571D01*
X100234871Y-72529450D01*
X100231907Y-72525586D01*
X100205447Y-72461708D01*
X100178183Y-72398938D01*
X100177555Y-72394370D01*
X100176899Y-72392786D01*
X100166949Y-72317207D01*
X100157750Y-72250280D01*
X100157750Y-71450280D01*
X100162882Y-71375252D01*
X100172565Y-71340692D01*
X100176899Y-71307773D01*
X100192011Y-71271287D01*
X100203367Y-71230761D01*
X100220402Y-71202747D01*
X100231907Y-71174973D01*
X100257862Y-71141146D01*
X100281333Y-71102551D01*
X100303016Y-71082299D01*
X100319408Y-71060938D01*
X100355738Y-71033060D01*
X100390999Y-71000130D01*
X100414578Y-70987911D01*
X100433443Y-70973437D01*
X100478658Y-70954707D01*
X100524231Y-70931094D01*
X100547179Y-70926325D01*
X100566243Y-70918429D01*
X100617918Y-70911625D01*
X100671148Y-70900565D01*
X100691409Y-70901950D01*
X100708750Y-70899668D01*
X100763596Y-70906888D01*
G37*
M02*
