M48
; DRILL file {KiCad 7.0.5} date Thu Sep 28 01:47:54 2023
; FORMAT={-:-/ absolute / inch / decimal}
; #@! TF.CreationDate,2023-09-28T01:47:54+03:00
; #@! TF.GenerationSoftware,Kicad,Pcbnew,7.0.5
; #@! TF.FileFunction,Plated,1,2,PTH
FMAT,2
INCH
; #@! TA.AperFunction,Plated,PTH,ViaDrill
T1C0.0138
; #@! TA.AperFunction,Plated,PTH,ComponentDrill
T2C0.0138
; #@! TA.AperFunction,Plated,PTH,ComponentDrill
T3C0.0236
; #@! TA.AperFunction,Plated,PTH,ComponentDrill
T4C0.0256
; #@! TA.AperFunction,Plated,PTH,ComponentDrill
T5C0.0315
; #@! TA.AperFunction,Plated,PTH,ComponentDrill
T6C0.0394
%
G90
G05
T1
X1.1609Y-3.9284
X1.1668Y-3.8142
X1.1668Y-4.0642
X1.1678Y-4.2089
X1.1688Y-4.139
X1.1712Y-3.702
X1.218Y-3.9264
X1.2199Y-3.8123
X1.2219Y-4.14
X1.2229Y-4.2119
X1.2242Y-3.702
X1.2249Y-4.0603
X1.2692Y-3.9284
X1.2731Y-3.8142
X1.2773Y-3.702
X1.278Y-4.139
X1.279Y-4.2099
X1.281Y-4.0613
X1.3184Y-3.9264
X1.3243Y-3.8142
X1.3302Y-4.0623
X1.3303Y-3.702
X1.3312Y-4.2089
X1.3331Y-4.14
X1.3735Y-3.9284
X1.3755Y-3.8162
X1.3833Y-3.702
X1.3863Y-4.139
X1.3868Y-4.0623
X1.3873Y-4.2109
X1.4286Y-3.9284
X1.4306Y-3.8142
X1.4364Y-3.702
X1.4414Y-4.2099
X1.4434Y-4.1381
X1.4798Y-3.9304
X1.4818Y-3.8123
X1.4894Y-3.702
X1.4936Y-4.1381
X1.4975Y-4.2099
X1.5367Y-3.8142
X1.5369Y-3.9304
X1.5426Y-3.702
X1.5625Y-4.1892
X1.5634Y-4.1341
X1.5634Y-4.2444
X1.5881Y-3.4323
X1.5979Y-3.6863
X1.5979Y-3.619
X1.6097Y-3.5406
X1.6159Y-3.7998
X1.6195Y-3.7347
X1.6508Y-3.5845
X1.6609Y-3.7504
X1.6649Y-3.2831
X1.6688Y-3.4993
X1.7149Y-3.44
X1.7443Y-3.4636
X1.8008Y-4.0695
X1.801Y-3.4131
X1.8236Y-3.5744
X1.8254Y-3.3936
X1.839Y-4.0148
X1.8661Y-3.3843
X1.8749Y-3.1831
X1.8915Y-3.4061
X1.905Y-2.8713
X1.923Y-3.5636
X1.9309Y-3.4061
X1.9545Y-3.8353
X1.9551Y-4.1117
X1.9585Y-3.6699
X1.9624Y-3.9573
X2.049Y-3.4455
X2.0701Y-3.9991
X2.0884Y-3.4455
X2.0896Y-3.2646
X2.1425Y-4.0888
X2.1461Y-4.14
X2.1467Y-3.6611
X2.1649Y-3.5031
X2.1695Y-3.9286
X2.2045Y-3.5557
X2.2045Y-3.5951
X2.2049Y-3.1131
X2.2136Y-3.6768
X2.2459Y-3.804
X2.2649Y-4.0831
X2.2749Y-3.4431
X2.3349Y-2.8731
X2.34Y-4.076
X2.3549Y-3.0531
X2.3907Y-3.3197
X2.3961Y-4.0751
X2.4049Y-2.9531
X2.4522Y-4.0741
X3.1693Y-3.9941
X3.1693Y-4.0492
X3.1693Y-4.1063
X3.1748Y-4.2488
X3.1762Y-4.1667
X3.1957Y-3.7038
X3.1957Y-3.8565
X3.2047Y-2.8957
X3.2205Y-3.9882
X3.2315Y-4.248
X3.2329Y-4.166
X3.236Y-3.7514
X3.2368Y-3.9486
X3.2736Y-3.9882
X3.2785Y-3.7073
X3.2789Y-3.8486
X3.2925Y-4.248
X3.2939Y-4.166
X3.3124Y-3.7538
X3.3248Y-3.9882
X3.3348Y-3.8577
X3.3463Y-3.7108
X3.3463Y-3.801
X3.378Y-3.9882
X3.3843Y-4.2484
X3.3854Y-3.783
X3.386Y-3.7415
X3.3878Y-4.1673
X3.4291Y-3.9902
X3.4364Y-3.4884
X3.4413Y-4.2465
X3.4423Y-2.9549
X3.4449Y-4.1654
X3.4626Y-3.8248
X3.4836Y-3.9608
X3.5063Y-4.2484
X3.5098Y-4.1673
X3.5185Y-3.7455
X3.5197Y-3.7933
X3.5614Y-2.8949
X3.6266Y-3.2014
X3.6267Y-4.4396
X3.6685Y-4.2305
X3.6785Y-3.14
X3.7066Y-4.1758
X3.7592Y-3.5671
X3.7907Y-3.7246
X3.7986Y-3.5671
X3.8222Y-3.9963
X3.8228Y-4.2726
X3.8261Y-3.8309
X3.8301Y-4.1183
X3.9167Y-3.6065
X3.9377Y-4.1601
X3.9521Y-3.4264
X3.9553Y-3.1345
X3.9561Y-3.6065
X3.9904Y-4.0656
X4.0102Y-4.2498
X4.0372Y-4.0896
X4.0387Y-2.889
X4.0602Y-3.8221
X4.0722Y-3.7167
X4.0722Y-3.7561
X4.1111Y-3.826
X4.1135Y-3.965
X4.1378Y-4.4488
X4.1555Y-3.8248
X4.1654Y-4.2067
X4.1923Y-3.0475
X4.2126Y-3.8209
X4.2205Y-4.2047
X4.2513Y-3.4805
X4.2697Y-3.8228
X4.2758Y-4.2057
X4.2994Y-3.116
X4.3268Y-3.8248
T2
X1.8807Y-3.7022
X1.8807Y-3.7524
X1.8807Y-3.8026
X1.9309Y-3.7022
X1.9309Y-3.7524
X1.9309Y-3.8026
X1.9811Y-3.7022
X1.9811Y-3.7524
X1.9811Y-3.8026
X3.7484Y-3.8634
X3.7484Y-3.9136
X3.7484Y-3.9638
X3.7986Y-3.8634
X3.7986Y-3.9136
X3.7986Y-3.9638
X3.8488Y-3.8634
X3.8488Y-3.9136
X3.8488Y-3.9638
T4
X2.9413Y-3.6658
X2.9413Y-3.7158
X2.9413Y-3.9971
X2.9413Y-4.0471
X4.354Y-3.6646
X4.354Y-3.7146
X4.3629Y-3.9471
X4.3629Y-3.9971
T5
X1.2215Y-2.8728
X1.2215Y-2.9728
X1.2215Y-3.0728
X1.2215Y-3.1728
X1.2215Y-3.2728
X1.2215Y-3.3728
X1.2215Y-3.4728
X1.2215Y-3.5728
X1.5215Y-2.8728
X1.5215Y-2.9728
X1.5215Y-3.0728
X1.5215Y-3.1728
X1.5215Y-3.2728
X1.5215Y-3.3728
X1.5215Y-3.4728
X1.5215Y-3.5728
X2.9104Y-3.2687
X2.9104Y-3.5687
X2.9128Y-4.1439
X2.9128Y-4.4439
X4.3557Y-3.2738
X4.3557Y-3.5738
X4.3693Y-4.0858
X4.3693Y-4.3858
T6
X3.238Y-3.1181
X3.238Y-3.2181
X3.338Y-3.1181
X3.338Y-3.2181
X3.438Y-3.1181
X3.438Y-3.2181
X3.538Y-3.1181
X3.538Y-3.2181
X4.0593Y-4.1758
X4.0593Y-4.475
T3
G00X2.3732Y-3.5629
M15
G01X2.4165Y-3.5629
M16
G05
G00X2.3732Y-3.9031
M15
G01X2.4165Y-3.9031
M16
G05
G00X2.5437Y-3.5629
M15
G01X2.5752Y-3.5629
M16
G05
G00X2.5437Y-3.9031
M15
G01X2.5752Y-3.9031
M16
G05
G00X3.6248Y-2.8445
M15
G01X3.6248Y-2.813
M16
G05
G00X3.6248Y-3.015
M15
G01X3.6248Y-2.9717
M16
G05
G00X3.9649Y-2.8445
M15
G01X3.9649Y-2.813
M16
G05
G00X3.9649Y-3.015
M15
G01X3.9649Y-2.9717
M16
G05
T0
M30
