G04 #@! TF.GenerationSoftware,KiCad,Pcbnew,7.0.5*
G04 #@! TF.CreationDate,2023-09-28T01:47:38+03:00*
G04 #@! TF.ProjectId,RP2040_minimal,52503230-3430-45f6-9d69-6e696d616c2e,REV1*
G04 #@! TF.SameCoordinates,Original*
G04 #@! TF.FileFunction,Paste,Top*
G04 #@! TF.FilePolarity,Positive*
%FSLAX46Y46*%
G04 Gerber Fmt 4.6, Leading zero omitted, Abs format (unit mm)*
G04 Created by KiCad (PCBNEW 7.0.5) date 2023-09-28 01:47:38*
%MOMM*%
%LPD*%
G01*
G04 APERTURE LIST*
G04 Aperture macros list*
%AMRoundRect*
0 Rectangle with rounded corners*
0 $1 Rounding radius*
0 $2 $3 $4 $5 $6 $7 $8 $9 X,Y pos of 4 corners*
0 Add a 4 corners polygon primitive as box body*
4,1,4,$2,$3,$4,$5,$6,$7,$8,$9,$2,$3,0*
0 Add four circle primitives for the rounded corners*
1,1,$1+$1,$2,$3*
1,1,$1+$1,$4,$5*
1,1,$1+$1,$6,$7*
1,1,$1+$1,$8,$9*
0 Add four rect primitives between the rounded corners*
20,1,$1+$1,$2,$3,$4,$5,0*
20,1,$1+$1,$4,$5,$6,$7,0*
20,1,$1+$1,$6,$7,$8,$9,0*
20,1,$1+$1,$8,$9,$2,$3,0*%
G04 Aperture macros list end*
%ADD10RoundRect,0.140000X0.170000X-0.140000X0.170000X0.140000X-0.170000X0.140000X-0.170000X-0.140000X0*%
%ADD11O,1.800000X1.000000*%
%ADD12O,2.100000X1.000000*%
%ADD13R,1.150000X0.600000*%
%ADD14R,1.150000X0.300000*%
%ADD15R,3.500000X2.400000*%
%ADD16RoundRect,0.050000X-0.050000X-0.387500X0.050000X-0.387500X0.050000X0.387500X-0.050000X0.387500X0*%
%ADD17RoundRect,0.050000X-0.387500X-0.050000X0.387500X-0.050000X0.387500X0.050000X-0.387500X0.050000X0*%
%ADD18RoundRect,0.250000X-0.292217X-0.292217X0.292217X-0.292217X0.292217X0.292217X-0.292217X0.292217X0*%
%ADD19R,1.500000X2.000000*%
%ADD20R,3.800000X2.000000*%
%ADD21RoundRect,0.140000X-0.170000X0.140000X-0.170000X-0.140000X0.170000X-0.140000X0.170000X0.140000X0*%
%ADD22RoundRect,0.140000X-0.140000X-0.170000X0.140000X-0.170000X0.140000X0.170000X-0.140000X0.170000X0*%
%ADD23RoundRect,0.140000X0.140000X0.170000X-0.140000X0.170000X-0.140000X-0.170000X0.140000X-0.170000X0*%
%ADD24RoundRect,0.250000X0.250000X0.475000X-0.250000X0.475000X-0.250000X-0.475000X0.250000X-0.475000X0*%
%ADD25RoundRect,0.250000X-0.250000X-0.475000X0.250000X-0.475000X0.250000X0.475000X-0.250000X0.475000X0*%
%ADD26RoundRect,0.243750X-0.243750X-0.456250X0.243750X-0.456250X0.243750X0.456250X-0.243750X0.456250X0*%
%ADD27RoundRect,0.147500X0.172500X-0.147500X0.172500X0.147500X-0.172500X0.147500X-0.172500X-0.147500X0*%
%ADD28RoundRect,0.147500X0.147500X0.172500X-0.147500X0.172500X-0.147500X-0.172500X0.147500X-0.172500X0*%
%ADD29RoundRect,0.147500X-0.147500X-0.172500X0.147500X-0.172500X0.147500X0.172500X-0.147500X0.172500X0*%
%ADD30RoundRect,0.150000X-0.650000X-0.150000X0.650000X-0.150000X0.650000X0.150000X-0.650000X0.150000X0*%
%ADD31RoundRect,0.147500X-0.172500X0.147500X-0.172500X-0.147500X0.172500X-0.147500X0.172500X0.147500X0*%
%ADD32RoundRect,0.243750X0.243750X0.456250X-0.243750X0.456250X-0.243750X-0.456250X0.243750X-0.456250X0*%
%ADD33R,0.600000X1.150000*%
%ADD34R,0.300000X1.150000*%
%ADD35O,1.000000X2.100000*%
%ADD36O,1.000000X1.800000*%
G04 APERTURE END LIST*
D10*
X96483750Y-92400280D03*
X96483750Y-91440280D03*
X49059750Y-88261000D03*
X49059750Y-87301000D03*
D11*
X65010000Y-90498000D03*
D12*
X60830000Y-90498000D03*
D11*
X65010000Y-99138000D03*
D12*
X60830000Y-99138000D03*
D13*
X60255000Y-98018000D03*
X60255000Y-97218000D03*
D14*
X60255000Y-96568000D03*
X60255000Y-95568000D03*
X60255000Y-94068000D03*
X60255000Y-93068000D03*
D13*
X60255000Y-92418000D03*
X60255000Y-91618000D03*
X60255000Y-91618000D03*
X60255000Y-92418000D03*
D14*
X60255000Y-93568000D03*
X60255000Y-94568000D03*
X60255000Y-95068000D03*
X60255000Y-96068000D03*
D13*
X60255000Y-97218000D03*
X60255000Y-98018000D03*
D15*
X52229750Y-106846000D03*
X47029750Y-106846000D03*
D16*
X46444750Y-91873500D03*
X46844750Y-91873500D03*
X47244750Y-91873500D03*
X47644750Y-91873500D03*
X48044750Y-91873500D03*
X48444750Y-91873500D03*
X48844750Y-91873500D03*
X49244750Y-91873500D03*
X49644750Y-91873500D03*
X50044750Y-91873500D03*
X50444750Y-91873500D03*
X50844750Y-91873500D03*
X51244750Y-91873500D03*
X51644750Y-91873500D03*
D17*
X52482250Y-92711000D03*
X52482250Y-93111000D03*
X52482250Y-93511000D03*
X52482250Y-93911000D03*
X52482250Y-94311000D03*
X52482250Y-94711000D03*
X52482250Y-95111000D03*
X52482250Y-95511000D03*
X52482250Y-95911000D03*
X52482250Y-96311000D03*
X52482250Y-96711000D03*
X52482250Y-97111000D03*
X52482250Y-97511000D03*
X52482250Y-97911000D03*
D16*
X51644750Y-98748500D03*
X51244750Y-98748500D03*
X50844750Y-98748500D03*
X50444750Y-98748500D03*
X50044750Y-98748500D03*
X49644750Y-98748500D03*
X49244750Y-98748500D03*
X48844750Y-98748500D03*
X48444750Y-98748500D03*
X48044750Y-98748500D03*
X47644750Y-98748500D03*
X47244750Y-98748500D03*
X46844750Y-98748500D03*
X46444750Y-98748500D03*
D17*
X45607250Y-97911000D03*
X45607250Y-97511000D03*
X45607250Y-97111000D03*
X45607250Y-96711000D03*
X45607250Y-96311000D03*
X45607250Y-95911000D03*
X45607250Y-95511000D03*
X45607250Y-95111000D03*
X45607250Y-94711000D03*
X45607250Y-94311000D03*
X45607250Y-93911000D03*
X45607250Y-93511000D03*
X45607250Y-93111000D03*
X45607250Y-92711000D03*
D18*
X49682250Y-95948500D03*
X49682250Y-94673500D03*
X48407250Y-95948500D03*
X48407250Y-94673500D03*
D19*
X54744750Y-75016000D03*
X57044750Y-75016000D03*
D20*
X57044750Y-81316000D03*
D19*
X59344750Y-75016000D03*
D21*
X51039750Y-89316000D03*
X51039750Y-88356000D03*
X50044750Y-89311000D03*
X50044750Y-88351000D03*
D22*
X49499750Y-102606000D03*
X48539750Y-102606000D03*
X61310000Y-88724000D03*
X60350000Y-88724000D03*
D23*
X59870000Y-100662000D03*
X60830000Y-100662000D03*
D24*
X53069750Y-84341000D03*
X54969750Y-84341000D03*
D23*
X42069750Y-96526000D03*
X43029750Y-96526000D03*
D22*
X56009750Y-96496000D03*
X55049750Y-96496000D03*
D23*
X42966000Y-91046000D03*
X43926000Y-91046000D03*
D22*
X51649750Y-101956000D03*
X50689750Y-101956000D03*
X54959750Y-91706000D03*
X53999750Y-91706000D03*
D10*
X53044750Y-88351000D03*
X53044750Y-89311000D03*
X52044750Y-88351000D03*
X52044750Y-89311000D03*
D22*
X51639750Y-100956000D03*
X50679750Y-100956000D03*
D10*
X48049750Y-87346000D03*
X48049750Y-88306000D03*
D25*
X59029750Y-84336000D03*
X57129750Y-84336000D03*
D22*
X54959750Y-90316000D03*
X53999750Y-90316000D03*
D24*
X49636558Y-72831558D03*
X51536558Y-72831558D03*
D22*
X51499750Y-103516000D03*
X50539750Y-103516000D03*
X48689750Y-103746000D03*
X47729750Y-103746000D03*
D26*
X104571250Y-88405280D03*
X106446250Y-88405280D03*
D27*
X100483750Y-93405280D03*
X100483750Y-92435280D03*
X99483750Y-93405280D03*
X99483750Y-92435280D03*
D28*
X90483750Y-100605280D03*
X89513750Y-100605280D03*
X93153750Y-82235280D03*
X92183750Y-82235280D03*
D29*
X83339000Y-84475280D03*
X84309000Y-84475280D03*
D19*
X106783750Y-79105280D03*
X104483750Y-79105280D03*
D20*
X104483750Y-85405280D03*
D19*
X102183750Y-79105280D03*
D30*
X85933750Y-84775280D03*
X85933750Y-86045280D03*
X85933750Y-87315280D03*
X85933750Y-88585280D03*
X93133750Y-88585280D03*
X93133750Y-87315280D03*
X93133750Y-86045280D03*
X93133750Y-84775280D03*
D29*
X97968750Y-107615280D03*
X98938750Y-107615280D03*
D28*
X84540000Y-83205280D03*
X83570000Y-83205280D03*
D29*
X102483750Y-100605280D03*
X103453750Y-100605280D03*
X98118750Y-106055280D03*
X99088750Y-106055280D03*
D31*
X97483750Y-92435280D03*
X97483750Y-93405280D03*
D29*
X98128750Y-105065280D03*
X99098750Y-105065280D03*
D26*
X103483750Y-75905280D03*
X105358750Y-75905280D03*
D28*
X91370000Y-95135280D03*
X90400000Y-95135280D03*
D29*
X101433750Y-94405280D03*
X102403750Y-94405280D03*
D18*
X95846250Y-98767780D03*
X95846250Y-100042780D03*
X97121250Y-98767780D03*
X97121250Y-100042780D03*
D17*
X93046250Y-96805280D03*
X93046250Y-97205280D03*
X93046250Y-97605280D03*
X93046250Y-98005280D03*
X93046250Y-98405280D03*
X93046250Y-98805280D03*
X93046250Y-99205280D03*
X93046250Y-99605280D03*
X93046250Y-100005280D03*
X93046250Y-100405280D03*
X93046250Y-100805280D03*
X93046250Y-101205280D03*
X93046250Y-101605280D03*
X93046250Y-102005280D03*
D16*
X93883750Y-102842780D03*
X94283750Y-102842780D03*
X94683750Y-102842780D03*
X95083750Y-102842780D03*
X95483750Y-102842780D03*
X95883750Y-102842780D03*
X96283750Y-102842780D03*
X96683750Y-102842780D03*
X97083750Y-102842780D03*
X97483750Y-102842780D03*
X97883750Y-102842780D03*
X98283750Y-102842780D03*
X98683750Y-102842780D03*
X99083750Y-102842780D03*
D17*
X99921250Y-102005280D03*
X99921250Y-101605280D03*
X99921250Y-101205280D03*
X99921250Y-100805280D03*
X99921250Y-100405280D03*
X99921250Y-100005280D03*
X99921250Y-99605280D03*
X99921250Y-99205280D03*
X99921250Y-98805280D03*
X99921250Y-98405280D03*
X99921250Y-98005280D03*
X99921250Y-97605280D03*
X99921250Y-97205280D03*
X99921250Y-96805280D03*
D16*
X99083750Y-95967780D03*
X98683750Y-95967780D03*
X98283750Y-95967780D03*
X97883750Y-95967780D03*
X97483750Y-95967780D03*
X97083750Y-95967780D03*
X96683750Y-95967780D03*
X96283750Y-95967780D03*
X95883750Y-95967780D03*
X95483750Y-95967780D03*
X95083750Y-95967780D03*
X94683750Y-95967780D03*
X94283750Y-95967780D03*
X93883750Y-95967780D03*
D29*
X95158750Y-107835280D03*
X96128750Y-107835280D03*
D31*
X98483750Y-92435280D03*
X98483750Y-93405280D03*
D27*
X95483750Y-92405280D03*
X95483750Y-91435280D03*
D29*
X101433750Y-95805280D03*
X102403750Y-95805280D03*
X95978750Y-106705280D03*
X96948750Y-106705280D03*
D15*
X94468750Y-110935280D03*
X99668750Y-110935280D03*
D32*
X102396250Y-88430280D03*
X100521250Y-88430280D03*
D22*
X93453750Y-78805280D03*
X94413750Y-78805280D03*
D33*
X99588750Y-76605280D03*
X98788750Y-76605280D03*
D34*
X97638750Y-76605280D03*
X96638750Y-76605280D03*
X96138750Y-76605280D03*
X95138750Y-76605280D03*
D33*
X93988750Y-76605280D03*
X93188750Y-76605280D03*
X93188750Y-76605280D03*
X93988750Y-76605280D03*
D34*
X94638750Y-76605280D03*
X95638750Y-76605280D03*
X97138750Y-76605280D03*
X98138750Y-76605280D03*
D33*
X98788750Y-76605280D03*
X99588750Y-76605280D03*
D35*
X100708750Y-76030280D03*
D36*
X100708750Y-71850280D03*
D35*
X92068750Y-76030280D03*
D36*
X92068750Y-71850280D03*
D23*
X100225000Y-78765280D03*
X99265000Y-78765280D03*
M02*
